<?xml version="1.0" encoding="utf-8"?>
<!-- Generator: Adobe Illustrator 22.0.0, SVG Export Plug-In . SVG Version: 6.00 Build 0)  -->
<svg version="1.1" id="Layer_1" xmlns="http://www.w3.org/2000/svg" xmlns:xlink="http://www.w3.org/1999/xlink" x="0px" y="0px"
	 viewBox="0 0 1200 587.7" style="enable-background:new 0 0 1200 587.7;" xml:space="preserve">
<style type="text/css">
	.st0{fill:#3FC6D6;stroke:#5C6783;stroke-width:2;}
	.st1{fill:none;stroke:#BCC1CD;stroke-width:2;stroke-linecap:round;stroke-linejoin:round;}
	.st2{fill:#BCC1CD;}
	.st3{fill:none;stroke:#BCC1CD;stroke-width:3;stroke-linecap:round;stroke-linejoin:round;}
	.st4{fill:none;stroke:#BCC1CD;stroke-width:3;stroke-linecap:round;stroke-linejoin:round;stroke-dasharray:0,7.9697;}
	.st5{fill:#FFFFFF;stroke:#5C6783;stroke-width:2;}
	.st6{fill:none;stroke:#5C6783;stroke-width:2;stroke-linecap:round;}
	.st7{fill:#A08AC9;stroke:#5C6783;stroke-width:2;}
	.st8{fill:#C5B1EC;stroke:#5C6783;stroke-width:2;}
	.st9{fill:#FFFFFF;}
	.st10{fill:none;stroke:#5C6783;stroke-width:2;}
	.st11{fill:#5C6783;}
	.st12{fill:#77E0E8;stroke:#5C6783;stroke-width:2;}
	.st13{fill:#9F8BC9;}
	.st14{fill:#3FC6D6;}
	.st15{fill:#FFDB03;stroke:#5C6783;stroke-width:2;stroke-linecap:round;stroke-linejoin:round;}
	.st16{fill:#F9FAFC;}
	.st17{fill:#A08AC9;stroke:#5C6783;stroke-width:2;stroke-linecap:round;stroke-linejoin:round;}
	.st18{fill:#FFFFFF;stroke:#BCC1CD;stroke-width:2;stroke-linecap:round;stroke-linejoin:round;}
	.st19{fill:none;stroke:#FFFFFF;stroke-width:2;stroke-linecap:round;stroke-linejoin:round;}
	.st20{fill:none;stroke:#BCC1CD;stroke-width:3;stroke-linecap:round;stroke-linejoin:round;stroke-dasharray:0,8;}
	.st21{fill:none;stroke:#5C6783;stroke-width:2;stroke-linecap:round;stroke-linejoin:round;}
	.st22{fill:#FFFFFF;stroke:#5C6783;stroke-width:2;stroke-linecap:round;stroke-linejoin:round;}
</style>
<g>
	<path class="st0" d="M1132.9,118.8c0-0.8,0.1-1.6,0.1-2.4c0-30.5-24.8-55.2-55.3-55.2c-21,0-40.3,12.2-49.5,30.8
		c-4.8-3.2-10.4-4.9-16.2-4.9c-15.6,0-28.3,12.1-29.4,27.4c-15.9,5.8-26.7,21-26.7,38.1c0,22.4,18.2,40.6,40.6,40.6h132.1
		c20.6,0,37.4-16.8,37.4-37.4C1166,136.8,1151.5,120.9,1132.9,118.8L1132.9,118.8z"/>
</g>
<g>
	<g>
		<path class="st1" d="M145.7,454.2c0-59.2,48-107.3,107.3-107.3h109.5"/>
		<g>
			<polygon class="st2" points="361,352 369.7,347 361,342 			"/>
		</g>
	</g>
</g>
<g>
	<g>
		<path class="st1" d="M145.7,110.5c0,59.2,48,107.3,107.3,107.3h109.5"/>
		<g>
			<polygon class="st2" points="361,222.8 369.7,217.8 361,212.8 			"/>
		</g>
	</g>
</g>
<g>
	<g>
		<line class="st1" x1="932.7" y1="421.3" x2="715.6" y2="421.3"/>
		<g>
			<polygon class="st2" points="931.3,416.3 939.9,421.3 931.3,426.3 			"/>
		</g>
	</g>
</g>
<g>
	<g>
		<line class="st3" x1="831.6" y1="-3" x2="831.6" y2="-3"/>
		<line class="st4" x1="831.6" y1="5" x2="831.6" y2="519"/>
		<line class="st3" x1="831.6" y1="523" x2="831.6" y2="523"/>
	</g>
</g>
<g>
	<g id="giovanni_6_" transform="translate(1599.000000, 1070.000000)">
		<g id="ear_8_" transform="translate(27.000000, 134.000000)">
			<path id="Shape-11-copy_8_" class="st5" d="M-1567-1105c-1.7,0.3-4.2,1.3-4.2,7.2c0,0.7,0.2,4.9,1.2,7.9c1,2.9,3.7,6.4,8,7.4
				c-0.5-7.3-1-22.1-1-22.1S-1565.3-1105.3-1567-1105z"/>
			<path id="Path_8_" class="st6" d="M-1563-1099.8c-2-0.9-3.2-0.7-3.7,0.7c-0.6,1.8-0.1,4.7,0.5,7.1"/>
		</g>
		
			<g id="ear_5_" transform="translate(243.000000, 168.500000) scale(-1, 1) translate(-243.000000, -168.500000) translate(229.000000, 134.000000)">
			<path id="Shape-11-copy_5_" class="st5" d="M1729.5-1105c-1.7,0.3-4.2,1.3-4.2,7.2c0,0.7,0.2,4.9,1.2,7.9c1,2.9,3.7,6.4,8,7.4
				c-0.5-7.3-1-22.1-1-22.1S1731.1-1105.3,1729.5-1105z"/>
			<path id="Path_5_" class="st6" d="M1733.4-1099.8c-2-0.9-3.2-0.7-3.7,0.7c-0.6,1.8-0.1,4.7,0.5,7.1"/>
		</g>
		<path id="Rounded-Rectangle-13-copy-4_6_" class="st7" d="M-1527.3-913.5c-13.2,0-24.8,11.2-25.6,25.8l-0.3,5.4h93.8l-0.2-5.4
			c-0.9-14.6-12.4-25.8-25.6-25.8H-1527.3z"/>
		<path id="Oval_3_" class="st8" d="M-1506.1-895.9c8.1,0,14.7-6.6,14.7-14.7c0-0.6-0.1-1.5-0.3-2.7l-28.9-0.1
			c-0.2,1.2-0.3,2.2-0.3,2.8C-1520.8-902.5-1514.2-895.9-1506.1-895.9z"/>
		<g id="Rectangle_4_">
			<g>
				<path id="path-1_4_" class="st9" d="M-1515.5-923.7h18.9v13.7l0,0c0,5.2-4.2,9.4-9.4,9.4l0,0l0,0c-5.2,0-9.4-4.2-9.4-9.4V-923.7
					z"/>
			</g>
			<path class="st10" d="M-1514.5-922.7v12.7c0,4.7,3.8,8.4,8.4,8.4c4.7,0,8.4-3.8,8.4-8.4v-12.7H-1514.5z"/>
		</g>
		<path id="_x33_-copy-5_4_" class="st5" d="M-1476.7-972.4l-0.8,20.5c-2.9,26.6-18.3,32.5-28.7,32.5c-10.5,0-26.2-6.6-28.7-32.5
			c0.3,0-0.8-20.5-0.8-20.5c0-23.6-0.9-34.6,29.5-33.7C-1471.8-1006.1-1476.7-996.2-1476.7-972.4z"/>
		<path id="Shape-6-copy-3_6_" class="st11" d="M-1524.7-996.7c0,0,28.4,15.1,40,0.9c0,0-0.8,2.3,2,11.9c1.7,5.7,4.6,7,5,11.8h1.9
			c0,0,2.6-20.6-3.6-30.3c0.8-1.3,5.7-6.8,3.6-8.8c-1.4-1.3-3.6,0-7.8,0c-5.1,0-7.6-4.4-22.3-4.1c-18.1,0.4-25.4,12.1-25.4,12.1
			s-7,6-4.8,30.5c0,0,1.6,0.6,1.5,0.6c-0.2,0,3.2-4.6,6.4-12C-1526.8-987.6-1527.9-994.3-1524.7-996.7z"/>
	</g>
	<g id="giovanni_8_" transform="translate(1599.000000, 1070.000000)">
		<g id="ear_12_" transform="translate(27.000000, 134.000000)">
			<path id="Shape-11-copy_12_" class="st5" d="M-1567-805.7c-1.7,0.3-4.2,1.3-4.2,7.2c0,0.7,0.2,4.9,1.2,7.9c1,2.9,3.7,6.4,8,7.4
				c-0.5-7.3-1-22.1-1-22.1C-1563.1-805.3-1565.3-806-1567-805.7z"/>
			<path id="Path_12_" class="st6" d="M-1563-800.5c-2-0.9-3.2-0.7-3.7,0.7c-0.6,1.8-0.1,4.7,0.5,7.1"/>
		</g>
		
			<g id="ear_9_" transform="translate(243.000000, 168.500000) scale(-1, 1) translate(-243.000000, -168.500000) translate(229.000000, 134.000000)">
			<path id="Shape-11-copy_9_" class="st5" d="M1729.5-805.7c-1.7,0.3-4.2,1.3-4.2,7.2c0,0.7,0.2,4.9,1.2,7.9c1,2.9,3.7,6.4,8,7.4
				c-0.5-7.3-1-22.1-1-22.1C1733.4-805.3,1731.1-806,1729.5-805.7z"/>
			<path id="Path_9_" class="st6" d="M1733.4-800.5c-2-0.9-3.2-0.7-3.7,0.7c-0.6,1.8-0.1,4.7,0.5,7.1"/>
		</g>
		<path id="Rounded-Rectangle-13-copy-4_8_" class="st0" d="M-1527.3-614.2c-13.2,0-24.8,11.2-25.6,25.8l-0.3,5.4h93.8l-0.2-5.4
			c-0.9-14.6-12.4-25.8-25.6-25.8H-1527.3z"/>
		<path id="Oval_4_" class="st12" d="M-1506.1-596.6c8.1,0,14.7-6.6,14.7-14.7c0-0.6-0.1-1.5-0.3-2.7l-28.9-0.1
			c-0.2,1.2-0.3,2.2-0.3,2.8C-1520.8-603.1-1514.2-596.6-1506.1-596.6z"/>
		<g id="Rectangle_6_">
			<g>
				<path id="path-1_5_" class="st9" d="M-1515.5-624.4h18.9v13.7l0,0c0,5.2-4.2,9.4-9.4,9.4l0,0l0,0c-5.2,0-9.4-4.2-9.4-9.4V-624.4
					z"/>
			</g>
			<path class="st10" d="M-1514.5-623.4v12.7c0,4.7,3.8,8.4,8.4,8.4c4.7,0,8.4-3.8,8.4-8.4v-12.7H-1514.5z"/>
		</g>
		<path id="_x33_-copy-5_6_" class="st5" d="M-1476.7-673.1l-0.8,20.5c-2.9,26.6-18.3,32.5-28.7,32.5c-10.5,0-26.2-6.6-28.7-32.5
			c0.3,0-0.8-20.5-0.8-20.5c0-23.6-0.9-34.6,29.5-33.7C-1471.8-706.8-1476.7-696.8-1476.7-673.1z"/>
		<path id="Shape-6-copy-3_8_" class="st11" d="M-1524.7-697.4c0,0,28.4,15.1,40,0.9c0,0-0.8,2.3,2,11.9c1.7,5.7,4.6,7,5,11.8h1.9
			c0,0,2.6-20.6-3.6-30.3c0.8-1.3,5.7-6.8,3.6-8.8c-1.4-1.3-3.6,0-7.8,0c-5.1,0-7.6-4.4-22.3-4.1c-18.1,0.4-25.4,12.1-25.4,12.1
			s-7,6-4.8,30.5c0,0,1.6,0.6,1.5,0.6c-0.2,0,3.2-4.6,6.4-12C-1526.8-688.3-1527.9-695-1524.7-697.4z"/>
	</g>
	<g>
		<g>
			<path class="st13" d="M55.4,209.2h2.6v9.8h-2.6V209.2z"/>
			<path class="st13" d="M65.8,211.6c-0.4-0.2-0.9-0.4-1.3-0.4c-0.5,0-0.9,0.1-1.4,0.4c-0.4,0.2-0.7,0.6-1,1s-0.3,0.9-0.3,1.4
				s0.1,1,0.3,1.4c0.2,0.4,0.6,0.8,1,1s0.9,0.4,1.4,0.4c0.4,0,0.8-0.1,1.3-0.3c0.4-0.2,0.8-0.5,1.2-0.8l1.5,1.6
				c-0.5,0.6-1.2,1-1.9,1.3c-0.7,0.3-1.5,0.5-2.2,0.5c-1,0-1.8-0.2-2.6-0.7s-1.4-1.1-1.8-1.8c-0.4-0.8-0.7-1.6-0.7-2.6
				c0-1,0.2-1.8,0.7-2.6c0.5-0.8,1.1-1.4,1.9-1.8c0.8-0.4,1.7-0.7,2.7-0.7c0.7,0,1.4,0.2,2.2,0.5c0.7,0.3,1.3,0.7,1.8,1.2l-1.5,1.8
				C66.6,212.1,66.2,211.8,65.8,211.6z"/>
			<path class="st13" d="M76.7,209.7c0.8,0.4,1.4,1,1.9,1.8c0.5,0.8,0.7,1.6,0.7,2.6c0,1-0.2,1.8-0.7,2.6s-1.1,1.4-1.9,1.8
				c-0.8,0.4-1.7,0.7-2.7,0.7c-1,0-1.9-0.2-2.7-0.7c-0.8-0.4-1.4-1.1-1.9-1.8s-0.7-1.6-0.7-2.6c0-1,0.2-1.8,0.7-2.6
				c0.5-0.8,1.1-1.4,1.9-1.8c0.8-0.4,1.7-0.7,2.7-0.7C75,209,75.9,209.3,76.7,209.7z M72.7,211.6c-0.4,0.3-0.7,0.6-1,1
				c-0.2,0.4-0.4,0.9-0.4,1.5c0,0.5,0.1,1,0.4,1.5s0.6,0.8,1,1c0.4,0.3,0.9,0.4,1.3,0.4s0.9-0.1,1.3-0.4c0.4-0.3,0.7-0.6,1-1
				s0.3-0.9,0.3-1.5c0-0.5-0.1-1-0.3-1.5s-0.6-0.8-1-1s-0.9-0.4-1.3-0.4S73.1,211.3,72.7,211.6z"/>
			<path class="st13" d="M91.1,209.7c0.8,0.4,1.4,1,1.9,1.8c0.5,0.8,0.7,1.6,0.7,2.6c0,1-0.2,1.8-0.7,2.6s-1.1,1.4-1.9,1.8
				c-0.8,0.4-1.7,0.7-2.7,0.7c-1,0-1.9-0.2-2.7-0.7c-0.8-0.4-1.4-1.1-1.9-1.8s-0.7-1.6-0.7-2.6c0-1,0.2-1.8,0.7-2.6
				c0.5-0.8,1.1-1.4,1.9-1.8c0.8-0.4,1.7-0.7,2.7-0.7C89.4,209,90.3,209.3,91.1,209.7z M87.1,211.6c-0.4,0.3-0.7,0.6-1,1
				c-0.2,0.4-0.4,0.9-0.4,1.5c0,0.5,0.1,1,0.4,1.5s0.6,0.8,1,1c0.4,0.3,0.9,0.4,1.3,0.4s0.9-0.1,1.3-0.4c0.4-0.3,0.7-0.6,1-1
				s0.3-0.9,0.3-1.5c0-0.5-0.1-1-0.3-1.5s-0.6-0.8-1-1s-0.9-0.4-1.3-0.4S87.5,211.3,87.1,211.6z"/>
			<path class="st13" d="M93.9,211.4h2.5l1.5,5.1l1.5-5.1h2.4l1.5,5.1l1.5-5.1h2.4l-2.8,7.6H102l-1.4-4.7l-1.5,4.7h-2.5L93.9,211.4z
				"/>
			<path class="st13" d="M115.1,212.1c0.5,0.5,0.7,1.2,0.7,2.1v4.8h-2.5V215c0-0.4-0.1-0.8-0.3-1s-0.5-0.4-0.9-0.4
				c-0.4,0-0.7,0.1-1,0.4c-0.3,0.3-0.4,0.6-0.5,1v4h-2.5v-7.6h2.5v1.2c0.3-0.4,0.6-0.8,1-1c0.4-0.2,0.9-0.3,1.5-0.3
				C114,211.3,114.6,211.6,115.1,212.1z"/>
			<path class="st13" d="M123.8,212.4c0.7,0.7,1,1.7,1,3c0,0.2,0,0.3,0,0.4h-5.3c0.1,0.4,0.3,0.8,0.6,1c0.3,0.2,0.7,0.3,1.1,0.3
				c0.3,0,0.6-0.1,0.9-0.2c0.3-0.1,0.6-0.3,0.8-0.6l1.3,1.3c-0.4,0.4-0.9,0.8-1.4,1c-0.6,0.2-1.2,0.3-1.9,0.3
				c-0.8,0-1.5-0.2-2.1-0.5c-0.6-0.3-1.1-0.8-1.4-1.3c-0.3-0.6-0.5-1.3-0.5-2c0-0.8,0.2-1.5,0.5-2.1c0.3-0.6,0.8-1,1.4-1.4
				c0.6-0.3,1.3-0.5,2.1-0.5C122.1,211.4,123.1,211.7,123.8,212.4z M122.3,214.6c0-0.4-0.1-0.8-0.4-1.1c-0.3-0.3-0.6-0.4-1-0.4
				c-0.4,0-0.7,0.1-1,0.4c-0.3,0.3-0.4,0.6-0.5,1.1H122.3z"/>
			<path class="st13" d="M129.5,211.7c0.4-0.2,0.9-0.3,1.4-0.3v2.3c-0.1,0-0.2,0-0.4,0c-0.6,0-1.1,0.1-1.4,0.4s-0.6,0.7-0.6,1.1v3.9
				H126v-7.6h2.5v1.3C128.8,212.3,129.1,211.9,129.5,211.7z"/>
		</g>
	</g>
	<g>
		<g>
			<path class="st14" d="M55.5,504.2h7.7v2H58v1.8h4.7v2l-4.7,0v1.8h5.3v2h-7.9V504.2z"/>
			<path class="st14" d="M64.2,506.4H67l1.2,2.1l1.3-2.1h2.7l-2.4,3.7l2.6,3.9h-2.9l-1.3-2.3l-1.5,2.3H64l2.6-3.9L64.2,506.4z"/>
			<path class="st14" d="M76.5,508.4c-0.4,0-0.8,0.2-1.1,0.5c-0.3,0.3-0.4,0.8-0.4,1.3c0,0.6,0.1,1,0.4,1.3c0.3,0.3,0.6,0.5,1.1,0.5
				c0.7,0,1.2-0.3,1.5-0.9l1.8,1c-0.3,0.6-0.7,1-1.3,1.3c-0.6,0.3-1.3,0.5-2.1,0.5c-0.8,0-1.5-0.2-2-0.5c-0.6-0.3-1-0.8-1.4-1.3
				c-0.3-0.6-0.5-1.3-0.5-2c0-0.8,0.2-1.5,0.5-2.1c0.3-0.6,0.8-1,1.4-1.4c0.6-0.3,1.3-0.5,2.1-0.5c0.8,0,1.4,0.2,2,0.5
				c0.6,0.3,1,0.8,1.4,1.3l-1.8,1C77.6,508.7,77.1,508.4,76.5,508.4z"/>
			<path class="st14" d="M88,507.1c0.5,0.5,0.7,1.2,0.7,2.1v4.8h-2.5V510c0-0.4-0.1-0.8-0.3-1s-0.5-0.4-0.9-0.4
				c-0.5,0-0.8,0.2-1.1,0.5s-0.4,0.7-0.4,1.2v3.7H81v-10.4h2.5v4c0.3-0.4,0.6-0.8,1-1c0.4-0.2,0.9-0.3,1.5-0.3
				C86.9,506.3,87.5,506.6,88,507.1z"/>
			<path class="st14" d="M96.3,507.1c0.6,0.5,0.9,1.2,0.9,2v4.9h-2.5v-0.9c-0.5,0.6-1.3,1-2.3,1c-0.8,0-1.4-0.2-1.9-0.7
				c-0.5-0.4-0.7-1-0.7-1.7c0-0.7,0.3-1.3,0.7-1.7c0.5-0.4,1.2-0.6,2.1-0.6h2v-0.1c0-0.4-0.1-0.6-0.4-0.8c-0.2-0.2-0.6-0.3-1.1-0.3
				c-0.3,0-0.7,0.1-1.1,0.2c-0.4,0.1-0.8,0.3-1.2,0.4l-0.7-1.7c0.6-0.3,1.2-0.5,1.8-0.6c0.6-0.1,1.2-0.2,1.8-0.2
				C94.9,506.3,95.7,506.6,96.3,507.1z M94.2,512.2c0.3-0.2,0.5-0.4,0.5-0.7v-0.7h-1.5c-0.7,0-1,0.3-1,0.8c0,0.3,0.1,0.5,0.3,0.6
				c0.2,0.2,0.4,0.2,0.7,0.2C93.6,512.4,93.9,512.3,94.2,512.2z"/>
			<path class="st14" d="M105.9,507.1c0.5,0.5,0.7,1.2,0.7,2.1v4.8h-2.5V510c0-0.4-0.1-0.8-0.3-1c-0.2-0.2-0.5-0.4-0.9-0.4
				c-0.4,0-0.7,0.1-1,0.4c-0.3,0.3-0.4,0.6-0.5,1v4h-2.5v-7.6h2.5v1.2c0.3-0.4,0.6-0.8,1-1c0.4-0.2,0.9-0.3,1.5-0.3
				C104.7,506.3,105.4,506.6,105.9,507.1z"/>
			<path class="st14" d="M115.6,506.4v6.9c0,0.7-0.2,1.3-0.5,1.8s-0.8,0.9-1.4,1.2c-0.6,0.3-1.3,0.4-2.1,0.4c-0.6,0-1.2-0.1-1.8-0.3
				c-0.6-0.2-1.1-0.4-1.6-0.7l0.9-1.7c0.3,0.2,0.7,0.4,1.1,0.5c0.4,0.1,0.8,0.2,1.2,0.2c0.6,0,1-0.1,1.3-0.4
				c0.3-0.3,0.5-0.6,0.5-1.1v-0.8c-0.5,0.7-1.2,1-2.2,1c-0.6,0-1.2-0.2-1.7-0.5c-0.5-0.3-0.9-0.7-1.1-1.3c-0.3-0.6-0.4-1.2-0.4-1.9
				c0-0.7,0.1-1.3,0.4-1.9c0.3-0.5,0.6-1,1.1-1.3s1-0.4,1.7-0.4c0.5,0,0.9,0.1,1.3,0.3c0.4,0.2,0.7,0.4,0.9,0.7v-0.9H115.6z
				 M112.7,511.3c0.3-0.3,0.4-0.8,0.4-1.3c0-0.5-0.1-1-0.4-1.3c-0.3-0.3-0.6-0.5-1.1-0.5c-0.5,0-0.8,0.2-1.1,0.5s-0.4,0.8-0.4,1.3
				s0.1,0.9,0.4,1.3c0.3,0.3,0.7,0.5,1.1,0.5C112,511.8,112.4,511.6,112.7,511.3z"/>
			<path class="st14" d="M123.5,507.4c0.7,0.7,1,1.7,1,3c0,0.2,0,0.3,0,0.4h-5.3c0.1,0.4,0.3,0.8,0.6,1c0.3,0.2,0.7,0.3,1.1,0.3
				c0.3,0,0.6-0.1,0.9-0.2c0.3-0.1,0.6-0.3,0.8-0.6l1.3,1.3c-0.4,0.4-0.9,0.8-1.4,1c-0.6,0.2-1.2,0.3-1.9,0.3
				c-0.8,0-1.5-0.2-2.1-0.5c-0.6-0.3-1.1-0.8-1.4-1.3c-0.3-0.6-0.5-1.3-0.5-2c0-0.8,0.2-1.5,0.5-2.1c0.3-0.6,0.8-1,1.4-1.4
				c0.6-0.3,1.3-0.5,2.1-0.5C121.9,506.4,122.9,506.7,123.5,507.4z M122.1,509.6c0-0.4-0.1-0.8-0.4-1.1c-0.3-0.3-0.6-0.4-1-0.4
				c-0.4,0-0.7,0.1-1,0.4c-0.3,0.3-0.4,0.6-0.5,1.1H122.1z"/>
			<path class="st14" d="M129.3,506.7c0.4-0.2,0.9-0.3,1.4-0.3v2.3c-0.1,0-0.2,0-0.4,0c-0.6,0-1.1,0.1-1.4,0.4
				c-0.4,0.3-0.6,0.7-0.6,1.1v3.9h-2.5v-7.6h2.5v1.3C128.6,507.3,128.9,506.9,129.3,506.7z"/>
		</g>
	</g>
</g>
<g>
	<path class="st15" d="M328.3,366.9H216.7c-11,0-20-9-20-20v0c0-11,9-20,20-20h111.7c11,0,20,9,20,20v0
		C348.3,357.9,339.4,366.9,328.3,366.9z"/>
	<g>
		<g>
			<path class="st11" d="M239.3,342.4c0.5,0.2,1,0.5,1.3,0.9c0.3,0.4,0.4,0.8,0.4,1.3c0,0.5-0.2,1-0.5,1.3s-0.7,0.6-1.2,0.8
				c0.6,0.1,1.1,0.4,1.5,0.9c0.4,0.4,0.5,1,0.5,1.6c0,0.6-0.2,1-0.5,1.4c-0.3,0.4-0.7,0.7-1.3,1c-0.6,0.2-1.2,0.3-2,0.3h-4.8v-9.8
				h4.7C238.1,342.1,238.7,342.2,239.3,342.4z M238,345.8c0.2-0.2,0.3-0.4,0.3-0.7c0-0.3-0.1-0.5-0.3-0.7c-0.2-0.2-0.5-0.2-0.8-0.2
				h-2v1.9h2C237.5,346.1,237.8,346,238,345.8z M238.3,349.7c0.3-0.2,0.4-0.4,0.4-0.8c0-0.3-0.1-0.6-0.4-0.7
				c-0.3-0.2-0.6-0.3-1.1-0.3h-2v2.1h2C237.6,350,238,349.9,238.3,349.7z"/>
			<path class="st11" d="M250.1,344.4v7.6h-2.5v-1.2c-0.5,0.9-1.3,1.3-2.4,1.3c-0.8,0-1.5-0.3-2-0.8c-0.5-0.5-0.7-1.2-0.7-2.1v-4.8
				h2.5v4.1c0,0.4,0.1,0.8,0.3,1s0.5,0.4,0.9,0.4c0.4,0,0.8-0.2,1-0.5s0.4-0.7,0.4-1.2v-3.7H250.1z"/>
			<path class="st11" d="M254.9,354.3c-0.5,0.3-1.1,0.5-1.8,0.5c-0.4,0-0.8-0.1-1.2-0.2c-0.4-0.1-0.7-0.3-1.1-0.6l1-1.7
				c0.2,0.1,0.3,0.3,0.5,0.3c0.2,0.1,0.3,0.1,0.5,0.1c0.4,0,0.7-0.2,0.9-0.6l0.2-0.3l-3.1-7.4h2.6l1.8,4.9l1.6-4.9h2.5l-3.2,8.3
				C255.8,353.4,255.4,353.9,254.9,354.3z"/>
			<path class="st11" d="M262.4,342.1h8.4v2.1h-2.9v7.7h-2.6v-7.7h-2.9V342.1z"/>
			<path class="st11" d="M276.7,344.8c0.6,0.3,1.1,0.8,1.5,1.4c0.3,0.6,0.5,1.3,0.5,2c0,0.8-0.2,1.5-0.5,2c-0.3,0.6-0.8,1-1.5,1.4
				c-0.6,0.3-1.3,0.5-2.2,0.5s-1.5-0.2-2.2-0.5c-0.6-0.3-1.1-0.8-1.4-1.4c-0.3-0.6-0.5-1.3-0.5-2c0-0.8,0.2-1.4,0.5-2
				c0.3-0.6,0.8-1,1.4-1.4s1.3-0.5,2.2-0.5S276,344.5,276.7,344.8z M273.3,346.8c-0.3,0.3-0.4,0.8-0.4,1.4c0,0.6,0.1,1,0.4,1.4
				c0.3,0.3,0.7,0.5,1.2,0.5c0.5,0,0.9-0.2,1.2-0.5c0.3-0.3,0.4-0.8,0.4-1.4c0-0.6-0.2-1-0.5-1.4c-0.3-0.3-0.7-0.5-1.2-0.5
				S273.6,346.5,273.3,346.8z"/>
			<path class="st11" d="M284.8,352l-1.6-2.9l-0.8,0.8v2.1H280v-10.4h2.5v5.4l2.4-2.6h2.8l-2.8,2.9l2.8,4.6H284.8z"/>
			<path class="st11" d="M294.5,345.4c0.7,0.7,1,1.7,1,3c0,0.2,0,0.3,0,0.4h-5.3c0.1,0.4,0.3,0.8,0.6,1c0.3,0.2,0.7,0.3,1.1,0.3
				c0.3,0,0.6-0.1,0.9-0.2s0.6-0.3,0.8-0.6l1.3,1.3c-0.4,0.4-0.9,0.8-1.4,1c-0.6,0.2-1.2,0.3-1.9,0.3c-0.8,0-1.5-0.2-2.1-0.5
				c-0.6-0.3-1.1-0.8-1.4-1.3c-0.3-0.6-0.5-1.3-0.5-2c0-0.8,0.2-1.5,0.5-2.1c0.3-0.6,0.8-1.1,1.4-1.4s1.3-0.5,2.1-0.5
				C292.9,344.3,293.9,344.7,294.5,345.4z M293.1,347.5c0-0.4-0.1-0.8-0.4-1.1s-0.6-0.4-1-0.4c-0.4,0-0.7,0.1-1,0.4
				c-0.3,0.3-0.4,0.6-0.5,1.1H293.1z"/>
			<path class="st11" d="M303.8,345.1c0.5,0.5,0.7,1.2,0.7,2.1v4.8h-2.5v-4.1c0-0.4-0.1-0.8-0.3-1c-0.2-0.2-0.5-0.4-0.9-0.4
				c-0.4,0-0.7,0.1-1,0.4c-0.3,0.3-0.4,0.6-0.5,1v4h-2.5v-7.6h2.5v1.2c0.3-0.4,0.6-0.8,1-1c0.4-0.2,0.9-0.3,1.5-0.3
				C302.6,344.3,303.3,344.5,303.8,345.1z"/>
			<path class="st11" d="M308.9,346c-0.2,0-0.4,0-0.5,0.1c-0.1,0.1-0.2,0.2-0.2,0.4c0,0.2,0.1,0.3,0.3,0.4s0.5,0.2,1,0.3
				c0.5,0.2,1,0.3,1.4,0.5s0.7,0.4,0.9,0.7c0.3,0.3,0.4,0.7,0.4,1.2c0,0.8-0.3,1.4-0.9,1.8s-1.4,0.7-2.3,0.7c-0.6,0-1.3-0.1-1.8-0.3
				c-0.6-0.2-1.1-0.4-1.6-0.8l0.8-1.6c0.4,0.3,0.9,0.5,1.4,0.7c0.5,0.2,0.9,0.2,1.3,0.2c0.2,0,0.4,0,0.6-0.1
				c0.1-0.1,0.2-0.2,0.2-0.3c0-0.2-0.1-0.3-0.3-0.4c-0.2-0.1-0.5-0.2-1-0.3c-0.5-0.2-1-0.3-1.3-0.5s-0.6-0.4-0.9-0.7
				c-0.3-0.3-0.4-0.7-0.4-1.2c0-0.8,0.3-1.4,0.9-1.8c0.6-0.4,1.3-0.7,2.2-0.7c0.6,0,1.1,0.1,1.6,0.2c0.5,0.2,1,0.4,1.5,0.7l-0.8,1.6
				C310.3,346.3,309.5,346,308.9,346z"/>
		</g>
	</g>
	<path class="st0" d="M328.3,238H216.7c-11,0-20-9-20-20v0c0-11,9-20,20-20h111.7c11,0,20,9,20,20v0C348.3,229,339.4,238,328.3,238z
		"/>
	<g>
		<g>
			<path class="st9" d="M249.1,223l-1.4-2.7h-0.1h-1.8v2.7h-2.6v-9.8h4.4c1.3,0,2.3,0.3,3,0.9s1.1,1.4,1.1,2.5
				c0,0.7-0.1,1.4-0.4,1.9c-0.3,0.5-0.7,1-1.3,1.3l2,3.2H249.1z M245.7,218.3h1.9c0.5,0,0.9-0.1,1.2-0.4c0.3-0.3,0.4-0.6,0.4-1.1
				c0-0.5-0.1-0.8-0.4-1.1c-0.3-0.3-0.7-0.4-1.2-0.4h-1.9V218.3z"/>
			<path class="st9" d="M259.5,216.5c0.7,0.7,1,1.7,1,3c0,0.2,0,0.3,0,0.4h-5.3c0.1,0.4,0.3,0.8,0.6,1c0.3,0.2,0.7,0.3,1.1,0.3
				c0.3,0,0.6-0.1,0.9-0.2c0.3-0.1,0.6-0.3,0.8-0.6l1.3,1.3c-0.4,0.4-0.9,0.8-1.4,1c-0.6,0.2-1.2,0.3-1.9,0.3
				c-0.8,0-1.5-0.2-2.1-0.5c-0.6-0.3-1.1-0.8-1.4-1.3c-0.3-0.6-0.5-1.3-0.5-2c0-0.8,0.2-1.5,0.5-2.1c0.3-0.6,0.8-1,1.4-1.4
				s1.3-0.5,2.1-0.5C257.9,215.4,258.8,215.7,259.5,216.5z M258.1,218.6c0-0.4-0.1-0.8-0.4-1.1c-0.3-0.3-0.6-0.4-1-0.4
				c-0.4,0-0.7,0.1-1,0.4s-0.4,0.6-0.5,1.1H258.1z"/>
			<path class="st9" d="M269,215.5v6.9c0,0.7-0.2,1.3-0.5,1.8s-0.8,0.9-1.4,1.2c-0.6,0.3-1.3,0.4-2.1,0.4c-0.6,0-1.2-0.1-1.8-0.3
				s-1.1-0.4-1.6-0.7l0.9-1.7c0.3,0.2,0.7,0.4,1.1,0.5s0.8,0.2,1.2,0.2c0.6,0,1-0.1,1.3-0.4s0.5-0.6,0.5-1.1v-0.8
				c-0.5,0.7-1.2,1-2.2,1c-0.6,0-1.2-0.2-1.7-0.5c-0.5-0.3-0.9-0.7-1.1-1.3s-0.4-1.2-0.4-1.9c0-0.7,0.1-1.3,0.4-1.9
				c0.3-0.5,0.6-1,1.1-1.3s1-0.4,1.7-0.4c0.5,0,0.9,0.1,1.3,0.3c0.4,0.2,0.7,0.4,0.9,0.7v-0.9H269z M266.1,220.3
				c0.3-0.3,0.4-0.8,0.4-1.3c0-0.5-0.1-1-0.4-1.3c-0.3-0.3-0.6-0.5-1.1-0.5c-0.5,0-0.8,0.2-1.1,0.5c-0.3,0.3-0.4,0.8-0.4,1.3
				c0,0.5,0.1,0.9,0.4,1.3c0.3,0.3,0.7,0.5,1.1,0.5C265.5,220.8,265.8,220.6,266.1,220.3z"/>
			<path class="st9" d="M273,212.4c0.2,0.2,0.4,0.6,0.4,1c0,0.4-0.1,0.7-0.4,1c-0.2,0.3-0.6,0.4-0.9,0.4s-0.7-0.1-0.9-0.4
				c-0.2-0.3-0.4-0.6-0.4-1c0-0.4,0.1-0.7,0.4-1c0.2-0.2,0.6-0.4,0.9-0.4S272.7,212.1,273,212.4z M270.8,215.5h2.5v7.6h-2.5V215.5z"
				/>
			<path class="st9" d="M277.9,217.1c-0.2,0-0.4,0-0.5,0.1c-0.1,0.1-0.2,0.2-0.2,0.4c0,0.2,0.1,0.3,0.3,0.4c0.2,0.1,0.5,0.2,1,0.3
				c0.5,0.2,1,0.3,1.4,0.5c0.4,0.2,0.7,0.4,0.9,0.7c0.3,0.3,0.4,0.7,0.4,1.2c0,0.8-0.3,1.4-0.9,1.8s-1.4,0.7-2.3,0.7
				c-0.6,0-1.3-0.1-1.8-0.3s-1.1-0.5-1.6-0.8l0.8-1.6c0.4,0.3,0.9,0.5,1.4,0.7c0.5,0.2,0.9,0.2,1.3,0.2c0.2,0,0.4,0,0.6-0.1
				c0.1-0.1,0.2-0.2,0.2-0.3c0-0.2-0.1-0.3-0.3-0.4c-0.2-0.1-0.5-0.2-1-0.3c-0.5-0.2-1-0.3-1.3-0.5s-0.6-0.4-0.9-0.7
				c-0.3-0.3-0.4-0.7-0.4-1.2c0-0.8,0.3-1.4,0.9-1.8c0.6-0.4,1.3-0.7,2.2-0.7c0.6,0,1.1,0.1,1.6,0.2c0.5,0.1,1,0.4,1.5,0.7l-0.8,1.6
				C279.3,217.3,278.5,217.1,277.9,217.1z"/>
			<path class="st9" d="M287.4,222.7c-0.3,0.2-0.6,0.3-1,0.4c-0.4,0.1-0.7,0.1-1.1,0.1c-0.7,0-1.4-0.2-1.8-0.6s-0.7-1-0.7-1.8v-3.2
				h-1v-1.7h1v-2.1h2.5v2.1h2v1.7h-2v2.9c0,0.5,0.2,0.8,0.7,0.8c0.3,0,0.6-0.1,1-0.3L287.4,222.7z"/>
			<path class="st9" d="M294.7,216.5c0.7,0.7,1,1.7,1,3c0,0.2,0,0.3,0,0.4h-5.3c0.1,0.4,0.3,0.8,0.6,1c0.3,0.2,0.7,0.3,1.1,0.3
				c0.3,0,0.6-0.1,0.9-0.2c0.3-0.1,0.6-0.3,0.8-0.6l1.3,1.3c-0.4,0.4-0.9,0.8-1.4,1c-0.6,0.2-1.2,0.3-1.9,0.3
				c-0.8,0-1.5-0.2-2.1-0.5c-0.6-0.3-1.1-0.8-1.4-1.3c-0.3-0.6-0.5-1.3-0.5-2c0-0.8,0.2-1.5,0.5-2.1c0.3-0.6,0.8-1,1.4-1.4
				s1.3-0.5,2.1-0.5C293.1,215.4,294,215.7,294.7,216.5z M293.3,218.6c0-0.4-0.1-0.8-0.4-1.1c-0.3-0.3-0.6-0.4-1-0.4
				c-0.4,0-0.7,0.1-1,0.4s-0.4,0.6-0.5,1.1H293.3z"/>
			<path class="st9" d="M300.5,215.7c0.4-0.2,0.9-0.3,1.4-0.3v2.3c-0.1,0-0.2,0-0.4,0c-0.6,0-1.1,0.1-1.4,0.4
				c-0.4,0.3-0.6,0.7-0.6,1.1v3.9H297v-7.6h2.5v1.3C299.7,216.3,300.1,216,300.5,215.7z"/>
		</g>
	</g>
</g>
<g>
	<path class="st15" d="M1162.9,455h-203c-2.2,0-4-1.8-4-4v-59.8c0-2.2,1.8-4,4-4h203c2.2,0,4,1.8,4,4V451
		C1166.9,453.3,1165.1,455,1162.9,455z"/>
	<g>
		<g>
			<path class="st11" d="M999.4,408.2c0.8,0.4,1.4,1,1.9,1.8s0.7,1.6,0.7,2.6c0,1-0.2,1.8-0.7,2.6c-0.5,0.8-1.1,1.4-1.9,1.8
				c-0.8,0.4-1.7,0.7-2.7,0.7c-1,0-1.9-0.2-2.7-0.7c-0.8-0.4-1.4-1.1-1.9-1.8c-0.5-0.8-0.7-1.6-0.7-2.6c0-1,0.2-1.8,0.7-2.6
				s1.1-1.4,1.9-1.8c0.8-0.4,1.7-0.7,2.7-0.7C997.7,407.5,998.6,407.8,999.4,408.2z M995.4,410.1c-0.4,0.3-0.7,0.6-1,1
				c-0.2,0.4-0.4,0.9-0.4,1.5c0,0.5,0.1,1,0.4,1.5s0.6,0.8,1,1c0.4,0.3,0.9,0.4,1.3,0.4s0.9-0.1,1.3-0.4s0.7-0.6,1-1
				s0.3-0.9,0.3-1.5c0-0.5-0.1-1-0.3-1.5s-0.6-0.8-1-1s-0.9-0.4-1.3-0.4S995.8,409.8,995.4,410.1z"/>
			<path class="st11" d="M1006.8,410.2c0.4-0.2,0.9-0.3,1.4-0.3v2.3c-0.1,0-0.2,0-0.4,0c-0.6,0-1.1,0.1-1.4,0.4s-0.6,0.7-0.6,1.1
				v3.9h-2.5v-7.6h2.5v1.3C1006,410.8,1006.3,410.4,1006.8,410.2z"/>
			<path class="st11" d="M1016.9,407.1v10.4h-2.5v-1c-0.3,0.4-0.6,0.6-1,0.8c-0.4,0.2-0.8,0.3-1.3,0.3c-0.7,0-1.3-0.2-1.8-0.5
				c-0.5-0.3-0.9-0.8-1.2-1.4c-0.3-0.6-0.4-1.3-0.4-2.1c0-0.8,0.1-1.4,0.4-2s0.7-1,1.2-1.3c0.5-0.3,1.1-0.5,1.8-0.5
				c0.5,0,0.9,0.1,1.3,0.3c0.4,0.2,0.7,0.5,1,0.8v-3.8H1016.9z M1014,415.1c0.3-0.4,0.4-0.8,0.4-1.4c0-0.6-0.1-1-0.4-1.4
				c-0.3-0.3-0.7-0.5-1.2-0.5s-0.9,0.2-1.2,0.5c-0.3,0.4-0.5,0.8-0.5,1.4s0.2,1,0.5,1.4c0.3,0.3,0.7,0.5,1.2,0.5
				S1013.7,415.5,1014,415.1z"/>
			<path class="st11" d="M1025.1,410.9c0.7,0.7,1,1.7,1,3c0,0.2,0,0.3,0,0.4h-5.3c0.1,0.4,0.3,0.8,0.6,1c0.3,0.2,0.7,0.3,1.1,0.3
				c0.3,0,0.6-0.1,0.9-0.2c0.3-0.1,0.6-0.3,0.8-0.6l1.3,1.3c-0.4,0.4-0.9,0.8-1.4,1c-0.6,0.2-1.2,0.3-1.9,0.3
				c-0.8,0-1.5-0.2-2.1-0.5s-1.1-0.8-1.4-1.3c-0.3-0.6-0.5-1.3-0.5-2c0-0.8,0.2-1.5,0.5-2.1s0.8-1,1.4-1.4c0.6-0.3,1.3-0.5,2.1-0.5
				C1023.5,409.8,1024.4,410.2,1025.1,410.9z M1023.6,413.1c0-0.4-0.1-0.8-0.4-1.1c-0.3-0.3-0.6-0.4-1-0.4c-0.4,0-0.7,0.1-1,0.4
				c-0.3,0.3-0.4,0.6-0.5,1.1H1023.6z"/>
			<path class="st11" d="M1030.8,410.2c0.4-0.2,0.9-0.3,1.4-0.3v2.3c-0.1,0-0.2,0-0.4,0c-0.6,0-1.1,0.1-1.4,0.4
				c-0.4,0.3-0.6,0.7-0.6,1.1v3.9h-2.5v-7.6h2.5v1.3C1030.1,410.8,1030.4,410.4,1030.8,410.2z"/>
			<path class="st11" d="M1036.5,407.7h2.8l2.8,5.7l2.8-5.7h2.8v9.8h-2.3l0-6.2l-2.5,5.2h-1.7l-2.5-5.2v6.2h-2.3V407.7z"/>
			<path class="st11" d="M1055.5,410.6c0.6,0.5,0.9,1.2,0.9,2v4.9h-2.5v-0.9c-0.5,0.6-1.3,1-2.3,1c-0.8,0-1.4-0.2-1.9-0.7
				s-0.7-1-0.7-1.7c0-0.7,0.3-1.3,0.7-1.7s1.2-0.6,2.1-0.6h2v-0.1c0-0.4-0.1-0.6-0.4-0.8c-0.2-0.2-0.6-0.3-1.1-0.3
				c-0.3,0-0.7,0.1-1.1,0.2c-0.4,0.1-0.8,0.3-1.2,0.4l-0.7-1.7c0.6-0.3,1.2-0.5,1.8-0.6c0.6-0.1,1.2-0.2,1.8-0.2
				C1054.1,409.8,1054.9,410.1,1055.5,410.6z M1053.4,415.6c0.3-0.2,0.5-0.4,0.5-0.7v-0.7h-1.5c-0.7,0-1,0.3-1,0.8
				c0,0.3,0.1,0.5,0.3,0.6c0.2,0.2,0.4,0.2,0.7,0.2C1052.8,415.9,1053.1,415.8,1053.4,415.6z"/>
			<path class="st11" d="M1065,410.6c0.5,0.5,0.7,1.2,0.7,2.1v4.8h-2.5v-4.1c0-0.4-0.1-0.8-0.3-1c-0.2-0.2-0.5-0.4-0.9-0.4
				c-0.4,0-0.7,0.1-1,0.4c-0.3,0.3-0.4,0.6-0.5,1v4h-2.5v-7.6h2.5v1.2c0.3-0.4,0.6-0.8,1-1s0.9-0.3,1.5-0.3
				C1063.9,409.8,1064.5,410.1,1065,410.6z"/>
			<path class="st11" d="M1073.3,410.6c0.6,0.5,0.9,1.2,0.9,2v4.9h-2.5v-0.9c-0.5,0.6-1.3,1-2.3,1c-0.8,0-1.4-0.2-1.9-0.7
				s-0.7-1-0.7-1.7c0-0.7,0.3-1.3,0.7-1.7s1.2-0.6,2.1-0.6h2v-0.1c0-0.4-0.1-0.6-0.4-0.8c-0.2-0.2-0.6-0.3-1.1-0.3
				c-0.3,0-0.7,0.1-1.1,0.2c-0.4,0.1-0.8,0.3-1.2,0.4l-0.7-1.7c0.6-0.3,1.2-0.5,1.8-0.6c0.6-0.1,1.2-0.2,1.8-0.2
				C1071.9,409.8,1072.7,410.1,1073.3,410.6z M1071.2,415.6c0.3-0.2,0.5-0.4,0.5-0.7v-0.7h-1.5c-0.7,0-1,0.3-1,0.8
				c0,0.3,0.1,0.5,0.3,0.6c0.2,0.2,0.4,0.2,0.7,0.2C1070.6,415.9,1070.9,415.8,1071.2,415.6z"/>
			<path class="st11" d="M1083.1,409.9v6.9c0,0.7-0.2,1.3-0.5,1.8c-0.3,0.5-0.8,0.9-1.4,1.2c-0.6,0.3-1.3,0.4-2.1,0.4
				c-0.6,0-1.2-0.1-1.8-0.3s-1.1-0.4-1.6-0.7l0.9-1.7c0.3,0.2,0.7,0.4,1.1,0.5s0.8,0.2,1.2,0.2c0.6,0,1-0.1,1.3-0.4
				c0.3-0.3,0.5-0.6,0.5-1.1v-0.8c-0.5,0.7-1.2,1-2.2,1c-0.6,0-1.2-0.2-1.7-0.5c-0.5-0.3-0.9-0.7-1.1-1.3c-0.3-0.6-0.4-1.2-0.4-1.9
				c0-0.7,0.1-1.3,0.4-1.9c0.3-0.5,0.6-1,1.1-1.3s1-0.4,1.7-0.4c0.5,0,0.9,0.1,1.3,0.3c0.4,0.2,0.7,0.4,0.9,0.7v-0.9H1083.1z
				 M1080.2,414.8c0.3-0.3,0.4-0.8,0.4-1.3c0-0.5-0.1-1-0.4-1.3c-0.3-0.3-0.6-0.5-1.1-0.5s-0.8,0.2-1.1,0.5
				c-0.3,0.3-0.4,0.8-0.4,1.3s0.1,0.9,0.4,1.3c0.3,0.3,0.7,0.5,1.1,0.5S1079.9,415.1,1080.2,414.8z"/>
			<path class="st11" d="M1091.1,410.9c0.7,0.7,1,1.7,1,3c0,0.2,0,0.3,0,0.4h-5.3c0.1,0.4,0.3,0.8,0.6,1s0.7,0.3,1.1,0.3
				c0.3,0,0.6-0.1,0.9-0.2c0.3-0.1,0.6-0.3,0.8-0.6l1.3,1.3c-0.4,0.4-0.9,0.8-1.4,1s-1.2,0.3-1.9,0.3c-0.8,0-1.5-0.2-2.1-0.5
				c-0.6-0.3-1.1-0.8-1.4-1.3c-0.3-0.6-0.5-1.3-0.5-2c0-0.8,0.2-1.5,0.5-2.1c0.3-0.6,0.8-1,1.4-1.4c0.6-0.3,1.3-0.5,2.1-0.5
				C1089.5,409.8,1090.5,410.2,1091.1,410.9z M1089.7,413.1c0-0.4-0.1-0.8-0.4-1.1c-0.3-0.3-0.6-0.4-1-0.4c-0.4,0-0.7,0.1-1,0.4
				c-0.3,0.3-0.4,0.6-0.5,1.1H1089.7z"/>
			<path class="st11" d="M1105.5,410.6c0.5,0.5,0.7,1.2,0.7,2.1v4.8h-2.5v-4.1c0-0.4-0.1-0.8-0.3-1c-0.2-0.2-0.5-0.4-0.9-0.4
				c-0.4,0-0.8,0.2-1,0.5c-0.3,0.3-0.4,0.7-0.4,1.2v3.7h-2.5v-4.1c0-0.4-0.1-0.8-0.3-1c-0.2-0.2-0.5-0.4-0.9-0.4
				c-0.4,0-0.8,0.2-1.1,0.5c-0.3,0.3-0.4,0.7-0.4,1.2v3.7h-2.5v-7.6h2.5v1.2c0.3-0.4,0.6-0.8,1-1c0.4-0.2,0.9-0.3,1.4-0.3
				c0.6,0,1.1,0.1,1.6,0.4s0.8,0.7,0.9,1.2c0.2-0.6,0.6-1,1-1.3c0.5-0.3,1-0.4,1.6-0.4C1104.3,409.8,1105,410.1,1105.5,410.6z"/>
			<path class="st11" d="M1114.1,410.9c0.7,0.7,1,1.7,1,3c0,0.2,0,0.3,0,0.4h-5.3c0.1,0.4,0.3,0.8,0.6,1s0.7,0.3,1.1,0.3
				c0.3,0,0.6-0.1,0.9-0.2c0.3-0.1,0.6-0.3,0.8-0.6l1.3,1.3c-0.4,0.4-0.9,0.8-1.4,1s-1.2,0.3-1.9,0.3c-0.8,0-1.5-0.2-2.1-0.5
				c-0.6-0.3-1.1-0.8-1.4-1.3c-0.3-0.6-0.5-1.3-0.5-2c0-0.8,0.2-1.5,0.5-2.1c0.3-0.6,0.8-1,1.4-1.4c0.6-0.3,1.3-0.5,2.1-0.5
				C1112.5,409.8,1113.4,410.2,1114.1,410.9z M1112.7,413.1c0-0.4-0.1-0.8-0.4-1.1c-0.3-0.3-0.6-0.4-1-0.4c-0.4,0-0.7,0.1-1,0.4
				c-0.3,0.3-0.4,0.6-0.5,1.1H1112.7z"/>
			<path class="st11" d="M1123.3,410.6c0.5,0.5,0.7,1.2,0.7,2.1v4.8h-2.5v-4.1c0-0.4-0.1-0.8-0.3-1c-0.2-0.2-0.5-0.4-0.9-0.4
				c-0.4,0-0.7,0.1-1,0.4c-0.3,0.3-0.4,0.6-0.5,1v4h-2.5v-7.6h2.5v1.2c0.3-0.4,0.6-0.8,1-1s0.9-0.3,1.5-0.3
				C1122.2,409.8,1122.8,410.1,1123.3,410.6z"/>
			<path class="st11" d="M1130.7,417.1c-0.3,0.2-0.6,0.3-1,0.4c-0.4,0.1-0.7,0.1-1.1,0.1c-0.7,0-1.4-0.2-1.8-0.6
				c-0.5-0.4-0.7-1-0.7-1.8v-3.2h-1v-1.7h1v-2.1h2.5v2.1h2v1.7h-2v2.9c0,0.5,0.2,0.8,0.7,0.8c0.3,0,0.6-0.1,1-0.3L1130.7,417.1z"/>
			<path class="st11" d="M1017.2,429.9c-0.6-0.2-1.1-0.3-1.5-0.3c-0.3,0-0.6,0.1-0.7,0.2c-0.2,0.1-0.3,0.3-0.3,0.5
				c0,0.2,0.1,0.4,0.2,0.5c0.2,0.1,0.4,0.3,0.6,0.3s0.6,0.2,1,0.3c0.7,0.2,1.2,0.4,1.7,0.6c0.4,0.2,0.8,0.5,1.1,0.9s0.5,0.9,0.5,1.6
				s-0.2,1.2-0.5,1.7c-0.3,0.5-0.8,0.8-1.4,1c-0.6,0.2-1.3,0.4-2,0.4c-0.8,0-1.6-0.1-2.4-0.4c-0.8-0.3-1.5-0.7-2.1-1.2l1-2
				c0.5,0.4,1.1,0.8,1.8,1.1s1.3,0.4,1.8,0.4c0.4,0,0.7-0.1,0.9-0.2c0.2-0.1,0.3-0.3,0.3-0.6c0-0.2-0.1-0.4-0.2-0.6
				s-0.4-0.3-0.6-0.4c-0.2-0.1-0.6-0.2-1-0.3c-0.7-0.2-1.2-0.4-1.7-0.6c-0.4-0.2-0.8-0.5-1.1-0.9c-0.3-0.4-0.5-0.9-0.5-1.5
				c0-0.6,0.2-1.1,0.5-1.6c0.3-0.5,0.8-0.8,1.4-1.1s1.3-0.4,2.1-0.4c0.7,0,1.4,0.1,2.1,0.3c0.7,0.2,1.3,0.5,1.8,0.8l-1,2
				C1018.4,430.3,1017.8,430.1,1017.2,429.9z"/>
			<path class="st11" d="M1024.1,439.8c-0.5,0.3-1.1,0.5-1.8,0.5c-0.4,0-0.8-0.1-1.2-0.2c-0.4-0.1-0.7-0.3-1.1-0.6l1-1.7
				c0.2,0.1,0.3,0.3,0.5,0.3c0.2,0.1,0.3,0.1,0.5,0.1c0.4,0,0.7-0.2,0.9-0.6l0.2-0.3l-3.1-7.4h2.6l1.8,4.9l1.6-4.9h2.5l-3.2,8.3
				C1025,439,1024.6,439.5,1024.1,439.8z"/>
			<path class="st11" d="M1031.9,431.6c-0.2,0-0.4,0-0.5,0.1s-0.2,0.2-0.2,0.4c0,0.2,0.1,0.3,0.3,0.4c0.2,0.1,0.5,0.2,1,0.3
				c0.5,0.2,1,0.3,1.4,0.5c0.4,0.2,0.7,0.4,0.9,0.7c0.3,0.3,0.4,0.7,0.4,1.2c0,0.8-0.3,1.4-0.9,1.8s-1.4,0.7-2.3,0.7
				c-0.6,0-1.3-0.1-1.8-0.3c-0.6-0.2-1.1-0.5-1.6-0.8l0.8-1.6c0.4,0.3,0.9,0.5,1.4,0.7c0.5,0.2,0.9,0.2,1.3,0.2c0.2,0,0.4,0,0.6-0.1
				s0.2-0.2,0.2-0.3c0-0.2-0.1-0.3-0.3-0.4s-0.5-0.2-1-0.3c-0.5-0.2-1-0.3-1.3-0.5c-0.3-0.2-0.6-0.4-0.9-0.7
				c-0.3-0.3-0.4-0.7-0.4-1.2c0-0.8,0.3-1.4,0.9-1.8c0.6-0.4,1.3-0.7,2.2-0.7c0.6,0,1.1,0.1,1.6,0.2s1,0.4,1.5,0.7l-0.8,1.6
				C1033.3,431.8,1032.5,431.6,1031.9,431.6z"/>
			<path class="st11" d="M1041.4,437.1c-0.3,0.2-0.6,0.3-1,0.4c-0.4,0.1-0.7,0.1-1.1,0.1c-0.7,0-1.4-0.2-1.8-0.6
				c-0.5-0.4-0.7-1-0.7-1.8v-3.2h-1v-1.7h1v-2.1h2.5v2.1h2v1.7h-2v2.9c0,0.5,0.2,0.8,0.7,0.8c0.3,0,0.6-0.1,1-0.3L1041.4,437.1z"/>
			<path class="st11" d="M1048.7,430.9c0.7,0.7,1,1.7,1,3c0,0.2,0,0.3,0,0.4h-5.3c0.1,0.4,0.3,0.8,0.6,1s0.7,0.3,1.1,0.3
				c0.3,0,0.6-0.1,0.9-0.2c0.3-0.1,0.6-0.3,0.8-0.6l1.3,1.3c-0.4,0.4-0.9,0.8-1.4,1s-1.2,0.3-1.9,0.3c-0.8,0-1.5-0.2-2.1-0.5
				c-0.6-0.3-1.1-0.8-1.4-1.3c-0.3-0.6-0.5-1.3-0.5-2c0-0.8,0.2-1.5,0.5-2.1c0.3-0.6,0.8-1,1.4-1.4c0.6-0.3,1.3-0.5,2.1-0.5
				C1047.1,429.8,1048.1,430.2,1048.7,430.9z M1047.3,433.1c0-0.4-0.1-0.8-0.4-1.1c-0.3-0.3-0.6-0.4-1-0.4c-0.4,0-0.7,0.1-1,0.4
				c-0.3,0.3-0.4,0.6-0.5,1.1H1047.3z"/>
			<path class="st11" d="M1063.1,430.6c0.5,0.5,0.7,1.2,0.7,2.1v4.8h-2.5v-4.1c0-0.4-0.1-0.8-0.3-1c-0.2-0.2-0.5-0.4-0.9-0.4
				c-0.4,0-0.8,0.2-1,0.5c-0.3,0.3-0.4,0.7-0.4,1.2v3.7h-2.5v-4.1c0-0.4-0.1-0.8-0.3-1c-0.2-0.2-0.5-0.4-0.9-0.4
				c-0.4,0-0.8,0.2-1.1,0.5c-0.3,0.3-0.4,0.7-0.4,1.2v3.7h-2.5v-7.6h2.5v1.2c0.3-0.4,0.6-0.8,1-1c0.4-0.2,0.9-0.3,1.4-0.3
				c0.6,0,1.1,0.1,1.6,0.4s0.8,0.7,0.9,1.2c0.2-0.6,0.6-1,1-1.3c0.5-0.3,1-0.4,1.6-0.4C1061.9,429.8,1062.6,430.1,1063.1,430.6z"/>
			<path class="st11" d="M1071.2,430c-0.3,1-0.4,2.1-0.4,3.2c0,1.1,0.1,2.2,0.4,3.2c0.3,1,0.7,2,1.2,2.8h-2.2
				c-0.6-0.8-1-1.8-1.3-2.8c-0.3-1-0.5-2.1-0.5-3.3s0.2-2.2,0.5-3.3c0.3-1,0.8-2,1.3-2.8h2.2C1072,428,1071.5,428.9,1071.2,430z"/>
			<path class="st11" d="M1080.9,428.2c0.8,0.4,1.4,1,1.9,1.8s0.7,1.6,0.7,2.6c0,1-0.2,1.8-0.7,2.6c-0.5,0.8-1.1,1.4-1.9,1.8
				c-0.8,0.4-1.7,0.7-2.7,0.7c-1,0-1.9-0.2-2.7-0.7c-0.8-0.4-1.4-1.1-1.9-1.8c-0.5-0.8-0.7-1.6-0.7-2.6c0-1,0.2-1.8,0.7-2.6
				s1.1-1.4,1.9-1.8c0.8-0.4,1.7-0.7,2.7-0.7C1079.2,427.5,1080.1,427.8,1080.9,428.2z M1076.9,430.1c-0.4,0.3-0.7,0.6-1,1
				c-0.2,0.4-0.4,0.9-0.4,1.5c0,0.5,0.1,1,0.4,1.5s0.6,0.8,1,1c0.4,0.3,0.9,0.4,1.3,0.4s0.9-0.1,1.3-0.4s0.7-0.6,1-1
				s0.3-0.9,0.3-1.5c0-0.5-0.1-1-0.3-1.5s-0.6-0.8-1-1s-0.9-0.4-1.3-0.4S1077.3,429.8,1076.9,430.1z"/>
			<path class="st11" d="M1084.8,427.7h2.8l2.8,5.7l2.8-5.7h2.8v9.8h-2.3l0-6.2l-2.5,5.2h-1.7l-2.5-5.2v6.2h-2.3V427.7z"/>
			<path class="st11" d="M1103,429.9c-0.6-0.2-1.1-0.3-1.5-0.3c-0.3,0-0.6,0.1-0.7,0.2c-0.2,0.1-0.3,0.3-0.3,0.5
				c0,0.2,0.1,0.4,0.2,0.5c0.2,0.1,0.4,0.3,0.6,0.3s0.6,0.2,1,0.3c0.7,0.2,1.2,0.4,1.7,0.6c0.4,0.2,0.8,0.5,1.1,0.9s0.5,0.9,0.5,1.6
				s-0.2,1.2-0.5,1.7c-0.3,0.5-0.8,0.8-1.4,1c-0.6,0.2-1.3,0.4-2,0.4c-0.8,0-1.6-0.1-2.4-0.4c-0.8-0.3-1.5-0.7-2.1-1.2l1-2
				c0.5,0.4,1.1,0.8,1.8,1.1s1.3,0.4,1.8,0.4c0.4,0,0.7-0.1,0.9-0.2c0.2-0.1,0.3-0.3,0.3-0.6c0-0.2-0.1-0.4-0.2-0.6
				s-0.4-0.3-0.6-0.4c-0.2-0.1-0.6-0.2-1-0.3c-0.7-0.2-1.2-0.4-1.7-0.6c-0.4-0.2-0.8-0.5-1.1-0.9c-0.3-0.4-0.5-0.9-0.5-1.5
				c0-0.6,0.2-1.1,0.5-1.6c0.3-0.5,0.8-0.8,1.4-1.1s1.3-0.4,2.1-0.4c0.7,0,1.4,0.1,2.1,0.3c0.7,0.2,1.3,0.5,1.8,0.8l-1,2
				C1104.1,430.3,1103.6,430.1,1103,429.9z"/>
			<path class="st11" d="M1108.2,427.1c0.6,0.8,1,1.8,1.3,2.8c0.3,1,0.5,2.1,0.5,3.3s-0.2,2.2-0.5,3.3c-0.3,1-0.8,2-1.3,2.8h-2.2
				c0.5-0.8,0.9-1.8,1.2-2.8c0.3-1,0.4-2.1,0.4-3.2c0-1.1-0.1-2.2-0.4-3.2c-0.3-1-0.7-2-1.2-2.8H1108.2z"/>
		</g>
	</g>
</g>
<g>
	<path class="st16" d="M1019.5,130.2h2.6v9.8h-2.6V130.2z"/>
	<path class="st16" d="M1029.9,132.6c-0.4-0.2-0.9-0.4-1.3-0.4c-0.5,0-0.9,0.1-1.4,0.4c-0.4,0.2-0.7,0.6-1,1
		c-0.2,0.4-0.4,0.9-0.4,1.4s0.1,1,0.4,1.4c0.2,0.4,0.6,0.8,1,1c0.4,0.2,0.9,0.4,1.4,0.4c0.4,0,0.8-0.1,1.3-0.3s0.8-0.5,1.2-0.8
		l1.5,1.6c-0.5,0.6-1.2,1-1.9,1.3c-0.7,0.3-1.5,0.5-2.2,0.5c-1,0-1.8-0.2-2.6-0.7c-0.8-0.4-1.4-1.1-1.8-1.8
		c-0.4-0.8-0.7-1.6-0.7-2.6c0-1,0.2-1.8,0.7-2.6c0.5-0.8,1.1-1.4,1.9-1.8c0.8-0.4,1.7-0.7,2.7-0.7c0.7,0,1.4,0.2,2.2,0.5
		c0.7,0.3,1.3,0.7,1.8,1.2l-1.5,1.8C1030.8,133.1,1030.4,132.8,1029.9,132.6z"/>
	<path class="st16" d="M1040.9,130.7c0.8,0.4,1.4,1,1.9,1.8c0.5,0.8,0.7,1.6,0.7,2.6c0,1-0.2,1.8-0.7,2.6c-0.5,0.8-1.1,1.4-1.9,1.8
		c-0.8,0.4-1.7,0.7-2.7,0.7c-1,0-1.9-0.2-2.7-0.7c-0.8-0.4-1.4-1.1-1.9-1.8c-0.5-0.8-0.7-1.6-0.7-2.6c0-1,0.2-1.8,0.7-2.6
		s1.1-1.4,1.9-1.8c0.8-0.4,1.7-0.7,2.7-0.7C1039.2,130,1040.1,130.3,1040.9,130.7z M1036.8,132.6c-0.4,0.3-0.7,0.6-1,1
		c-0.2,0.4-0.4,0.9-0.4,1.5c0,0.5,0.1,1,0.4,1.5c0.2,0.4,0.6,0.8,1,1c0.4,0.3,0.9,0.4,1.3,0.4s0.9-0.1,1.3-0.4c0.4-0.3,0.7-0.6,1-1
		c0.2-0.4,0.3-0.9,0.3-1.5c0-0.5-0.1-1-0.3-1.5c-0.2-0.4-0.6-0.8-1-1c-0.4-0.3-0.9-0.4-1.3-0.4S1037.3,132.3,1036.8,132.6z"/>
	<path class="st16" d="M1047.9,130.2h7.7v2h-5.2v1.8h4.7v2l-4.7,0v1.8h5.3v2h-7.9V130.2z"/>
	<path class="st16" d="M1056.6,132.4h2.9l1.2,2.1l1.3-2.1h2.7l-2.4,3.7l2.6,3.9h-2.9l-1.3-2.3l-1.5,2.3h-2.7l2.6-3.9L1056.6,132.4z"
		/>
	<path class="st16" d="M1072.5,132.8c0.5,0.3,0.9,0.8,1.2,1.4s0.4,1.3,0.4,2.1c0,0.8-0.1,1.4-0.4,2c-0.3,0.6-0.7,1-1.2,1.3
		s-1.1,0.5-1.8,0.5c-0.5,0-0.9-0.1-1.3-0.3c-0.4-0.2-0.7-0.4-1-0.8v3.7h-2.5v-10.3h2.5v1c0.6-0.7,1.3-1.1,2.2-1.1
		C1071.3,132.3,1072,132.5,1072.5,132.8z M1071.2,137.6c0.3-0.3,0.5-0.8,0.5-1.4c0-0.6-0.2-1-0.5-1.4c-0.3-0.4-0.7-0.5-1.2-0.5
		c-0.5,0-0.9,0.2-1.2,0.5c-0.3,0.3-0.4,0.8-0.4,1.4c0,0.6,0.1,1,0.4,1.4c0.3,0.3,0.7,0.5,1.2,0.5
		C1070.5,138.1,1070.9,137.9,1071.2,137.6z"/>
	<path class="st16" d="M1079,132.7c0.4-0.2,0.9-0.3,1.4-0.3v2.3c-0.1,0-0.2,0-0.4,0c-0.6,0-1.1,0.1-1.4,0.4s-0.6,0.7-0.6,1.1v3.9
		h-2.5v-7.6h2.5v1.3C1078.2,133.3,1078.6,132.9,1079,132.7z"/>
	<path class="st16" d="M1087.7,133.4c0.7,0.7,1,1.7,1,3c0,0.2,0,0.3,0,0.4h-5.3c0.1,0.4,0.3,0.8,0.6,1c0.3,0.2,0.7,0.3,1.1,0.3
		c0.3,0,0.6-0.1,0.9-0.2c0.3-0.1,0.6-0.3,0.8-0.6l1.3,1.3c-0.4,0.4-0.9,0.8-1.4,1c-0.6,0.2-1.2,0.3-1.9,0.3c-0.8,0-1.5-0.2-2.1-0.5
		s-1.1-0.8-1.4-1.3c-0.3-0.6-0.5-1.3-0.5-2c0-0.8,0.2-1.5,0.5-2.1s0.8-1,1.4-1.4c0.6-0.3,1.3-0.5,2.1-0.5
		C1086,132.3,1087,132.7,1087.7,133.4z M1086.2,135.6c0-0.4-0.1-0.8-0.4-1.1c-0.3-0.3-0.6-0.4-1-0.4c-0.4,0-0.7,0.1-1,0.4
		c-0.3,0.3-0.4,0.6-0.5,1.1H1086.2z"/>
	<path class="st16" d="M1092.6,134.1c-0.2,0-0.4,0-0.5,0.1c-0.1,0.1-0.2,0.2-0.2,0.4c0,0.2,0.1,0.3,0.3,0.4c0.2,0.1,0.5,0.2,1,0.3
		c0.5,0.2,1,0.3,1.4,0.5c0.4,0.2,0.7,0.4,0.9,0.7c0.3,0.3,0.4,0.7,0.4,1.2c0,0.8-0.3,1.4-0.9,1.8s-1.4,0.7-2.3,0.7
		c-0.6,0-1.3-0.1-1.8-0.3c-0.6-0.2-1.1-0.5-1.6-0.8l0.8-1.6c0.4,0.3,0.9,0.5,1.4,0.7c0.5,0.2,0.9,0.2,1.3,0.2c0.2,0,0.4,0,0.6-0.1
		s0.2-0.2,0.2-0.3c0-0.2-0.1-0.3-0.3-0.4s-0.5-0.2-1-0.3c-0.5-0.2-1-0.3-1.3-0.5c-0.3-0.2-0.6-0.4-0.9-0.7c-0.3-0.3-0.4-0.7-0.4-1.2
		c0-0.8,0.3-1.4,0.9-1.8c0.6-0.4,1.3-0.7,2.2-0.7c0.6,0,1.1,0.1,1.6,0.2c0.5,0.1,1,0.4,1.5,0.7l-0.8,1.6
		C1094,134.3,1093.2,134.1,1092.6,134.1z"/>
	<path class="st16" d="M1099.8,134.1c-0.2,0-0.4,0-0.5,0.1c-0.1,0.1-0.2,0.2-0.2,0.4c0,0.2,0.1,0.3,0.3,0.4c0.2,0.1,0.5,0.2,1,0.3
		c0.5,0.2,1,0.3,1.4,0.5c0.4,0.2,0.7,0.4,0.9,0.7c0.3,0.3,0.4,0.7,0.4,1.2c0,0.8-0.3,1.4-0.9,1.8s-1.4,0.7-2.3,0.7
		c-0.6,0-1.3-0.1-1.8-0.3c-0.6-0.2-1.1-0.5-1.6-0.8l0.8-1.6c0.4,0.3,0.9,0.5,1.4,0.7c0.5,0.2,0.9,0.2,1.3,0.2c0.2,0,0.4,0,0.6-0.1
		s0.2-0.2,0.2-0.3c0-0.2-0.1-0.3-0.3-0.4s-0.5-0.2-1-0.3c-0.5-0.2-1-0.3-1.3-0.5c-0.3-0.2-0.6-0.4-0.9-0.7c-0.3-0.3-0.4-0.7-0.4-1.2
		c0-0.8,0.3-1.4,0.9-1.8c0.6-0.4,1.3-0.7,2.2-0.7c0.6,0,1.1,0.1,1.6,0.2c0.5,0.1,1,0.4,1.5,0.7l-0.8,1.6
		C1101.2,134.3,1100.4,134.1,1099.8,134.1z"/>
	<path class="st16" d="M1012.3,152.4c-0.6-0.2-1.1-0.3-1.5-0.3c-0.3,0-0.6,0.1-0.7,0.2c-0.2,0.1-0.3,0.3-0.3,0.5
		c0,0.2,0.1,0.4,0.2,0.5c0.2,0.1,0.4,0.3,0.6,0.3s0.6,0.2,1,0.3c0.7,0.2,1.2,0.4,1.7,0.6c0.4,0.2,0.8,0.5,1.1,0.9s0.5,0.9,0.5,1.6
		s-0.2,1.2-0.5,1.7c-0.3,0.5-0.8,0.8-1.4,1c-0.6,0.2-1.3,0.4-2,0.4c-0.8,0-1.6-0.1-2.4-0.4c-0.8-0.3-1.5-0.7-2.1-1.2l1-2
		c0.5,0.4,1.1,0.8,1.8,1.1s1.3,0.4,1.8,0.4c0.4,0,0.7-0.1,0.9-0.2c0.2-0.1,0.3-0.3,0.3-0.6c0-0.2-0.1-0.4-0.2-0.6s-0.4-0.3-0.6-0.4
		c-0.2-0.1-0.6-0.2-1-0.3c-0.7-0.2-1.2-0.4-1.7-0.6c-0.4-0.2-0.8-0.5-1.1-0.9c-0.3-0.4-0.5-0.9-0.5-1.5c0-0.6,0.2-1.1,0.5-1.6
		c0.3-0.5,0.8-0.8,1.4-1.1s1.3-0.4,2.1-0.4c0.7,0,1.4,0.1,2.1,0.3c0.7,0.2,1.3,0.5,1.8,0.8l-1,2
		C1013.5,152.8,1012.9,152.6,1012.3,152.4z"/>
	<path class="st16" d="M1028.4,153.1c0.5,0.5,0.7,1.2,0.7,2.1v4.8h-2.5v-4.1c0-0.4-0.1-0.8-0.3-1c-0.2-0.2-0.5-0.4-0.9-0.4
		c-0.4,0-0.8,0.2-1,0.5c-0.3,0.3-0.4,0.7-0.4,1.2v3.7h-2.5v-4.1c0-0.4-0.1-0.8-0.3-1c-0.2-0.2-0.5-0.4-0.9-0.4
		c-0.4,0-0.8,0.2-1.1,0.5c-0.3,0.3-0.4,0.7-0.4,1.2v3.7h-2.5v-7.6h2.5v1.2c0.3-0.4,0.6-0.8,1-1c0.4-0.2,0.9-0.3,1.4-0.3
		c0.6,0,1.1,0.1,1.6,0.4s0.8,0.7,0.9,1.2c0.2-0.6,0.6-1,1-1.3c0.5-0.3,1-0.4,1.6-0.4C1027.2,152.3,1027.9,152.6,1028.4,153.1z"/>
	<path class="st16" d="M1036.6,153.1c0.6,0.5,0.9,1.2,0.9,2v4.9h-2.5v-0.9c-0.5,0.6-1.3,1-2.3,1c-0.8,0-1.4-0.2-1.9-0.7
		s-0.7-1-0.7-1.7c0-0.7,0.3-1.3,0.7-1.7c0.5-0.4,1.2-0.6,2.1-0.6h2v-0.1c0-0.4-0.1-0.6-0.4-0.8c-0.2-0.2-0.6-0.3-1.1-0.3
		c-0.3,0-0.7,0.1-1.1,0.2c-0.4,0.1-0.8,0.3-1.2,0.4l-0.7-1.7c0.6-0.3,1.2-0.5,1.8-0.6c0.6-0.1,1.2-0.2,1.8-0.2
		C1035.3,152.3,1036.1,152.6,1036.6,153.1z M1034.5,158.1c0.3-0.2,0.5-0.4,0.5-0.7v-0.7h-1.5c-0.7,0-1,0.3-1,0.8
		c0,0.3,0.1,0.5,0.3,0.6c0.2,0.2,0.4,0.2,0.7,0.2C1033.9,158.4,1034.3,158.3,1034.5,158.1z"/>
	<path class="st16" d="M1042.7,152.7c0.4-0.2,0.9-0.3,1.4-0.3v2.3c-0.1,0-0.2,0-0.4,0c-0.6,0-1.1,0.1-1.4,0.4
		c-0.4,0.3-0.6,0.7-0.6,1.1v3.9h-2.5v-7.6h2.5v1.3C1042,153.3,1042.3,152.9,1042.7,152.7z"/>
	<path class="st16" d="M1050.2,159.6c-0.3,0.2-0.6,0.3-1,0.4c-0.4,0.1-0.7,0.1-1.1,0.1c-0.7,0-1.4-0.2-1.8-0.6
		c-0.5-0.4-0.7-1-0.7-1.8v-3.2h-1v-1.7h1v-2.1h2.5v2.1h2v1.7h-2v2.9c0,0.5,0.2,0.8,0.7,0.8c0.3,0,0.6-0.1,1-0.3L1050.2,159.6z"/>
	<path class="st16" d="M1060.4,152.6c-0.4-0.2-0.9-0.4-1.3-0.4c-0.5,0-0.9,0.1-1.4,0.4c-0.4,0.2-0.7,0.6-1,1
		c-0.2,0.4-0.4,0.9-0.4,1.4s0.1,1,0.4,1.4c0.2,0.4,0.6,0.8,1,1c0.4,0.2,0.9,0.4,1.4,0.4c0.4,0,0.8-0.1,1.3-0.3s0.8-0.5,1.2-0.8
		l1.5,1.6c-0.5,0.6-1.2,1-1.9,1.3c-0.7,0.3-1.5,0.5-2.2,0.5c-1,0-1.8-0.2-2.6-0.7c-0.8-0.4-1.4-1.1-1.8-1.8
		c-0.4-0.8-0.7-1.6-0.7-2.6c0-1,0.2-1.8,0.7-2.6c0.5-0.8,1.1-1.4,1.9-1.8c0.8-0.4,1.7-0.7,2.7-0.7c0.7,0,1.4,0.2,2.2,0.5
		c0.7,0.3,1.3,0.7,1.8,1.2l-1.5,1.8C1061.2,153.1,1060.9,152.8,1060.4,152.6z"/>
	<path class="st16" d="M1069.7,152.8c0.6,0.3,1.1,0.8,1.5,1.4c0.3,0.6,0.5,1.3,0.5,2c0,0.8-0.2,1.5-0.5,2c-0.3,0.6-0.8,1-1.5,1.4
		c-0.6,0.3-1.3,0.5-2.2,0.5s-1.5-0.2-2.2-0.5c-0.6-0.3-1.1-0.8-1.4-1.4s-0.5-1.3-0.5-2c0-0.8,0.2-1.4,0.5-2c0.3-0.6,0.8-1,1.4-1.4
		c0.6-0.3,1.3-0.5,2.2-0.5S1069,152.5,1069.7,152.8z M1066.3,154.9c-0.3,0.3-0.4,0.8-0.4,1.4c0,0.6,0.1,1,0.4,1.4
		c0.3,0.3,0.7,0.5,1.2,0.5c0.5,0,0.9-0.2,1.2-0.5c0.3-0.3,0.4-0.8,0.4-1.4c0-0.6-0.2-1-0.5-1.4c-0.3-0.3-0.7-0.5-1.2-0.5
		S1066.6,154.5,1066.3,154.9z"/>
	<path class="st16" d="M1079.9,153.1c0.5,0.5,0.7,1.2,0.7,2.1v4.8h-2.5v-4.1c0-0.4-0.1-0.8-0.3-1c-0.2-0.2-0.5-0.4-0.9-0.4
		c-0.4,0-0.7,0.1-1,0.4c-0.3,0.3-0.4,0.6-0.5,1v4h-2.5v-7.6h2.5v1.2c0.3-0.4,0.6-0.8,1-1s0.9-0.3,1.5-0.3
		C1078.7,152.3,1079.4,152.6,1079.9,153.1z"/>
	<path class="st16" d="M1087.3,159.6c-0.3,0.2-0.6,0.3-1,0.4c-0.4,0.1-0.7,0.1-1.1,0.1c-0.7,0-1.4-0.2-1.8-0.6
		c-0.5-0.4-0.7-1-0.7-1.8v-3.2h-1v-1.7h1v-2.1h2.5v2.1h2v1.7h-2v2.9c0,0.5,0.2,0.8,0.7,0.8c0.3,0,0.6-0.1,1-0.3L1087.3,159.6z"/>
	<path class="st16" d="M1092,152.7c0.4-0.2,0.9-0.3,1.4-0.3v2.3c-0.1,0-0.2,0-0.4,0c-0.6,0-1.1,0.1-1.4,0.4s-0.6,0.7-0.6,1.1v3.9
		h-2.5v-7.6h2.5v1.3C1091.2,153.3,1091.6,152.9,1092,152.7z"/>
	<path class="st16" d="M1100.1,153.1c0.6,0.5,0.9,1.2,0.9,2v4.9h-2.5v-0.9c-0.5,0.6-1.3,1-2.3,1c-0.8,0-1.4-0.2-1.9-0.7
		s-0.7-1-0.7-1.7c0-0.7,0.3-1.3,0.7-1.7c0.5-0.4,1.2-0.6,2.1-0.6h2v-0.1c0-0.4-0.1-0.6-0.4-0.8c-0.2-0.2-0.6-0.3-1.1-0.3
		c-0.3,0-0.7,0.1-1.1,0.2c-0.4,0.1-0.8,0.3-1.2,0.4l-0.7-1.7c0.6-0.3,1.2-0.5,1.8-0.6c0.6-0.1,1.2-0.2,1.8-0.2
		C1098.7,152.3,1099.5,152.6,1100.1,153.1z M1098,158.1c0.3-0.2,0.5-0.4,0.5-0.7v-0.7h-1.5c-0.7,0-1,0.3-1,0.8
		c0,0.3,0.1,0.5,0.3,0.6c0.2,0.2,0.4,0.2,0.7,0.2C1097.4,158.4,1097.7,158.3,1098,158.1z"/>
	<path class="st16" d="M1106.1,154.4c-0.4,0-0.8,0.2-1.1,0.5c-0.3,0.3-0.4,0.8-0.4,1.3c0,0.6,0.1,1,0.4,1.3c0.3,0.3,0.6,0.5,1.1,0.5
		c0.7,0,1.2-0.3,1.5-0.9l1.8,1c-0.3,0.6-0.7,1-1.3,1.3s-1.3,0.5-2.1,0.5c-0.8,0-1.5-0.2-2-0.5s-1-0.8-1.4-1.3
		c-0.3-0.6-0.5-1.3-0.5-2c0-0.8,0.2-1.5,0.5-2.1s0.8-1,1.4-1.4s1.3-0.5,2.1-0.5c0.8,0,1.4,0.2,2,0.5c0.6,0.3,1,0.8,1.4,1.3l-1.8,1
		C1107.2,154.7,1106.7,154.4,1106.1,154.4z"/>
	<path class="st16" d="M1115.5,159.6c-0.3,0.2-0.6,0.3-1,0.4c-0.4,0.1-0.7,0.1-1.1,0.1c-0.7,0-1.4-0.2-1.8-0.6
		c-0.5-0.4-0.7-1-0.7-1.8v-3.2h-1v-1.7h1v-2.1h2.5v2.1h2v1.7h-2v2.9c0,0.5,0.2,0.8,0.7,0.8c0.3,0,0.6-0.1,1-0.3L1115.5,159.6z"/>
</g>
<g>
	<g>
		<g>
			<path class="st11" d="M463.9,21.4h6.4l0,1.2h-5v3.2h4.5v1.2h-4.5v4.1h-1.3V21.4z"/>
			<path class="st11" d="M476.8,24.3c0.6,0.3,1,0.8,1.3,1.3c0.3,0.6,0.5,1.2,0.5,1.9c0,0.7-0.2,1.4-0.5,1.9c-0.3,0.6-0.8,1-1.3,1.3
				c-0.6,0.3-1.2,0.5-2,0.5c-0.7,0-1.4-0.2-2-0.5c-0.6-0.3-1-0.8-1.3-1.3c-0.3-0.6-0.5-1.2-0.5-2c0-0.7,0.2-1.4,0.5-1.9
				c0.3-0.6,0.8-1,1.3-1.3c0.6-0.3,1.2-0.5,2-0.5C475.5,23.8,476.2,23.9,476.8,24.3z M473.5,25.3c-0.4,0.2-0.7,0.5-0.9,0.9
				c-0.2,0.4-0.3,0.8-0.3,1.4c0,0.5,0.1,1,0.3,1.4c0.2,0.4,0.5,0.7,0.9,0.9c0.4,0.2,0.8,0.3,1.3,0.3c0.5,0,0.9-0.1,1.3-0.3
				c0.4-0.2,0.7-0.5,0.9-0.9s0.3-0.9,0.3-1.4c0-0.5-0.1-1-0.3-1.4s-0.5-0.7-0.9-0.9c-0.4-0.2-0.8-0.3-1.3-0.3
				C474.3,24.9,473.9,25,473.5,25.3z"/>
			<path class="st11" d="M482.7,24.2c0.4-0.3,1-0.4,1.6-0.4V25c-0.8,0-1.4,0.2-1.8,0.6s-0.7,1-0.8,1.7v3.9h-1.3v-7.4h1.3v1.6
				C481.9,24.9,482.3,24.5,482.7,24.2z"/>
			<path class="st11" d="M497.3,24.6c0.5,0.5,0.7,1.2,0.7,2.1v4.6h-1.3V27c0-0.6-0.2-1.1-0.5-1.5s-0.8-0.5-1.4-0.5
				c-0.7,0-1.3,0.3-1.7,0.7c-0.4,0.5-0.6,1.1-0.6,1.8v3.7h-1.3V27c0-0.6-0.2-1.1-0.5-1.5c-0.3-0.4-0.8-0.5-1.4-0.5
				c-0.7,0-1.3,0.3-1.7,0.7c-0.4,0.5-0.6,1.1-0.6,1.8v3.7h-1.3v-7.4h1.3v1.6c0.5-1,1.4-1.6,2.8-1.6c0.7,0,1.2,0.2,1.7,0.5
				c0.5,0.3,0.8,0.8,0.9,1.4c0.5-1.2,1.4-1.8,2.9-1.9C496.2,23.8,496.8,24,497.3,24.6z"/>
			<path class="st11" d="M505.9,22.2c-0.2,0.2-0.3,0.5-0.3,0.9v1h2v1h-2v6.2h-1.3v-6.2h-1v-1h1v-0.8c0-0.5,0.1-1,0.3-1.4
				c0.2-0.4,0.5-0.7,0.9-0.9c0.4-0.2,0.8-0.3,1.2-0.3c0.4,0,0.8,0.1,1.3,0.3l-0.3,1.1c-0.3-0.2-0.7-0.2-1-0.2
				C506.4,21.9,506.2,22,505.9,22.2z"/>
			<path class="st11" d="M513.7,24.3c0.6,0.3,1,0.8,1.3,1.3c0.3,0.6,0.5,1.2,0.5,1.9c0,0.7-0.2,1.4-0.5,1.9c-0.3,0.6-0.8,1-1.3,1.3
				c-0.6,0.3-1.2,0.5-2,0.5c-0.7,0-1.4-0.2-2-0.5c-0.6-0.3-1-0.8-1.3-1.3c-0.3-0.6-0.5-1.2-0.5-2c0-0.7,0.2-1.4,0.5-1.9
				c0.3-0.6,0.8-1,1.3-1.3c0.6-0.3,1.2-0.5,2-0.5C512.5,23.8,513.2,23.9,513.7,24.3z M510.5,25.3c-0.4,0.2-0.7,0.5-0.9,0.9
				c-0.2,0.4-0.3,0.8-0.3,1.4c0,0.5,0.1,1,0.3,1.4c0.2,0.4,0.5,0.7,0.9,0.9c0.4,0.2,0.8,0.3,1.3,0.3c0.5,0,0.9-0.1,1.3-0.3
				c0.4-0.2,0.7-0.5,0.9-0.9s0.3-0.9,0.3-1.4c0-0.5-0.1-1-0.3-1.4s-0.5-0.7-0.9-0.9c-0.4-0.2-0.8-0.3-1.3-0.3
				C511.3,24.9,510.8,25,510.5,25.3z"/>
			<path class="st11" d="M519.7,24.2c0.4-0.3,1-0.4,1.6-0.4V25c-0.8,0-1.4,0.2-1.8,0.6s-0.7,1-0.8,1.7v3.9h-1.3v-7.4h1.3v1.6
				C518.9,24.9,519.3,24.5,519.7,24.2z"/>
			<path class="st11" d="M532.6,24.6c0.5,0.5,0.7,1.2,0.7,2.1v4.6H532V27c0-0.6-0.2-1.1-0.5-1.5c-0.4-0.3-0.8-0.5-1.4-0.5
				c-0.7,0-1.2,0.2-1.6,0.6c-0.4,0.4-0.7,1-0.7,1.6v4h-1.3v-7.4h1.3v1.6c0.5-1.1,1.4-1.6,2.8-1.6C531.4,23.8,532.1,24,532.6,24.6z"
				/>
			<path class="st11" d="M541.2,24.8c0.6,0.7,0.9,1.6,0.9,2.8c0,0.2,0,0.3,0,0.4h-5.9c0.1,0.7,0.4,1.2,0.8,1.6
				c0.5,0.4,1,0.6,1.7,0.6c0.4,0,0.8-0.1,1.2-0.2c0.4-0.2,0.7-0.4,1-0.7l0.7,0.7c-0.4,0.4-0.8,0.7-1.3,0.9c-0.5,0.2-1.1,0.3-1.7,0.3
				c-0.7,0-1.4-0.2-1.9-0.5c-0.6-0.3-1-0.8-1.3-1.3c-0.3-0.6-0.5-1.2-0.5-1.9c0-0.7,0.2-1.4,0.5-1.9c0.3-0.6,0.7-1,1.3-1.3
				c0.6-0.3,1.2-0.5,1.9-0.5C539.7,23.8,540.6,24.1,541.2,24.8z M540.9,27c0-0.7-0.3-1.2-0.7-1.6s-1-0.6-1.6-0.6
				c-0.7,0-1.2,0.2-1.6,0.6s-0.7,0.9-0.8,1.6H540.9z"/>
			<path class="st11" d="M542.4,23.8h1.4l2.1,6.1l2-6.1h1.4l2.1,6.1l2-6.1h1.3l-2.7,7.4h-1.4l-2-5.8l-2,5.8h-1.4L542.4,23.8z"/>
			<path class="st11" d="M559.7,21.4h1.3v9.8h-1.3V21.4z"/>
			<path class="st11" d="M569.6,22.9c-0.5-0.2-1-0.3-1.5-0.3c-0.7,0-1.3,0.2-1.9,0.5c-0.6,0.3-1,0.8-1.4,1.4s-0.5,1.2-0.5,1.9
				c0,0.7,0.2,1.3,0.5,1.9s0.8,1,1.4,1.4c0.6,0.3,1.2,0.5,1.9,0.5c0.5,0,1-0.1,1.5-0.3c0.5-0.2,0.9-0.5,1.3-0.9l0.8,0.9
				c-0.5,0.5-1.1,0.9-1.7,1.1s-1.3,0.4-2,0.4c-0.9,0-1.8-0.2-2.6-0.7c-0.8-0.4-1.4-1-1.8-1.8c-0.4-0.8-0.7-1.6-0.7-2.5
				c0-0.9,0.2-1.8,0.7-2.5s1.1-1.4,1.9-1.8c0.8-0.4,1.6-0.7,2.6-0.7c0.7,0,1.3,0.1,2,0.4c0.6,0.3,1.2,0.6,1.7,1.1l-0.8,1
				C570.5,23.4,570.1,23.1,569.6,22.9z"/>
			<path class="st11" d="M580.2,22c0.8,0.4,1.4,1,1.9,1.8s0.7,1.6,0.7,2.5s-0.2,1.8-0.7,2.5c-0.5,0.8-1.1,1.4-1.9,1.8
				c-0.8,0.4-1.7,0.7-2.6,0.7c-0.9,0-1.8-0.2-2.6-0.7s-1.4-1-1.9-1.8c-0.5-0.8-0.7-1.6-0.7-2.5s0.2-1.8,0.7-2.5
				c0.5-0.8,1.1-1.4,1.9-1.8c0.8-0.4,1.7-0.7,2.6-0.7C578.6,21.4,579.5,21.6,580.2,22z M575.8,23.1c-0.6,0.3-1,0.8-1.4,1.4
				c-0.3,0.6-0.5,1.2-0.5,1.9s0.2,1.3,0.5,1.9c0.3,0.6,0.8,1,1.4,1.4c0.6,0.3,1.2,0.5,1.9,0.5c0.7,0,1.3-0.2,1.9-0.5
				c0.6-0.3,1-0.8,1.4-1.4c0.3-0.6,0.5-1.2,0.5-1.9s-0.2-1.3-0.5-1.9c-0.3-0.6-0.8-1-1.4-1.4c-0.6-0.3-1.2-0.5-1.9-0.5
				C577,22.6,576.3,22.7,575.8,23.1z"/>
			<path class="st11" d="M592.7,22.8c-0.5-0.1-0.9-0.2-1.4-0.2c-0.6,0-1,0.1-1.4,0.3c-0.3,0.2-0.5,0.5-0.5,0.9
				c0,0.3,0.1,0.6,0.3,0.8c0.2,0.2,0.5,0.4,0.8,0.5s0.7,0.3,1.2,0.4c0.7,0.2,1.2,0.4,1.6,0.6s0.8,0.5,1.1,0.8
				c0.3,0.4,0.4,0.9,0.4,1.5c0,0.6-0.2,1-0.5,1.5s-0.7,0.7-1.3,1c-0.5,0.2-1.2,0.3-1.9,0.3c-0.7,0-1.4-0.1-2.1-0.4
				c-0.7-0.3-1.3-0.7-1.8-1.1l0.6-1.2c0.5,0.5,1,0.8,1.6,1.1c0.6,0.2,1.2,0.4,1.7,0.4c0.7,0,1.2-0.1,1.5-0.4s0.6-0.6,0.6-1
				c0-0.3-0.1-0.6-0.3-0.9c-0.2-0.2-0.5-0.4-0.8-0.5c-0.3-0.1-0.7-0.3-1.3-0.4c-0.7-0.2-1.2-0.4-1.6-0.6c-0.4-0.2-0.8-0.5-1-0.8
				c-0.3-0.4-0.4-0.8-0.4-1.4c0-0.5,0.1-1,0.4-1.4c0.3-0.4,0.7-0.7,1.2-0.9c0.5-0.2,1.1-0.3,1.8-0.3c0.6,0,1.2,0.1,1.7,0.3
				c0.6,0.2,1.1,0.4,1.5,0.7l-0.6,1.2C593.7,23.2,593.2,23,592.7,22.8z"/>
			<path class="st11" d="M600.9,30.7c-0.6,0.4-1.1,0.5-1.7,0.5c-0.6,0-1.1-0.2-1.4-0.5c-0.4-0.3-0.5-0.9-0.5-1.6v-4.1h-1v-1h1v-2
				h1.3v2h2.3v1h-2.3v3.9c0,0.4,0.1,0.7,0.2,0.9c0.1,0.2,0.4,0.3,0.7,0.3c0.4,0,0.7-0.1,1.1-0.3L600.9,30.7z"/>
			<path class="st11" d="M607,31.2v-1c-0.6,0.7-1.4,1.1-2.6,1.1c-0.5,0-1-0.1-1.4-0.3s-0.7-0.5-0.9-0.8c-0.2-0.3-0.3-0.7-0.3-1.2
				c0-0.7,0.2-1.2,0.7-1.6c0.5-0.4,1.2-0.6,2.1-0.6h2.4v-0.4c0-0.5-0.2-0.9-0.5-1.2c-0.3-0.3-0.8-0.4-1.4-0.4
				c-0.7,0-1.5,0.3-2.3,0.8l-0.5-0.9c0.5-0.3,1-0.6,1.5-0.7c0.5-0.2,1-0.2,1.6-0.2c0.9,0,1.6,0.2,2.1,0.7c0.5,0.5,0.8,1.1,0.8,1.9
				l0,4.9H607z M606.2,29.8c0.4-0.3,0.7-0.7,0.8-1.2v-0.7h-2.2c-0.6,0-1,0.1-1.3,0.3c-0.3,0.2-0.4,0.5-0.4,0.8
				c0,0.4,0.1,0.7,0.4,0.9c0.3,0.2,0.7,0.3,1.2,0.3C605.3,30.2,605.8,30.1,606.2,29.8z"/>
			<path class="st11" d="M612.9,24.2c0.4-0.3,1-0.4,1.6-0.4V25c-0.8,0-1.4,0.2-1.8,0.6s-0.7,1-0.8,1.7v3.9h-1.3v-7.4h1.3v1.6
				C612.1,24.9,612.5,24.5,612.9,24.2z"/>
			<path class="st11" d="M619.9,30.7c-0.6,0.4-1.1,0.5-1.7,0.5s-1.1-0.2-1.4-0.5c-0.4-0.3-0.5-0.9-0.5-1.6v-4.1h-1v-1h1v-2h1.3v2
				h2.3v1h-2.3v3.9c0,0.4,0.1,0.7,0.2,0.9c0.1,0.2,0.4,0.3,0.7,0.3c0.4,0,0.7-0.1,1.1-0.3L619.9,30.7z"/>
		</g>
	</g>
	<path class="st17" d="M695.7,238H387c-2.2,0-4-1.8-4-4V53.4c0-2.2,1.8-4,4-4h308.7c2.2,0,4,1.8,4,4V234
		C699.7,236.2,697.9,238,695.7,238z"/>
	<path class="st5" d="M691.7,232H390.6c-1.1,0-2-0.9-2-2V57.6c0-1.1,0.9-2,2-2h301.1c1.1,0,2,0.9,2,2V230
		C693.7,231.1,692.8,232,691.7,232z"/>
	<path class="st11" d="M388.6,96.6V57.9c0-1.1,0.9-2,2-2h301.1c1.1,0,2,0.9,2,2v38.7H388.6z"/>
	<g>
		<g>
			<path class="st2" d="M411.9,70.8h2.6v9.8h-2.6V70.8z"/>
			<path class="st2" d="M422.3,73.2c-0.4-0.2-0.9-0.4-1.3-0.4c-0.5,0-0.9,0.1-1.4,0.4c-0.4,0.2-0.7,0.6-1,1
				c-0.2,0.4-0.4,0.9-0.4,1.4c0,0.5,0.1,1,0.4,1.4c0.2,0.4,0.6,0.8,1,1c0.4,0.2,0.9,0.4,1.4,0.4c0.4,0,0.8-0.1,1.3-0.3
				c0.4-0.2,0.8-0.5,1.2-0.8L425,79c-0.5,0.6-1.2,1-1.9,1.3c-0.7,0.3-1.5,0.5-2.2,0.5c-1,0-1.8-0.2-2.6-0.7
				c-0.8-0.4-1.4-1.1-1.8-1.8c-0.4-0.8-0.7-1.6-0.7-2.6c0-1,0.2-1.8,0.7-2.6c0.5-0.8,1.1-1.4,1.9-1.8c0.8-0.4,1.7-0.7,2.7-0.7
				c0.7,0,1.4,0.2,2.2,0.5c0.7,0.3,1.3,0.7,1.8,1.2l-1.5,1.8C423.1,73.8,422.8,73.4,422.3,73.2z"/>
			<path class="st2" d="M433.3,71.3c0.8,0.4,1.4,1,1.9,1.8c0.5,0.8,0.7,1.6,0.7,2.6c0,1-0.2,1.8-0.7,2.6c-0.5,0.8-1.1,1.4-1.9,1.8
				s-1.7,0.7-2.7,0.7s-1.9-0.2-2.7-0.7s-1.4-1.1-1.9-1.8s-0.7-1.6-0.7-2.6c0-1,0.2-1.8,0.7-2.6s1.1-1.4,1.9-1.8
				c0.8-0.4,1.7-0.7,2.7-0.7S432.5,70.9,433.3,71.3z M429.2,73.2c-0.4,0.3-0.7,0.6-1,1s-0.4,0.9-0.4,1.5c0,0.5,0.1,1,0.4,1.5
				c0.2,0.4,0.6,0.8,1,1c0.4,0.3,0.9,0.4,1.3,0.4s0.9-0.1,1.3-0.4c0.4-0.3,0.7-0.6,1-1c0.2-0.4,0.3-0.9,0.3-1.5c0-0.5-0.1-1-0.3-1.5
				c-0.2-0.4-0.6-0.8-1-1c-0.4-0.3-0.9-0.4-1.3-0.4S429.7,73,429.2,73.2z"/>
			<path class="st2" d="M440.3,70.8h7.7v2h-5.2v1.8h4.7v2l-4.7,0v1.8h5.3v2h-7.9V70.8z"/>
			<path class="st2" d="M449,73.1h2.9l1.2,2.1l1.3-2.1h2.7l-2.4,3.7l2.6,3.9h-2.9l-1.3-2.3l-1.5,2.3h-2.7l2.6-3.9L449,73.1z"/>
			<path class="st2" d="M464.9,73.5c0.5,0.3,0.9,0.8,1.2,1.4c0.3,0.6,0.4,1.3,0.4,2.1c0,0.8-0.1,1.4-0.4,2c-0.3,0.6-0.7,1-1.2,1.3
				c-0.5,0.3-1.1,0.5-1.8,0.5c-0.5,0-0.9-0.1-1.3-0.3c-0.4-0.2-0.7-0.4-1-0.8v3.7h-2.5V73.1h2.5v1c0.6-0.7,1.3-1.1,2.2-1.1
				C463.7,73,464.4,73.1,464.9,73.5z M463.6,78.2c0.3-0.3,0.5-0.8,0.5-1.4c0-0.6-0.2-1-0.5-1.4c-0.3-0.3-0.7-0.5-1.2-0.5
				c-0.5,0-0.9,0.2-1.2,0.5s-0.4,0.8-0.4,1.4c0,0.6,0.1,1,0.4,1.4s0.7,0.5,1.2,0.5C462.9,78.7,463.3,78.5,463.6,78.2z"/>
			<path class="st2" d="M471.4,73.3c0.4-0.2,0.9-0.4,1.4-0.4v2.3c-0.1,0-0.2,0-0.4,0c-0.6,0-1.1,0.1-1.4,0.4
				c-0.4,0.3-0.6,0.7-0.6,1.1v3.9h-2.5v-7.6h2.5v1.3C470.6,73.9,471,73.6,471.4,73.3z"/>
			<path class="st2" d="M480.1,74.1c0.7,0.7,1,1.7,1,3c0,0.2,0,0.3,0,0.4h-5.3c0.1,0.4,0.3,0.8,0.6,1c0.3,0.2,0.7,0.3,1.1,0.3
				c0.3,0,0.6-0.1,0.9-0.2c0.3-0.1,0.6-0.3,0.8-0.6l1.3,1.3c-0.4,0.4-0.9,0.8-1.4,1c-0.6,0.2-1.2,0.3-1.9,0.3
				c-0.8,0-1.5-0.2-2.1-0.5c-0.6-0.3-1.1-0.8-1.4-1.3c-0.3-0.6-0.5-1.3-0.5-2c0-0.8,0.2-1.5,0.5-2.1c0.3-0.6,0.8-1,1.4-1.4
				s1.3-0.5,2.1-0.5C478.4,73,479.4,73.3,480.1,74.1z M478.6,76.2c0-0.4-0.1-0.8-0.4-1.1s-0.6-0.4-1-0.4c-0.4,0-0.7,0.1-1,0.4
				c-0.3,0.3-0.4,0.6-0.5,1.1H478.6z"/>
			<path class="st2" d="M485,74.7c-0.2,0-0.4,0-0.5,0.1c-0.1,0.1-0.2,0.2-0.2,0.4c0,0.2,0.1,0.3,0.3,0.4c0.2,0.1,0.5,0.2,1,0.3
				c0.5,0.2,1,0.3,1.4,0.5s0.7,0.4,0.9,0.7c0.3,0.3,0.4,0.7,0.4,1.2c0,0.8-0.3,1.4-0.9,1.8s-1.4,0.7-2.3,0.7c-0.6,0-1.3-0.1-1.8-0.3
				s-1.1-0.5-1.6-0.8l0.8-1.6c0.4,0.3,0.9,0.5,1.4,0.7s0.9,0.2,1.3,0.2c0.2,0,0.4,0,0.6-0.1c0.1-0.1,0.2-0.2,0.2-0.3
				c0-0.2-0.1-0.3-0.3-0.4c-0.2-0.1-0.5-0.2-1-0.3c-0.5-0.2-1-0.3-1.3-0.5s-0.6-0.4-0.9-0.7c-0.3-0.3-0.4-0.7-0.4-1.2
				c0-0.8,0.3-1.4,0.9-1.8c0.6-0.4,1.3-0.7,2.2-0.7c0.6,0,1.1,0.1,1.6,0.2c0.5,0.1,1,0.4,1.5,0.7l-0.8,1.6
				C486.4,74.9,485.6,74.7,485,74.7z"/>
			<path class="st2" d="M492.2,74.7c-0.2,0-0.4,0-0.5,0.1c-0.1,0.1-0.2,0.2-0.2,0.4c0,0.2,0.1,0.3,0.3,0.4c0.2,0.1,0.5,0.2,1,0.3
				c0.5,0.2,1,0.3,1.4,0.5s0.7,0.4,0.9,0.7c0.3,0.3,0.4,0.7,0.4,1.2c0,0.8-0.3,1.4-0.9,1.8s-1.4,0.7-2.3,0.7c-0.6,0-1.3-0.1-1.8-0.3
				s-1.1-0.5-1.6-0.8l0.8-1.6c0.4,0.3,0.9,0.5,1.4,0.7s0.9,0.2,1.3,0.2c0.2,0,0.4,0,0.6-0.1c0.1-0.1,0.2-0.2,0.2-0.3
				c0-0.2-0.1-0.3-0.3-0.4c-0.2-0.1-0.5-0.2-1-0.3c-0.5-0.2-1-0.3-1.3-0.5s-0.6-0.4-0.9-0.7c-0.3-0.3-0.4-0.7-0.4-1.2
				c0-0.8,0.3-1.4,0.9-1.8c0.6-0.4,1.3-0.7,2.2-0.7c0.6,0,1.1,0.1,1.6,0.2c0.5,0.1,1,0.4,1.5,0.7l-0.8,1.6
				C493.6,74.9,492.8,74.7,492.2,74.7z"/>
		</g>
	</g>
	<rect x="412.7" y="114.5" class="st18" width="256.9" height="25.4"/>
	<rect x="412.7" y="149.6" class="st18" width="256.9" height="25.4"/>
	<rect x="412.7" y="184.7" class="st0" width="256.9" height="25.4"/>
	<line class="st1" x1="423.2" y1="127.2" x2="450.8" y2="127.2"/>
	<line class="st1" x1="457.6" y1="127.2" x2="512" y2="127.2"/>
	<line class="st19" x1="514" y1="197.4" x2="568.3" y2="197.4"/>
	<line class="st20" x1="423.2" y1="162.3" x2="477.6" y2="162.3"/>
</g>
<g>
	<g>
		<line class="st21" x1="535.7" y1="244.9" x2="535.7" y2="313.4"/>
		<g>
			<polygon class="st11" points="530.8,312 535.7,320.6 540.7,312 			"/>
		</g>
	</g>
</g>
<g>
	<g>
		<g>
			<g>
				<path class="st11" d="M430.3,540.9h6.8v1.2h-5.5v3h4.9v1.2h-4.9v3.1h5.6v1.2h-7V540.9z"/>
				<path class="st11" d="M438.5,543.3h1.5l1.8,2.7l1.9-2.7h1.4l-2.4,3.6l2.6,3.8h-1.5l-2-2.9l-2.1,2.9h-1.5l2.7-3.8L438.5,543.3z"
					/>
				<path class="st11" d="M449.6,544.5c-0.5,0-0.9,0.1-1.3,0.3s-0.7,0.5-0.9,0.9c-0.2,0.4-0.3,0.8-0.3,1.4c0,0.5,0.1,1,0.3,1.4
					s0.5,0.7,0.9,0.9s0.8,0.3,1.3,0.3s0.9-0.1,1.3-0.2s0.7-0.4,1-0.7l0.7,0.8c-0.3,0.4-0.8,0.7-1.3,1s-1.1,0.3-1.8,0.3
					c-0.7,0-1.4-0.2-1.9-0.5c-0.6-0.3-1-0.8-1.3-1.3c-0.3-0.6-0.5-1.2-0.5-1.9c0-0.7,0.2-1.4,0.5-1.9c0.3-0.6,0.7-1,1.3-1.3
					c0.6-0.3,1.2-0.5,1.9-0.5c0.6,0,1.2,0.1,1.7,0.3c0.5,0.2,0.9,0.5,1.3,0.8l-0.7,0.9C451.1,544.7,450.4,544.5,449.6,544.5z"/>
				<path class="st11" d="M460.6,544.1c0.5,0.5,0.7,1.2,0.7,2.1v4.6h-1.3v-4.2c0-0.6-0.2-1.1-0.5-1.5c-0.4-0.4-0.8-0.5-1.4-0.5
					c-0.7,0-1.3,0.3-1.7,0.7c-0.4,0.5-0.6,1.1-0.6,1.8v3.6h-1.3v-10.4h1.3v4.6c0.5-1.1,1.4-1.6,2.8-1.6
					C459.5,543.3,460.1,543.5,460.6,544.1z"/>
				<path class="st11" d="M468.2,550.7v-1c-0.6,0.7-1.4,1.1-2.6,1.1c-0.5,0-1-0.1-1.4-0.3c-0.4-0.2-0.7-0.5-0.9-0.8
					s-0.3-0.7-0.3-1.2c0-0.7,0.2-1.2,0.7-1.6c0.5-0.4,1.2-0.6,2.1-0.6h2.4V546c0-0.5-0.2-0.9-0.5-1.2c-0.3-0.3-0.8-0.4-1.4-0.4
					c-0.7,0-1.5,0.3-2.3,0.8l-0.5-0.9c0.5-0.3,1-0.6,1.5-0.7c0.5-0.2,1-0.2,1.6-0.2c0.9,0,1.6,0.2,2.1,0.7c0.5,0.5,0.8,1.1,0.8,1.9
					l0,4.9H468.2z M467.4,549.3c0.4-0.3,0.7-0.7,0.8-1.2v-0.7H466c-0.6,0-1,0.1-1.3,0.3c-0.3,0.2-0.4,0.5-0.4,0.8
					c0,0.4,0.1,0.7,0.4,0.9c0.3,0.2,0.7,0.3,1.2,0.3C466.5,549.7,467,549.6,467.4,549.3z"/>
				<path class="st11" d="M478,544.1c0.5,0.5,0.7,1.2,0.7,2.1v4.6h-1.3v-4.2c0-0.6-0.2-1.1-0.5-1.5c-0.4-0.4-0.8-0.5-1.4-0.5
					c-0.7,0-1.2,0.2-1.6,0.6c-0.4,0.4-0.7,1-0.7,1.6v4h-1.3v-7.4h1.3v1.6c0.5-1.1,1.4-1.6,2.8-1.6
					C476.8,543.3,477.5,543.5,478,544.1z"/>
				<path class="st11" d="M487.6,543.3v6.6c0,0.7-0.2,1.3-0.5,1.9c-0.3,0.5-0.8,0.9-1.3,1.2c-0.6,0.3-1.2,0.4-2,0.4
					c-1.1,0-2.1-0.3-3.1-1l0.6-1c0.4,0.3,0.7,0.5,1.1,0.7s0.8,0.2,1.3,0.2c0.8,0,1.4-0.2,1.8-0.6c0.5-0.4,0.7-1,0.7-1.7v-1
					c-0.3,0.4-0.6,0.8-1.1,1c-0.4,0.2-1,0.4-1.5,0.4c-0.7,0-1.2-0.2-1.8-0.5s-0.9-0.7-1.2-1.3c-0.3-0.5-0.4-1.2-0.4-1.9
					c0-0.7,0.1-1.3,0.4-1.8c0.3-0.5,0.7-0.9,1.2-1.2s1.1-0.4,1.8-0.4c0.6,0,1.1,0.1,1.5,0.4c0.4,0.2,0.8,0.6,1.1,1v-1.4H487.6z
					 M485.2,549c0.4-0.2,0.6-0.5,0.8-0.9c0.2-0.4,0.3-0.8,0.3-1.3c0-0.5-0.1-0.9-0.3-1.3s-0.5-0.7-0.8-0.9c-0.4-0.2-0.8-0.3-1.2-0.3
					c-0.5,0-0.9,0.1-1.2,0.3c-0.4,0.2-0.6,0.5-0.8,0.9c-0.2,0.4-0.3,0.8-0.3,1.3c0,0.7,0.2,1.3,0.7,1.8c0.4,0.5,1,0.7,1.7,0.7
					C484.4,549.4,484.8,549.2,485.2,549z"/>
				<path class="st11" d="M495.6,544.3c0.6,0.7,0.9,1.6,0.9,2.8c0,0.2,0,0.3,0,0.4h-5.9c0.1,0.7,0.4,1.2,0.8,1.6
					c0.5,0.4,1,0.6,1.7,0.6c0.4,0,0.8-0.1,1.2-0.2c0.4-0.2,0.7-0.4,1-0.7l0.7,0.7c-0.4,0.4-0.8,0.7-1.3,0.9
					c-0.5,0.2-1.1,0.3-1.7,0.3c-0.7,0-1.4-0.2-1.9-0.5c-0.6-0.3-1-0.8-1.3-1.3c-0.3-0.6-0.5-1.2-0.5-1.9c0-0.7,0.2-1.4,0.5-1.9
					c0.3-0.6,0.7-1,1.3-1.3c0.6-0.3,1.2-0.5,1.9-0.5C494.1,543.3,495,543.6,495.6,544.3z M495.3,546.5c0-0.7-0.3-1.2-0.7-1.6
					s-1-0.6-1.6-0.6c-0.7,0-1.2,0.2-1.6,0.6c-0.4,0.4-0.7,0.9-0.8,1.6H495.3z"/>
				<path class="st11" d="M505.9,550.2c-0.6,0.4-1.1,0.5-1.7,0.5c-0.6,0-1.1-0.2-1.4-0.5c-0.4-0.3-0.5-0.9-0.5-1.6v-4.1h-1v-1h1v-2
					h1.3v2h2.3v1h-2.3v3.9c0,0.4,0.1,0.7,0.2,0.9c0.1,0.2,0.4,0.3,0.7,0.3c0.4,0,0.7-0.1,1.1-0.4L505.9,550.2z"/>
				<path class="st11" d="M512.4,543.8c0.6,0.3,1,0.8,1.3,1.3c0.3,0.6,0.5,1.2,0.5,1.9s-0.2,1.4-0.5,1.9c-0.3,0.6-0.8,1-1.3,1.3
					c-0.6,0.3-1.2,0.5-2,0.5c-0.7,0-1.4-0.2-2-0.5c-0.6-0.3-1-0.8-1.3-1.3c-0.3-0.6-0.5-1.2-0.5-2c0-0.7,0.2-1.4,0.5-1.9
					c0.3-0.6,0.8-1,1.3-1.3c0.6-0.3,1.2-0.5,2-0.5C511.2,543.3,511.8,543.4,512.4,543.8z M509.1,544.8c-0.4,0.2-0.7,0.5-0.9,0.9
					c-0.2,0.4-0.3,0.8-0.3,1.4c0,0.5,0.1,1,0.3,1.4c0.2,0.4,0.5,0.7,0.9,0.9c0.4,0.2,0.8,0.3,1.3,0.3c0.5,0,0.9-0.1,1.3-0.3
					c0.4-0.2,0.7-0.5,0.9-0.9s0.3-0.9,0.3-1.4c0-0.5-0.1-1-0.3-1.4s-0.5-0.7-0.9-0.9c-0.4-0.2-0.8-0.3-1.3-0.3
					C510,544.4,509.5,544.5,509.1,544.8z"/>
				<path class="st11" d="M521.1,543.8c0.6,0.3,1,0.8,1.3,1.3c0.3,0.6,0.5,1.2,0.5,1.9s-0.2,1.4-0.5,1.9c-0.3,0.6-0.8,1-1.3,1.3
					c-0.6,0.3-1.2,0.5-2,0.5c-0.7,0-1.4-0.2-2-0.5c-0.6-0.3-1-0.8-1.3-1.3c-0.3-0.6-0.5-1.2-0.5-2c0-0.7,0.2-1.4,0.5-1.9
					c0.3-0.6,0.8-1,1.3-1.3c0.6-0.3,1.2-0.5,2-0.5C519.9,543.3,520.5,543.4,521.1,543.8z M517.8,544.8c-0.4,0.2-0.7,0.5-0.9,0.9
					c-0.2,0.4-0.3,0.8-0.3,1.4c0,0.5,0.1,1,0.3,1.4c0.2,0.4,0.5,0.7,0.9,0.9c0.4,0.2,0.8,0.3,1.3,0.3c0.5,0,0.9-0.1,1.3-0.3
					c0.4-0.2,0.7-0.5,0.9-0.9s0.3-0.9,0.3-1.4c0-0.5-0.1-1-0.3-1.4s-0.5-0.7-0.9-0.9c-0.4-0.2-0.8-0.3-1.3-0.3
					C518.6,544.4,518.2,544.5,517.8,544.8z"/>
				<path class="st11" d="M524.8,540.4h1.3v10.4h-1.3V540.4z"/>
				<path class="st11" d="M536.4,550.2c-0.6,0.4-1.1,0.5-1.7,0.5c-0.6,0-1.1-0.2-1.4-0.5c-0.4-0.3-0.5-0.9-0.5-1.6v-4.1h-1v-1h1v-2
					h1.3v2h2.3v1H534v3.9c0,0.4,0.1,0.7,0.2,0.9c0.1,0.2,0.4,0.3,0.7,0.3c0.4,0,0.7-0.1,1.1-0.4L536.4,550.2z"/>
				<path class="st11" d="M544.2,544.1c0.5,0.5,0.7,1.2,0.7,2.1v4.6h-1.3v-4.2c0-0.6-0.2-1.1-0.5-1.5c-0.4-0.4-0.8-0.5-1.4-0.5
					c-0.7,0-1.3,0.3-1.7,0.7c-0.4,0.5-0.6,1.1-0.6,1.8v3.6H538v-10.4h1.3v4.6c0.5-1.1,1.4-1.6,2.8-1.6
					C543,543.3,543.7,543.5,544.2,544.1z"/>
				<path class="st11" d="M551.8,550.7v-1c-0.6,0.7-1.4,1.1-2.6,1.1c-0.5,0-1-0.1-1.4-0.3c-0.4-0.2-0.7-0.5-0.9-0.8
					s-0.3-0.7-0.3-1.2c0-0.7,0.2-1.2,0.7-1.6c0.5-0.4,1.2-0.6,2.1-0.6h2.4V546c0-0.5-0.2-0.9-0.5-1.2c-0.3-0.3-0.8-0.4-1.4-0.4
					c-0.7,0-1.5,0.3-2.3,0.8l-0.5-0.9c0.5-0.3,1-0.6,1.5-0.7c0.5-0.2,1-0.2,1.6-0.2c0.9,0,1.6,0.2,2.1,0.7c0.5,0.5,0.8,1.1,0.8,1.9
					l0,4.9H551.8z M551,549.3c0.4-0.3,0.7-0.7,0.8-1.2v-0.7h-2.2c-0.6,0-1,0.1-1.3,0.3c-0.3,0.2-0.4,0.5-0.4,0.8
					c0,0.4,0.1,0.7,0.4,0.9c0.3,0.2,0.7,0.3,1.2,0.3C550.1,549.7,550.6,549.6,551,549.3z"/>
				<path class="st11" d="M559.4,550.2c-0.6,0.4-1.1,0.5-1.7,0.5c-0.6,0-1.1-0.2-1.4-0.5c-0.4-0.3-0.5-0.9-0.5-1.6v-4.1h-1v-1h1v-2
					h1.3v2h2.3v1H557v3.9c0,0.4,0.1,0.7,0.2,0.9c0.1,0.2,0.4,0.3,0.7,0.3c0.4,0,0.7-0.1,1.1-0.4L559.4,550.2z"/>
				<path class="st11" d="M569.2,550.7v-1c-0.6,0.7-1.4,1.1-2.6,1.1c-0.5,0-1-0.1-1.4-0.3c-0.4-0.2-0.7-0.5-0.9-0.8
					s-0.3-0.7-0.3-1.2c0-0.7,0.2-1.2,0.7-1.6c0.5-0.4,1.2-0.6,2.1-0.6h2.4V546c0-0.5-0.2-0.9-0.5-1.2c-0.3-0.3-0.8-0.4-1.4-0.4
					c-0.7,0-1.5,0.3-2.3,0.8l-0.5-0.9c0.5-0.3,1-0.6,1.5-0.7c0.5-0.2,1-0.2,1.6-0.2c0.9,0,1.6,0.2,2.1,0.7c0.5,0.5,0.8,1.1,0.8,1.9
					l0,4.9H569.2z M568.4,549.3c0.4-0.3,0.7-0.7,0.8-1.2v-0.7H567c-0.6,0-1,0.1-1.3,0.3c-0.3,0.2-0.4,0.5-0.4,0.8
					c0,0.4,0.1,0.7,0.4,0.9c0.3,0.2,0.7,0.3,1.2,0.3C567.4,549.7,567.9,549.6,568.4,549.3z"/>
				<path class="st11" d="M572.8,540.4h1.3v10.4h-1.3V540.4z"/>
				<path class="st11" d="M576.8,540.4h1.3v10.4h-1.3V540.4z"/>
				<path class="st11" d="M585.8,543.8c0.6,0.3,1,0.8,1.3,1.3c0.3,0.6,0.5,1.2,0.5,1.9s-0.2,1.4-0.5,1.9c-0.3,0.6-0.8,1-1.3,1.3
					c-0.6,0.3-1.2,0.5-2,0.5c-0.7,0-1.4-0.2-2-0.5c-0.6-0.3-1-0.8-1.3-1.3c-0.3-0.6-0.5-1.2-0.5-2c0-0.7,0.2-1.4,0.5-1.9
					c0.3-0.6,0.8-1,1.3-1.3c0.6-0.3,1.2-0.5,2-0.5C584.6,543.3,585.2,543.4,585.8,543.8z M582.5,544.8c-0.4,0.2-0.7,0.5-0.9,0.9
					c-0.2,0.4-0.3,0.8-0.3,1.4c0,0.5,0.1,1,0.3,1.4c0.2,0.4,0.5,0.7,0.9,0.9c0.4,0.2,0.8,0.3,1.3,0.3c0.5,0,0.9-0.1,1.3-0.3
					c0.4-0.2,0.7-0.5,0.9-0.9s0.3-0.9,0.3-1.4c0-0.5-0.1-1-0.3-1.4s-0.5-0.7-0.9-0.9c-0.4-0.2-0.8-0.3-1.3-0.3
					C583.3,544.4,582.9,544.5,582.5,544.8z"/>
				<path class="st11" d="M588,543.3h1.4l2.1,6.1l2-6.1h1.4l2.1,6.1l2-6.1h1.3l-2.7,7.4h-1.4l-2-5.8l-2,5.8h-1.4L588,543.3z"/>
				<path class="st11" d="M604.4,544.5c-0.4-0.1-0.7-0.2-1.1-0.2c-0.4,0-0.7,0.1-0.9,0.2c-0.2,0.1-0.4,0.4-0.4,0.7s0.1,0.5,0.4,0.7
					s0.7,0.3,1.2,0.5c0.5,0.2,0.9,0.3,1.3,0.4c0.3,0.1,0.6,0.4,0.8,0.7c0.2,0.3,0.3,0.7,0.3,1.1c0,0.7-0.3,1.2-0.8,1.6
					s-1.2,0.5-2,0.5c-0.6,0-1.1-0.1-1.6-0.3c-0.5-0.2-1-0.4-1.3-0.8l0.5-1c0.3,0.3,0.7,0.5,1.1,0.7c0.5,0.2,0.9,0.3,1.3,0.3
					s0.8-0.1,1-0.2s0.4-0.4,0.4-0.7c0-0.3-0.1-0.6-0.4-0.8s-0.7-0.3-1.3-0.5c-0.5-0.1-0.9-0.3-1.2-0.4c-0.3-0.1-0.6-0.4-0.8-0.6
					c-0.2-0.3-0.3-0.6-0.3-1.1c0-0.7,0.3-1.2,0.8-1.6c0.5-0.3,1.1-0.5,1.9-0.5c0.4,0,0.9,0.1,1.3,0.2c0.4,0.1,0.8,0.3,1.1,0.5
					l-0.5,1C605.1,544.8,604.8,544.6,604.4,544.5z"/>
				<path class="st11" d="M615.5,550.2c-0.6,0.4-1.1,0.5-1.7,0.5c-0.6,0-1.1-0.2-1.4-0.5c-0.4-0.3-0.5-0.9-0.5-1.6v-4.1h-1v-1h1v-2
					h1.3v2h2.3v1h-2.3v3.9c0,0.4,0.1,0.7,0.2,0.9s0.4,0.3,0.7,0.3c0.4,0,0.7-0.1,1.1-0.4L615.5,550.2z"/>
				<path class="st11" d="M622,543.8c0.6,0.3,1,0.8,1.3,1.3c0.3,0.6,0.5,1.2,0.5,1.9s-0.2,1.4-0.5,1.9c-0.3,0.6-0.8,1-1.3,1.3
					c-0.6,0.3-1.2,0.5-2,0.5c-0.7,0-1.4-0.2-2-0.5c-0.6-0.3-1-0.8-1.3-1.3s-0.5-1.2-0.5-2c0-0.7,0.2-1.4,0.5-1.9
					c0.3-0.6,0.8-1,1.3-1.3c0.6-0.3,1.2-0.5,2-0.5C620.8,543.3,621.4,543.4,622,543.8z M618.7,544.8c-0.4,0.2-0.7,0.5-0.9,0.9
					s-0.3,0.8-0.3,1.4c0,0.5,0.1,1,0.3,1.4s0.5,0.7,0.9,0.9c0.4,0.2,0.8,0.3,1.3,0.3c0.5,0,0.9-0.1,1.3-0.3c0.4-0.2,0.7-0.5,0.9-0.9
					c0.2-0.4,0.3-0.9,0.3-1.4c0-0.5-0.1-1-0.3-1.4c-0.2-0.4-0.5-0.7-0.9-0.9c-0.4-0.2-0.8-0.3-1.3-0.3
					C619.6,544.4,619.1,544.5,618.7,544.8z"/>
				<path class="st11" d="M635.3,543.8c0.5,0.3,1,0.8,1.3,1.3c0.3,0.6,0.4,1.2,0.4,2c0,0.7-0.1,1.4-0.4,1.9c-0.3,0.6-0.7,1-1.2,1.3
					c-0.5,0.3-1.2,0.5-1.8,0.5c-0.6,0-1.2-0.1-1.7-0.4c-0.5-0.3-0.8-0.6-1.1-1.1v1.5h-1.3v-10.4h1.3v4.5c0.3-0.5,0.6-0.9,1.1-1.1
					c0.5-0.3,1-0.4,1.6-0.4C634.1,543.3,634.7,543.4,635.3,543.8z M634.5,549.3c0.4-0.2,0.7-0.5,0.9-0.9c0.2-0.4,0.3-0.9,0.3-1.4
					c0-0.5-0.1-0.9-0.3-1.3c-0.2-0.4-0.5-0.7-0.9-0.9s-0.8-0.3-1.3-0.3c-0.5,0-0.9,0.1-1.3,0.3s-0.7,0.5-0.9,0.9
					c-0.2,0.4-0.3,0.8-0.3,1.3c0,0.5,0.1,1,0.3,1.4s0.5,0.7,0.9,0.9c0.4,0.2,0.8,0.3,1.3,0.3C633.7,549.6,634.1,549.5,634.5,549.3z"
					/>
				<path class="st11" d="M645.4,543.3v7.4H644v-1.6c-0.5,1.1-1.4,1.6-2.7,1.6c-0.9,0-1.5-0.3-2-0.8c-0.5-0.5-0.7-1.2-0.7-2.1v-4.6
					h1.3v4.2c0,0.6,0.2,1.1,0.5,1.5c0.3,0.3,0.8,0.5,1.4,0.5c0.7,0,1.2-0.3,1.6-0.7c0.4-0.5,0.6-1.1,0.6-1.8v-3.6H645.4z"/>
				<path class="st11" d="M649.6,553.1c-0.4,0.3-0.8,0.4-1.4,0.4c-0.3,0-0.6,0-0.9-0.1c-0.3-0.1-0.5-0.2-0.8-0.4l0.6-1
					c0.3,0.2,0.7,0.4,1,0.4c0.6,0,1-0.3,1.3-1l0.3-0.7l-3.1-7.3h1.4l2.4,5.9l2.2-5.9h1.3l-3.4,8.5
					C650.3,552.4,649.9,552.8,649.6,553.1z"/>
				<path class="st11" d="M435.7,560.9h7.7v1.2h-3.2v8.6h-1.3v-8.6h-3.1V560.9z"/>
				<path class="st11" d="M448.8,563.8c0.6,0.3,1,0.8,1.3,1.3c0.3,0.6,0.5,1.2,0.5,1.9s-0.2,1.4-0.5,1.9c-0.3,0.6-0.8,1-1.3,1.3
					c-0.6,0.3-1.2,0.5-2,0.5c-0.7,0-1.4-0.2-2-0.5c-0.6-0.3-1-0.8-1.3-1.3c-0.3-0.6-0.5-1.2-0.5-2c0-0.7,0.2-1.4,0.5-1.9
					c0.3-0.6,0.8-1,1.3-1.3c0.6-0.3,1.2-0.5,2-0.5C447.6,563.3,448.2,563.4,448.8,563.8z M445.5,564.8c-0.4,0.2-0.7,0.5-0.9,0.9
					c-0.2,0.4-0.3,0.8-0.3,1.4c0,0.5,0.1,1,0.3,1.4c0.2,0.4,0.5,0.7,0.9,0.9c0.4,0.2,0.8,0.3,1.3,0.3c0.5,0,0.9-0.1,1.3-0.3
					c0.4-0.2,0.7-0.5,0.9-0.9s0.3-0.9,0.3-1.4c0-0.5-0.1-1-0.3-1.4s-0.5-0.7-0.9-0.9c-0.4-0.2-0.8-0.3-1.3-0.3
					C446.3,564.4,445.9,564.5,445.5,564.8z"/>
				<path class="st11" d="M457.6,570.7l-2.4-3.6l-1.4,1.5v2.1h-1.3v-10.4h1.3v6.6l3.6-3.6h1.5l-2.8,2.9l3,4.5H457.6z"/>
				<path class="st11" d="M465.8,564.3c0.6,0.7,0.9,1.6,0.9,2.8c0,0.2,0,0.3,0,0.4h-5.9c0.1,0.7,0.4,1.2,0.8,1.6
					c0.5,0.4,1,0.6,1.7,0.6c0.4,0,0.8-0.1,1.2-0.2c0.4-0.2,0.7-0.4,1-0.7l0.7,0.7c-0.4,0.4-0.8,0.7-1.3,0.9
					c-0.5,0.2-1.1,0.3-1.7,0.3c-0.7,0-1.4-0.2-1.9-0.5c-0.6-0.3-1-0.8-1.3-1.3c-0.3-0.6-0.5-1.2-0.5-1.9c0-0.7,0.2-1.4,0.5-1.9
					c0.3-0.6,0.7-1,1.3-1.3c0.6-0.3,1.2-0.5,1.9-0.5C464.4,563.3,465.2,563.6,465.8,564.3z M465.5,566.5c0-0.7-0.3-1.2-0.7-1.6
					s-1-0.6-1.6-0.6c-0.7,0-1.2,0.2-1.6,0.6c-0.4,0.4-0.7,0.9-0.8,1.6H465.5z"/>
				<path class="st11" d="M474.6,564.1c0.5,0.5,0.7,1.2,0.7,2.1v4.6h-1.3v-4.2c0-0.6-0.2-1.1-0.5-1.5c-0.4-0.4-0.8-0.5-1.4-0.5
					c-0.7,0-1.2,0.2-1.6,0.6c-0.4,0.4-0.7,1-0.7,1.6v4h-1.3v-7.4h1.3v1.6c0.5-1.1,1.4-1.6,2.8-1.6
					C473.5,563.3,474.1,563.5,474.6,564.1z"/>
				<path class="st11" d="M480.7,564.5c-0.4-0.1-0.7-0.2-1.1-0.2c-0.4,0-0.7,0.1-0.9,0.2c-0.2,0.1-0.4,0.4-0.4,0.7s0.1,0.5,0.4,0.7
					c0.3,0.2,0.7,0.3,1.2,0.5c0.5,0.2,0.9,0.3,1.3,0.4c0.3,0.1,0.6,0.4,0.8,0.7c0.2,0.3,0.3,0.7,0.3,1.1c0,0.7-0.3,1.2-0.8,1.6
					c-0.5,0.4-1.2,0.5-2,0.5c-0.6,0-1.1-0.1-1.6-0.3s-1-0.4-1.3-0.8l0.5-1c0.3,0.3,0.7,0.5,1.1,0.7c0.5,0.2,0.9,0.3,1.3,0.3
					s0.8-0.1,1-0.2s0.4-0.4,0.4-0.7c0-0.3-0.1-0.6-0.4-0.8s-0.7-0.3-1.3-0.5c-0.5-0.1-0.9-0.3-1.2-0.4c-0.3-0.1-0.6-0.4-0.8-0.6
					c-0.2-0.3-0.3-0.6-0.3-1.1c0-0.7,0.3-1.2,0.8-1.6c0.5-0.3,1.1-0.5,1.9-0.5c0.4,0,0.9,0.1,1.3,0.2c0.4,0.1,0.8,0.3,1.1,0.5
					l-0.5,1C481.4,564.8,481.1,564.6,480.7,564.5z"/>
				<path class="st11" d="M490.9,564.5c-0.5,0-0.9,0.1-1.3,0.3s-0.7,0.5-0.9,0.9c-0.2,0.4-0.3,0.8-0.3,1.4c0,0.5,0.1,1,0.3,1.4
					s0.5,0.7,0.9,0.9s0.8,0.3,1.3,0.3s0.9-0.1,1.3-0.2s0.7-0.4,1-0.7l0.7,0.8c-0.3,0.4-0.8,0.7-1.3,1s-1.1,0.3-1.8,0.3
					c-0.7,0-1.4-0.2-1.9-0.5c-0.6-0.3-1-0.8-1.3-1.3c-0.3-0.6-0.5-1.2-0.5-1.9c0-0.7,0.2-1.4,0.5-1.9c0.3-0.6,0.7-1,1.3-1.3
					c0.6-0.3,1.2-0.5,1.9-0.5c0.6,0,1.2,0.1,1.7,0.3c0.5,0.2,0.9,0.5,1.3,0.8l-0.7,0.9C492.4,564.7,491.7,564.5,490.9,564.5z"/>
				<path class="st11" d="M498,563.7c0.4-0.3,1-0.4,1.6-0.4v1.3c-0.8,0-1.4,0.2-1.8,0.6s-0.7,1-0.8,1.7v3.9h-1.3v-7.4h1.3v1.6
					C497.2,564.4,497.6,564,498,563.7z"/>
				<path class="st11" d="M506.6,564.3c0.6,0.7,0.9,1.6,0.9,2.8c0,0.2,0,0.3,0,0.4h-5.9c0.1,0.7,0.4,1.2,0.8,1.6
					c0.5,0.4,1,0.6,1.7,0.6c0.4,0,0.8-0.1,1.2-0.2c0.4-0.2,0.7-0.4,1-0.7l0.7,0.7c-0.4,0.4-0.8,0.7-1.3,0.9
					c-0.5,0.2-1.1,0.3-1.7,0.3c-0.7,0-1.4-0.2-1.9-0.5c-0.6-0.3-1-0.8-1.3-1.3c-0.3-0.6-0.5-1.2-0.5-1.9c0-0.7,0.2-1.4,0.5-1.9
					c0.3-0.6,0.7-1,1.3-1.3c0.6-0.3,1.2-0.5,1.9-0.5C505.1,563.3,506,563.6,506.6,564.3z M506.3,566.5c0-0.7-0.3-1.2-0.7-1.6
					s-1-0.6-1.6-0.6c-0.7,0-1.2,0.2-1.6,0.6c-0.4,0.4-0.7,0.9-0.8,1.6H506.3z"/>
				<path class="st11" d="M513.8,570.7v-1c-0.6,0.7-1.4,1.1-2.6,1.1c-0.5,0-1-0.1-1.4-0.3c-0.4-0.2-0.7-0.5-0.9-0.8
					s-0.3-0.7-0.3-1.2c0-0.7,0.2-1.2,0.7-1.6c0.5-0.4,1.2-0.6,2.1-0.6h2.4V566c0-0.5-0.2-0.9-0.5-1.2c-0.3-0.3-0.8-0.4-1.4-0.4
					c-0.7,0-1.5,0.3-2.3,0.8l-0.5-0.9c0.5-0.3,1-0.6,1.5-0.7c0.5-0.2,1-0.2,1.6-0.2c0.9,0,1.6,0.2,2.1,0.7c0.5,0.5,0.8,1.1,0.8,1.9
					l0,4.9H513.8z M513,569.3c0.4-0.3,0.7-0.7,0.8-1.2v-0.7h-2.2c-0.6,0-1,0.1-1.3,0.3c-0.3,0.2-0.4,0.5-0.4,0.8
					c0,0.4,0.1,0.7,0.4,0.9c0.3,0.2,0.7,0.3,1.2,0.3C512.1,569.7,512.6,569.6,513,569.3z"/>
				<path class="st11" d="M521.4,570.2c-0.6,0.4-1.1,0.5-1.7,0.5c-0.6,0-1.1-0.2-1.4-0.5c-0.4-0.3-0.5-0.9-0.5-1.6v-4.1h-1v-1h1v-2
					h1.3v2h2.3v1H519v3.9c0,0.4,0.1,0.7,0.2,0.9c0.1,0.2,0.4,0.3,0.7,0.3c0.4,0,0.7-0.1,1.1-0.4L521.4,570.2z"/>
				<path class="st11" d="M528.4,564.3c0.6,0.7,0.9,1.6,0.9,2.8c0,0.2,0,0.3,0,0.4h-5.9c0.1,0.7,0.4,1.2,0.8,1.6
					c0.5,0.4,1,0.6,1.7,0.6c0.4,0,0.8-0.1,1.2-0.2c0.4-0.2,0.7-0.4,1-0.7l0.7,0.7c-0.4,0.4-0.8,0.7-1.3,0.9
					c-0.5,0.2-1.1,0.3-1.7,0.3c-0.7,0-1.4-0.2-1.9-0.5c-0.6-0.3-1-0.8-1.3-1.3c-0.3-0.6-0.5-1.2-0.5-1.9c0-0.7,0.2-1.4,0.5-1.9
					c0.3-0.6,0.7-1,1.3-1.3c0.6-0.3,1.2-0.5,1.9-0.5C527,563.3,527.8,563.6,528.4,564.3z M528.1,566.5c0-0.7-0.3-1.2-0.7-1.6
					s-1-0.6-1.6-0.6c-0.7,0-1.2,0.2-1.6,0.6c-0.4,0.4-0.7,0.9-0.8,1.6H528.1z"/>
				<path class="st11" d="M538,560.4v10.4h-1.3v-1.5c-0.3,0.5-0.7,0.9-1.1,1.1c-0.5,0.3-1,0.4-1.6,0.4c-0.7,0-1.3-0.2-1.9-0.5
					c-0.5-0.3-1-0.8-1.3-1.3c-0.3-0.6-0.4-1.2-0.4-2c0-0.7,0.1-1.4,0.4-1.9c0.3-0.6,0.7-1,1.3-1.3c0.5-0.3,1.1-0.5,1.8-0.5
					c0.6,0,1.2,0.1,1.7,0.4c0.5,0.3,0.8,0.6,1.1,1.1v-4.5H538z M535.5,569.4c0.4-0.2,0.7-0.5,0.9-0.9c0.2-0.4,0.3-0.9,0.3-1.4
					c0-0.5-0.1-1-0.3-1.4c-0.2-0.4-0.5-0.7-0.9-0.9s-0.8-0.3-1.3-0.3c-0.5,0-0.9,0.1-1.3,0.3c-0.4,0.2-0.7,0.5-0.9,0.9
					c-0.2,0.4-0.3,0.9-0.3,1.4s0.1,1,0.3,1.4c0.2,0.4,0.5,0.7,0.9,0.9c0.4,0.2,0.8,0.3,1.3,0.3C534.7,569.7,535.1,569.6,535.5,569.4
					z"/>
				<path class="st11" d="M543,563.3h1.4l2.2,6.1l2.2-6.1h1.3l-2.9,7.4h-1.4L543,563.3z"/>
				<path class="st11" d="M552.6,560.6c0.2,0.2,0.2,0.4,0.2,0.6c0,0.2-0.1,0.4-0.2,0.6s-0.3,0.2-0.6,0.2s-0.4-0.1-0.6-0.2
					c-0.2-0.2-0.2-0.4-0.2-0.6c0-0.2,0.1-0.4,0.2-0.6c0.2-0.2,0.3-0.2,0.6-0.2S552.5,560.5,552.6,560.6z M551.4,563.3h1.3v7.4h-1.3
					V563.3z"/>
				<path class="st11" d="M559.8,570.7v-1c-0.6,0.7-1.4,1.1-2.6,1.1c-0.5,0-1-0.1-1.4-0.3c-0.4-0.2-0.7-0.5-0.9-0.8
					s-0.3-0.7-0.3-1.2c0-0.7,0.2-1.2,0.7-1.6c0.5-0.4,1.2-0.6,2.1-0.6h2.4V566c0-0.5-0.2-0.9-0.5-1.2c-0.3-0.3-0.8-0.4-1.4-0.4
					c-0.7,0-1.5,0.3-2.3,0.8l-0.5-0.9c0.5-0.3,1-0.6,1.5-0.7c0.5-0.2,1-0.2,1.6-0.2c0.9,0,1.6,0.2,2.1,0.7c0.5,0.5,0.8,1.1,0.8,1.9
					l0,4.9H559.8z M559,569.3c0.4-0.3,0.7-0.7,0.8-1.2v-0.7h-2.2c-0.6,0-1,0.1-1.3,0.3c-0.3,0.2-0.4,0.5-0.4,0.8
					c0,0.4,0.1,0.7,0.4,0.9c0.3,0.2,0.7,0.3,1.2,0.3C558.1,569.7,558.6,569.6,559,569.3z"/>
				<path class="st11" d="M567.2,560.9h1.3v9.8h-1.3V560.9z"/>
				<path class="st11" d="M577.1,562.4c-0.5-0.2-1-0.3-1.5-0.3c-0.7,0-1.3,0.2-1.9,0.5c-0.6,0.3-1,0.8-1.4,1.4s-0.5,1.2-0.5,1.9
					c0,0.7,0.2,1.3,0.5,1.9c0.3,0.6,0.8,1,1.4,1.4c0.6,0.3,1.2,0.5,1.9,0.5c0.5,0,1-0.1,1.5-0.3c0.5-0.2,0.9-0.5,1.3-0.9l0.8,0.9
					c-0.5,0.5-1.1,0.9-1.7,1.1s-1.3,0.4-2,0.4c-0.9,0-1.8-0.2-2.6-0.7c-0.8-0.4-1.4-1-1.8-1.8c-0.4-0.8-0.7-1.6-0.7-2.5
					c0-0.9,0.2-1.8,0.7-2.5s1.1-1.4,1.9-1.8c0.8-0.4,1.6-0.7,2.6-0.7c0.7,0,1.3,0.1,2,0.4c0.6,0.3,1.2,0.6,1.7,1.1l-0.8,1
					C578,562.9,577.6,562.6,577.1,562.4z"/>
				<path class="st11" d="M587.8,561.5c0.8,0.4,1.4,1,1.9,1.8s0.7,1.6,0.7,2.5s-0.2,1.8-0.7,2.5c-0.5,0.8-1.1,1.4-1.9,1.8
					c-0.8,0.4-1.7,0.7-2.6,0.7c-0.9,0-1.8-0.2-2.6-0.7s-1.4-1-1.9-1.8c-0.5-0.8-0.7-1.6-0.7-2.5s0.2-1.8,0.7-2.5
					c0.5-0.8,1.1-1.4,1.9-1.8c0.8-0.4,1.7-0.7,2.6-0.7C586.1,560.9,587,561.1,587.8,561.5z M583.3,562.6c-0.6,0.3-1,0.8-1.4,1.4
					c-0.3,0.6-0.5,1.2-0.5,1.9s0.2,1.3,0.5,1.9c0.3,0.6,0.8,1,1.4,1.4c0.6,0.3,1.2,0.5,1.9,0.5c0.7,0,1.3-0.2,1.9-0.5
					c0.6-0.3,1-0.8,1.4-1.4c0.3-0.6,0.5-1.2,0.5-1.9s-0.2-1.3-0.5-1.9c-0.3-0.6-0.8-1-1.4-1.4c-0.6-0.3-1.2-0.5-1.9-0.5
					C584.5,562.1,583.9,562.2,583.3,562.6z"/>
				<path class="st11" d="M595.9,560.9h6.8v1.2h-5.5v3h4.9v1.2h-4.9v3.1h5.6v1.2h-7V560.9z"/>
				<path class="st11" d="M604.1,563.3h1.5l1.8,2.7l1.9-2.7h1.4l-2.4,3.6l2.6,3.8h-1.5l-2-2.9l-2.1,2.9h-1.5l2.7-3.8L604.1,563.3z"
					/>
				<path class="st11" d="M618.5,563.8c0.5,0.3,1,0.8,1.3,1.3c0.3,0.6,0.4,1.2,0.4,2c0,0.7-0.1,1.4-0.4,1.9s-0.7,1-1.2,1.3
					s-1.2,0.5-1.8,0.5c-0.6,0-1.2-0.1-1.7-0.4c-0.5-0.3-0.8-0.6-1.1-1.1v4.2h-1.3v-10.1h1.3v1.5c0.3-0.5,0.6-0.9,1.1-1.1
					s1-0.4,1.6-0.4C617.3,563.3,617.9,563.4,618.5,563.8z M617.6,569.3c0.4-0.2,0.7-0.5,0.9-0.9c0.2-0.4,0.3-0.9,0.3-1.4
					c0-0.5-0.1-0.9-0.3-1.3c-0.2-0.4-0.5-0.7-0.9-0.9c-0.4-0.2-0.8-0.3-1.3-0.3c-0.5,0-0.9,0.1-1.3,0.3c-0.4,0.2-0.7,0.5-0.9,0.9
					c-0.2,0.4-0.3,0.8-0.3,1.3c0,0.5,0.1,1,0.3,1.4s0.5,0.7,0.9,0.9c0.4,0.2,0.8,0.3,1.3,0.3C616.8,569.6,617.3,569.5,617.6,569.3z"
					/>
				<path class="st11" d="M624.3,563.7c0.4-0.3,1-0.4,1.6-0.4v1.3c-0.8,0-1.4,0.2-1.8,0.6s-0.7,1-0.8,1.7v3.9H622v-7.4h1.3v1.6
					C623.5,564.4,623.9,564,624.3,563.7z"/>
				<path class="st11" d="M632.9,564.3c0.6,0.7,0.9,1.6,0.9,2.8c0,0.2,0,0.3,0,0.4h-5.9c0.1,0.7,0.4,1.2,0.8,1.6
					c0.5,0.4,1,0.6,1.7,0.6c0.4,0,0.8-0.1,1.2-0.2c0.4-0.2,0.7-0.4,1-0.7l0.7,0.7c-0.4,0.4-0.8,0.7-1.3,0.9s-1.1,0.3-1.7,0.3
					c-0.7,0-1.4-0.2-1.9-0.5s-1-0.8-1.3-1.3s-0.5-1.2-0.5-1.9c0-0.7,0.2-1.4,0.5-1.9c0.3-0.6,0.8-1,1.3-1.3c0.6-0.3,1.2-0.5,1.9-0.5
					C631.4,563.3,632.3,563.6,632.9,564.3z M632.6,566.5c0-0.7-0.3-1.2-0.7-1.6s-1-0.6-1.6-0.6c-0.7,0-1.2,0.2-1.6,0.6
					c-0.4,0.4-0.7,0.9-0.8,1.6H632.6z"/>
				<path class="st11" d="M638.6,564.5c-0.4-0.1-0.7-0.2-1.1-0.2c-0.4,0-0.7,0.1-0.9,0.2c-0.2,0.1-0.4,0.4-0.4,0.7s0.1,0.5,0.4,0.7
					s0.7,0.3,1.2,0.5c0.5,0.2,0.9,0.3,1.3,0.4c0.3,0.1,0.6,0.4,0.8,0.7c0.2,0.3,0.3,0.7,0.3,1.1c0,0.7-0.3,1.2-0.8,1.6
					s-1.2,0.5-2,0.5c-0.6,0-1.1-0.1-1.6-0.3c-0.5-0.2-1-0.4-1.3-0.8l0.5-1c0.3,0.3,0.7,0.5,1.1,0.7c0.5,0.2,0.9,0.3,1.3,0.3
					s0.8-0.1,1-0.2s0.4-0.4,0.4-0.7c0-0.3-0.1-0.6-0.4-0.8s-0.7-0.3-1.3-0.5c-0.5-0.1-0.9-0.3-1.2-0.4c-0.3-0.1-0.6-0.4-0.8-0.6
					c-0.2-0.3-0.3-0.6-0.3-1.1c0-0.7,0.3-1.2,0.8-1.6c0.5-0.3,1.1-0.5,1.9-0.5c0.4,0,0.9,0.1,1.3,0.2c0.4,0.1,0.8,0.3,1.1,0.5
					l-0.5,1C639.3,564.8,639,564.6,638.6,564.5z"/>
				<path class="st11" d="M645,564.5c-0.4-0.1-0.7-0.2-1.1-0.2c-0.4,0-0.7,0.1-0.9,0.2c-0.2,0.1-0.4,0.4-0.4,0.7s0.1,0.5,0.4,0.7
					s0.7,0.3,1.2,0.5c0.5,0.2,0.9,0.3,1.3,0.4c0.3,0.1,0.6,0.4,0.8,0.7c0.2,0.3,0.3,0.7,0.3,1.1c0,0.7-0.3,1.2-0.8,1.6
					c-0.5,0.4-1.2,0.5-2,0.5c-0.6,0-1.1-0.1-1.6-0.3s-1-0.4-1.3-0.8l0.5-1c0.3,0.3,0.7,0.5,1.1,0.7c0.5,0.2,0.9,0.3,1.3,0.3
					c0.4,0,0.8-0.1,1-0.2c0.3-0.2,0.4-0.4,0.4-0.7c0-0.3-0.1-0.6-0.4-0.8s-0.7-0.3-1.3-0.5c-0.5-0.1-0.9-0.3-1.2-0.4
					s-0.6-0.4-0.8-0.6c-0.2-0.3-0.3-0.6-0.3-1.1c0-0.7,0.3-1.2,0.8-1.6c0.5-0.3,1.1-0.5,1.9-0.5c0.4,0,0.9,0.1,1.3,0.2
					c0.4,0.1,0.8,0.3,1.1,0.5l-0.5,1C645.7,564.8,645.4,564.6,645,564.5z"/>
			</g>
		</g>
		<path class="st0" d="M695.7,515.5H387c-2.2,0-4-1.8-4-4V330.9c0-2.2,1.8-4,4-4h308.7c2.2,0,4,1.8,4,4v180.6
			C699.7,513.7,697.9,515.5,695.7,515.5z"/>
		<path class="st5" d="M691.7,509.5H390.6c-1.1,0-2-0.9-2-2V335.1c0-1.1,0.9-2,2-2h301.1c1.1,0,2,0.9,2,2v172.3
			C693.7,508.6,692.8,509.5,691.7,509.5z"/>
		<path class="st7" d="M388.6,374.1v-38.7c0-1.1,0.9-2,2-2h301.1c1.1,0,2,0.9,2,2v38.7H388.6z"/>
		<g>
			<g>
				<path class="st9" d="M411.9,348.3h7.7v2h-5.2v1.8h4.7v2l-4.7,0v1.8h5.3v2h-7.9V348.3z"/>
				<path class="st9" d="M421.4,347.8h2.5v10.4h-2.5V347.8z"/>
				<path class="st9" d="M432.1,351.6c0.7,0.7,1,1.7,1,3c0,0.2,0,0.3,0,0.4h-5.3c0.1,0.4,0.3,0.8,0.6,1c0.3,0.2,0.7,0.3,1.1,0.3
					c0.3,0,0.6-0.1,0.9-0.2s0.6-0.3,0.8-0.6l1.3,1.3c-0.4,0.4-0.9,0.8-1.4,1c-0.6,0.2-1.2,0.3-1.9,0.3c-0.8,0-1.5-0.2-2.1-0.5
					c-0.6-0.3-1.1-0.8-1.4-1.3c-0.3-0.6-0.5-1.3-0.5-2c0-0.8,0.2-1.5,0.5-2.1c0.3-0.6,0.8-1,1.4-1.4s1.3-0.5,2.1-0.5
					C430.5,350.5,431.4,350.8,432.1,351.6z M430.6,353.7c0-0.4-0.1-0.8-0.4-1.1s-0.6-0.4-1-0.4c-0.4,0-0.7,0.1-1,0.4
					c-0.3,0.3-0.4,0.6-0.5,1.1H430.6z"/>
				<path class="st9" d="M437.7,352.5c-0.4,0-0.8,0.2-1.1,0.5c-0.3,0.3-0.4,0.8-0.4,1.3c0,0.6,0.1,1,0.4,1.3
					c0.3,0.3,0.6,0.5,1.1,0.5c0.7,0,1.2-0.3,1.5-0.9l1.8,1.1c-0.3,0.6-0.7,1-1.3,1.3c-0.6,0.3-1.3,0.5-2.1,0.5c-0.8,0-1.5-0.2-2-0.5
					c-0.6-0.3-1-0.8-1.4-1.3c-0.3-0.6-0.5-1.3-0.5-2c0-0.8,0.2-1.5,0.5-2.1c0.3-0.6,0.8-1,1.4-1.4c0.6-0.3,1.3-0.5,2.1-0.5
					c0.8,0,1.4,0.2,2,0.5s1,0.8,1.4,1.3l-1.8,1.1C438.9,352.8,438.4,352.5,437.7,352.5z"/>
				<path class="st9" d="M447.1,357.8c-0.3,0.2-0.6,0.3-1,0.4c-0.4,0.1-0.7,0.1-1.1,0.1c-0.7,0-1.4-0.2-1.8-0.6
					c-0.5-0.4-0.7-1-0.7-1.8v-3.2h-1v-1.7h1v-2.1h2.5v2.1h2v1.7h-2v2.9c0,0.5,0.2,0.8,0.7,0.8c0.3,0,0.6-0.1,1-0.3L447.1,357.8z"/>
				<path class="st9" d="M451.8,350.8c0.4-0.2,0.9-0.3,1.4-0.3v2.3c-0.1,0-0.2,0-0.4,0c-0.6,0-1.1,0.1-1.4,0.4
					c-0.4,0.3-0.6,0.7-0.6,1.1v3.9h-2.5v-7.6h2.5v1.3C451.1,351.4,451.4,351.1,451.8,350.8z"/>
				<path class="st9" d="M460,351c0.6,0.3,1.1,0.8,1.5,1.4s0.5,1.3,0.5,2c0,0.8-0.2,1.5-0.5,2c-0.3,0.6-0.8,1-1.5,1.4
					c-0.6,0.3-1.3,0.5-2.2,0.5s-1.5-0.2-2.2-0.5c-0.6-0.3-1.1-0.8-1.4-1.4c-0.3-0.6-0.5-1.3-0.5-2c0-0.8,0.2-1.4,0.5-2
					c0.3-0.6,0.8-1,1.4-1.4s1.3-0.5,2.2-0.5S459.4,350.6,460,351z M456.7,353c-0.3,0.3-0.4,0.8-0.4,1.4c0,0.6,0.1,1,0.4,1.4
					c0.3,0.3,0.7,0.5,1.2,0.5c0.5,0,0.9-0.2,1.2-0.5c0.3-0.3,0.4-0.8,0.4-1.4c0-0.6-0.2-1-0.5-1.4c-0.3-0.3-0.7-0.5-1.2-0.5
					S457,352.7,456.7,353z"/>
				<path class="st9" d="M470.3,351.3c0.5,0.5,0.7,1.2,0.7,2.1v4.8h-2.5v-4.1c0-0.4-0.1-0.8-0.3-1c-0.2-0.2-0.5-0.4-0.9-0.4
					c-0.4,0-0.7,0.1-1,0.4c-0.3,0.3-0.4,0.6-0.5,1v4h-2.5v-7.6h2.5v1.2c0.3-0.4,0.6-0.8,1-1c0.4-0.2,0.9-0.3,1.5-0.3
					C469.1,350.5,469.8,350.7,470.3,351.3z"/>
				<path class="st9" d="M474.9,347.5c0.2,0.2,0.4,0.6,0.4,1c0,0.4-0.1,0.7-0.4,1c-0.2,0.3-0.6,0.4-0.9,0.4s-0.7-0.1-0.9-0.4
					c-0.2-0.3-0.4-0.6-0.4-1c0-0.4,0.1-0.7,0.4-1c0.2-0.2,0.6-0.4,0.9-0.4S474.6,347.2,474.9,347.5z M472.7,350.6h2.5v7.6h-2.5
					V350.6z"/>
				<path class="st9" d="M480.5,352.5c-0.4,0-0.8,0.2-1.1,0.5c-0.3,0.3-0.4,0.8-0.4,1.3c0,0.6,0.1,1,0.4,1.3
					c0.3,0.3,0.6,0.5,1.1,0.5c0.7,0,1.2-0.3,1.5-0.9l1.8,1.1c-0.3,0.6-0.7,1-1.3,1.3c-0.6,0.3-1.3,0.5-2.1,0.5c-0.8,0-1.5-0.2-2-0.5
					c-0.6-0.3-1-0.8-1.4-1.3c-0.3-0.6-0.5-1.3-0.5-2c0-0.8,0.2-1.5,0.5-2.1c0.3-0.6,0.8-1,1.4-1.4c0.6-0.3,1.3-0.5,2.1-0.5
					c0.8,0,1.4,0.2,2,0.5s1,0.8,1.4,1.3l-1.8,1.1C481.6,352.8,481.1,352.5,480.5,352.5z"/>
				<path class="st9" d="M490.7,351.2c0.6,0.5,0.9,1.2,0.9,2v4.9h-2.5v-0.9c-0.5,0.6-1.3,1-2.3,1c-0.8,0-1.4-0.2-1.9-0.7
					c-0.5-0.4-0.7-1-0.7-1.7c0-0.7,0.3-1.3,0.7-1.7c0.5-0.4,1.2-0.6,2.1-0.6h2v-0.1c0-0.4-0.1-0.6-0.4-0.8c-0.2-0.2-0.6-0.3-1.1-0.3
					c-0.3,0-0.7,0.1-1.1,0.2c-0.4,0.1-0.8,0.3-1.2,0.4l-0.7-1.7c0.6-0.3,1.2-0.5,1.8-0.6c0.6-0.1,1.2-0.2,1.8-0.2
					C489.3,350.5,490.1,350.7,490.7,351.2z M488.6,356.3c0.3-0.2,0.5-0.4,0.5-0.7v-0.7h-1.5c-0.7,0-1,0.3-1,0.8
					c0,0.3,0.1,0.5,0.3,0.6s0.4,0.2,0.7,0.2C488,356.6,488.3,356.5,488.6,356.3z"/>
				<path class="st9" d="M493.3,347.8h2.5v10.4h-2.5V347.8z"/>
				<path class="st9" d="M497.8,347.8h2.5v10.4h-2.5V347.8z"/>
				<path class="st9" d="M505.2,360.5c-0.5,0.3-1.1,0.5-1.8,0.5c-0.4,0-0.8-0.1-1.2-0.2s-0.7-0.3-1.1-0.6l1-1.7
					c0.2,0.1,0.3,0.3,0.5,0.3s0.3,0.1,0.5,0.1c0.4,0,0.7-0.2,0.9-0.6l0.2-0.4l-3.1-7.4h2.6l1.8,4.9l1.6-4.9h2.5l-3.2,8.3
					C506.1,359.6,505.7,360.1,505.2,360.5z"/>
				<path class="st9" d="M512.7,348.3h8.4v2.1h-2.9v7.7h-2.6v-7.7h-2.9V348.3z"/>
				<path class="st9" d="M525.5,350.8c0.4-0.2,0.9-0.3,1.4-0.3v2.3c-0.1,0-0.2,0-0.4,0c-0.6,0-1.1,0.1-1.4,0.4
					c-0.4,0.3-0.6,0.7-0.6,1.1v3.9H522v-7.6h2.5v1.3C524.7,351.4,525.1,351.1,525.5,350.8z"/>
				<path class="st9" d="M533.6,351.2c0.6,0.5,0.9,1.2,0.9,2v4.9h-2.5v-0.9c-0.5,0.6-1.3,1-2.3,1c-0.8,0-1.4-0.2-1.9-0.7
					c-0.5-0.4-0.7-1-0.7-1.7c0-0.7,0.3-1.3,0.7-1.7c0.5-0.4,1.2-0.6,2.1-0.6h2v-0.1c0-0.4-0.1-0.6-0.4-0.8c-0.2-0.2-0.6-0.3-1.1-0.3
					c-0.3,0-0.7,0.1-1.1,0.2c-0.4,0.1-0.8,0.3-1.2,0.4l-0.7-1.7c0.6-0.3,1.2-0.5,1.8-0.6c0.6-0.1,1.2-0.2,1.8-0.2
					C532.2,350.5,533.1,350.7,533.6,351.2z M531.5,356.3c0.3-0.2,0.5-0.4,0.5-0.7v-0.7h-1.5c-0.7,0-1,0.3-1,0.8
					c0,0.3,0.1,0.5,0.3,0.6s0.4,0.2,0.7,0.2C530.9,356.6,531.3,356.5,531.5,356.3z"/>
				<path class="st9" d="M543.8,347.8v10.4h-2.5v-1c-0.3,0.4-0.6,0.6-1,0.8s-0.8,0.3-1.3,0.3c-0.7,0-1.3-0.2-1.8-0.5
					c-0.5-0.3-0.9-0.8-1.2-1.4s-0.4-1.3-0.4-2.1c0-0.8,0.1-1.4,0.4-2c0.3-0.6,0.7-1,1.2-1.3c0.5-0.3,1.1-0.5,1.8-0.5
					c0.5,0,0.9,0.1,1.3,0.3c0.4,0.2,0.7,0.5,1,0.8v-3.8H543.8z M540.9,355.8c0.3-0.3,0.4-0.8,0.4-1.4c0-0.6-0.1-1-0.4-1.4
					c-0.3-0.3-0.7-0.5-1.2-0.5s-0.9,0.2-1.2,0.5s-0.5,0.8-0.5,1.4c0,0.6,0.2,1,0.5,1.4c0.3,0.4,0.7,0.5,1.2,0.5
					S540.6,356.1,540.9,355.8z"/>
				<path class="st9" d="M552,351.6c0.7,0.7,1,1.7,1,3c0,0.2,0,0.3,0,0.4h-5.3c0.1,0.4,0.3,0.8,0.6,1c0.3,0.2,0.7,0.3,1.1,0.3
					c0.3,0,0.6-0.1,0.9-0.2s0.6-0.3,0.8-0.6l1.3,1.3c-0.4,0.4-0.9,0.8-1.4,1c-0.6,0.2-1.2,0.3-1.9,0.3c-0.8,0-1.5-0.2-2.1-0.5
					c-0.6-0.3-1.1-0.8-1.4-1.3c-0.3-0.6-0.5-1.3-0.5-2c0-0.8,0.2-1.5,0.5-2.1c0.3-0.6,0.8-1,1.4-1.4s1.3-0.5,2.1-0.5
					C550.4,350.5,551.3,350.8,552,351.6z M550.6,353.7c0-0.4-0.1-0.8-0.4-1.1s-0.6-0.4-1-0.4c-0.4,0-0.7,0.1-1,0.4
					c-0.3,0.3-0.4,0.6-0.5,1.1H550.6z"/>
				<path class="st9" d="M561.9,347.8v10.4h-2.5v-1c-0.3,0.4-0.6,0.6-1,0.8s-0.8,0.3-1.3,0.3c-0.7,0-1.3-0.2-1.8-0.5
					c-0.5-0.3-0.9-0.8-1.2-1.4s-0.4-1.3-0.4-2.1c0-0.8,0.1-1.4,0.4-2c0.3-0.6,0.7-1,1.2-1.3c0.5-0.3,1.1-0.5,1.8-0.5
					c0.5,0,0.9,0.1,1.3,0.3c0.4,0.2,0.7,0.5,1,0.8v-3.8H561.9z M559,355.8c0.3-0.3,0.4-0.8,0.4-1.4c0-0.6-0.1-1-0.4-1.4
					c-0.3-0.3-0.7-0.5-1.2-0.5s-0.9,0.2-1.2,0.5s-0.5,0.8-0.5,1.4c0,0.6,0.2,1,0.5,1.4c0.3,0.4,0.7,0.5,1.2,0.5
					S558.7,356.1,559,355.8z"/>
				<path class="st9" d="M572.9,350.7c-0.4-0.2-0.9-0.4-1.3-0.4c-0.5,0-0.9,0.1-1.4,0.4c-0.4,0.2-0.7,0.6-1,1
					c-0.2,0.4-0.4,0.9-0.4,1.4c0,0.5,0.1,1,0.4,1.4c0.2,0.4,0.6,0.8,1,1c0.4,0.2,0.9,0.4,1.4,0.4c0.4,0,0.8-0.1,1.3-0.3
					c0.4-0.2,0.8-0.5,1.2-0.8l1.5,1.6c-0.5,0.6-1.2,1-1.9,1.3s-1.5,0.5-2.2,0.5c-1,0-1.8-0.2-2.6-0.7c-0.8-0.4-1.4-1.1-1.8-1.8
					c-0.4-0.8-0.7-1.6-0.7-2.6c0-1,0.2-1.8,0.7-2.6c0.5-0.8,1.1-1.4,1.9-1.8c0.8-0.4,1.7-0.7,2.7-0.7c0.7,0,1.4,0.2,2.2,0.5
					c0.7,0.3,1.3,0.7,1.8,1.2l-1.5,1.8C573.8,351.3,573.4,350.9,572.9,350.7z"/>
				<path class="st9" d="M580.2,350.8c0.4-0.2,0.9-0.3,1.4-0.3v2.3c-0.1,0-0.2,0-0.4,0c-0.6,0-1.1,0.1-1.4,0.4
					c-0.4,0.3-0.6,0.7-0.6,1.1v3.9h-2.5v-7.6h2.5v1.3C579.4,351.4,579.8,351.1,580.2,350.8z"/>
				<path class="st9" d="M585.9,360.5c-0.5,0.3-1.1,0.5-1.8,0.5c-0.4,0-0.8-0.1-1.2-0.2s-0.7-0.3-1.1-0.6l1-1.7
					c0.2,0.1,0.3,0.3,0.5,0.3s0.3,0.1,0.5,0.1c0.4,0,0.7-0.2,0.9-0.6l0.2-0.4l-3.1-7.4h2.6l1.8,4.9l1.6-4.9h2.5l-3.2,8.3
					C586.8,359.6,586.4,360.1,585.9,360.5z"/>
				<path class="st9" d="M597.8,351c0.5,0.3,0.9,0.8,1.2,1.4s0.4,1.3,0.4,2.1c0,0.8-0.1,1.4-0.4,2s-0.7,1-1.2,1.3
					c-0.5,0.3-1.1,0.5-1.8,0.5c-0.5,0-0.9-0.1-1.3-0.3s-0.7-0.4-1-0.8v3.7h-2.5v-10.3h2.5v1c0.6-0.7,1.3-1.1,2.2-1.1
					C596.7,350.5,597.3,350.6,597.8,351z M596.5,355.7c0.3-0.3,0.5-0.8,0.5-1.4s-0.2-1-0.5-1.4c-0.3-0.3-0.7-0.5-1.2-0.5
					c-0.5,0-0.9,0.2-1.2,0.5s-0.4,0.8-0.4,1.4s0.1,1,0.4,1.4c0.3,0.3,0.7,0.5,1.2,0.5C595.8,356.2,596.2,356,596.5,355.7z"/>
				<path class="st9" d="M605.7,357.8c-0.3,0.2-0.6,0.3-1,0.4c-0.4,0.1-0.7,0.1-1.1,0.1c-0.7,0-1.4-0.2-1.8-0.6
					c-0.5-0.4-0.7-1-0.7-1.8v-3.2h-1v-1.7h1v-2.1h2.5v2.1h2v1.7h-2v2.9c0,0.5,0.2,0.8,0.7,0.8c0.3,0,0.6-0.1,1-0.3L605.7,357.8z"/>
				<path class="st9" d="M612.5,351c0.6,0.3,1.1,0.8,1.5,1.4c0.3,0.6,0.5,1.3,0.5,2c0,0.8-0.2,1.5-0.5,2c-0.3,0.6-0.8,1-1.5,1.4
					c-0.6,0.3-1.3,0.5-2.2,0.5s-1.5-0.2-2.2-0.5c-0.6-0.3-1.1-0.8-1.4-1.4c-0.3-0.6-0.5-1.3-0.5-2c0-0.8,0.2-1.4,0.5-2
					s0.8-1,1.4-1.4c0.6-0.3,1.3-0.5,2.2-0.5S611.9,350.6,612.5,351z M609.2,353c-0.3,0.3-0.4,0.8-0.4,1.4c0,0.6,0.1,1,0.4,1.4
					c0.3,0.3,0.7,0.5,1.2,0.5c0.5,0,0.9-0.2,1.2-0.5c0.3-0.3,0.4-0.8,0.4-1.4c0-0.6-0.2-1-0.5-1.4c-0.3-0.3-0.7-0.5-1.2-0.5
					S609.5,352.7,609.2,353z"/>
				<path class="st9" d="M618.9,348.3h7.3l0,2h-4.8v2.2h4.4v2h-4.4v3.5h-2.6V348.3z"/>
				<path class="st9" d="M634.8,350.6v7.6h-2.5v-1.2c-0.5,0.9-1.3,1.3-2.4,1.3c-0.8,0-1.5-0.3-2-0.8c-0.5-0.5-0.7-1.2-0.7-2.1v-4.8
					h2.5v4.1c0,0.4,0.1,0.8,0.3,1c0.2,0.2,0.5,0.4,0.9,0.4c0.4,0,0.8-0.2,1-0.5s0.4-0.7,0.4-1.2v-3.7H634.8z"/>
				<path class="st9" d="M643.7,351.3c0.5,0.5,0.7,1.2,0.7,2.1v4.8H642v-4.1c0-0.4-0.1-0.8-0.3-1c-0.2-0.2-0.5-0.4-0.9-0.4
					c-0.4,0-0.7,0.1-1,0.4c-0.3,0.3-0.4,0.6-0.5,1v4h-2.5v-7.6h2.5v1.2c0.3-0.4,0.6-0.8,1-1c0.4-0.2,0.9-0.3,1.5-0.3
					C642.5,350.5,643.2,350.7,643.7,351.3z"/>
				<path class="st9" d="M653.8,347.8v10.4h-2.5v-1c-0.3,0.4-0.6,0.6-1,0.8s-0.8,0.3-1.3,0.3c-0.7,0-1.3-0.2-1.8-0.5
					c-0.5-0.3-0.9-0.8-1.2-1.4s-0.4-1.3-0.4-2.1c0-0.8,0.1-1.4,0.4-2c0.3-0.6,0.7-1,1.2-1.3s1.1-0.5,1.8-0.5c0.5,0,0.9,0.1,1.3,0.3
					c0.4,0.2,0.7,0.5,1,0.8v-3.8H653.8z M650.8,355.8c0.3-0.3,0.4-0.8,0.4-1.4c0-0.6-0.1-1-0.4-1.4c-0.3-0.3-0.7-0.5-1.2-0.5
					s-0.9,0.2-1.2,0.5c-0.3,0.3-0.5,0.8-0.5,1.4c0,0.6,0.2,1,0.5,1.4c0.3,0.4,0.7,0.5,1.2,0.5S650.5,356.1,650.8,355.8z"/>
			</g>
		</g>
	</g>
	<g id="_x24__2_" transform="translate(54.000000, 41.000000)">
		<path id="Rectangle_2_" class="st21" d="M372.3,423.4h21.7c6.8,0,12.2-5.4,12.2-12.2s-5.5-12.2-12.2-12.2h-8.6h-4.1
			c-6.8,0-12.2-5.4-12.2-12.2s5.5-12.2,12.2-12.2h21.7"/>
		<path id="Line-11_2_" class="st21" d="M387.6,365.9v64.8"/>
	</g>
	<g>
		<path id="Oval-11_9_" class="st21" d="M536.1,420.8c-5.2-6.1-12.9-10-21.6-10c-15.6,0-28.3,12.7-28.3,28.3s12.7,28.3,28.3,28.3
			l0,0c8.6,0,16.4-3.9,21.6-10"/>
		<g>
			<line class="st21" x1="480.1" y1="431.6" x2="505.5" y2="431.6"/>
			<line class="st21" x1="480.1" y1="446.6" x2="505.5" y2="446.6"/>
		</g>
	</g>
	<g>
		<g>
			<polyline class="st21" points="558.4,412.2 577.6,440.8 577.6,468 			"/>
			<line class="st21" x1="596.8" y1="412.2" x2="577.6" y2="440.8"/>
		</g>
		<g>
			<line class="st21" x1="564.9" y1="448" x2="590.3" y2="448"/>
			<line class="st21" x1="564.9" y1="458.3" x2="590.3" y2="458.3"/>
		</g>
	</g>
	<g>
		<g>
			<line class="st21" x1="619.5" y1="443.8" x2="644.9" y2="443.8"/>
		</g>
		<g>
			<path class="st21" d="M647.5,410.7L647.5,410.7c-8.2,0-14.8,6.6-14.8,14.8v13.9v0.4v12.8c0,8.2-6.6,14.8-14.8,14.8h44.3"/>
			<path class="st21" d="M657.9,415c-2.7-2.7-6.4-4.3-10.4-4.3l0,0l0,0"/>
		</g>
	</g>
</g>
<g>
	<path class="st22" d="M621.6,302.4h-171c-11,0-20-9-20-20v0c0-11,9-20,20-20h171c11,0,20,9,20,20v0
		C641.6,293.5,632.7,302.4,621.6,302.4z"/>
	<g>
		<g>
			<path class="st11" d="M488.3,287.5l-0.7-1.7h-4.2l-0.7,1.7H480l4.2-9.8h2.6l4.1,9.8H488.3z M484.1,283.8h2.7l-1.3-3.5
				L484.1,283.8z"/>
			<path class="st11" d="M499.2,277.1v10.4h-2.5v-1c-0.3,0.4-0.6,0.6-1,0.8c-0.4,0.2-0.8,0.3-1.3,0.3c-0.7,0-1.3-0.2-1.8-0.5
				c-0.5-0.3-0.9-0.8-1.2-1.4c-0.3-0.6-0.4-1.3-0.4-2.1c0-0.8,0.1-1.4,0.4-2c0.3-0.6,0.7-1,1.2-1.3c0.5-0.3,1.1-0.5,1.8-0.5
				c0.5,0,0.9,0.1,1.3,0.3c0.4,0.2,0.7,0.5,1,0.8v-3.8H499.2z M496.2,285.1c0.3-0.4,0.4-0.8,0.4-1.4c0-0.6-0.1-1-0.4-1.4
				c-0.3-0.3-0.7-0.5-1.2-0.5s-0.9,0.2-1.2,0.5c-0.3,0.4-0.5,0.8-0.5,1.4s0.2,1,0.5,1.4c0.3,0.3,0.7,0.5,1.2,0.5
				S495.9,285.5,496.2,285.1z"/>
			<path class="st11" d="M508.8,277.1v10.4h-2.5v-1c-0.3,0.4-0.6,0.6-1,0.8c-0.4,0.2-0.8,0.3-1.3,0.3c-0.7,0-1.3-0.2-1.8-0.5
				c-0.5-0.3-0.9-0.8-1.2-1.4c-0.3-0.6-0.4-1.3-0.4-2.1c0-0.8,0.1-1.4,0.4-2c0.3-0.6,0.7-1,1.2-1.3c0.5-0.3,1.1-0.5,1.8-0.5
				c0.5,0,0.9,0.1,1.3,0.3c0.4,0.2,0.7,0.5,1,0.8v-3.8H508.8z M505.9,285.1c0.3-0.4,0.4-0.8,0.4-1.4c0-0.6-0.1-1-0.4-1.4
				c-0.3-0.3-0.7-0.5-1.2-0.5s-0.9,0.2-1.2,0.5c-0.3,0.4-0.5,0.8-0.5,1.4s0.2,1,0.5,1.4c0.3,0.3,0.7,0.5,1.2,0.5
				S505.6,285.5,505.9,285.1z"/>
			<path class="st11" d="M520.6,277.7h2.4v9.8h-2.2l-4.5-5.9v5.9h-2.4v-9.8h2.3l4.5,5.9L520.6,277.7z"/>
			<path class="st11" d="M531.1,280.9c0.7,0.7,1,1.7,1,3c0,0.2,0,0.3,0,0.4h-5.3c0.1,0.4,0.3,0.8,0.6,1c0.3,0.2,0.7,0.3,1.1,0.3
				c0.3,0,0.6-0.1,0.9-0.2c0.3-0.1,0.6-0.3,0.8-0.6l1.3,1.3c-0.4,0.4-0.9,0.8-1.4,1c-0.6,0.2-1.2,0.3-1.9,0.3
				c-0.8,0-1.5-0.2-2.1-0.5c-0.6-0.3-1.1-0.8-1.4-1.3c-0.3-0.6-0.5-1.3-0.5-2c0-0.8,0.2-1.5,0.5-2.1c0.3-0.6,0.8-1,1.4-1.4
				s1.3-0.5,2.1-0.5C529.5,279.8,530.4,280.2,531.1,280.9z M529.6,283c0-0.4-0.1-0.8-0.4-1.1c-0.3-0.3-0.6-0.4-1-0.4
				c-0.4,0-0.7,0.1-1,0.4c-0.3,0.3-0.4,0.6-0.5,1.1H529.6z"/>
			<path class="st11" d="M532.1,279.9h2.5l1.5,5.1l1.5-5.1h2.4l1.5,5.1l1.5-5.1h2.4l-2.8,7.6h-2.5l-1.4-4.7l-1.5,4.7h-2.5
				L532.1,279.9z"/>
			<path class="st11" d="M548.5,277.7h8.4v2.1H554v7.7h-2.6v-7.7h-2.9V277.7z"/>
			<path class="st11" d="M562.8,280.3c0.6,0.3,1.1,0.8,1.5,1.4c0.3,0.6,0.5,1.3,0.5,2c0,0.8-0.2,1.5-0.5,2s-0.8,1-1.5,1.4
				c-0.6,0.3-1.3,0.5-2.2,0.5s-1.5-0.2-2.2-0.5c-0.6-0.3-1.1-0.8-1.4-1.4c-0.3-0.6-0.5-1.3-0.5-2c0-0.8,0.2-1.4,0.5-2
				c0.3-0.6,0.8-1,1.4-1.4s1.3-0.5,2.2-0.5S562.1,280,562.8,280.3z M559.4,282.4c-0.3,0.3-0.4,0.8-0.4,1.4c0,0.6,0.1,1,0.4,1.4
				c0.3,0.3,0.7,0.5,1.2,0.5c0.5,0,0.9-0.2,1.2-0.5c0.3-0.3,0.4-0.8,0.4-1.4c0-0.6-0.2-1-0.5-1.4c-0.3-0.3-0.7-0.5-1.2-0.5
				S559.7,282,559.4,282.4z"/>
			<path class="st11" d="M570.9,287.5l-1.6-2.9l-0.8,0.8v2.1h-2.5v-10.4h2.5v5.4l2.4-2.6h2.8l-2.8,2.9l2.8,4.6H570.9z"/>
			<path class="st11" d="M580.6,280.9c0.7,0.7,1,1.7,1,3c0,0.2,0,0.3,0,0.4h-5.3c0.1,0.4,0.3,0.8,0.6,1c0.3,0.2,0.7,0.3,1.1,0.3
				c0.3,0,0.6-0.1,0.9-0.2c0.3-0.1,0.6-0.3,0.8-0.6l1.3,1.3c-0.4,0.4-0.9,0.8-1.4,1c-0.6,0.2-1.2,0.3-1.9,0.3
				c-0.8,0-1.5-0.2-2.1-0.5c-0.6-0.3-1.1-0.8-1.4-1.3c-0.3-0.6-0.5-1.3-0.5-2c0-0.8,0.2-1.5,0.5-2.1c0.3-0.6,0.8-1,1.4-1.4
				s1.3-0.5,2.1-0.5C579,279.8,580,280.2,580.6,280.9z M579.2,283c0-0.4-0.1-0.8-0.4-1.1c-0.3-0.3-0.6-0.4-1-0.4
				c-0.4,0-0.7,0.1-1,0.4c-0.3,0.3-0.4,0.6-0.5,1.1H579.2z"/>
			<path class="st11" d="M589.9,280.6c0.5,0.5,0.7,1.2,0.7,2.1v4.8h-2.5v-4.1c0-0.4-0.1-0.8-0.3-1c-0.2-0.2-0.5-0.4-0.9-0.4
				c-0.4,0-0.7,0.1-1,0.4c-0.3,0.3-0.4,0.6-0.5,1v4h-2.5v-7.6h2.5v1.2c0.3-0.4,0.6-0.8,1-1s0.9-0.3,1.5-0.3
				C588.7,279.8,589.4,280.1,589.9,280.6z"/>
		</g>
	</g>
</g>
<g>
	<path class="st18" d="M901.1,441.3H748.7c-11,0-20-9-20-20v0c0-11,9-20,20-20h152.5c11,0,20,9,20,20v0
		C921.1,432.3,912.2,441.3,901.1,441.3z"/>
	<g>
		<g>
			<path class="st11" d="M792,426.4l-0.7-1.7h-4.2l-0.7,1.7h-2.6l4.2-9.8h2.6l4.1,9.8H792z M787.8,422.7h2.7l-1.3-3.5L787.8,422.7z"
				/>
			<path class="st11" d="M802.9,416v10.4h-2.5v-1c-0.3,0.4-0.6,0.6-1,0.8c-0.4,0.2-0.8,0.3-1.3,0.3c-0.7,0-1.3-0.2-1.8-0.5
				c-0.5-0.3-0.9-0.8-1.2-1.4c-0.3-0.6-0.4-1.3-0.4-2.1c0-0.8,0.1-1.4,0.4-2s0.7-1,1.2-1.3c0.5-0.3,1.1-0.5,1.8-0.5
				c0.5,0,0.9,0.1,1.3,0.3c0.4,0.2,0.7,0.5,1,0.8V416H802.9z M800,424c0.3-0.4,0.4-0.8,0.4-1.4c0-0.6-0.1-1-0.4-1.4
				c-0.3-0.3-0.7-0.5-1.2-0.5s-0.9,0.2-1.2,0.5c-0.3,0.4-0.5,0.8-0.5,1.4s0.2,1,0.5,1.4c0.3,0.3,0.7,0.5,1.2,0.5
				S799.7,424.3,800,424z"/>
			<path class="st11" d="M812.5,416v10.4H810v-1c-0.3,0.4-0.6,0.6-1,0.8c-0.4,0.2-0.8,0.3-1.3,0.3c-0.7,0-1.3-0.2-1.8-0.5
				c-0.5-0.3-0.9-0.8-1.2-1.4c-0.3-0.6-0.4-1.3-0.4-2.1c0-0.8,0.1-1.4,0.4-2s0.7-1,1.2-1.3c0.5-0.3,1.1-0.5,1.8-0.5
				c0.5,0,0.9,0.1,1.3,0.3c0.4,0.2,0.7,0.5,1,0.8V416H812.5z M809.6,424c0.3-0.4,0.4-0.8,0.4-1.4c0-0.6-0.1-1-0.4-1.4
				c-0.3-0.3-0.7-0.5-1.2-0.5s-0.9,0.2-1.2,0.5c-0.3,0.4-0.5,0.8-0.5,1.4s0.2,1,0.5,1.4c0.3,0.3,0.7,0.5,1.2,0.5
				S809.3,424.3,809.6,424z"/>
			<path class="st11" d="M825,417.1c0.8,0.4,1.4,1,1.9,1.8c0.5,0.8,0.7,1.6,0.7,2.6c0,1-0.2,1.8-0.7,2.6c-0.5,0.8-1.1,1.4-1.9,1.8
				c-0.8,0.4-1.7,0.7-2.7,0.7c-1,0-1.9-0.2-2.7-0.7c-0.8-0.4-1.4-1.1-1.9-1.8c-0.5-0.8-0.7-1.6-0.7-2.6c0-1,0.2-1.8,0.7-2.6
				s1.1-1.4,1.9-1.8c0.8-0.4,1.7-0.7,2.7-0.7C823.3,416.4,824.2,416.6,825,417.1z M821,419c-0.4,0.3-0.7,0.6-1,1
				c-0.2,0.4-0.4,0.9-0.4,1.5c0,0.5,0.1,1,0.4,1.5c0.2,0.4,0.6,0.8,1,1c0.4,0.3,0.9,0.4,1.3,0.4s0.9-0.1,1.3-0.4
				c0.4-0.3,0.7-0.6,1-1c0.2-0.4,0.3-0.9,0.3-1.5c0-0.5-0.1-1-0.3-1.5c-0.2-0.4-0.6-0.8-1-1c-0.4-0.3-0.9-0.4-1.3-0.4
				S821.4,418.7,821,419z"/>
			<path class="st11" d="M832.4,419.1c0.4-0.2,0.9-0.3,1.4-0.3v2.3c-0.1,0-0.2,0-0.4,0c-0.6,0-1.1,0.1-1.4,0.4
				c-0.4,0.3-0.6,0.7-0.6,1.1v3.9h-2.5v-7.6h2.5v1.3C831.6,419.6,832,419.3,832.4,419.1z"/>
			<path class="st11" d="M842.5,416v10.4H840v-1c-0.3,0.4-0.6,0.6-1,0.8c-0.4,0.2-0.8,0.3-1.3,0.3c-0.7,0-1.3-0.2-1.8-0.5
				c-0.5-0.3-0.9-0.8-1.2-1.4c-0.3-0.6-0.4-1.3-0.4-2.1c0-0.8,0.1-1.4,0.4-2c0.3-0.6,0.7-1,1.2-1.3s1.1-0.5,1.8-0.5
				c0.5,0,0.9,0.1,1.3,0.3s0.7,0.5,1,0.8V416H842.5z M839.6,424c0.3-0.4,0.4-0.8,0.4-1.4c0-0.6-0.1-1-0.4-1.4
				c-0.3-0.3-0.7-0.5-1.2-0.5s-0.9,0.2-1.2,0.5c-0.3,0.4-0.5,0.8-0.5,1.4s0.2,1,0.5,1.4c0.3,0.3,0.7,0.5,1.2,0.5
				S839.3,424.3,839.6,424z"/>
			<path class="st11" d="M850.7,419.8c0.7,0.7,1,1.7,1,3c0,0.2,0,0.3,0,0.4h-5.3c0.1,0.4,0.3,0.8,0.6,1s0.7,0.3,1.1,0.3
				c0.3,0,0.6-0.1,0.9-0.2c0.3-0.1,0.6-0.3,0.8-0.6l1.3,1.3c-0.4,0.4-0.9,0.8-1.4,1s-1.2,0.3-1.9,0.3c-0.8,0-1.5-0.2-2.1-0.5
				c-0.6-0.3-1.1-0.8-1.4-1.3c-0.3-0.6-0.5-1.3-0.5-2c0-0.8,0.2-1.5,0.5-2.1c0.3-0.6,0.8-1,1.4-1.4c0.6-0.3,1.3-0.5,2.1-0.5
				C849.1,418.7,850,419.1,850.7,419.8z M849.3,421.9c0-0.4-0.1-0.8-0.4-1.1c-0.3-0.3-0.6-0.4-1-0.4c-0.4,0-0.7,0.1-1,0.4
				c-0.3,0.3-0.4,0.6-0.5,1.1H849.3z"/>
			<path class="st11" d="M856.5,419.1c0.4-0.2,0.9-0.3,1.4-0.3v2.3c-0.1,0-0.2,0-0.4,0c-0.6,0-1.1,0.1-1.4,0.4s-0.6,0.7-0.6,1.1v3.9
				H853v-7.6h2.5v1.3C855.7,419.6,856,419.3,856.5,419.1z"/>
			<path class="st11" d="M861.6,420.4c-0.2,0-0.4,0-0.5,0.1c-0.1,0.1-0.2,0.2-0.2,0.4c0,0.2,0.1,0.3,0.3,0.4c0.2,0.1,0.5,0.2,1,0.3
				c0.5,0.2,1,0.3,1.4,0.5c0.4,0.2,0.7,0.4,0.9,0.7c0.3,0.3,0.4,0.7,0.4,1.2c0,0.8-0.3,1.4-0.9,1.8s-1.4,0.7-2.3,0.7
				c-0.6,0-1.3-0.1-1.8-0.3c-0.6-0.2-1.1-0.5-1.6-0.8l0.8-1.6c0.4,0.3,0.9,0.5,1.4,0.7c0.5,0.2,0.9,0.2,1.3,0.2c0.2,0,0.4,0,0.6-0.1
				s0.2-0.2,0.2-0.3c0-0.2-0.1-0.3-0.3-0.4s-0.5-0.2-1-0.3c-0.5-0.2-1-0.3-1.3-0.5c-0.3-0.2-0.6-0.4-0.9-0.7
				c-0.3-0.3-0.4-0.7-0.4-1.2c0-0.8,0.3-1.4,0.9-1.8c0.6-0.4,1.3-0.7,2.2-0.7c0.6,0,1.1,0.1,1.6,0.2c0.5,0.1,1,0.4,1.5,0.7l-0.8,1.6
				C863,420.7,862.2,420.4,861.6,420.4z"/>
		</g>
	</g>
</g>
<g>
	<g>
		<line class="st1" x1="932.7" y1="143.8" x2="715.6" y2="143.8"/>
		<g>
			<polygon class="st2" points="931.3,138.8 939.9,143.8 931.3,148.8 			"/>
		</g>
	</g>
</g>
<g>
	<path class="st18" d="M901.1,163.8H748.7c-11,0-20-9-20-20v0c0-11,9-20,20-20h152.5c11,0,20,9,20,20v0
		C921.1,154.8,912.2,163.8,901.1,163.8z"/>
	<g>
		<g>
			<path class="st11" d="M759.1,148.9l-1.4-2.7h-0.1h-1.8v2.7h-2.6v-9.8h4.4c1.3,0,2.3,0.3,3,0.9c0.7,0.6,1.1,1.4,1.1,2.5
				c0,0.7-0.1,1.4-0.4,1.9s-0.7,1-1.3,1.3l2,3.2H759.1z M755.8,144.1h1.9c0.5,0,0.9-0.1,1.2-0.4c0.3-0.3,0.4-0.6,0.4-1.1
				c0-0.5-0.1-0.8-0.4-1.1c-0.3-0.3-0.7-0.4-1.2-0.4h-1.9V144.1z"/>
			<path class="st11" d="M769.6,142.3c0.7,0.7,1,1.7,1,3c0,0.2,0,0.3,0,0.4h-5.3c0.1,0.4,0.3,0.8,0.6,1c0.3,0.2,0.7,0.3,1.1,0.3
				c0.3,0,0.6-0.1,0.9-0.2c0.3-0.1,0.6-0.3,0.8-0.6l1.3,1.3c-0.4,0.4-0.9,0.8-1.4,1c-0.6,0.2-1.2,0.3-1.9,0.3
				c-0.8,0-1.5-0.2-2.1-0.5c-0.6-0.3-1.1-0.8-1.4-1.3s-0.5-1.3-0.5-2c0-0.8,0.2-1.5,0.5-2.1c0.3-0.6,0.8-1.1,1.4-1.4
				c0.6-0.3,1.3-0.5,2.1-0.5C767.9,141.2,768.9,141.6,769.6,142.3z M768.1,144.4c0-0.4-0.1-0.8-0.4-1.1s-0.6-0.4-1-0.4
				c-0.4,0-0.7,0.1-1,0.4c-0.3,0.3-0.4,0.6-0.5,1.1H768.1z"/>
			<path class="st11" d="M779.1,141.3v6.9c0,0.7-0.2,1.3-0.5,1.8c-0.3,0.5-0.8,0.9-1.4,1.2c-0.6,0.3-1.3,0.4-2.1,0.4
				c-0.6,0-1.2-0.1-1.8-0.3s-1.1-0.4-1.6-0.7l0.9-1.7c0.3,0.2,0.7,0.4,1.1,0.5s0.8,0.2,1.2,0.2c0.6,0,1-0.1,1.3-0.4
				c0.3-0.3,0.5-0.6,0.5-1.1v-0.8c-0.5,0.7-1.2,1-2.2,1c-0.6,0-1.2-0.2-1.7-0.5c-0.5-0.3-0.9-0.7-1.1-1.3c-0.3-0.6-0.4-1.2-0.4-1.9
				c0-0.7,0.1-1.3,0.4-1.9c0.3-0.5,0.6-1,1.1-1.3s1-0.4,1.7-0.4c0.5,0,0.9,0.1,1.3,0.3c0.4,0.2,0.7,0.4,0.9,0.8v-0.9H779.1z
				 M776.2,146.1c0.3-0.3,0.4-0.8,0.4-1.3c0-0.5-0.1-1-0.4-1.3c-0.3-0.3-0.6-0.5-1.1-0.5c-0.5,0-0.8,0.2-1.1,0.5
				c-0.3,0.3-0.4,0.8-0.4,1.3c0,0.5,0.1,0.9,0.4,1.3c0.3,0.3,0.7,0.5,1.1,0.5C775.5,146.6,775.9,146.5,776.2,146.1z"/>
			<path class="st11" d="M783.1,138.2c0.2,0.2,0.4,0.6,0.4,1c0,0.4-0.1,0.7-0.4,1s-0.6,0.4-0.9,0.4s-0.7-0.1-0.9-0.4
				c-0.2-0.3-0.4-0.6-0.4-1c0-0.4,0.1-0.7,0.4-1c0.2-0.2,0.6-0.4,0.9-0.4S782.8,137.9,783.1,138.2z M780.9,141.3h2.5v7.6h-2.5V141.3
				z"/>
			<path class="st11" d="M787.9,142.9c-0.2,0-0.4,0-0.5,0.1c-0.1,0.1-0.2,0.2-0.2,0.4c0,0.2,0.1,0.3,0.3,0.4s0.5,0.2,1,0.3
				c0.5,0.2,1,0.3,1.4,0.5s0.7,0.4,0.9,0.7c0.3,0.3,0.4,0.7,0.4,1.2c0,0.8-0.3,1.4-0.9,1.8s-1.4,0.7-2.3,0.7c-0.6,0-1.3-0.1-1.8-0.3
				c-0.6-0.2-1.1-0.4-1.6-0.8l0.8-1.6c0.4,0.3,0.9,0.5,1.4,0.7c0.5,0.2,0.9,0.2,1.3,0.2c0.2,0,0.4,0,0.6-0.1
				c0.1-0.1,0.2-0.2,0.2-0.3c0-0.2-0.1-0.3-0.3-0.4c-0.2-0.1-0.5-0.2-1-0.3c-0.5-0.2-1-0.3-1.3-0.5c-0.3-0.2-0.6-0.4-0.9-0.7
				c-0.3-0.3-0.4-0.7-0.4-1.2c0-0.8,0.3-1.4,0.9-1.8s1.3-0.7,2.2-0.7c0.6,0,1.1,0.1,1.6,0.2c0.5,0.2,1,0.4,1.5,0.7l-0.8,1.6
				C789.3,143.2,788.5,142.9,787.9,142.9z"/>
			<path class="st11" d="M797.4,148.5c-0.3,0.2-0.6,0.3-1,0.4c-0.4,0.1-0.7,0.1-1.1,0.1c-0.7,0-1.4-0.2-1.8-0.6
				c-0.5-0.4-0.7-1-0.7-1.8v-3.2h-1v-1.7h1v-2.1h2.5v2.1h2v1.7h-2v2.9c0,0.5,0.2,0.8,0.7,0.8c0.3,0,0.6-0.1,1-0.3L797.4,148.5z"/>
			<path class="st11" d="M804.8,142.3c0.7,0.7,1,1.7,1,3c0,0.2,0,0.3,0,0.4h-5.3c0.1,0.4,0.3,0.8,0.6,1s0.7,0.3,1.1,0.3
				c0.3,0,0.6-0.1,0.9-0.2c0.3-0.1,0.6-0.3,0.8-0.6l1.3,1.3c-0.4,0.4-0.9,0.8-1.4,1s-1.2,0.3-1.9,0.3c-0.8,0-1.5-0.2-2.1-0.5
				c-0.6-0.3-1.1-0.8-1.4-1.3c-0.3-0.6-0.5-1.3-0.5-2c0-0.8,0.2-1.5,0.5-2.1c0.3-0.6,0.8-1.1,1.4-1.4c0.6-0.3,1.3-0.5,2.1-0.5
				C803.2,141.2,804.1,141.6,804.8,142.3z M803.3,144.4c0-0.4-0.1-0.8-0.4-1.1s-0.6-0.4-1-0.4c-0.4,0-0.7,0.1-1,0.4
				c-0.3,0.3-0.4,0.6-0.5,1.1H803.3z"/>
			<path class="st11" d="M810.5,141.6c0.4-0.2,0.9-0.3,1.4-0.3v2.3c-0.1,0-0.2,0-0.4,0c-0.6,0-1.1,0.1-1.4,0.4s-0.6,0.7-0.6,1.1v3.9
				H807v-7.6h2.5v1.3C809.8,142.1,810.1,141.8,810.5,141.6z"/>
			<path class="st11" d="M826,139.1h2.4v9.8h-2.2l-4.5-5.9v5.9h-2.4v-9.8h2.3l4.5,5.9L826,139.1z"/>
			<path class="st11" d="M836.4,142.3c0.7,0.7,1,1.7,1,3c0,0.2,0,0.3,0,0.4h-5.3c0.1,0.4,0.3,0.8,0.6,1s0.7,0.3,1.1,0.3
				c0.3,0,0.6-0.1,0.9-0.2c0.3-0.1,0.6-0.3,0.8-0.6l1.3,1.3c-0.4,0.4-0.9,0.8-1.4,1s-1.2,0.3-1.9,0.3c-0.8,0-1.5-0.2-2.1-0.5
				c-0.6-0.3-1.1-0.8-1.4-1.3c-0.3-0.6-0.5-1.3-0.5-2c0-0.8,0.2-1.5,0.5-2.1c0.3-0.6,0.8-1.1,1.4-1.4c0.6-0.3,1.3-0.5,2.1-0.5
				C834.8,141.2,835.8,141.6,836.4,142.3z M835,144.4c0-0.4-0.1-0.8-0.4-1.1s-0.6-0.4-1-0.4c-0.4,0-0.7,0.1-1,0.4
				c-0.3,0.3-0.4,0.6-0.5,1.1H835z"/>
			<path class="st11" d="M837.5,141.3h2.5l1.5,5.1l1.5-5.1h2.4l1.5,5.1l1.5-5.1h2.4l-2.8,7.6h-2.5l-1.4-4.7l-1.5,4.7h-2.5
				L837.5,141.3z"/>
			<path class="st11" d="M853.9,139.1h8.4v2.1h-2.9v7.7h-2.6v-7.7h-2.9V139.1z"/>
			<path class="st11" d="M868.1,141.7c0.6,0.3,1.1,0.8,1.5,1.4c0.3,0.6,0.5,1.3,0.5,2c0,0.8-0.2,1.5-0.5,2c-0.3,0.6-0.8,1-1.5,1.4
				c-0.6,0.3-1.3,0.5-2.2,0.5s-1.5-0.2-2.2-0.5c-0.6-0.3-1.1-0.8-1.4-1.4c-0.3-0.6-0.5-1.3-0.5-2c0-0.8,0.2-1.4,0.5-2
				c0.3-0.6,0.8-1,1.4-1.4c0.6-0.3,1.3-0.5,2.2-0.5S867.5,141.4,868.1,141.7z M864.8,143.8c-0.3,0.3-0.4,0.8-0.4,1.4
				c0,0.6,0.1,1,0.4,1.4c0.3,0.3,0.7,0.5,1.2,0.5c0.5,0,0.9-0.2,1.2-0.5c0.3-0.3,0.4-0.8,0.4-1.4c0-0.6-0.2-1-0.5-1.4
				c-0.3-0.3-0.7-0.5-1.2-0.5S865.1,143.4,864.8,143.8z"/>
			<path class="st11" d="M876.3,148.9l-1.6-2.9l-0.8,0.8v2.1h-2.5v-10.4h2.5v5.4l2.4-2.6h2.8l-2.8,2.9l2.8,4.6H876.3z"/>
			<path class="st11" d="M886,142.3c0.7,0.7,1,1.7,1,3c0,0.2,0,0.3,0,0.4h-5.3c0.1,0.4,0.3,0.8,0.6,1c0.3,0.2,0.7,0.3,1.1,0.3
				c0.3,0,0.6-0.1,0.9-0.2c0.3-0.1,0.6-0.3,0.8-0.6l1.3,1.3c-0.4,0.4-0.9,0.8-1.4,1c-0.6,0.2-1.2,0.3-1.9,0.3
				c-0.8,0-1.5-0.2-2.1-0.5c-0.6-0.3-1.1-0.8-1.4-1.3s-0.5-1.3-0.5-2c0-0.8,0.2-1.5,0.5-2.1c0.3-0.6,0.8-1.1,1.4-1.4
				c0.6-0.3,1.3-0.5,2.1-0.5C884.4,141.2,885.4,141.6,886,142.3z M884.6,144.4c0-0.4-0.1-0.8-0.4-1.1s-0.6-0.4-1-0.4
				c-0.4,0-0.7,0.1-1,0.4c-0.3,0.3-0.4,0.6-0.5,1.1H884.6z"/>
			<path class="st11" d="M895.3,142c0.5,0.5,0.7,1.2,0.7,2.1v4.8h-2.5v-4.1c0-0.4-0.1-0.8-0.3-1c-0.2-0.2-0.5-0.4-0.9-0.4
				c-0.4,0-0.7,0.1-1,0.4c-0.3,0.3-0.4,0.6-0.5,1v4h-2.5v-7.6h2.5v1.2c0.3-0.4,0.6-0.8,1-1c0.4-0.2,0.9-0.3,1.5-0.3
				C894.1,141.2,894.8,141.5,895.3,142z"/>
		</g>
	</g>
</g>
<g>
</g>
</svg>
