<?xml version="1.0" encoding="utf-8"?>
<!-- Generator: Adobe Illustrator 22.0.0, SVG Export Plug-In . SVG Version: 6.00 Build 0)  -->
<svg version="1.1" id="Layer_1" xmlns="http://www.w3.org/2000/svg" xmlns:xlink="http://www.w3.org/1999/xlink" x="0px" y="0px"
	 viewBox="0 0 1200 429.6" style="enable-background:new 0 0 1200 429.6;" xml:space="preserve">
<style type="text/css">
	.st0{fill:#F9FAFC;stroke:#BCC1CD;stroke-width:2;stroke-miterlimit:10;}
	.st1{fill:#FFDB03;stroke:#5C6783;stroke-width:2;stroke-linecap:round;stroke-linejoin:round;}
	.st2{fill:#5C6783;}
	.st3{fill:#7A839B;}
	.st4{fill:none;stroke:#A08AC9;stroke-width:2;stroke-linecap:round;stroke-linejoin:round;}
	.st5{fill:#A08AC9;}
	.st6{fill:#A08AC9;stroke:#5C6783;stroke-width:2;stroke-linecap:round;stroke-linejoin:round;}
	.st7{fill:none;stroke:#5C6783;stroke-width:3;stroke-linecap:round;stroke-linejoin:round;}
	.st8{fill:#FFDB03;}
	.st9{fill:#FFFFFF;stroke:#5C6783;stroke-width:2;stroke-linecap:round;stroke-linejoin:round;}
	.st10{fill:#FFFFFF;stroke:#5C6783;stroke-width:2;}
	.st11{fill:#A08AC9;stroke:#5C6783;stroke-width:2;}
	.st12{fill:#C5B1EC;stroke:#5C6783;stroke-width:2;}
	.st13{fill:#FFFFFF;}
	.st14{fill:none;stroke:#5C6783;stroke-width:2;}
	.st15{fill:#87DEE8;stroke:#5C6783;stroke-width:2;stroke-linecap:round;stroke-linejoin:round;}
	.st16{fill:none;stroke:#BCC1CD;stroke-width:2;stroke-linecap:round;stroke-linejoin:round;}
	.st17{fill:#BCC1CD;}
	.st18{fill:#FFFFFF;stroke:#BCC1CD;stroke-width:2;stroke-linecap:round;stroke-linejoin:round;}
	.st19{fill:none;stroke:#BCC1CD;stroke-width:2;stroke-linecap:round;stroke-linejoin:round;stroke-dasharray:0,7.9531;}
	.st20{fill:#D6CDE8;}
	.st21{fill:none;stroke:#AE9BD1;stroke-width:2;stroke-linecap:round;stroke-linejoin:round;}
</style>
<path class="st0" d="M1166,414.2H356.2c-2.2,0-4-1.8-4-4V22.4c0-2.2,1.8-4,4-4H1166c2.2,0,4,1.8,4,4v387.8
	C1170,412.4,1168.2,414.2,1166,414.2z"/>
<g>
	<path class="st1" d="M237,113.6H34c-2.2,0-4-1.8-4-4V49.9c0-2.2,1.8-4,4-4h203c2.2,0,4,1.8,4,4v59.8
		C241,111.8,239.2,113.6,237,113.6z"/>
	<g>
		<g>
			<path class="st2" d="M102.1,66.6c0.5,0.2,1,0.5,1.3,0.9c0.3,0.4,0.4,0.8,0.4,1.3c0,0.5-0.2,1-0.5,1.3s-0.7,0.6-1.2,0.8
				c0.6,0.1,1.1,0.4,1.5,0.9c0.4,0.4,0.5,1,0.5,1.6c0,0.6-0.2,1-0.5,1.4c-0.3,0.4-0.7,0.7-1.3,1c-0.6,0.2-1.2,0.3-2,0.3h-4.8v-9.8
				h4.7C100.9,66.3,101.5,66.4,102.1,66.6z M100.9,69.9c0.2-0.2,0.3-0.4,0.3-0.7c0-0.3-0.1-0.5-0.3-0.7c-0.2-0.2-0.5-0.2-0.8-0.2h-2
				v1.9h2C100.4,70.2,100.7,70.1,100.9,69.9z M101.1,73.8c0.3-0.2,0.4-0.4,0.4-0.8c0-0.3-0.1-0.6-0.4-0.7c-0.3-0.2-0.6-0.3-1.1-0.3
				h-2v2.1h2C100.5,74.1,100.8,74,101.1,73.8z"/>
			<path class="st2" d="M111.4,69.1c0.6,0.5,0.9,1.2,0.9,2v4.9h-2.5v-0.9c-0.5,0.6-1.3,1-2.3,1c-0.8,0-1.4-0.2-1.9-0.7
				s-0.7-1-0.7-1.7c0-0.7,0.3-1.3,0.7-1.7c0.5-0.4,1.2-0.6,2.1-0.6h2v-0.1c0-0.4-0.1-0.6-0.4-0.8c-0.2-0.2-0.6-0.3-1.1-0.3
				c-0.3,0-0.7,0.1-1.1,0.2c-0.4,0.1-0.8,0.3-1.2,0.4l-0.7-1.7c0.6-0.3,1.2-0.5,1.8-0.6c0.6-0.1,1.2-0.2,1.8-0.2
				C110,68.4,110.8,68.7,111.4,69.1z M109.3,74.2c0.3-0.2,0.5-0.4,0.5-0.7v-0.7h-1.5c-0.7,0-1,0.3-1,0.8c0,0.3,0.1,0.5,0.3,0.6
				c0.2,0.2,0.4,0.2,0.7,0.2C108.7,74.5,109,74.4,109.3,74.2z"/>
			<path class="st2" d="M117.3,70.5c-0.4,0-0.8,0.2-1.1,0.5c-0.3,0.3-0.4,0.8-0.4,1.3c0,0.6,0.1,1,0.4,1.3c0.3,0.3,0.6,0.5,1.1,0.5
				c0.7,0,1.2-0.3,1.5-0.9l1.8,1c-0.3,0.6-0.7,1-1.3,1.3c-0.6,0.3-1.3,0.5-2.1,0.5c-0.8,0-1.5-0.2-2-0.5s-1-0.8-1.4-1.3
				c-0.3-0.6-0.5-1.3-0.5-2c0-0.8,0.2-1.5,0.5-2.1c0.3-0.6,0.8-1,1.4-1.4c0.6-0.3,1.3-0.5,2.1-0.5c0.8,0,1.4,0.2,2,0.5
				c0.6,0.3,1,0.8,1.4,1.3l-1.8,1C118.5,70.7,118,70.5,117.3,70.5z"/>
			<path class="st2" d="M126.7,76.1l-1.6-2.9l-0.8,0.8v2.1h-2.5V65.7h2.5v5.4l2.4-2.6h2.8l-2.8,2.9l2.8,4.6H126.7z"/>
			<path class="st2" d="M141.2,66.8c0.8,0.4,1.4,1,1.9,1.8c0.5,0.8,0.7,1.6,0.7,2.6c0,1-0.2,1.8-0.7,2.6c-0.5,0.8-1.1,1.4-1.9,1.8
				s-1.7,0.7-2.7,0.7s-1.9-0.2-2.7-0.7c-0.8-0.4-1.4-1.1-1.9-1.8c-0.5-0.8-0.7-1.6-0.7-2.6c0-1,0.2-1.8,0.7-2.6s1.1-1.4,1.9-1.8
				c0.8-0.4,1.7-0.7,2.7-0.7S140.4,66.3,141.2,66.8z M137.1,68.7c-0.4,0.3-0.7,0.6-1,1s-0.4,0.9-0.4,1.5c0,0.5,0.1,1,0.4,1.5
				c0.2,0.4,0.6,0.8,1,1s0.9,0.4,1.3,0.4s0.9-0.1,1.3-0.4c0.4-0.3,0.7-0.6,1-1c0.2-0.4,0.3-0.9,0.3-1.5c0-0.5-0.1-1-0.3-1.5
				c-0.2-0.4-0.6-0.8-1-1c-0.4-0.3-0.9-0.4-1.3-0.4S137.5,68.4,137.1,68.7z"/>
			<path class="st2" d="M148.2,67.8c-0.2,0.1-0.2,0.3-0.2,0.6v0.5h1.7v1.7H148v5.6h-2.5v-5.6h-1v-1.7h1v-0.7c0-0.8,0.3-1.4,0.8-1.9
				c0.5-0.5,1.2-0.7,2.1-0.7c0.6,0,1.1,0.1,1.6,0.3l-0.3,1.9c-0.4-0.1-0.7-0.2-0.8-0.2C148.6,67.6,148.4,67.6,148.2,67.8z"/>
			<path class="st2" d="M153.8,67.8c-0.2,0.1-0.2,0.3-0.2,0.6v0.5h1.7v1.7h-1.7v5.6h-2.5v-5.6h-1v-1.7h1v-0.7c0-0.8,0.3-1.4,0.8-1.9
				c0.5-0.5,1.2-0.7,2.1-0.7c0.6,0,1.1,0.1,1.6,0.3l-0.3,1.9c-0.4-0.1-0.7-0.2-0.8-0.2C154.2,67.6,153.9,67.6,153.8,67.8z
				 M158.3,65.4c0.2,0.2,0.4,0.6,0.4,1c0,0.4-0.1,0.7-0.4,1c-0.2,0.3-0.6,0.4-0.9,0.4s-0.7-0.1-0.9-0.4c-0.2-0.3-0.4-0.6-0.4-1
				c0-0.4,0.1-0.7,0.4-1c0.2-0.2,0.6-0.4,0.9-0.4S158.1,65.1,158.3,65.4z M156.2,68.5h2.5v7.6h-2.5V68.5z"/>
			<path class="st2" d="M164,70.5c-0.4,0-0.8,0.2-1.1,0.5c-0.3,0.3-0.4,0.8-0.4,1.3c0,0.6,0.1,1,0.4,1.3c0.3,0.3,0.6,0.5,1.1,0.5
				c0.7,0,1.2-0.3,1.5-0.9l1.8,1c-0.3,0.6-0.7,1-1.3,1.3c-0.6,0.3-1.3,0.5-2.1,0.5c-0.8,0-1.5-0.2-2-0.5s-1-0.8-1.4-1.3
				c-0.3-0.6-0.5-1.3-0.5-2c0-0.8,0.2-1.5,0.5-2.1c0.3-0.6,0.8-1,1.4-1.4c0.6-0.3,1.3-0.5,2.1-0.5c0.8,0,1.4,0.2,2,0.5
				c0.6,0.3,1,0.8,1.4,1.3l-1.8,1C165.1,70.7,164.6,70.5,164,70.5z"/>
			<path class="st2" d="M174.4,69.5c0.7,0.7,1,1.7,1,3c0,0.2,0,0.3,0,0.4h-5.3c0.1,0.4,0.3,0.8,0.6,1c0.3,0.2,0.7,0.3,1.1,0.3
				c0.3,0,0.6-0.1,0.9-0.2c0.3-0.1,0.6-0.3,0.8-0.6l1.3,1.3c-0.4,0.4-0.9,0.8-1.4,1c-0.6,0.2-1.2,0.3-1.9,0.3
				c-0.8,0-1.5-0.2-2.1-0.5c-0.6-0.3-1.1-0.8-1.4-1.3c-0.3-0.6-0.5-1.3-0.5-2c0-0.8,0.2-1.5,0.5-2.1c0.3-0.6,0.8-1,1.4-1.4
				s1.3-0.5,2.1-0.5C172.8,68.4,173.7,68.8,174.4,69.5z M173,71.6c0-0.4-0.1-0.8-0.4-1.1c-0.3-0.3-0.6-0.4-1-0.4
				c-0.4,0-0.7,0.1-1,0.4c-0.3,0.3-0.4,0.6-0.5,1.1H173z"/>
			<path class="st2" d="M112,96.1l-1.4-2.7h-0.1h-1.8v2.7h-2.6v-9.8h4.4c1.3,0,2.3,0.3,3,0.9c0.7,0.6,1.1,1.4,1.1,2.5
				c0,0.7-0.1,1.4-0.4,1.9c-0.3,0.5-0.7,1-1.3,1.3l2,3.2H112z M108.7,91.3h1.9c0.5,0,0.9-0.1,1.2-0.4c0.3-0.3,0.4-0.6,0.4-1.1
				c0-0.5-0.1-0.8-0.4-1.1s-0.7-0.4-1.2-0.4h-1.9V91.3z"/>
			<path class="st2" d="M122.5,89.5c0.7,0.7,1,1.7,1,3c0,0.2,0,0.3,0,0.4h-5.3c0.1,0.4,0.3,0.8,0.6,1c0.3,0.2,0.7,0.3,1.1,0.3
				c0.3,0,0.6-0.1,0.9-0.2c0.3-0.1,0.6-0.3,0.8-0.6l1.3,1.3c-0.4,0.4-0.9,0.8-1.4,1c-0.6,0.2-1.2,0.3-1.9,0.3
				c-0.8,0-1.5-0.2-2.1-0.5c-0.6-0.3-1.1-0.8-1.4-1.3c-0.3-0.6-0.5-1.3-0.5-2c0-0.8,0.2-1.5,0.5-2.1c0.3-0.6,0.8-1,1.4-1.4
				s1.3-0.5,2.1-0.5C120.9,88.4,121.8,88.8,122.5,89.5z M121,91.6c0-0.4-0.1-0.8-0.4-1.1c-0.3-0.3-0.6-0.4-1-0.4
				c-0.4,0-0.7,0.1-1,0.4c-0.3,0.3-0.4,0.6-0.5,1.1H121z"/>
			<path class="st2" d="M127.4,90.1c-0.2,0-0.4,0-0.5,0.1c-0.1,0.1-0.2,0.2-0.2,0.4c0,0.2,0.1,0.3,0.3,0.4c0.2,0.1,0.5,0.2,1,0.3
				c0.5,0.2,1,0.3,1.4,0.5c0.4,0.2,0.7,0.4,0.9,0.7c0.3,0.3,0.4,0.7,0.4,1.2c0,0.8-0.3,1.4-0.9,1.8s-1.4,0.7-2.3,0.7
				c-0.6,0-1.3-0.1-1.8-0.3c-0.6-0.2-1.1-0.5-1.6-0.8l0.8-1.6c0.4,0.3,0.9,0.5,1.4,0.7s0.9,0.2,1.3,0.2c0.2,0,0.4,0,0.6-0.1
				s0.2-0.2,0.2-0.3c0-0.2-0.1-0.3-0.3-0.4s-0.5-0.2-1-0.3c-0.5-0.2-1-0.3-1.3-0.5s-0.6-0.4-0.9-0.7c-0.3-0.3-0.4-0.7-0.4-1.2
				c0-0.8,0.3-1.4,0.9-1.8c0.6-0.4,1.3-0.7,2.2-0.7c0.6,0,1.1,0.1,1.6,0.2c0.5,0.1,1,0.4,1.5,0.7l-0.8,1.6
				C128.8,90.4,128,90.1,127.4,90.1z"/>
			<path class="st2" d="M136.9,95.7c-0.3,0.2-0.6,0.3-1,0.4c-0.4,0.1-0.7,0.1-1.1,0.1c-0.7,0-1.4-0.2-1.8-0.6
				c-0.5-0.4-0.7-1-0.7-1.8v-3.2h-1v-1.7h1v-2.1h2.5v2.1h2v1.7h-2v2.9c0,0.5,0.2,0.8,0.7,0.8c0.3,0,0.6-0.1,1-0.3L136.9,95.7z"/>
			<path class="st2" d="M148.4,96.1l-0.7-1.7h-4.2l-0.7,1.7h-2.6l4.2-9.8h2.6l4.1,9.8H148.4z M144.3,92.4h2.7l-1.3-3.5L144.3,92.4z"
				/>
			<path class="st2" d="M159.2,87.2c0.7,0.6,1,1.4,1,2.5c0,1.2-0.3,2.1-1,2.7c-0.7,0.6-1.7,1-2.9,1h-1.8v2.7H152v-9.8h4.3
				C157.6,86.3,158.5,86.6,159.2,87.2z M157.4,90.9c0.3-0.3,0.4-0.6,0.4-1.1c0-0.5-0.1-0.8-0.4-1.1c-0.3-0.3-0.7-0.4-1.2-0.4h-1.6v3
				h1.6C156.7,91.3,157.1,91.2,157.4,90.9z"/>
			<path class="st2" d="M161.5,86.3h2.6v9.8h-2.6V86.3z"/>
		</g>
	</g>
</g>
<g>
	<g>
		<path class="st3" d="M74.3,377.7c0.8,0.4,1.4,1,1.9,1.8s0.7,1.6,0.7,2.5s-0.2,1.8-0.7,2.5c-0.5,0.8-1.1,1.4-1.9,1.8
			c-0.8,0.4-1.7,0.7-2.6,0.7c-0.9,0-1.8-0.2-2.6-0.7s-1.4-1-1.9-1.8c-0.5-0.8-0.7-1.6-0.7-2.5s0.2-1.8,0.7-2.5
			c0.5-0.8,1.1-1.4,1.9-1.8c0.8-0.4,1.7-0.7,2.6-0.7C72.6,377,73.5,377.2,74.3,377.7z M69.8,378.7c-0.6,0.3-1,0.8-1.4,1.4
			c-0.3,0.6-0.5,1.2-0.5,1.9s0.2,1.3,0.5,1.9c0.3,0.6,0.8,1,1.4,1.4c0.6,0.3,1.2,0.5,1.9,0.5c0.7,0,1.3-0.2,1.9-0.5
			c0.6-0.3,1-0.8,1.4-1.4c0.3-0.6,0.5-1.2,0.5-1.9s-0.2-1.3-0.5-1.9c-0.3-0.6-0.8-1-1.4-1.4c-0.6-0.3-1.2-0.5-1.9-0.5
			C71,378.2,70.4,378.4,69.8,378.7z"/>
		<path class="st3" d="M82.6,386.4c-0.6,0.4-1.1,0.5-1.7,0.5c-0.6,0-1.1-0.2-1.4-0.5c-0.4-0.3-0.5-0.9-0.5-1.6v-4.1h-1v-1h1v-2h1.3
			v2h2.3v1h-2.3v3.9c0,0.4,0.1,0.7,0.2,0.9c0.1,0.2,0.4,0.3,0.7,0.3c0.4,0,0.7-0.1,1.1-0.4L82.6,386.4z"/>
		<path class="st3" d="M90.5,380.2c0.5,0.5,0.7,1.2,0.7,2.1v4.6h-1.3v-4.2c0-0.6-0.2-1.1-0.5-1.5c-0.4-0.4-0.8-0.5-1.4-0.5
			c-0.7,0-1.3,0.3-1.7,0.7c-0.4,0.5-0.6,1.1-0.6,1.8v3.6h-1.3v-10.4h1.3v4.6c0.5-1.1,1.4-1.6,2.8-1.6
			C89.3,379.4,90,379.7,90.5,380.2z"/>
		<path class="st3" d="M99.1,380.4c0.6,0.7,0.9,1.6,0.9,2.8c0,0.2,0,0.3,0,0.4h-5.9c0.1,0.7,0.4,1.2,0.8,1.6c0.5,0.4,1,0.6,1.7,0.6
			c0.4,0,0.8-0.1,1.2-0.2c0.4-0.2,0.7-0.4,1-0.7l0.7,0.7c-0.4,0.4-0.8,0.7-1.3,0.9c-0.5,0.2-1.1,0.3-1.7,0.3c-0.7,0-1.4-0.2-1.9-0.5
			c-0.6-0.3-1-0.8-1.3-1.3c-0.3-0.6-0.5-1.2-0.5-1.9c0-0.7,0.2-1.4,0.5-1.9c0.3-0.6,0.7-1,1.3-1.3c0.6-0.3,1.2-0.5,1.9-0.5
			C97.6,379.4,98.5,379.8,99.1,380.4z M98.8,382.7c0-0.7-0.3-1.2-0.7-1.6s-1-0.6-1.6-0.6c-0.7,0-1.2,0.2-1.6,0.6
			c-0.4,0.4-0.7,0.9-0.8,1.6H98.8z"/>
		<path class="st3" d="M104.1,379.9c0.4-0.3,1-0.4,1.6-0.4v1.3c-0.8,0-1.4,0.2-1.8,0.6s-0.7,1-0.8,1.7v3.9h-1.3v-7.4h1.3v1.6
			C103.3,380.5,103.6,380.1,104.1,379.9z"/>
		<path class="st3" d="M110.9,377.1h1.6l3.6,6.9l3.6-6.9h1.6v9.8H120l0-7.8l-3.5,6.8h-0.8l-3.5-6.8v7.8h-1.2V377.1z"/>
		<path class="st3" d="M128.4,386.9v-1c-0.6,0.7-1.4,1.1-2.6,1.1c-0.5,0-1-0.1-1.4-0.3c-0.4-0.2-0.7-0.5-0.9-0.8s-0.3-0.7-0.3-1.2
			c0-0.7,0.2-1.2,0.7-1.6c0.5-0.4,1.2-0.6,2.1-0.6h2.4v-0.3c0-0.5-0.2-0.9-0.5-1.2c-0.3-0.3-0.8-0.4-1.4-0.4c-0.7,0-1.5,0.3-2.3,0.8
			l-0.5-0.9c0.5-0.3,1-0.6,1.5-0.7c0.5-0.2,1-0.2,1.6-0.2c0.9,0,1.6,0.2,2.1,0.7c0.5,0.5,0.8,1.1,0.8,1.9l0,4.9H128.4z M127.7,385.4
			c0.4-0.3,0.7-0.7,0.8-1.2v-0.7h-2.2c-0.6,0-1,0.1-1.3,0.3c-0.3,0.2-0.4,0.5-0.4,0.8c0,0.4,0.1,0.7,0.4,0.9
			c0.3,0.2,0.7,0.3,1.2,0.3C126.7,385.9,127.2,385.7,127.7,385.4z"/>
		<path class="st3" d="M134.4,379.9c0.4-0.3,1-0.4,1.6-0.4v1.3c-0.8,0-1.4,0.2-1.8,0.6s-0.7,1-0.8,1.7v3.9H132v-7.4h1.3v1.6
			C133.6,380.5,133.9,380.1,134.4,379.9z"/>
		<path class="st3" d="M142.6,386.9l-2.4-3.6l-1.4,1.5v2.1h-1.3v-10.4h1.3v6.6l3.6-3.6h1.5l-2.8,2.9l3,4.5H142.6z"/>
		<path class="st3" d="M150.8,380.4c0.6,0.7,0.9,1.6,0.9,2.8c0,0.2,0,0.3,0,0.4h-5.9c0.1,0.7,0.4,1.2,0.8,1.6c0.5,0.4,1,0.6,1.7,0.6
			c0.4,0,0.8-0.1,1.2-0.2c0.4-0.2,0.7-0.4,1-0.7l0.7,0.7c-0.4,0.4-0.8,0.7-1.3,0.9c-0.5,0.2-1.1,0.3-1.7,0.3c-0.7,0-1.4-0.2-1.9-0.5
			c-0.6-0.3-1-0.8-1.3-1.3c-0.3-0.6-0.5-1.2-0.5-1.9c0-0.7,0.2-1.4,0.5-1.9c0.3-0.6,0.7-1,1.3-1.3c0.6-0.3,1.2-0.5,1.9-0.5
			C149.3,379.4,150.2,379.8,150.8,380.4z M150.5,382.7c0-0.7-0.3-1.2-0.7-1.6s-1-0.6-1.6-0.6c-0.7,0-1.2,0.2-1.6,0.6
			c-0.4,0.4-0.7,0.9-0.8,1.6H150.5z"/>
		<path class="st3" d="M157.4,386.4c-0.6,0.4-1.1,0.5-1.7,0.5c-0.6,0-1.1-0.2-1.4-0.5c-0.4-0.3-0.5-0.9-0.5-1.6v-4.1h-1v-1h1v-2h1.3
			v2h2.3v1H155v3.9c0,0.4,0.1,0.7,0.2,0.9c0.1,0.2,0.4,0.3,0.7,0.3c0.4,0,0.7-0.1,1.1-0.4L157.4,386.4z"/>
		<path class="st3" d="M170.1,386.9l-1-2.4h-5.2l-1,2.4h-1.4l4.4-9.8h1.4l4.3,9.8H170.1z M164.4,383.3h4.1l-2.1-4.8L164.4,383.3z"/>
		<path class="st3" d="M175.5,380.6c-0.5,0-0.9,0.1-1.3,0.3s-0.7,0.5-0.9,0.9c-0.2,0.4-0.3,0.8-0.3,1.4c0,0.5,0.1,1,0.3,1.4
			s0.5,0.7,0.9,0.9s0.8,0.3,1.3,0.3s0.9-0.1,1.3-0.2s0.7-0.4,1-0.7l0.7,0.8c-0.3,0.4-0.8,0.7-1.3,1s-1.1,0.3-1.8,0.3
			c-0.7,0-1.4-0.2-1.9-0.5c-0.6-0.3-1-0.8-1.3-1.3c-0.3-0.6-0.5-1.2-0.5-1.9c0-0.7,0.2-1.4,0.5-1.9c0.3-0.6,0.7-1,1.3-1.3
			c0.6-0.3,1.2-0.5,1.9-0.5c0.6,0,1.2,0.1,1.7,0.3c0.5,0.2,0.9,0.5,1.3,0.8l-0.7,0.9C177.1,380.9,176.4,380.6,175.5,380.6z"/>
		<path class="st3" d="M184.3,386.4c-0.6,0.4-1.1,0.5-1.7,0.5c-0.6,0-1.1-0.2-1.4-0.5c-0.4-0.3-0.5-0.9-0.5-1.6v-4.1h-1v-1h1v-2h1.3
			v2h2.3v1h-2.3v3.9c0,0.4,0.1,0.7,0.2,0.9c0.1,0.2,0.4,0.3,0.7,0.3c0.4,0,0.7-0.1,1.1-0.4L184.3,386.4z"/>
		<path class="st3" d="M190.8,379.9c0.6,0.3,1,0.8,1.3,1.3c0.3,0.6,0.5,1.2,0.5,1.9s-0.2,1.4-0.5,1.9c-0.3,0.6-0.8,1-1.3,1.3
			c-0.6,0.3-1.2,0.5-2,0.5c-0.7,0-1.4-0.2-2-0.5c-0.6-0.3-1-0.8-1.3-1.3c-0.3-0.6-0.5-1.2-0.5-2c0-0.7,0.2-1.4,0.5-1.9
			c0.3-0.6,0.8-1,1.3-1.3c0.6-0.3,1.2-0.5,2-0.5C189.6,379.4,190.3,379.6,190.8,379.9z M187.6,380.9c-0.4,0.2-0.7,0.5-0.9,0.9
			c-0.2,0.4-0.3,0.8-0.3,1.4c0,0.5,0.1,1,0.3,1.4c0.2,0.4,0.5,0.7,0.9,0.9c0.4,0.2,0.8,0.3,1.3,0.3c0.5,0,0.9-0.1,1.3-0.3
			c0.4-0.2,0.7-0.5,0.9-0.9s0.3-0.9,0.3-1.4c0-0.5-0.1-1-0.3-1.4s-0.5-0.7-0.9-0.9c-0.4-0.2-0.8-0.3-1.3-0.3
			C188.4,380.6,187.9,380.7,187.6,380.9z"/>
		<path class="st3" d="M196.8,379.9c0.4-0.3,1-0.4,1.6-0.4v1.3c-0.8,0-1.4,0.2-1.8,0.6s-0.7,1-0.8,1.7v3.9h-1.3v-7.4h1.3v1.6
			C196,380.5,196.4,380.1,196.8,379.9z"/>
		<path class="st3" d="M202.9,380.7c-0.4-0.1-0.7-0.2-1.1-0.2c-0.4,0-0.7,0.1-0.9,0.2c-0.2,0.1-0.4,0.4-0.4,0.7s0.1,0.5,0.4,0.7
			c0.3,0.2,0.7,0.3,1.2,0.5c0.5,0.2,0.9,0.3,1.3,0.4c0.3,0.1,0.6,0.4,0.8,0.7c0.2,0.3,0.3,0.7,0.3,1.1c0,0.7-0.3,1.2-0.8,1.6
			c-0.5,0.4-1.2,0.5-2,0.5c-0.6,0-1.1-0.1-1.6-0.3s-1-0.4-1.3-0.8l0.5-1c0.3,0.3,0.7,0.5,1.1,0.7c0.5,0.2,0.9,0.3,1.3,0.3
			s0.8-0.1,1-0.2s0.4-0.4,0.4-0.7c0-0.3-0.1-0.6-0.4-0.8s-0.7-0.3-1.3-0.5c-0.5-0.1-0.9-0.3-1.2-0.4c-0.3-0.1-0.6-0.4-0.8-0.6
			c-0.2-0.3-0.3-0.6-0.3-1.1c0-0.7,0.3-1.2,0.8-1.6c0.5-0.3,1.1-0.5,1.9-0.5c0.4,0,0.9,0.1,1.3,0.2c0.4,0.1,0.8,0.3,1.1,0.5l-0.5,1
			C203.6,380.9,203.2,380.8,202.9,380.7z"/>
	</g>
</g>
<g>
	<g>
		<g>
			<line class="st4" x1="312.3" y1="64.1" x2="267.5" y2="64.1"/>
			<g>
				<polygon class="st5" points="310.8,59.1 319.5,64.1 310.8,69 				"/>
			</g>
		</g>
	</g>
	<g>
		<g>
			<line class="st4" x1="274.6" y1="95.4" x2="319.5" y2="95.4"/>
			<g>
				<polygon class="st5" points="276.1,100.4 267.5,95.4 276.1,90.4 				"/>
			</g>
		</g>
	</g>
</g>
<g>
	<g>
		<g>
			<line class="st4" x1="312.3" y1="315.8" x2="267.5" y2="315.8"/>
			<g>
				<polygon class="st5" points="310.8,310.8 319.5,315.8 310.8,320.8 				"/>
			</g>
		</g>
	</g>
	<g>
		<g>
			<line class="st4" x1="274.6" y1="347.2" x2="319.5" y2="347.2"/>
			<g>
				<polygon class="st5" points="276.1,352.2 267.5,347.2 276.1,342.2 				"/>
			</g>
		</g>
	</g>
</g>
<g>
	<g>
		<rect x="122.7" y="292.1" class="st6" width="39.4" height="59.7"/>
		<g>
			<line class="st7" x1="131" y1="303" x2="147" y2="303"/>
			<circle class="st8" cx="152.3" cy="303" r="1.5"/>
		</g>
		<g>
			<line class="st7" x1="131" y1="311.5" x2="147" y2="311.5"/>
			<circle class="st8" cx="152.3" cy="311.5" r="1.5"/>
		</g>
		<g>
			<line class="st7" x1="131" y1="320.1" x2="147" y2="320.1"/>
			<circle class="st8" cx="152.3" cy="320.1" r="1.5"/>
		</g>
		<g>
			<line class="st7" x1="131" y1="328.7" x2="147" y2="328.7"/>
			<circle class="st8" cx="152.3" cy="328.7" r="1.5"/>
		</g>
		<circle class="st9" cx="142.4" cy="341.8" r="3.4"/>
	</g>
	<g id="giovanni_5_" transform="translate(1599.000000, 1070.000000)">
		<g id="ear_4_" transform="translate(27.000000, 134.000000)">
			<path id="Shape-11-copy_4_" class="st10" d="M-1437.2-893.4c-0.8,0.2-2,0.6-2,3.3c0,0.3,0.1,2.3,0.6,3.6c0.5,1.3,1.7,3,3.7,3.5
				c-0.2-3.4-0.5-10.3-0.5-10.3C-1435.4-893.2-1436.5-893.6-1437.2-893.4z"/>
		</g>
		
			<g id="ear_1_" transform="translate(243.000000, 168.500000) scale(-1, 1) translate(-243.000000, -168.500000) translate(229.000000, 134.000000)">
			<path id="Shape-11-copy_1_" class="st10" d="M1635.9-893.4c-0.8,0.2-2,0.6-2,3.3c0,0.3,0.1,2.3,0.6,3.6c0.5,1.3,1.7,3,3.7,3.5
				c-0.2-3.4-0.5-10.3-0.5-10.3S1636.6-893.6,1635.9-893.4z"/>
		</g>
		<path id="Rounded-Rectangle-13-copy-4_4_" class="st11" d="M-1404.3-732.7c-6.1,0-11.5,5.2-11.9,12l-0.1,2.5h43.6l-0.1-2.5
			c-0.4-6.8-5.8-12-11.9-12H-1404.3z"/>
		<path id="Oval_6_" class="st12" d="M-1394.5-724.5c3.8,0,6.8-3.1,6.8-6.8c0-0.3,0-0.7-0.1-1.3l-13.4-0.1c-0.1,0.6-0.1,1-0.1,1.3
			C-1401.3-727.6-1398.2-724.5-1394.5-724.5z"/>
		<g id="Rectangle_7_">
			<g>
				<path id="path-1_2_" class="st13" d="M-1398.9-737.4h8.8v6.4l0,0c0,2.4-2,4.4-4.4,4.4l0,0l0,0c-2.4,0-4.4-2-4.4-4.4V-737.4z"/>
			</g>
			<path class="st14" d="M-1398.4-737v5.9c0,2.2,1.8,3.9,3.9,3.9s3.9-1.8,3.9-3.9v-5.9H-1398.4z"/>
		</g>
		<path id="_x33_-copy-5_2_" class="st10" d="M-1380.9-760.1l-0.4,9.5c-1.3,12.3-8.5,15.1-13.3,15.1s-12.2-3.1-13.3-15.1
			c0.2,0-0.4-9.5-0.4-9.5c0-11-0.4-16.1,13.7-15.6C-1378.6-775.7-1380.9-771.1-1380.9-760.1z"/>
		<path id="Shape-6-copy-3_5_" class="st2" d="M-1403.1-771.3c0,0,13.2,7,18.6,0.4c0,0-0.4,1.1,0.9,5.5c0.8,2.6,2.1,3.2,2.3,5.5h0.9
			c0,0,1.2-9.6-1.7-14.1c0.4-0.6,2.7-3.2,1.7-4.1c-0.6-0.6-1.7,0-3.6,0c-2.4,0-3.5-2.1-10.4-1.9c-8.4,0.2-11.8,5.6-11.8,5.6
			s-3.3,2.8-2.2,14.2c0,0,0.7,0.3,0.7,0.3c-0.1,0,1.5-2.1,3-5.6C-1404.1-767.1-1404.6-770.2-1403.1-771.3z"/>
	</g>
	<polygon class="st6" points="75.3,298.4 44.1,316.7 106.6,316.7 	"/>
	<rect x="53.5" y="316.7" class="st6" width="43.7" height="4.2"/>
	<rect x="53.5" y="343.4" class="st6" width="43.7" height="4.2"/>
	<g>
		
			<rect x="49.1" y="330" transform="matrix(6.123234e-17 -1 1 6.123234e-17 -271.8222 392.4294)" class="st15" width="22.5" height="4.2"/>
		
			<rect x="59.1" y="330" transform="matrix(6.123234e-17 -1 1 6.123234e-17 -261.8149 402.4367)" class="st15" width="22.5" height="4.2"/>
		
			<rect x="69.1" y="330" transform="matrix(6.123234e-17 -1 1 6.123234e-17 -251.8076 412.444)" class="st15" width="22.5" height="4.2"/>
		
			<rect x="79.1" y="330" transform="matrix(6.123234e-17 -1 1 6.123234e-17 -241.8002 422.4514)" class="st15" width="22.5" height="4.2"/>
	</g>
	<rect x="48.5" y="347.6" class="st6" width="53.6" height="4.2"/>
</g>
<g>
	<g>
		<path class="st6" d="M821.1,355.8c0,12.7-35.6,23-79.5,23c-43.9,0-79.5-10.3-79.5-23V192.6h159V355.8z"/>
		<ellipse class="st15" cx="741.5" cy="192.6" rx="79.5" ry="23"/>
	</g>
	<g>
		<path class="st6" d="M821.1,171.6c0,12.7-35.6,23-79.5,23c-43.9,0-79.5-10.3-79.5-23v-26.5h159V171.6z"/>
		<ellipse class="st15" cx="741.5" cy="145.1" rx="79.5" ry="23"/>
	</g>
	<g>
		<path class="st6" d="M821.1,125.6c0,12.7-35.6,23-79.5,23c-43.9,0-79.5-10.3-79.5-23V99.1h159V125.6z"/>
		<ellipse class="st6" cx="741.5" cy="99.1" rx="79.5" ry="23"/>
		<ellipse class="st15" cx="741.5" cy="99.1" rx="31.8" ry="9.2"/>
	</g>
</g>
<g>
	<g>
		<g>
			<line class="st16" x1="634" y1="255.8" x2="379.5" y2="255.8"/>
			<g>
				<polygon class="st17" points="632.6,250.8 641.2,255.8 632.6,260.8 				"/>
			</g>
		</g>
	</g>
	<g>
		<g>
			<g>
				<g>
					<path class="st3" d="M393.3,277.3c0.8,0.4,1.4,1,1.9,1.8s0.7,1.6,0.7,2.5c0,0.9-0.2,1.8-0.7,2.5c-0.5,0.8-1.1,1.4-1.9,1.8
						c-0.8,0.4-1.7,0.7-2.6,0.7c-0.9,0-1.8-0.2-2.6-0.7c-0.8-0.4-1.4-1-1.9-1.8c-0.5-0.8-0.7-1.6-0.7-2.5c0-0.9,0.2-1.8,0.7-2.5
						c0.5-0.8,1.1-1.4,1.9-1.8c0.8-0.4,1.7-0.7,2.6-0.7C391.6,276.7,392.5,276.9,393.3,277.3z M388.8,278.4c-0.6,0.3-1,0.8-1.4,1.4
						c-0.3,0.6-0.5,1.2-0.5,1.9s0.2,1.3,0.5,1.9c0.3,0.6,0.8,1,1.4,1.4c0.6,0.3,1.2,0.5,1.9,0.5c0.7,0,1.3-0.2,1.9-0.5
						c0.6-0.3,1-0.8,1.4-1.4c0.3-0.6,0.5-1.2,0.5-1.9s-0.2-1.3-0.5-1.9c-0.3-0.6-0.8-1-1.4-1.4c-0.6-0.3-1.2-0.5-1.9-0.5
						C390,277.9,389.4,278.1,388.8,278.4z"/>
					<path class="st3" d="M400,279.6c0.4-0.3,1-0.4,1.6-0.4v1.3c-0.8,0-1.4,0.2-1.8,0.6s-0.7,1-0.8,1.7v3.9h-1.3v-7.4h1.3v1.6
						C399.2,280.2,399.5,279.8,400,279.6z"/>
					<path class="st3" d="M409.9,276.2v10.4h-1.3v-1.5c-0.3,0.5-0.7,0.9-1.1,1.1c-0.5,0.3-1,0.4-1.6,0.4c-0.7,0-1.3-0.2-1.9-0.5
						c-0.5-0.3-1-0.8-1.3-1.3c-0.3-0.6-0.4-1.2-0.4-2c0-0.7,0.1-1.4,0.4-1.9c0.3-0.6,0.7-1,1.3-1.3c0.5-0.3,1.1-0.5,1.8-0.5
						c0.6,0,1.2,0.1,1.7,0.4c0.5,0.3,0.8,0.6,1.1,1.1v-4.5H409.9z M407.4,285.2c0.4-0.2,0.7-0.5,0.9-0.9c0.2-0.4,0.3-0.9,0.3-1.4
						c0-0.5-0.1-1-0.3-1.4c-0.2-0.4-0.5-0.7-0.9-0.9c-0.4-0.2-0.8-0.3-1.3-0.3c-0.5,0-0.9,0.1-1.3,0.3c-0.4,0.2-0.7,0.5-0.9,0.9
						c-0.2,0.4-0.3,0.9-0.3,1.4s0.1,1,0.3,1.4c0.2,0.4,0.5,0.7,0.9,0.9c0.4,0.2,0.8,0.3,1.3,0.3C406.6,285.5,407,285.4,407.4,285.2z
						"/>
					<path class="st3" d="M418.1,280.1c0.6,0.7,0.9,1.6,0.9,2.8c0,0.2,0,0.3,0,0.4h-5.9c0.1,0.7,0.4,1.2,0.8,1.6
						c0.5,0.4,1,0.6,1.7,0.6c0.4,0,0.8-0.1,1.2-0.2c0.4-0.2,0.7-0.4,1-0.7l0.7,0.7c-0.4,0.4-0.8,0.7-1.3,0.9
						c-0.5,0.2-1.1,0.3-1.7,0.3c-0.7,0-1.4-0.2-1.9-0.5c-0.6-0.3-1-0.8-1.3-1.3c-0.3-0.6-0.5-1.2-0.5-1.9c0-0.7,0.2-1.4,0.5-1.9
						c0.3-0.6,0.7-1,1.3-1.3c0.6-0.3,1.2-0.5,1.9-0.5C416.6,279.1,417.5,279.5,418.1,280.1z M417.8,282.4c0-0.7-0.3-1.2-0.7-1.6
						c-0.4-0.4-1-0.6-1.6-0.6c-0.7,0-1.2,0.2-1.6,0.6c-0.4,0.4-0.7,0.9-0.8,1.6H417.8z"/>
					<path class="st3" d="M423.1,279.6c0.4-0.3,1-0.4,1.6-0.4v1.3c-0.8,0-1.4,0.2-1.8,0.6s-0.7,1-0.8,1.7v3.9h-1.3v-7.4h1.3v1.6
						C422.3,280.2,422.6,279.8,423.1,279.6z"/>
					<path class="st3" d="M436.2,286.6l-1.9-3.1c-0.2,0-0.4,0-0.5,0h-2.5v3.1h-1.3v-9.8h3.8c1.2,0,2.2,0.3,2.9,0.9
						c0.7,0.6,1,1.4,1,2.4c0,0.8-0.2,1.5-0.6,2c-0.4,0.5-0.9,0.9-1.6,1.2l2.3,3.3H436.2z M433.7,282.3c0.8,0,1.5-0.2,1.9-0.6
						c0.4-0.4,0.7-0.9,0.7-1.6c0-0.7-0.2-1.2-0.7-1.6c-0.4-0.4-1.1-0.5-1.9-0.5h-2.5v4.3H433.7z"/>
					<path class="st3" d="M444.9,279.6c0.6,0.3,1,0.8,1.3,1.3c0.3,0.6,0.5,1.2,0.5,1.9c0,0.7-0.2,1.4-0.5,1.9
						c-0.3,0.6-0.8,1-1.3,1.3c-0.6,0.3-1.2,0.5-2,0.5c-0.7,0-1.4-0.2-2-0.5c-0.6-0.3-1-0.8-1.3-1.3c-0.3-0.6-0.5-1.2-0.5-2
						c0-0.7,0.2-1.4,0.5-1.9c0.3-0.6,0.8-1,1.3-1.3c0.6-0.3,1.2-0.5,2-0.5C443.7,279.1,444.3,279.3,444.9,279.6z M441.7,280.6
						c-0.4,0.2-0.7,0.5-0.9,0.9c-0.2,0.4-0.3,0.8-0.3,1.4c0,0.5,0.1,1,0.3,1.4c0.2,0.4,0.5,0.7,0.9,0.9c0.4,0.2,0.8,0.3,1.3,0.3
						c0.5,0,0.9-0.1,1.3-0.3c0.4-0.2,0.7-0.5,0.9-0.9s0.3-0.9,0.3-1.4c0-0.5-0.1-1-0.3-1.4s-0.5-0.7-0.9-0.9
						c-0.4-0.2-0.8-0.3-1.3-0.3C442.5,280.3,442,280.4,441.7,280.6z"/>
					<path class="st3" d="M455.1,279.2v7.4h-1.3V285c-0.5,1.1-1.4,1.6-2.7,1.6c-0.9,0-1.5-0.3-2-0.8s-0.7-1.2-0.7-2.1v-4.6h1.3v4.2
						c0,0.6,0.2,1.1,0.5,1.5c0.3,0.3,0.8,0.5,1.4,0.5c0.7,0,1.2-0.3,1.6-0.7c0.4-0.5,0.6-1.1,0.6-1.8v-3.6H455.1z"/>
					<path class="st3" d="M461.6,286.1c-0.6,0.4-1.1,0.5-1.7,0.5c-0.6,0-1.1-0.2-1.4-0.5c-0.4-0.4-0.5-0.9-0.5-1.6v-4.1h-1v-1h1v-2
						h1.3v2h2.3v1h-2.3v3.9c0,0.4,0.1,0.7,0.2,0.9c0.1,0.2,0.4,0.3,0.7,0.3c0.4,0,0.7-0.1,1.1-0.3L461.6,286.1z"/>
					<path class="st3" d="M468.7,280.1c0.6,0.7,0.9,1.6,0.9,2.8c0,0.2,0,0.3,0,0.4h-5.9c0.1,0.7,0.4,1.2,0.8,1.6
						c0.5,0.4,1,0.6,1.7,0.6c0.4,0,0.8-0.1,1.2-0.2c0.4-0.2,0.7-0.4,1-0.7l0.7,0.7c-0.4,0.4-0.8,0.7-1.3,0.9
						c-0.5,0.2-1.1,0.3-1.7,0.3c-0.7,0-1.4-0.2-1.9-0.5c-0.6-0.3-1-0.8-1.3-1.3c-0.3-0.6-0.5-1.2-0.5-1.9c0-0.7,0.2-1.4,0.5-1.9
						c0.3-0.6,0.7-1,1.3-1.3c0.6-0.3,1.2-0.5,1.9-0.5C467.2,279.1,468.1,279.5,468.7,280.1z M468.4,282.4c0-0.7-0.3-1.2-0.7-1.6
						c-0.4-0.4-1-0.6-1.6-0.6c-0.7,0-1.2,0.2-1.6,0.6c-0.4,0.4-0.7,0.9-0.8,1.6H468.4z"/>
					<path class="st3" d="M473.7,279.6c0.4-0.3,1-0.4,1.6-0.4v1.3c-0.8,0-1.4,0.2-1.8,0.6s-0.7,1-0.8,1.7v3.9h-1.3v-7.4h1.3v1.6
						C472.9,280.2,473.2,279.8,473.7,279.6z"/>
					<path class="st3" d="M479.7,280.4c-0.4-0.1-0.7-0.2-1.1-0.2c-0.4,0-0.7,0.1-0.9,0.2c-0.2,0.1-0.4,0.4-0.4,0.7s0.1,0.5,0.4,0.7
						c0.3,0.2,0.7,0.3,1.2,0.5c0.5,0.1,0.9,0.3,1.3,0.4s0.6,0.4,0.8,0.7s0.3,0.7,0.3,1.1c0,0.7-0.3,1.2-0.8,1.6
						c-0.5,0.4-1.2,0.5-2,0.5c-0.6,0-1.1-0.1-1.6-0.3c-0.5-0.2-1-0.4-1.3-0.8l0.5-1c0.3,0.3,0.7,0.5,1.1,0.7
						c0.5,0.2,0.9,0.3,1.3,0.3s0.8-0.1,1-0.2c0.3-0.2,0.4-0.4,0.4-0.7c0-0.3-0.1-0.6-0.4-0.8c-0.3-0.2-0.7-0.3-1.3-0.5
						c-0.5-0.1-0.9-0.3-1.2-0.4c-0.3-0.1-0.6-0.4-0.8-0.6s-0.3-0.6-0.3-1.1c0-0.7,0.3-1.2,0.8-1.6c0.5-0.3,1.1-0.5,1.9-0.5
						c0.4,0,0.9,0.1,1.3,0.2s0.8,0.3,1.1,0.5l-0.5,1C480.4,280.6,480.1,280.5,479.7,280.4z"/>
				</g>
			</g>
		</g>
	</g>
	<g>
		<path class="st18" d="M584.7,275.8h-74.3c-11,0-20-9-20-20v0c0-11,9-20,20-20h74.3c11,0,20,9,20,20v0
			C604.7,266.9,595.8,275.8,584.7,275.8z"/>
		<g>
			<g>
				<path class="st2" d="M532.2,251.1h2.6l-3.3,9.8h-2.6l-1.9-6.7l-1.9,6.7h-2.6l-3.3-9.8h2.8l1.9,7.2l1.9-7.2h2.5l2,7.2
					L532.2,251.1z"/>
				<path class="st2" d="M538.9,253.6c0.4-0.2,0.9-0.3,1.4-0.3v2.3c-0.1,0-0.2,0-0.4,0c-0.6,0-1.1,0.1-1.4,0.4
					c-0.4,0.3-0.6,0.7-0.6,1.1v3.9h-2.5v-7.6h2.5v1.3C538.1,254.2,538.4,253.8,538.9,253.6z"/>
				<path class="st2" d="M543.5,250.2c0.2,0.2,0.4,0.6,0.4,1c0,0.4-0.1,0.7-0.4,1c-0.2,0.3-0.6,0.4-0.9,0.4s-0.7-0.1-0.9-0.4
					c-0.2-0.3-0.4-0.6-0.4-1c0-0.4,0.1-0.7,0.4-1c0.2-0.2,0.6-0.4,0.9-0.4S543.3,250,543.5,250.2z M541.4,253.3h2.5v7.6h-2.5V253.3z
					"/>
				<path class="st2" d="M550.7,260.5c-0.3,0.2-0.6,0.3-1,0.4c-0.4,0.1-0.7,0.1-1.1,0.1c-0.7,0-1.4-0.2-1.8-0.6
					c-0.5-0.4-0.7-1-0.7-1.8v-3.2h-1v-1.7h1v-2.1h2.5v2.1h2v1.7h-2v2.9c0,0.5,0.2,0.8,0.7,0.8c0.3,0,0.6-0.1,1-0.3L550.7,260.5z"/>
				<path class="st2" d="M558,254.3c0.7,0.7,1,1.7,1,3c0,0.2,0,0.3,0,0.4h-5.3c0.1,0.4,0.3,0.8,0.6,1c0.3,0.2,0.7,0.3,1.1,0.3
					c0.3,0,0.6-0.1,0.9-0.2s0.6-0.3,0.8-0.6l1.3,1.3c-0.4,0.4-0.9,0.8-1.4,1c-0.6,0.2-1.2,0.3-1.9,0.3c-0.8,0-1.5-0.2-2.1-0.5
					c-0.6-0.3-1.1-0.8-1.4-1.3c-0.3-0.6-0.5-1.3-0.5-2c0-0.8,0.2-1.5,0.5-2.1c0.3-0.6,0.8-1.1,1.4-1.4s1.3-0.5,2.1-0.5
					C556.4,253.3,557.3,253.6,558,254.3z M556.6,256.5c0-0.4-0.1-0.8-0.4-1.1s-0.6-0.4-1-0.4c-0.4,0-0.7,0.1-1,0.4
					c-0.3,0.3-0.4,0.6-0.5,1.1H556.6z"/>
				<path class="st2" d="M566,253.4c-0.3,1-0.4,2.1-0.4,3.2c0,1.1,0.1,2.2,0.4,3.2c0.3,1,0.7,2,1.2,2.8H565c-0.6-0.8-1-1.8-1.3-2.8
					c-0.3-1-0.5-2.1-0.5-3.3c0-1.1,0.2-2.2,0.5-3.3c0.3-1,0.8-2,1.3-2.8h2.2C566.7,251.4,566.3,252.3,566,253.4z"/>
				<path class="st2" d="M572.6,250.5c0.6,0.8,1,1.8,1.3,2.8c0.3,1,0.5,2.1,0.5,3.3c0,1.1-0.2,2.2-0.5,3.3c-0.3,1-0.8,2-1.3,2.8
					h-2.2c0.5-0.8,0.9-1.8,1.2-2.8c0.3-1,0.4-2.1,0.4-3.2c0-1.1-0.1-2.2-0.4-3.2c-0.3-1-0.7-2-1.2-2.8H572.6z"/>
			</g>
		</g>
	</g>
	<circle class="st15" cx="433.4" cy="255.8" r="5"/>
	<g>
		<g>
			<line class="st16" x1="634" y1="347.2" x2="634" y2="347.2"/>
			<line class="st19" x1="626.1" y1="347.2" x2="383.5" y2="347.2"/>
			<line class="st16" x1="379.5" y1="347.2" x2="379.5" y2="347.2"/>
			<g>
				<polygon class="st17" points="632.6,342.2 641.2,347.2 632.6,352.1 				"/>
			</g>
		</g>
	</g>
	<g>
		<g>
			<g>
				<g>
					<path class="st3" d="M394.9,367.5c-0.5-0.1-0.9-0.2-1.4-0.2c-0.6,0-1,0.1-1.4,0.3c-0.3,0.2-0.5,0.5-0.5,0.9
						c0,0.3,0.1,0.6,0.3,0.8c0.2,0.2,0.5,0.4,0.8,0.5c0.3,0.1,0.7,0.3,1.2,0.4c0.7,0.2,1.2,0.4,1.6,0.6c0.4,0.2,0.8,0.5,1.1,0.8
						c0.3,0.4,0.4,0.9,0.4,1.5c0,0.6-0.2,1.1-0.5,1.5s-0.7,0.7-1.3,1c-0.5,0.2-1.2,0.3-1.9,0.3c-0.7,0-1.4-0.1-2.1-0.4
						c-0.7-0.3-1.3-0.7-1.8-1.1l0.6-1.2c0.5,0.5,1,0.8,1.6,1.1c0.6,0.2,1.2,0.4,1.7,0.4c0.7,0,1.2-0.1,1.5-0.4
						c0.4-0.3,0.6-0.6,0.6-1c0-0.3-0.1-0.6-0.3-0.9c-0.2-0.2-0.5-0.4-0.8-0.5c-0.3-0.1-0.7-0.3-1.3-0.4c-0.7-0.2-1.2-0.4-1.6-0.6
						c-0.4-0.2-0.8-0.5-1-0.8c-0.3-0.4-0.4-0.8-0.4-1.4c0-0.5,0.1-1,0.4-1.4c0.3-0.4,0.7-0.7,1.2-0.9c0.5-0.2,1.1-0.3,1.8-0.3
						c0.6,0,1.2,0.1,1.7,0.3c0.6,0.2,1.1,0.4,1.5,0.7l-0.6,1.2C395.8,367.9,395.4,367.6,394.9,367.5z"/>
					<path class="st3" d="M403,375.4c-0.6,0.4-1.1,0.5-1.7,0.5c-0.6,0-1.1-0.2-1.4-0.5c-0.4-0.4-0.5-0.9-0.5-1.6v-4.1h-1v-1h1v-2
						h1.3v2h2.3v1h-2.3v3.9c0,0.4,0.1,0.7,0.2,0.9c0.1,0.2,0.4,0.3,0.7,0.3c0.4,0,0.7-0.1,1.1-0.3L403,375.4z"/>
					<path class="st3" d="M409.2,375.9v-1c-0.6,0.7-1.4,1.1-2.6,1.1c-0.5,0-1-0.1-1.4-0.3s-0.7-0.5-0.9-0.8s-0.3-0.7-0.3-1.2
						c0-0.7,0.2-1.2,0.7-1.6c0.5-0.4,1.2-0.6,2.1-0.6h2.4v-0.3c0-0.5-0.2-0.9-0.5-1.2c-0.3-0.3-0.8-0.4-1.4-0.4
						c-0.7,0-1.5,0.3-2.3,0.8l-0.5-0.9c0.5-0.3,1-0.6,1.5-0.7c0.5-0.2,1-0.2,1.6-0.2c0.9,0,1.6,0.2,2.1,0.7c0.5,0.5,0.8,1.1,0.8,1.9
						l0,4.9H409.2z M408.4,374.4c0.4-0.3,0.7-0.7,0.8-1.2v-0.7H407c-0.6,0-1,0.1-1.3,0.3c-0.3,0.2-0.4,0.5-0.4,0.8s0.1,0.7,0.4,0.9
						c0.3,0.2,0.7,0.3,1.2,0.3C407.4,374.9,408,374.7,408.4,374.4z"/>
					<path class="st3" d="M416.7,375.4c-0.6,0.4-1.1,0.5-1.7,0.5c-0.6,0-1.1-0.2-1.4-0.5c-0.4-0.4-0.5-0.9-0.5-1.6v-4.1h-1v-1h1v-2
						h1.3v2h2.3v1h-2.3v3.9c0,0.4,0.1,0.7,0.2,0.9c0.1,0.2,0.4,0.3,0.7,0.3c0.4,0,0.7-0.1,1.1-0.3L416.7,375.4z"/>
					<path class="st3" d="M421.4,369.7c-0.4-0.1-0.7-0.2-1.1-0.2c-0.4,0-0.7,0.1-0.9,0.2c-0.2,0.1-0.4,0.4-0.4,0.7s0.1,0.5,0.4,0.7
						c0.3,0.2,0.7,0.3,1.2,0.5c0.5,0.1,0.9,0.3,1.3,0.4c0.3,0.1,0.6,0.4,0.8,0.7s0.3,0.7,0.3,1.1c0,0.7-0.3,1.2-0.8,1.6
						c-0.5,0.4-1.2,0.5-2,0.5c-0.6,0-1.1-0.1-1.6-0.3s-1-0.4-1.3-0.8l0.5-1c0.3,0.3,0.7,0.5,1.1,0.7c0.5,0.2,0.9,0.3,1.3,0.3
						s0.8-0.1,1-0.2s0.4-0.4,0.4-0.7c0-0.3-0.1-0.6-0.4-0.8s-0.7-0.3-1.3-0.5c-0.5-0.1-0.9-0.3-1.2-0.4c-0.3-0.1-0.6-0.4-0.8-0.6
						c-0.2-0.3-0.3-0.6-0.3-1.1c0-0.7,0.3-1.2,0.8-1.6c0.5-0.3,1.1-0.5,1.9-0.5c0.4,0,0.9,0.1,1.3,0.2c0.4,0.1,0.8,0.3,1.1,0.5
						l-0.5,1C422.1,370,421.7,369.8,421.4,369.7z"/>
					<path class="st3" d="M432.9,367.5c-0.5-0.1-0.9-0.2-1.4-0.2c-0.6,0-1,0.1-1.4,0.3c-0.3,0.2-0.5,0.5-0.5,0.9
						c0,0.3,0.1,0.6,0.3,0.8c0.2,0.2,0.5,0.4,0.8,0.5c0.3,0.1,0.7,0.3,1.2,0.4c0.7,0.2,1.2,0.4,1.6,0.6c0.4,0.2,0.8,0.5,1.1,0.8
						c0.3,0.4,0.4,0.9,0.4,1.5c0,0.6-0.2,1.1-0.5,1.5s-0.7,0.7-1.3,1c-0.5,0.2-1.2,0.3-1.9,0.3c-0.7,0-1.4-0.1-2.1-0.4
						c-0.7-0.3-1.3-0.7-1.8-1.1l0.6-1.2c0.5,0.5,1,0.8,1.6,1.1c0.6,0.2,1.2,0.4,1.7,0.4c0.7,0,1.2-0.1,1.5-0.4
						c0.4-0.3,0.6-0.6,0.6-1c0-0.3-0.1-0.6-0.3-0.9c-0.2-0.2-0.5-0.4-0.8-0.5c-0.3-0.1-0.7-0.3-1.3-0.4c-0.7-0.2-1.2-0.4-1.6-0.6
						c-0.4-0.2-0.8-0.5-1-0.8c-0.3-0.4-0.4-0.8-0.4-1.4c0-0.5,0.1-1,0.4-1.4c0.3-0.4,0.7-0.7,1.2-0.9c0.5-0.2,1.1-0.3,1.8-0.3
						c0.6,0,1.2,0.1,1.7,0.3c0.6,0.2,1.1,0.4,1.5,0.7l-0.6,1.2C433.8,367.9,433.4,367.6,432.9,367.5z"/>
					<path class="st3" d="M441,375.4c-0.6,0.4-1.1,0.5-1.7,0.5c-0.6,0-1.1-0.2-1.4-0.5c-0.4-0.4-0.5-0.9-0.5-1.6v-4.1h-1v-1h1v-2
						h1.3v2h2.3v1h-2.3v3.9c0,0.4,0.1,0.7,0.2,0.9c0.1,0.2,0.4,0.3,0.7,0.3c0.4,0,0.7-0.1,1.1-0.3L441,375.4z"/>
					<path class="st3" d="M445,368.9c0.4-0.3,1-0.4,1.6-0.4v1.3c-0.8,0-1.4,0.2-1.8,0.6s-0.7,1-0.8,1.7v3.9h-1.3v-7.4h1.3v1.6
						C444.2,369.6,444.5,369.2,445,368.9z"/>
					<path class="st3" d="M453.5,369.5c0.6,0.7,0.9,1.6,0.9,2.8c0,0.2,0,0.3,0,0.4h-5.9c0.1,0.7,0.4,1.2,0.8,1.6
						c0.5,0.4,1,0.6,1.7,0.6c0.4,0,0.8-0.1,1.2-0.2c0.4-0.2,0.7-0.4,1-0.7l0.7,0.7c-0.4,0.4-0.8,0.7-1.3,0.9
						c-0.5,0.2-1.1,0.3-1.7,0.3c-0.7,0-1.4-0.2-1.9-0.5c-0.6-0.3-1-0.8-1.3-1.3c-0.3-0.6-0.5-1.2-0.5-1.9c0-0.7,0.2-1.4,0.5-1.9
						c0.3-0.6,0.7-1,1.3-1.3c0.6-0.3,1.2-0.5,1.9-0.5C452.1,368.5,452.9,368.8,453.5,369.5z M453.2,371.7c0-0.7-0.3-1.2-0.7-1.6
						s-1-0.6-1.6-0.6c-0.7,0-1.2,0.2-1.6,0.6c-0.4,0.4-0.7,0.9-0.8,1.6H453.2z"/>
					<path class="st3" d="M460.7,375.9v-1c-0.6,0.7-1.4,1.1-2.6,1.1c-0.5,0-1-0.1-1.4-0.3s-0.7-0.5-0.9-0.8s-0.3-0.7-0.3-1.2
						c0-0.7,0.2-1.2,0.7-1.6c0.5-0.4,1.2-0.6,2.1-0.6h2.4v-0.3c0-0.5-0.2-0.9-0.5-1.2c-0.3-0.3-0.8-0.4-1.4-0.4
						c-0.7,0-1.5,0.3-2.3,0.8l-0.5-0.9c0.5-0.3,1-0.6,1.5-0.7c0.5-0.2,1-0.2,1.6-0.2c0.9,0,1.6,0.2,2.1,0.7c0.5,0.5,0.8,1.1,0.8,1.9
						l0,4.9H460.7z M459.9,374.4c0.4-0.3,0.7-0.7,0.8-1.2v-0.7h-2.2c-0.6,0-1,0.1-1.3,0.3c-0.3,0.2-0.4,0.5-0.4,0.8s0.1,0.7,0.4,0.9
						c0.3,0.2,0.7,0.3,1.2,0.3C459,374.9,459.5,374.7,459.9,374.4z"/>
					<path class="st3" d="M475.9,369.2c0.5,0.5,0.7,1.2,0.7,2.1v4.6h-1.3v-4.2c0-0.6-0.2-1.1-0.5-1.5c-0.3-0.4-0.8-0.5-1.4-0.5
						c-0.7,0-1.3,0.3-1.7,0.7c-0.4,0.5-0.6,1.1-0.6,1.8v3.7h-1.3v-4.2c0-0.6-0.2-1.1-0.5-1.5c-0.3-0.4-0.8-0.5-1.4-0.5
						c-0.7,0-1.3,0.3-1.7,0.7c-0.4,0.5-0.6,1.1-0.6,1.8v3.7h-1.3v-7.4h1.3v1.6c0.5-1,1.4-1.6,2.8-1.6c0.7,0,1.2,0.2,1.7,0.5
						c0.5,0.3,0.8,0.8,0.9,1.4c0.5-1.2,1.4-1.8,2.9-1.9C474.7,368.5,475.4,368.7,475.9,369.2z"/>
				</g>
			</g>
		</g>
	</g>
	<g>
		<path class="st18" d="M584.7,367.2h-74.3c-11,0-20-9-20-20v0c0-11,9-20,20-20h74.3c11,0,20,9,20,20v0
			C604.7,358.2,595.8,367.2,584.7,367.2z"/>
		<g>
			<g>
				<path class="st2" d="M527.8,352.2l-1.4-2.7h-0.1h-1.8v2.7h-2.6v-9.8h4.4c1.3,0,2.3,0.3,3,0.9c0.7,0.6,1.1,1.4,1.1,2.5
					c0,0.7-0.1,1.4-0.4,1.9c-0.3,0.5-0.7,1-1.3,1.3l2,3.2H527.8z M524.5,347.5h1.9c0.5,0,0.9-0.1,1.2-0.4c0.3-0.3,0.4-0.6,0.4-1.1
					c0-0.5-0.1-0.8-0.4-1.1s-0.7-0.4-1.2-0.4h-1.9V347.5z"/>
				<path class="st2" d="M538.2,345.7c0.7,0.7,1,1.7,1,3c0,0.2,0,0.3,0,0.4h-5.3c0.1,0.4,0.3,0.8,0.6,1c0.3,0.2,0.7,0.3,1.1,0.3
					c0.3,0,0.6-0.1,0.9-0.2c0.3-0.1,0.6-0.3,0.8-0.6l1.3,1.3c-0.4,0.4-0.9,0.8-1.4,1c-0.6,0.2-1.2,0.3-1.9,0.3
					c-0.8,0-1.5-0.2-2.1-0.5c-0.6-0.3-1.1-0.8-1.4-1.3c-0.3-0.6-0.5-1.3-0.5-2c0-0.8,0.2-1.5,0.5-2.1c0.3-0.6,0.8-1,1.4-1.4
					s1.3-0.5,2.1-0.5C536.6,344.6,537.6,345,538.2,345.7z M536.8,347.8c0-0.4-0.1-0.8-0.4-1.1c-0.3-0.3-0.6-0.4-1-0.4
					c-0.4,0-0.7,0.1-1,0.4c-0.3,0.3-0.4,0.6-0.5,1.1H536.8z"/>
				<path class="st2" d="M546.3,345.3c0.6,0.5,0.9,1.2,0.9,2v4.9h-2.5v-0.9c-0.5,0.6-1.3,1-2.3,1c-0.8,0-1.4-0.2-1.9-0.7
					s-0.7-1-0.7-1.7c0-0.7,0.3-1.3,0.7-1.7c0.5-0.4,1.2-0.6,2.1-0.6h2v-0.1c0-0.4-0.1-0.6-0.4-0.8c-0.2-0.2-0.6-0.3-1.1-0.3
					c-0.3,0-0.7,0.1-1.1,0.2c-0.4,0.1-0.8,0.3-1.2,0.4l-0.7-1.7c0.6-0.3,1.2-0.5,1.8-0.6c0.6-0.1,1.2-0.2,1.8-0.2
					C545,344.6,545.8,344.8,546.3,345.3z M544.2,350.4c0.3-0.2,0.5-0.4,0.5-0.7V349h-1.5c-0.7,0-1,0.3-1,0.8c0,0.3,0.1,0.5,0.3,0.6
					c0.2,0.2,0.4,0.2,0.7,0.2C543.6,350.7,544,350.6,544.2,350.4z"/>
				<path class="st2" d="M556.5,341.9v10.4h-2.5v-1c-0.3,0.4-0.6,0.6-1,0.8c-0.4,0.2-0.8,0.3-1.3,0.3c-0.7,0-1.3-0.2-1.8-0.5
					c-0.5-0.3-0.9-0.8-1.2-1.4c-0.3-0.6-0.4-1.3-0.4-2.1c0-0.8,0.1-1.4,0.4-2c0.3-0.6,0.7-1,1.2-1.3c0.5-0.3,1.1-0.5,1.8-0.5
					c0.5,0,0.9,0.1,1.3,0.3c0.4,0.2,0.7,0.5,1,0.8v-3.8H556.5z M553.6,349.9c0.3-0.4,0.4-0.8,0.4-1.4c0-0.6-0.1-1-0.4-1.4
					c-0.3-0.3-0.7-0.5-1.2-0.5s-0.9,0.2-1.2,0.5c-0.3,0.4-0.5,0.8-0.5,1.4s0.2,1,0.5,1.4c0.3,0.3,0.7,0.5,1.2,0.5
					S553.3,350.2,553.6,349.9z"/>
				<path class="st2" d="M564.3,344.7c-0.3,1-0.4,2.1-0.4,3.2c0,1.1,0.1,2.2,0.4,3.2c0.3,1,0.7,2,1.2,2.8h-2.2
					c-0.6-0.8-1-1.8-1.3-2.8c-0.3-1-0.5-2.1-0.5-3.3s0.2-2.2,0.5-3.3c0.3-1,0.8-2,1.3-2.8h2.2C565,342.7,564.6,343.7,564.3,344.7z"
					/>
				<path class="st2" d="M570.9,341.9c0.6,0.8,1,1.8,1.3,2.8c0.3,1,0.5,2.1,0.5,3.3s-0.2,2.2-0.5,3.3c-0.3,1-0.8,2-1.3,2.8h-2.2
					c0.5-0.8,0.9-1.8,1.2-2.8c0.3-1,0.4-2.1,0.4-3.2c0-1.1-0.1-2.2-0.4-3.2c-0.3-1-0.7-2-1.2-2.8H570.9z"/>
			</g>
		</g>
	</g>
	<circle class="st15" cx="433.4" cy="347.2" r="5"/>
</g>
<g>
	<path class="st1" d="M1139,113.6H936c-2.2,0-4-1.8-4-4V49.9c0-2.2,1.8-4,4-4h203c2.2,0,4,1.8,4,4v59.8
		C1143,111.8,1141.2,113.6,1139,113.6z"/>
	<g>
		<g>
			<path class="st2" d="M975.5,66.8c0.8,0.4,1.4,1,1.9,1.8c0.5,0.8,0.7,1.6,0.7,2.6c0,1-0.2,1.8-0.7,2.6c-0.5,0.8-1.1,1.4-1.9,1.8
				c-0.8,0.4-1.7,0.7-2.7,0.7c-1,0-1.9-0.2-2.7-0.7c-0.8-0.4-1.4-1.1-1.9-1.8c-0.5-0.8-0.7-1.6-0.7-2.6c0-1,0.2-1.8,0.7-2.6
				s1.1-1.4,1.9-1.8c0.8-0.4,1.7-0.7,2.7-0.7C973.8,66.1,974.7,66.3,975.5,66.8z M971.4,68.7c-0.4,0.3-0.7,0.6-1,1
				c-0.2,0.4-0.4,0.9-0.4,1.5c0,0.5,0.1,1,0.4,1.5c0.2,0.4,0.6,0.8,1,1c0.4,0.3,0.9,0.4,1.3,0.4s0.9-0.1,1.3-0.4
				c0.4-0.3,0.7-0.6,1-1c0.2-0.4,0.3-0.9,0.3-1.5c0-0.5-0.1-1-0.3-1.5c-0.2-0.4-0.6-0.8-1-1c-0.4-0.3-0.9-0.4-1.3-0.4
				S971.8,68.4,971.4,68.7z"/>
			<path class="st2" d="M982.8,68.8c0.4-0.2,0.9-0.3,1.4-0.3v2.3c-0.1,0-0.2,0-0.4,0c-0.6,0-1.1,0.1-1.4,0.4
				c-0.4,0.3-0.6,0.7-0.6,1.1v3.9h-2.5v-7.6h2.5v1.3C982.1,69.3,982.4,69,982.8,68.8z"/>
			<path class="st2" d="M993,65.7v10.4h-2.5v-1c-0.3,0.4-0.6,0.6-1,0.8c-0.4,0.2-0.8,0.3-1.3,0.3c-0.7,0-1.3-0.2-1.8-0.5
				c-0.5-0.3-0.9-0.8-1.2-1.4c-0.3-0.6-0.4-1.3-0.4-2.1c0-0.8,0.1-1.4,0.4-2c0.3-0.6,0.7-1,1.2-1.3s1.1-0.5,1.8-0.5
				c0.5,0,0.9,0.1,1.3,0.3s0.7,0.5,1,0.8v-3.8H993z M990.1,73.7c0.3-0.4,0.4-0.8,0.4-1.4c0-0.6-0.1-1-0.4-1.4
				c-0.3-0.3-0.7-0.5-1.2-0.5s-0.9,0.2-1.2,0.5c-0.3,0.4-0.5,0.8-0.5,1.4s0.2,1,0.5,1.4c0.3,0.3,0.7,0.5,1.2,0.5
				S989.8,74,990.1,73.7z"/>
			<path class="st2" d="M1001.1,69.5c0.7,0.7,1,1.7,1,3c0,0.2,0,0.3,0,0.4h-5.3c0.1,0.4,0.3,0.8,0.6,1s0.7,0.3,1.1,0.3
				c0.3,0,0.6-0.1,0.9-0.2c0.3-0.1,0.6-0.3,0.8-0.6l1.3,1.3c-0.4,0.4-0.9,0.8-1.4,1s-1.2,0.3-1.9,0.3c-0.8,0-1.5-0.2-2.1-0.5
				c-0.6-0.3-1.1-0.8-1.4-1.3c-0.3-0.6-0.5-1.3-0.5-2c0-0.8,0.2-1.5,0.5-2.1c0.3-0.6,0.8-1,1.4-1.4c0.6-0.3,1.3-0.5,2.1-0.5
				C999.5,68.4,1000.5,68.8,1001.1,69.5z M999.7,71.6c0-0.4-0.1-0.8-0.4-1.1c-0.3-0.3-0.6-0.4-1-0.4c-0.4,0-0.7,0.1-1,0.4
				c-0.3,0.3-0.4,0.6-0.5,1.1H999.7z"/>
			<path class="st2" d="M1006.9,68.8c0.4-0.2,0.9-0.3,1.4-0.3v2.3c-0.1,0-0.2,0-0.4,0c-0.6,0-1.1,0.1-1.4,0.4s-0.6,0.7-0.6,1.1v3.9
				h-2.5v-7.6h2.5v1.3C1006.2,69.3,1006.5,69,1006.9,68.8z"/>
			<path class="st2" d="M1012.5,66.3h2.8l2.8,5.7l2.8-5.7h2.8v9.8h-2.3l0-6.2l-2.5,5.2h-1.7l-2.5-5.2v6.2h-2.3V66.3z"/>
			<path class="st2" d="M1031.5,69.1c0.6,0.5,0.9,1.2,0.9,2v4.9h-2.5v-0.9c-0.5,0.6-1.3,1-2.3,1c-0.8,0-1.4-0.2-1.9-0.7
				s-0.7-1-0.7-1.7c0-0.7,0.3-1.3,0.7-1.7c0.5-0.4,1.2-0.6,2.1-0.6h2v-0.1c0-0.4-0.1-0.6-0.4-0.8c-0.2-0.2-0.6-0.3-1.1-0.3
				c-0.3,0-0.7,0.1-1.1,0.2c-0.4,0.1-0.8,0.3-1.2,0.4l-0.7-1.7c0.6-0.3,1.2-0.5,1.8-0.6c0.6-0.1,1.2-0.2,1.8-0.2
				C1030.1,68.4,1031,68.7,1031.5,69.1z M1029.4,74.2c0.3-0.2,0.5-0.4,0.5-0.7v-0.7h-1.5c-0.7,0-1,0.3-1,0.8c0,0.3,0.1,0.5,0.3,0.6
				c0.2,0.2,0.4,0.2,0.7,0.2C1028.8,74.5,1029.2,74.4,1029.4,74.2z"/>
			<path class="st2" d="M1041.1,69.2c0.5,0.5,0.7,1.2,0.7,2.1v4.8h-2.5V72c0-0.4-0.1-0.8-0.3-1c-0.2-0.2-0.5-0.4-0.9-0.4
				c-0.4,0-0.7,0.1-1,0.4c-0.3,0.3-0.4,0.6-0.5,1v4h-2.5v-7.6h2.5v1.2c0.3-0.4,0.6-0.8,1-1s0.9-0.3,1.5-0.3
				C1039.9,68.4,1040.6,68.7,1041.1,69.2z"/>
			<path class="st2" d="M1049.4,69.1c0.6,0.5,0.9,1.2,0.9,2v4.9h-2.5v-0.9c-0.5,0.6-1.3,1-2.3,1c-0.8,0-1.4-0.2-1.9-0.7
				s-0.7-1-0.7-1.7c0-0.7,0.3-1.3,0.7-1.7c0.5-0.4,1.2-0.6,2.1-0.6h2v-0.1c0-0.4-0.1-0.6-0.4-0.8c-0.2-0.2-0.6-0.3-1.1-0.3
				c-0.3,0-0.7,0.1-1.1,0.2c-0.4,0.1-0.8,0.3-1.2,0.4l-0.7-1.7c0.6-0.3,1.2-0.5,1.8-0.6c0.6-0.1,1.2-0.2,1.8-0.2
				C1048,68.4,1048.8,68.7,1049.4,69.1z M1047.3,74.2c0.3-0.2,0.5-0.4,0.5-0.7v-0.7h-1.5c-0.7,0-1,0.3-1,0.8c0,0.3,0.1,0.5,0.3,0.6
				c0.2,0.2,0.4,0.2,0.7,0.2C1046.7,74.5,1047,74.4,1047.3,74.2z"/>
			<path class="st2" d="M1059.2,68.5v6.9c0,0.7-0.2,1.3-0.5,1.8c-0.3,0.5-0.8,0.9-1.4,1.2c-0.6,0.3-1.3,0.4-2.1,0.4
				c-0.6,0-1.2-0.1-1.8-0.3s-1.1-0.4-1.6-0.7l0.9-1.7c0.3,0.2,0.7,0.4,1.1,0.5s0.8,0.2,1.2,0.2c0.6,0,1-0.1,1.3-0.4
				c0.3-0.3,0.5-0.6,0.5-1.1v-0.8c-0.5,0.7-1.2,1-2.2,1c-0.6,0-1.2-0.2-1.7-0.5c-0.5-0.3-0.9-0.7-1.1-1.3c-0.3-0.6-0.4-1.2-0.4-1.9
				c0-0.7,0.1-1.3,0.4-1.9c0.3-0.5,0.6-1,1.1-1.3s1-0.4,1.7-0.4c0.5,0,0.9,0.1,1.3,0.3c0.4,0.2,0.7,0.4,0.9,0.7v-0.9H1059.2z
				 M1056.3,73.4c0.3-0.3,0.4-0.8,0.4-1.3c0-0.5-0.1-1-0.4-1.3c-0.3-0.3-0.6-0.5-1.1-0.5c-0.5,0-0.8,0.2-1.1,0.5
				c-0.3,0.3-0.4,0.8-0.4,1.3s0.1,0.9,0.4,1.3c0.3,0.3,0.7,0.5,1.1,0.5C1055.7,73.8,1056,73.7,1056.3,73.4z"/>
			<path class="st2" d="M1067.2,69.5c0.7,0.7,1,1.7,1,3c0,0.2,0,0.3,0,0.4h-5.3c0.1,0.4,0.3,0.8,0.6,1c0.3,0.2,0.7,0.3,1.1,0.3
				c0.3,0,0.6-0.1,0.9-0.2c0.3-0.1,0.6-0.3,0.8-0.6l1.3,1.3c-0.4,0.4-0.9,0.8-1.4,1c-0.6,0.2-1.2,0.3-1.9,0.3
				c-0.8,0-1.5-0.2-2.1-0.5s-1.1-0.8-1.4-1.3c-0.3-0.6-0.5-1.3-0.5-2c0-0.8,0.2-1.5,0.5-2.1s0.8-1,1.4-1.4c0.6-0.3,1.3-0.5,2.1-0.5
				C1065.6,68.4,1066.5,68.8,1067.2,69.5z M1065.8,71.6c0-0.4-0.1-0.8-0.4-1.1c-0.3-0.3-0.6-0.4-1-0.4c-0.4,0-0.7,0.1-1,0.4
				c-0.3,0.3-0.4,0.6-0.5,1.1H1065.8z"/>
			<path class="st2" d="M1081.5,69.2c0.5,0.5,0.7,1.2,0.7,2.1v4.8h-2.5V72c0-0.4-0.1-0.8-0.3-1c-0.2-0.2-0.5-0.4-0.9-0.4
				c-0.4,0-0.8,0.2-1,0.5s-0.4,0.7-0.4,1.2v3.7h-2.5V72c0-0.4-0.1-0.8-0.3-1c-0.2-0.2-0.5-0.4-0.9-0.4c-0.4,0-0.8,0.2-1,0.5
				c-0.3,0.3-0.4,0.7-0.4,1.2v3.7h-2.5v-7.6h2.5v1.2c0.3-0.4,0.6-0.8,1-1s0.9-0.3,1.4-0.3c0.6,0,1.1,0.1,1.6,0.4
				c0.4,0.3,0.8,0.7,0.9,1.2c0.2-0.6,0.6-1,1-1.3c0.5-0.3,1-0.4,1.6-0.4C1080.4,68.4,1081.1,68.7,1081.5,69.2z"/>
			<path class="st2" d="M1090.2,69.5c0.7,0.7,1,1.7,1,3c0,0.2,0,0.3,0,0.4h-5.3c0.1,0.4,0.3,0.8,0.6,1c0.3,0.2,0.7,0.3,1.1,0.3
				c0.3,0,0.6-0.1,0.9-0.2c0.3-0.1,0.6-0.3,0.8-0.6l1.3,1.3c-0.4,0.4-0.9,0.8-1.4,1c-0.6,0.2-1.2,0.3-1.9,0.3
				c-0.8,0-1.5-0.2-2.1-0.5s-1.1-0.8-1.4-1.3c-0.3-0.6-0.5-1.3-0.5-2c0-0.8,0.2-1.5,0.5-2.1s0.8-1,1.4-1.4c0.6-0.3,1.3-0.5,2.1-0.5
				C1088.5,68.4,1089.5,68.8,1090.2,69.5z M1088.7,71.6c0-0.4-0.1-0.8-0.4-1.1c-0.3-0.3-0.6-0.4-1-0.4c-0.4,0-0.7,0.1-1,0.4
				c-0.3,0.3-0.4,0.6-0.5,1.1H1088.7z"/>
			<path class="st2" d="M1099.4,69.2c0.5,0.5,0.7,1.2,0.7,2.1v4.8h-2.5V72c0-0.4-0.1-0.8-0.3-1c-0.2-0.2-0.5-0.4-0.9-0.4
				c-0.4,0-0.7,0.1-1,0.4c-0.3,0.3-0.4,0.6-0.5,1v4h-2.5v-7.6h2.5v1.2c0.3-0.4,0.6-0.8,1-1s0.9-0.3,1.5-0.3
				C1098.3,68.4,1098.9,68.7,1099.4,69.2z"/>
			<path class="st2" d="M1106.8,75.7c-0.3,0.2-0.6,0.3-1,0.4c-0.4,0.1-0.7,0.1-1.1,0.1c-0.7,0-1.4-0.2-1.8-0.6
				c-0.5-0.4-0.7-1-0.7-1.8v-3.2h-1v-1.7h1v-2.1h2.5v2.1h2v1.7h-2v2.9c0,0.5,0.2,0.8,0.7,0.8c0.3,0,0.6-0.1,1-0.3L1106.8,75.7z"/>
			<path class="st2" d="M993.3,88.5c-0.6-0.2-1.1-0.3-1.5-0.3c-0.3,0-0.6,0.1-0.7,0.2c-0.2,0.1-0.3,0.3-0.3,0.5
				c0,0.2,0.1,0.4,0.2,0.5c0.2,0.1,0.4,0.3,0.6,0.3s0.6,0.2,1,0.3c0.7,0.2,1.2,0.4,1.7,0.6c0.4,0.2,0.8,0.5,1.1,0.9s0.5,0.9,0.5,1.6
				s-0.2,1.2-0.5,1.7c-0.3,0.5-0.8,0.8-1.4,1c-0.6,0.2-1.3,0.4-2,0.4c-0.8,0-1.6-0.1-2.4-0.4c-0.8-0.3-1.5-0.7-2.1-1.2l1-2
				c0.5,0.4,1.1,0.8,1.8,1.1c0.7,0.3,1.3,0.4,1.8,0.4c0.4,0,0.7-0.1,0.9-0.2c0.2-0.1,0.3-0.3,0.3-0.6c0-0.2-0.1-0.4-0.2-0.6
				c-0.2-0.1-0.4-0.3-0.6-0.4c-0.2-0.1-0.6-0.2-1-0.3c-0.7-0.2-1.2-0.4-1.7-0.6c-0.4-0.2-0.8-0.5-1.1-0.9c-0.3-0.4-0.5-0.9-0.5-1.5
				c0-0.6,0.2-1.1,0.5-1.6s0.8-0.8,1.4-1.1s1.3-0.4,2.1-0.4c0.7,0,1.4,0.1,2.1,0.3c0.7,0.2,1.3,0.5,1.8,0.8l-1,2
				C994.4,88.9,993.9,88.7,993.3,88.5z"/>
			<path class="st2" d="M1000.2,98.4c-0.5,0.3-1.1,0.5-1.8,0.5c-0.4,0-0.8-0.1-1.2-0.2c-0.4-0.1-0.7-0.3-1.1-0.6l1-1.7
				c0.2,0.1,0.3,0.3,0.5,0.3c0.2,0.1,0.3,0.1,0.5,0.1c0.4,0,0.7-0.2,0.9-0.6l0.2-0.3l-3.1-7.4h2.6l1.8,4.9l1.6-4.9h2.5l-3.2,8.3
				C1001,97.5,1000.7,98.1,1000.2,98.4z"/>
			<path class="st2" d="M1008,90.1c-0.2,0-0.4,0-0.5,0.1c-0.1,0.1-0.2,0.2-0.2,0.4c0,0.2,0.1,0.3,0.3,0.4c0.2,0.1,0.5,0.2,1,0.3
				c0.5,0.2,1,0.3,1.4,0.5c0.4,0.2,0.7,0.4,0.9,0.7c0.3,0.3,0.4,0.7,0.4,1.2c0,0.8-0.3,1.4-0.9,1.8s-1.4,0.7-2.3,0.7
				c-0.6,0-1.3-0.1-1.8-0.3c-0.6-0.2-1.1-0.5-1.6-0.8l0.8-1.6c0.4,0.3,0.9,0.5,1.4,0.7c0.5,0.2,0.9,0.2,1.3,0.2c0.2,0,0.4,0,0.6-0.1
				s0.2-0.2,0.2-0.3c0-0.2-0.1-0.3-0.3-0.4s-0.5-0.2-1-0.3c-0.5-0.2-1-0.3-1.3-0.5c-0.3-0.2-0.6-0.4-0.9-0.7
				c-0.3-0.3-0.4-0.7-0.4-1.2c0-0.8,0.3-1.4,0.9-1.8c0.6-0.4,1.3-0.7,2.2-0.7c0.6,0,1.1,0.1,1.6,0.2c0.5,0.1,1,0.4,1.5,0.7l-0.8,1.6
				C1009.4,90.4,1008.6,90.1,1008,90.1z"/>
			<path class="st2" d="M1017.5,95.7c-0.3,0.2-0.6,0.3-1,0.4c-0.4,0.1-0.7,0.1-1.1,0.1c-0.7,0-1.4-0.2-1.8-0.6
				c-0.5-0.4-0.7-1-0.7-1.8v-3.2h-1v-1.7h1v-2.1h2.5v2.1h2v1.7h-2v2.9c0,0.5,0.2,0.8,0.7,0.8c0.3,0,0.6-0.1,1-0.3L1017.5,95.7z"/>
			<path class="st2" d="M1024.8,89.5c0.7,0.7,1,1.7,1,3c0,0.2,0,0.3,0,0.4h-5.3c0.1,0.4,0.3,0.8,0.6,1c0.3,0.2,0.7,0.3,1.1,0.3
				c0.3,0,0.6-0.1,0.9-0.2c0.3-0.1,0.6-0.3,0.8-0.6l1.3,1.3c-0.4,0.4-0.9,0.8-1.4,1c-0.6,0.2-1.2,0.3-1.9,0.3
				c-0.8,0-1.5-0.2-2.1-0.5s-1.1-0.8-1.4-1.3c-0.3-0.6-0.5-1.3-0.5-2c0-0.8,0.2-1.5,0.5-2.1s0.8-1,1.4-1.4c0.6-0.3,1.3-0.5,2.1-0.5
				C1023.2,88.4,1024.1,88.8,1024.8,89.5z M1023.4,91.6c0-0.4-0.1-0.8-0.4-1.1c-0.3-0.3-0.6-0.4-1-0.4c-0.4,0-0.7,0.1-1,0.4
				c-0.3,0.3-0.4,0.6-0.5,1.1H1023.4z"/>
			<path class="st2" d="M1039.1,89.2c0.5,0.5,0.7,1.2,0.7,2.1v4.8h-2.5V92c0-0.4-0.1-0.8-0.3-1c-0.2-0.2-0.5-0.4-0.9-0.4
				c-0.4,0-0.8,0.2-1,0.5s-0.4,0.7-0.4,1.2v3.7h-2.5V92c0-0.4-0.1-0.8-0.3-1c-0.2-0.2-0.5-0.4-0.9-0.4c-0.4,0-0.8,0.2-1,0.5
				c-0.3,0.3-0.4,0.7-0.4,1.2v3.7h-2.5v-7.6h2.5v1.2c0.3-0.4,0.6-0.8,1-1s0.9-0.3,1.4-0.3c0.6,0,1.1,0.1,1.6,0.4
				c0.4,0.3,0.8,0.7,0.9,1.2c0.2-0.6,0.6-1,1-1.3c0.5-0.3,1-0.4,1.6-0.4C1038,88.4,1038.7,88.7,1039.1,89.2z"/>
			<path class="st2" d="M1047.3,88.5c-0.3,1-0.4,2.1-0.4,3.2c0,1.1,0.1,2.2,0.4,3.2c0.3,1,0.7,2,1.2,2.8h-2.2
				c-0.6-0.8-1-1.8-1.3-2.8c-0.3-1-0.5-2.1-0.5-3.3s0.2-2.2,0.5-3.3s0.8-2,1.3-2.8h2.2C1048,86.5,1047.6,87.5,1047.3,88.5z"/>
			<path class="st2" d="M1057,86.8c0.8,0.4,1.4,1,1.9,1.8c0.5,0.8,0.7,1.6,0.7,2.6c0,1-0.2,1.8-0.7,2.6c-0.5,0.8-1.1,1.4-1.9,1.8
				c-0.8,0.4-1.7,0.7-2.7,0.7c-1,0-1.9-0.2-2.7-0.7c-0.8-0.4-1.4-1.1-1.9-1.8c-0.5-0.8-0.7-1.6-0.7-2.6c0-1,0.2-1.8,0.7-2.6
				s1.1-1.4,1.9-1.8c0.8-0.4,1.7-0.7,2.7-0.7C1055.3,86.1,1056.2,86.3,1057,86.8z M1052.9,88.7c-0.4,0.3-0.7,0.6-1,1
				c-0.2,0.4-0.4,0.9-0.4,1.5c0,0.5,0.1,1,0.4,1.5c0.2,0.4,0.6,0.8,1,1c0.4,0.3,0.9,0.4,1.3,0.4s0.9-0.1,1.3-0.4
				c0.4-0.3,0.7-0.6,1-1c0.2-0.4,0.3-0.9,0.3-1.5c0-0.5-0.1-1-0.3-1.5c-0.2-0.4-0.6-0.8-1-1c-0.4-0.3-0.9-0.4-1.3-0.4
				S1053.3,88.4,1052.9,88.7z"/>
			<path class="st2" d="M1060.8,86.3h2.8l2.8,5.7l2.8-5.7h2.8v9.8h-2.3l0-6.2l-2.5,5.2h-1.7l-2.5-5.2v6.2h-2.3V86.3z"/>
			<path class="st2" d="M1079.1,88.5c-0.6-0.2-1.1-0.3-1.5-0.3c-0.3,0-0.6,0.1-0.7,0.2c-0.2,0.1-0.3,0.3-0.3,0.5
				c0,0.2,0.1,0.4,0.2,0.5c0.2,0.1,0.4,0.3,0.6,0.3s0.6,0.2,1,0.3c0.7,0.2,1.2,0.4,1.7,0.6c0.4,0.2,0.8,0.5,1.1,0.9s0.5,0.9,0.5,1.6
				s-0.2,1.2-0.5,1.7c-0.3,0.5-0.8,0.8-1.4,1c-0.6,0.2-1.3,0.4-2,0.4c-0.8,0-1.6-0.1-2.4-0.4c-0.8-0.3-1.5-0.7-2.1-1.2l1-2
				c0.5,0.4,1.1,0.8,1.8,1.1c0.7,0.3,1.3,0.4,1.8,0.4c0.4,0,0.7-0.1,0.9-0.2c0.2-0.1,0.3-0.3,0.3-0.6c0-0.2-0.1-0.4-0.2-0.6
				c-0.2-0.1-0.4-0.3-0.6-0.4c-0.2-0.1-0.6-0.2-1-0.3c-0.7-0.2-1.2-0.4-1.7-0.6c-0.4-0.2-0.8-0.5-1.1-0.9c-0.3-0.4-0.5-0.9-0.5-1.5
				c0-0.6,0.2-1.1,0.5-1.6s0.8-0.8,1.4-1.1s1.3-0.4,2.1-0.4c0.7,0,1.4,0.1,2.1,0.3c0.7,0.2,1.3,0.5,1.8,0.8l-1,2
				C1080.2,88.9,1079.7,88.7,1079.1,88.5z"/>
			<path class="st2" d="M1084.3,85.7c0.6,0.8,1,1.8,1.3,2.8s0.5,2.1,0.5,3.3s-0.2,2.2-0.5,3.3c-0.3,1-0.8,2-1.3,2.8h-2.2
				c0.5-0.8,0.9-1.8,1.2-2.8c0.3-1,0.4-2.1,0.4-3.2c0-1.1-0.1-2.2-0.4-3.2s-0.7-2-1.2-2.8H1084.3z"/>
		</g>
	</g>
</g>
<g>
	<path class="st15" d="M1139.4,289.7h-124.4c-2.2,0-4-1.8-4-4v-59.8c0-2.2,1.8-4,4-4h124.4c2.2,0,4,1.8,4,4v59.8
		C1143.4,287.9,1141.6,289.7,1139.4,289.7z"/>
	<g>
		<path class="st13" d="M1043.8,242.4h2.8l2.8,5.7l2.8-5.7h2.8v9.8h-2.3l0-6.2l-2.5,5.2h-1.7l-2.5-5.2v6.2h-2.3V242.4z"/>
		<path class="st13" d="M1062.8,245.2c0.6,0.5,0.9,1.2,0.9,2v4.9h-2.5v-0.9c-0.5,0.6-1.3,1-2.3,1c-0.8,0-1.4-0.2-1.9-0.7
			s-0.7-1-0.7-1.7c0-0.7,0.3-1.3,0.7-1.7c0.5-0.4,1.2-0.6,2.1-0.6h2v-0.1c0-0.4-0.1-0.6-0.4-0.8s-0.6-0.3-1.1-0.3
			c-0.3,0-0.7,0.1-1.1,0.2c-0.4,0.1-0.8,0.3-1.2,0.4l-0.7-1.7c0.6-0.3,1.2-0.5,1.8-0.6c0.6-0.1,1.2-0.2,1.8-0.2
			C1061.4,244.5,1062.2,244.7,1062.8,245.2z M1060.7,250.3c0.3-0.2,0.5-0.4,0.5-0.7v-0.7h-1.5c-0.7,0-1,0.3-1,0.8
			c0,0.3,0.1,0.5,0.3,0.6c0.2,0.2,0.4,0.2,0.7,0.2C1060.1,250.6,1060.4,250.5,1060.7,250.3z"/>
		<path class="st13" d="M1070.3,251.8c-0.3,0.2-0.6,0.3-1,0.4s-0.7,0.1-1.1,0.1c-0.7,0-1.4-0.2-1.8-0.6c-0.5-0.4-0.7-1-0.7-1.8v-3.2
			h-1V245h1v-2.1h2.5v2.1h2v1.7h-2v2.9c0,0.5,0.2,0.8,0.7,0.8c0.3,0,0.6-0.1,1-0.3L1070.3,251.8z"/>
		<path class="st13" d="M1074.8,246.6c-0.4,0-0.8,0.2-1.1,0.5c-0.3,0.3-0.4,0.8-0.4,1.3c0,0.6,0.1,1,0.4,1.3
			c0.3,0.3,0.6,0.5,1.1,0.5c0.7,0,1.2-0.3,1.5-0.9l1.8,1.1c-0.3,0.6-0.7,1-1.3,1.3c-0.6,0.3-1.3,0.5-2.1,0.5c-0.8,0-1.5-0.2-2-0.5
			c-0.6-0.3-1-0.8-1.4-1.3c-0.3-0.6-0.5-1.3-0.5-2c0-0.8,0.2-1.5,0.5-2.1c0.3-0.6,0.8-1.1,1.4-1.4c0.6-0.3,1.3-0.5,2.1-0.5
			c0.8,0,1.4,0.2,2,0.5s1,0.8,1.4,1.3l-1.8,1.1C1075.9,246.8,1075.5,246.6,1074.8,246.6z"/>
		<path class="st13" d="M1086.4,245.3c0.5,0.5,0.7,1.2,0.7,2.1v4.8h-2.5v-4.1c0-0.4-0.1-0.8-0.3-1c-0.2-0.2-0.5-0.4-0.9-0.4
			c-0.5,0-0.8,0.2-1.1,0.5c-0.3,0.3-0.4,0.7-0.4,1.2v3.7h-2.5v-10.4h2.5v4c0.3-0.4,0.6-0.8,1-1c0.4-0.2,0.9-0.3,1.5-0.3
			C1085.2,244.5,1085.9,244.8,1086.4,245.3z"/>
		<path class="st13" d="M1091,241.5c0.2,0.2,0.4,0.6,0.4,1c0,0.4-0.1,0.7-0.4,1c-0.2,0.3-0.6,0.4-0.9,0.4s-0.7-0.1-0.9-0.4
			s-0.4-0.6-0.4-1c0-0.4,0.1-0.7,0.4-1s0.6-0.4,0.9-0.4S1090.7,241.2,1091,241.5z M1088.8,244.6h2.5v7.6h-2.5V244.6z"/>
		<path class="st13" d="M1100.2,245.3c0.5,0.5,0.7,1.2,0.7,2.1v4.8h-2.5v-4.1c0-0.4-0.1-0.8-0.3-1c-0.2-0.2-0.5-0.4-0.9-0.4
			c-0.4,0-0.7,0.1-1,0.4c-0.3,0.3-0.4,0.6-0.5,1v4h-2.5v-7.6h2.5v1.2c0.3-0.4,0.6-0.8,1-1c0.4-0.2,0.9-0.3,1.5-0.3
			C1099,244.5,1099.7,244.8,1100.2,245.3z"/>
		<path class="st13" d="M1109.9,244.6v6.9c0,0.7-0.2,1.3-0.5,1.8c-0.3,0.5-0.8,0.9-1.4,1.2c-0.6,0.3-1.3,0.4-2.1,0.4
			c-0.6,0-1.2-0.1-1.8-0.3s-1.1-0.4-1.6-0.7l0.9-1.7c0.3,0.2,0.7,0.4,1.1,0.5s0.8,0.2,1.2,0.2c0.6,0,1-0.1,1.3-0.4
			c0.3-0.3,0.5-0.6,0.5-1.1v-0.8c-0.5,0.7-1.2,1-2.2,1c-0.6,0-1.2-0.2-1.7-0.5s-0.9-0.7-1.1-1.3c-0.3-0.6-0.4-1.2-0.4-1.9
			c0-0.7,0.1-1.3,0.4-1.9c0.3-0.5,0.6-1,1.1-1.3s1-0.4,1.7-0.4c0.5,0,0.9,0.1,1.3,0.3c0.4,0.2,0.7,0.4,0.9,0.8v-0.9H1109.9z
			 M1107,249.4c0.3-0.3,0.4-0.8,0.4-1.3c0-0.5-0.1-1-0.4-1.3c-0.3-0.3-0.6-0.5-1.1-0.5s-0.8,0.2-1.1,0.5c-0.3,0.3-0.4,0.8-0.4,1.3
			c0,0.5,0.1,0.9,0.4,1.3c0.3,0.3,0.7,0.5,1.1,0.5S1106.7,249.8,1107,249.4z"/>
		<path class="st13" d="M1052.6,262.4h7.7v2h-5.2v1.8h4.7v2l-4.7,0v1.8h5.3v2h-7.9V262.4z"/>
		<path class="st13" d="M1069.1,265.3c0.5,0.5,0.7,1.2,0.7,2.1v4.8h-2.5v-4.1c0-0.4-0.1-0.8-0.3-1c-0.2-0.2-0.5-0.4-0.9-0.4
			c-0.4,0-0.7,0.1-1,0.4c-0.3,0.3-0.4,0.6-0.5,1v4h-2.5v-7.6h2.5v1.2c0.3-0.4,0.6-0.8,1-1c0.4-0.2,0.9-0.3,1.5-0.3
			C1067.9,264.5,1068.6,264.8,1069.1,265.3z"/>
		<path class="st13" d="M1078.8,264.6v6.9c0,0.7-0.2,1.3-0.5,1.8c-0.3,0.5-0.8,0.9-1.4,1.2c-0.6,0.3-1.3,0.4-2.1,0.4
			c-0.6,0-1.2-0.1-1.8-0.3s-1.1-0.4-1.6-0.7l0.9-1.7c0.3,0.2,0.7,0.4,1.1,0.5s0.8,0.2,1.2,0.2c0.6,0,1-0.1,1.3-0.4
			c0.3-0.3,0.5-0.6,0.5-1.1v-0.8c-0.5,0.7-1.2,1-2.2,1c-0.6,0-1.2-0.2-1.7-0.5c-0.5-0.3-0.9-0.7-1.1-1.3c-0.3-0.6-0.4-1.2-0.4-1.9
			c0-0.7,0.1-1.3,0.4-1.9c0.3-0.5,0.6-1,1.1-1.3s1-0.4,1.7-0.4c0.5,0,0.9,0.1,1.3,0.3c0.4,0.2,0.7,0.4,0.9,0.8v-0.9H1078.8z
			 M1075.9,269.4c0.3-0.3,0.4-0.8,0.4-1.3c0-0.5-0.1-1-0.4-1.3c-0.3-0.3-0.6-0.5-1.1-0.5c-0.5,0-0.8,0.2-1.1,0.5
			c-0.3,0.3-0.4,0.8-0.4,1.3c0,0.5,0.1,0.9,0.4,1.3c0.3,0.3,0.7,0.5,1.1,0.5C1075.2,269.9,1075.6,269.8,1075.9,269.4z"/>
		<path class="st13" d="M1082.7,261.5c0.2,0.2,0.4,0.6,0.4,1c0,0.4-0.1,0.7-0.4,1s-0.6,0.4-0.9,0.4s-0.7-0.1-0.9-0.4
			c-0.2-0.3-0.4-0.6-0.4-1c0-0.4,0.1-0.7,0.4-1c0.2-0.2,0.6-0.4,0.9-0.4S1082.5,261.2,1082.7,261.5z M1080.6,264.6h2.5v7.6h-2.5
			V264.6z"/>
		<path class="st13" d="M1092,265.3c0.5,0.5,0.7,1.2,0.7,2.1v4.8h-2.5v-4.1c0-0.4-0.1-0.8-0.3-1c-0.2-0.2-0.5-0.4-0.9-0.4
			c-0.4,0-0.7,0.1-1,0.4c-0.3,0.3-0.4,0.6-0.5,1v4h-2.5v-7.6h2.5v1.2c0.3-0.4,0.6-0.8,1-1c0.4-0.2,0.9-0.3,1.5-0.3
			C1090.8,264.5,1091.5,264.8,1092,265.3z"/>
		<path class="st13" d="M1100.6,265.6c0.7,0.7,1,1.7,1,3c0,0.2,0,0.3,0,0.4h-5.3c0.1,0.4,0.3,0.8,0.6,1s0.7,0.3,1.1,0.3
			c0.3,0,0.6-0.1,0.9-0.2c0.3-0.1,0.6-0.3,0.8-0.6l1.3,1.3c-0.4,0.4-0.9,0.8-1.4,1s-1.2,0.3-1.9,0.3c-0.8,0-1.5-0.2-2.1-0.5
			c-0.6-0.3-1.1-0.8-1.4-1.3c-0.3-0.6-0.5-1.3-0.5-2c0-0.8,0.2-1.5,0.5-2.1c0.3-0.6,0.8-1.1,1.4-1.4c0.6-0.3,1.3-0.5,2.1-0.5
			C1099,264.5,1099.9,264.9,1100.6,265.6z M1099.1,267.7c0-0.4-0.1-0.8-0.4-1.1s-0.6-0.4-1-0.4c-0.4,0-0.7,0.1-1,0.4
			c-0.3,0.3-0.4,0.6-0.5,1.1H1099.1z"/>
	</g>
</g>
<g>
	<g>
		<line class="st16" x1="999.6" y1="255.8" x2="843.9" y2="255.8"/>
		<g>
			<polygon class="st17" points="845.4,250.8 836.7,255.8 845.4,260.8 			"/>
		</g>
	</g>
</g>
<g>
	<path class="st18" d="M958.5,275.8h-74.3c-11,0-20-9-20-20v0c0-11,9-20,20-20h74.3c11,0,20,9,20,20v0
		C978.5,266.9,969.5,275.8,958.5,275.8z"/>
	<g>
		<g>
			<path class="st2" d="M885.1,251.1h7.7v2h-5.2v1.8h4.7v2l-4.7,0v1.8h5.3v2h-7.9V251.1z"/>
			<path class="st2" d="M893.8,253.3h2.9l1.2,2.1l1.3-2.1h2.7l-2.4,3.7l2.6,3.9h-2.9l-1.3-2.3l-1.5,2.3h-2.7l2.6-3.9L893.8,253.3z"
				/>
			<path class="st2" d="M908.9,254.3c0.7,0.7,1,1.7,1,3c0,0.2,0,0.3,0,0.4h-5.3c0.1,0.4,0.3,0.8,0.6,1c0.3,0.2,0.7,0.3,1.1,0.3
				c0.3,0,0.6-0.1,0.9-0.2c0.3-0.1,0.6-0.3,0.8-0.6l1.3,1.3c-0.4,0.4-0.9,0.8-1.4,1c-0.6,0.2-1.2,0.3-1.9,0.3
				c-0.8,0-1.5-0.2-2.1-0.5c-0.6-0.3-1.1-0.8-1.4-1.3s-0.5-1.3-0.5-2c0-0.8,0.2-1.5,0.5-2.1c0.3-0.6,0.8-1.1,1.4-1.4
				c0.6-0.3,1.3-0.5,2.1-0.5C907.3,253.3,908.2,253.6,908.9,254.3z M907.4,256.5c0-0.4-0.1-0.8-0.4-1.1s-0.6-0.4-1-0.4
				c-0.4,0-0.7,0.1-1,0.4c-0.3,0.3-0.4,0.6-0.5,1.1H907.4z"/>
			<path class="st2" d="M914.5,255.3c-0.4,0-0.8,0.2-1.1,0.5c-0.3,0.3-0.4,0.8-0.4,1.3c0,0.6,0.1,1,0.4,1.3c0.3,0.3,0.6,0.5,1.1,0.5
				c0.7,0,1.2-0.3,1.5-0.9l1.8,1.1c-0.3,0.6-0.7,1-1.3,1.3c-0.6,0.3-1.3,0.5-2.1,0.5c-0.8,0-1.5-0.2-2-0.5c-0.6-0.3-1-0.8-1.4-1.3
				c-0.3-0.6-0.5-1.3-0.5-2c0-0.8,0.2-1.5,0.5-2.1c0.3-0.6,0.8-1.1,1.4-1.4c0.6-0.3,1.3-0.5,2.1-0.5c0.8,0,1.4,0.2,2,0.5
				s1,0.8,1.4,1.3l-1.8,1.1C915.7,255.6,915.2,255.3,914.5,255.3z"/>
			<path class="st2" d="M926.4,253.3v7.6h-2.5v-1.2c-0.5,0.9-1.3,1.3-2.4,1.3c-0.8,0-1.5-0.3-2-0.8s-0.7-1.2-0.7-2.1v-4.8h2.5v4.1
				c0,0.4,0.1,0.8,0.3,1c0.2,0.2,0.5,0.4,0.9,0.4c0.4,0,0.8-0.2,1-0.5s0.4-0.7,0.4-1.2v-3.7H926.4z"/>
			<path class="st2" d="M933.2,260.5c-0.3,0.2-0.6,0.3-1,0.4s-0.7,0.1-1.1,0.1c-0.7,0-1.4-0.2-1.8-0.6c-0.5-0.4-0.7-1-0.7-1.8v-3.2
				h-1v-1.7h1v-2.1h2.5v2.1h2v1.7h-2v2.9c0,0.5,0.2,0.8,0.7,0.8c0.3,0,0.6-0.1,1-0.3L933.2,260.5z"/>
			<path class="st2" d="M940.6,254.3c0.7,0.7,1,1.7,1,3c0,0.2,0,0.3,0,0.4h-5.3c0.1,0.4,0.3,0.8,0.6,1c0.3,0.2,0.7,0.3,1.1,0.3
				c0.3,0,0.6-0.1,0.9-0.2c0.3-0.1,0.6-0.3,0.8-0.6l1.3,1.3c-0.4,0.4-0.9,0.8-1.4,1c-0.6,0.2-1.2,0.3-1.9,0.3
				c-0.8,0-1.5-0.2-2.1-0.5c-0.6-0.3-1.1-0.8-1.4-1.3s-0.5-1.3-0.5-2c0-0.8,0.2-1.5,0.5-2.1c0.3-0.6,0.8-1.1,1.4-1.4
				c0.6-0.3,1.3-0.5,2.1-0.5C938.9,253.3,939.9,253.6,940.6,254.3z M939.1,256.5c0-0.4-0.1-0.8-0.4-1.1s-0.6-0.4-1-0.4
				c-0.4,0-0.7,0.1-1,0.4c-0.3,0.3-0.4,0.6-0.5,1.1H939.1z"/>
			<path class="st2" d="M948.6,253.4c-0.3,1-0.4,2.1-0.4,3.2c0,1.1,0.1,2.2,0.4,3.2c0.3,1,0.7,2,1.2,2.8h-2.2
				c-0.6-0.8-1-1.8-1.3-2.8c-0.3-1-0.5-2.1-0.5-3.3c0-1.1,0.2-2.2,0.5-3.3c0.3-1,0.8-2,1.3-2.8h2.2
				C949.3,251.4,948.9,252.3,948.6,253.4z"/>
			<path class="st2" d="M955.2,250.5c0.6,0.8,1,1.8,1.3,2.8s0.5,2.1,0.5,3.3c0,1.1-0.2,2.2-0.5,3.3c-0.3,1-0.8,2-1.3,2.8h-2.2
				c0.5-0.8,0.9-1.8,1.2-2.8c0.3-1,0.4-2.1,0.4-3.2c0-1.1-0.1-2.2-0.4-3.2s-0.7-2-1.2-2.8H955.2z"/>
		</g>
	</g>
</g>
<g>
	<g>
		<path class="st13" d="M694.3,298.6h2.8l2.8,5.7l2.8-5.7h2.8v9.8h-2.3l0-6.2l-2.5,5.2h-1.7l-2.5-5.2v6.2h-2.3V298.6z"/>
		<path class="st13" d="M713.3,301.4c0.6,0.5,0.9,1.2,0.9,2v4.9h-2.5v-0.9c-0.5,0.6-1.3,1-2.3,1c-0.8,0-1.4-0.2-1.9-0.7
			c-0.5-0.4-0.7-1-0.7-1.7c0-0.7,0.3-1.3,0.7-1.7c0.5-0.4,1.2-0.6,2.2-0.6h2v-0.1c0-0.4-0.1-0.6-0.4-0.8c-0.2-0.2-0.6-0.3-1.1-0.3
			c-0.3,0-0.7,0.1-1.1,0.2c-0.4,0.1-0.8,0.3-1.2,0.4l-0.7-1.7c0.6-0.3,1.2-0.5,1.8-0.6c0.6-0.1,1.2-0.2,1.8-0.2
			C711.9,300.7,712.7,301,713.3,301.4z M711.2,306.5c0.3-0.2,0.5-0.4,0.5-0.7v-0.7h-1.5c-0.7,0-1,0.3-1,0.8c0,0.3,0.1,0.5,0.3,0.6
			c0.2,0.2,0.4,0.2,0.7,0.2C710.5,306.8,710.9,306.7,711.2,306.5z"/>
		<path class="st13" d="M719.3,301.1c0.4-0.2,0.9-0.3,1.4-0.3v2.3c-0.1,0-0.2,0-0.4,0c-0.6,0-1.1,0.1-1.4,0.4s-0.6,0.7-0.6,1.1v3.9
			h-2.5v-7.6h2.5v1.3C718.6,301.6,718.9,301.3,719.3,301.1z"/>
		<path class="st13" d="M726.8,308.4l-1.6-2.9l-0.8,0.8v2.1h-2.5V298h2.5v5.4l2.4-2.6h2.8l-2.8,2.9l2.8,4.6H726.8z"/>
		<path class="st13" d="M736.5,301.8c0.7,0.7,1,1.7,1,3c0,0.2,0,0.3,0,0.4h-5.3c0.1,0.4,0.3,0.8,0.6,1s0.7,0.3,1.1,0.3
			c0.3,0,0.6-0.1,0.9-0.2c0.3-0.1,0.6-0.3,0.8-0.6l1.3,1.3c-0.4,0.4-0.9,0.8-1.4,1s-1.2,0.3-1.9,0.3c-0.8,0-1.5-0.2-2.1-0.5
			c-0.6-0.3-1.1-0.8-1.4-1.3c-0.3-0.6-0.5-1.3-0.5-2c0-0.8,0.2-1.5,0.5-2.1c0.3-0.6,0.8-1,1.4-1.4c0.6-0.3,1.3-0.5,2.1-0.5
			C734.9,300.7,735.8,301.1,736.5,301.8z M735.1,303.9c0-0.4-0.1-0.8-0.4-1.1c-0.3-0.3-0.6-0.4-1-0.4c-0.4,0-0.7,0.1-1,0.4
			s-0.4,0.6-0.5,1.1H735.1z"/>
		<path class="st13" d="M743.7,308c-0.3,0.2-0.6,0.3-1,0.4c-0.4,0.1-0.7,0.1-1.1,0.1c-0.7,0-1.4-0.2-1.8-0.6s-0.7-1-0.7-1.8v-3.2h-1
			v-1.7h1v-2.1h2.5v2.1h2v1.7h-2v2.9c0,0.5,0.2,0.8,0.7,0.8c0.3,0,0.6-0.1,1-0.3L743.7,308z"/>
		<path class="st13" d="M758.4,309.6c-0.4,0.3-0.8,0.6-1.3,0.8c-0.5,0.2-1,0.3-1.5,0.3c-0.7,0-1.3-0.2-1.8-0.6s-1-0.9-1.3-1.6
			c-1,0-1.8-0.3-2.6-0.7c-0.8-0.5-1.4-1.1-1.8-1.8s-0.7-1.6-0.7-2.6c0-1,0.2-1.8,0.7-2.6c0.5-0.8,1.1-1.4,1.9-1.8
			c0.8-0.4,1.7-0.7,2.7-0.7s1.9,0.2,2.7,0.7c0.8,0.4,1.4,1,1.9,1.8s0.7,1.6,0.7,2.6c0,1.1-0.3,2-0.9,2.9c-0.6,0.8-1.4,1.5-2.3,1.8
			c0.3,0.4,0.7,0.6,1.1,0.6c0.2,0,0.5-0.1,0.8-0.2c0.3-0.1,0.6-0.3,0.9-0.5L758.4,309.6z M750.3,305c0.2,0.4,0.6,0.8,1,1
			c0.4,0.3,0.9,0.4,1.3,0.4c0.5,0,0.9-0.1,1.3-0.4c0.4-0.3,0.7-0.6,1-1s0.3-0.9,0.3-1.5c0-0.5-0.1-1-0.3-1.5s-0.6-0.8-1-1
			c-0.4-0.3-0.9-0.4-1.3-0.4c-0.5,0-0.9,0.1-1.4,0.4c-0.4,0.3-0.7,0.6-1,1c-0.2,0.4-0.4,0.9-0.4,1.5C750,304,750.1,304.5,750.3,305z
			"/>
		<path class="st13" d="M766.7,300.8v7.6h-2.5v-1.2c-0.5,0.9-1.3,1.3-2.4,1.3c-0.8,0-1.5-0.3-2-0.8s-0.7-1.2-0.7-2.1v-4.8h2.5v4.1
			c0,0.4,0.1,0.8,0.3,1c0.2,0.2,0.5,0.4,0.9,0.4c0.4,0,0.8-0.2,1-0.5c0.3-0.3,0.4-0.7,0.4-1.2v-3.7H766.7z"/>
		<path class="st13" d="M774.8,301.8c0.7,0.7,1,1.7,1,3c0,0.2,0,0.3,0,0.4h-5.3c0.1,0.4,0.3,0.8,0.6,1s0.7,0.3,1.1,0.3
			c0.3,0,0.6-0.1,0.9-0.2c0.3-0.1,0.6-0.3,0.8-0.6l1.3,1.3c-0.4,0.4-0.9,0.8-1.4,1s-1.2,0.3-1.9,0.3c-0.8,0-1.5-0.2-2.1-0.5
			c-0.6-0.3-1.1-0.8-1.4-1.3c-0.3-0.6-0.5-1.3-0.5-2c0-0.8,0.2-1.5,0.5-2.1c0.3-0.6,0.8-1,1.4-1.4c0.6-0.3,1.3-0.5,2.1-0.5
			C773.1,300.7,774.1,301.1,774.8,301.8z M773.3,303.9c0-0.4-0.1-0.8-0.4-1.1c-0.3-0.3-0.6-0.4-1-0.4c-0.4,0-0.7,0.1-1,0.4
			s-0.4,0.6-0.5,1.1H773.3z"/>
		<path class="st13" d="M784.4,300.8v7.6h-2.5v-1.2c-0.5,0.9-1.3,1.3-2.4,1.3c-0.8,0-1.5-0.3-2-0.8c-0.5-0.5-0.7-1.2-0.7-2.1v-4.8
			h2.5v4.1c0,0.4,0.1,0.8,0.3,1c0.2,0.2,0.5,0.4,0.9,0.4c0.4,0,0.8-0.2,1-0.5c0.3-0.3,0.4-0.7,0.4-1.2v-3.7H784.4z"/>
		<path class="st13" d="M792.5,301.8c0.7,0.7,1,1.7,1,3c0,0.2,0,0.3,0,0.4h-5.3c0.1,0.4,0.3,0.8,0.6,1c0.3,0.2,0.7,0.3,1.1,0.3
			c0.3,0,0.6-0.1,0.9-0.2c0.3-0.1,0.6-0.3,0.8-0.6l1.3,1.3c-0.4,0.4-0.9,0.8-1.4,1c-0.6,0.2-1.2,0.3-1.9,0.3c-0.8,0-1.5-0.2-2.1-0.5
			c-0.6-0.3-1.1-0.8-1.4-1.3c-0.3-0.6-0.5-1.3-0.5-2c0-0.8,0.2-1.5,0.5-2.1c0.3-0.6,0.8-1,1.4-1.4s1.3-0.5,2.1-0.5
			C790.9,300.7,791.8,301.1,792.5,301.8z M791.1,303.9c0-0.4-0.1-0.8-0.4-1.1c-0.3-0.3-0.6-0.4-1-0.4c-0.4,0-0.7,0.1-1,0.4
			c-0.3,0.3-0.4,0.6-0.5,1.1H791.1z"/>
	</g>
</g>
<g>
	<g>
		<path class="st13" d="M700.9,342.3h2.6v7.6h4.2v2.2h-6.7V342.3z"/>
		<path class="st13" d="M711,341.5c0.2,0.2,0.4,0.6,0.4,1c0,0.4-0.1,0.7-0.4,1c-0.2,0.3-0.6,0.4-0.9,0.4s-0.7-0.1-0.9-0.4
			s-0.4-0.6-0.4-1c0-0.4,0.1-0.7,0.4-1c0.2-0.2,0.6-0.4,0.9-0.4S710.7,341.2,711,341.5z M708.8,344.6h2.5v7.6h-2.5V344.6z"/>
		<path class="st13" d="M725.3,345.3c0.5,0.5,0.7,1.2,0.7,2.1v4.8h-2.5v-4.1c0-0.4-0.1-0.8-0.3-1c-0.2-0.2-0.5-0.4-0.9-0.4
			c-0.4,0-0.8,0.2-1,0.5c-0.3,0.3-0.4,0.7-0.4,1.2v3.7h-2.5v-4.1c0-0.4-0.1-0.8-0.3-1c-0.2-0.2-0.5-0.4-0.9-0.4
			c-0.4,0-0.8,0.2-1,0.5s-0.4,0.7-0.4,1.2v3.7h-2.5v-7.6h2.5v1.2c0.3-0.4,0.6-0.8,1-1s0.9-0.3,1.4-0.3c0.6,0,1.1,0.2,1.6,0.4
			s0.8,0.7,0.9,1.2c0.2-0.6,0.6-1,1-1.3c0.5-0.3,1-0.4,1.6-0.4C724.1,344.5,724.8,344.7,725.3,345.3z"/>
		<path class="st13" d="M729.9,341.5c0.2,0.2,0.4,0.6,0.4,1c0,0.4-0.1,0.7-0.4,1c-0.2,0.3-0.6,0.4-0.9,0.4s-0.7-0.1-0.9-0.4
			c-0.2-0.3-0.4-0.6-0.4-1c0-0.4,0.1-0.7,0.4-1c0.2-0.2,0.6-0.4,0.9-0.4S729.6,341.2,729.9,341.5z M727.7,344.6h2.5v7.6h-2.5V344.6z
			"/>
		<path class="st13" d="M737,351.8c-0.3,0.2-0.6,0.3-1,0.4c-0.4,0.1-0.7,0.1-1.1,0.1c-0.7,0-1.4-0.2-1.8-0.6c-0.5-0.4-0.7-1-0.7-1.8
			v-3.2h-1.1v-1.7h1.1v-2.1h2.5v2.1h2v1.7h-2v2.9c0,0.5,0.2,0.8,0.7,0.8c0.3,0,0.6-0.1,1-0.3L737,351.8z"/>
		<path class="st13" d="M751.8,353.4c-0.4,0.3-0.8,0.6-1.3,0.8c-0.5,0.2-1,0.3-1.5,0.3c-0.7,0-1.3-0.2-1.8-0.6s-1-0.9-1.3-1.6
			c-1,0-1.8-0.3-2.6-0.7c-0.8-0.5-1.4-1.1-1.8-1.8s-0.7-1.6-0.7-2.6c0-1,0.2-1.8,0.7-2.6c0.5-0.8,1.1-1.4,1.9-1.8
			c0.8-0.4,1.7-0.7,2.7-0.7s1.9,0.2,2.7,0.7c0.8,0.4,1.4,1,1.9,1.8s0.7,1.6,0.7,2.6c0,1.1-0.3,2-0.9,2.9c-0.6,0.8-1.4,1.5-2.3,1.8
			c0.3,0.4,0.7,0.6,1.1,0.6c0.2,0,0.5-0.1,0.8-0.2c0.3-0.1,0.6-0.3,0.9-0.5L751.8,353.4z M743.7,348.7c0.2,0.4,0.6,0.8,1,1
			c0.4,0.3,0.9,0.4,1.3,0.4c0.5,0,0.9-0.1,1.3-0.4c0.4-0.3,0.7-0.6,1-1s0.3-0.9,0.3-1.5c0-0.5-0.1-1-0.3-1.5s-0.6-0.8-1-1
			c-0.4-0.3-0.9-0.4-1.3-0.4c-0.5,0-0.9,0.1-1.4,0.4c-0.4,0.3-0.7,0.6-1,1c-0.2,0.4-0.4,0.9-0.4,1.5
			C743.3,347.8,743.4,348.3,743.7,348.7z"/>
		<path class="st13" d="M760,344.6v7.6h-2.5v-1.2c-0.5,0.9-1.3,1.3-2.4,1.3c-0.8,0-1.5-0.3-2-0.8s-0.7-1.2-0.7-2.1v-4.8h2.5v4.1
			c0,0.4,0.1,0.8,0.3,1c0.2,0.2,0.5,0.4,0.9,0.4c0.4,0,0.8-0.2,1-0.5c0.3-0.3,0.4-0.7,0.4-1.2v-3.7H760z"/>
		<path class="st13" d="M768.1,345.6c0.7,0.7,1,1.7,1,3c0,0.2,0,0.3,0,0.4h-5.3c0.1,0.4,0.3,0.8,0.6,1s0.7,0.3,1.1,0.3
			c0.3,0,0.6-0.1,0.9-0.2c0.3-0.1,0.6-0.3,0.8-0.6l1.3,1.3c-0.4,0.4-0.9,0.8-1.4,1s-1.2,0.3-1.9,0.3c-0.8,0-1.5-0.2-2.1-0.5
			c-0.6-0.3-1.1-0.8-1.4-1.3c-0.3-0.6-0.5-1.3-0.5-2c0-0.8,0.2-1.5,0.5-2.1c0.3-0.6,0.8-1,1.4-1.4c0.6-0.3,1.3-0.5,2.1-0.5
			C766.5,344.5,767.4,344.9,768.1,345.6z M766.7,347.7c0-0.4-0.1-0.8-0.4-1.1c-0.3-0.3-0.6-0.4-1-0.4c-0.4,0-0.7,0.1-1,0.4
			s-0.4,0.6-0.5,1.1H766.7z"/>
		<path class="st13" d="M777.8,344.6v7.6h-2.5v-1.2c-0.5,0.9-1.3,1.3-2.4,1.3c-0.8,0-1.5-0.3-2-0.8c-0.5-0.5-0.7-1.2-0.7-2.1v-4.8
			h2.5v4.1c0,0.4,0.1,0.8,0.3,1c0.2,0.2,0.5,0.4,0.9,0.4c0.4,0,0.8-0.2,1-0.5c0.3-0.3,0.4-0.7,0.4-1.2v-3.7H777.8z"/>
		<path class="st13" d="M785.8,345.6c0.7,0.7,1,1.7,1,3c0,0.2,0,0.3,0,0.4h-5.3c0.1,0.4,0.3,0.8,0.6,1c0.3,0.2,0.7,0.3,1.1,0.3
			c0.3,0,0.6-0.1,0.9-0.2c0.3-0.1,0.6-0.3,0.8-0.6l1.3,1.3c-0.4,0.4-0.9,0.8-1.4,1c-0.6,0.2-1.2,0.3-1.9,0.3c-0.8,0-1.5-0.2-2.1-0.5
			c-0.6-0.3-1.1-0.8-1.4-1.3c-0.3-0.6-0.5-1.3-0.5-2c0-0.8,0.2-1.5,0.5-2.1c0.3-0.6,0.8-1,1.4-1.4c0.6-0.3,1.3-0.5,2.1-0.5
			C784.2,344.5,785.2,344.9,785.8,345.6z M784.4,347.7c0-0.4-0.1-0.8-0.4-1.1c-0.3-0.3-0.6-0.4-1-0.4c-0.4,0-0.7,0.1-1,0.4
			s-0.4,0.6-0.5,1.1H784.4z"/>
	</g>
</g>
<g>
	<g>
		<path class="st20" d="M711.3,237c0.8,0.4,1.4,1,1.9,1.8s0.7,1.6,0.7,2.6c0,1-0.2,1.8-0.7,2.6c-0.5,0.8-1.1,1.4-1.9,1.8
			c-0.8,0.4-1.7,0.7-2.7,0.7c-1,0-1.9-0.2-2.7-0.7c-0.8-0.4-1.4-1.1-1.9-1.8s-0.7-1.7-0.7-2.6c0-1,0.2-1.8,0.7-2.6s1.1-1.4,1.9-1.8
			c0.8-0.4,1.7-0.7,2.7-0.7C709.6,236.4,710.5,236.6,711.3,237z M707.3,238.9c-0.4,0.3-0.7,0.6-1,1c-0.2,0.4-0.4,0.9-0.4,1.5
			c0,0.5,0.1,1,0.4,1.5s0.6,0.8,1,1c0.4,0.3,0.9,0.4,1.3,0.4s0.9-0.1,1.3-0.4c0.4-0.3,0.7-0.6,1-1s0.3-0.9,0.3-1.5
			c0-0.5-0.1-1-0.3-1.5s-0.6-0.8-1-1s-0.9-0.4-1.3-0.4S707.7,238.7,707.3,238.9z"/>
		<path class="st20" d="M718.7,239c0.4-0.2,0.9-0.3,1.4-0.3v2.3c-0.1,0-0.2,0-0.4,0c-0.6,0-1.1,0.1-1.4,0.4s-0.6,0.7-0.6,1.1v3.9
			h-2.5v-7.6h2.5v1.3C717.9,239.6,718.3,239.2,718.7,239z"/>
		<path class="st20" d="M728.8,235.9v10.4h-2.5v-1c-0.3,0.4-0.6,0.6-1,0.8c-0.4,0.2-0.8,0.3-1.3,0.3c-0.7,0-1.3-0.2-1.8-0.5
			c-0.5-0.3-0.9-0.8-1.2-1.4c-0.3-0.6-0.4-1.3-0.4-2.1c0-0.8,0.1-1.4,0.4-2c0.3-0.6,0.7-1,1.2-1.3c0.5-0.3,1.1-0.5,1.8-0.5
			c0.5,0,0.9,0.1,1.3,0.3c0.4,0.2,0.7,0.5,1,0.8v-3.8H728.8z M725.9,243.9c0.3-0.3,0.4-0.8,0.4-1.4c0-0.6-0.1-1-0.4-1.4
			c-0.3-0.3-0.7-0.5-1.2-0.5s-0.9,0.2-1.2,0.5c-0.3,0.4-0.5,0.8-0.5,1.4c0,0.6,0.2,1,0.5,1.4c0.3,0.3,0.7,0.5,1.2,0.5
			S725.6,244.3,725.9,243.9z"/>
		<path class="st20" d="M737,239.8c0.7,0.7,1,1.7,1,3c0,0.2,0,0.3,0,0.4h-5.3c0.1,0.4,0.3,0.8,0.6,1c0.3,0.2,0.7,0.3,1.1,0.3
			c0.3,0,0.6-0.1,0.9-0.2c0.3-0.1,0.6-0.3,0.8-0.6l1.3,1.3c-0.4,0.4-0.9,0.8-1.4,1c-0.6,0.2-1.2,0.3-1.9,0.3c-0.8,0-1.5-0.2-2.1-0.5
			c-0.6-0.3-1.1-0.8-1.4-1.3c-0.3-0.6-0.5-1.3-0.5-2c0-0.8,0.2-1.5,0.5-2.1c0.3-0.6,0.8-1,1.4-1.4c0.6-0.3,1.3-0.5,2.1-0.5
			C735.4,238.7,736.3,239,737,239.8z M735.5,241.9c0-0.4-0.1-0.8-0.4-1.1c-0.3-0.3-0.6-0.4-1-0.4c-0.4,0-0.7,0.1-1,0.4
			c-0.3,0.3-0.4,0.6-0.5,1.1H735.5z"/>
		<path class="st20" d="M742.7,239c0.4-0.2,0.9-0.3,1.4-0.3v2.3c-0.1,0-0.2,0-0.4,0c-0.6,0-1.1,0.1-1.4,0.4
			c-0.4,0.3-0.6,0.7-0.6,1.1v3.9h-2.5v-7.6h2.5v1.3C742,239.6,742.3,239.2,742.7,239z"/>
		<path class="st20" d="M755,236.8c0.5,0.2,1,0.5,1.3,0.9c0.3,0.4,0.4,0.8,0.4,1.3c0,0.5-0.2,1-0.5,1.3c-0.3,0.4-0.7,0.6-1.2,0.8
			c0.6,0.1,1.1,0.4,1.5,0.9c0.4,0.4,0.5,1,0.5,1.6c0,0.6-0.2,1-0.5,1.4c-0.3,0.4-0.7,0.7-1.3,1s-1.2,0.3-2,0.3h-4.8v-9.8h4.7
			C753.8,236.5,754.4,236.6,755,236.8z M753.7,240.2c0.2-0.2,0.3-0.4,0.3-0.7c0-0.3-0.1-0.5-0.3-0.7c-0.2-0.2-0.5-0.2-0.8-0.2h-2
			v1.9h2C753.2,240.4,753.5,240.3,753.7,240.2z M754,244.1c0.3-0.2,0.4-0.4,0.4-0.8c0-0.3-0.1-0.6-0.4-0.7c-0.3-0.2-0.6-0.3-1.1-0.3
			h-2v2.1h2C753.3,244.3,753.7,244.3,754,244.1z"/>
		<path class="st20" d="M764.1,239.2c0.6,0.3,1.1,0.8,1.5,1.4c0.3,0.6,0.5,1.3,0.5,2c0,0.8-0.2,1.5-0.5,2c-0.3,0.6-0.8,1-1.5,1.4
			c-0.6,0.3-1.3,0.5-2.2,0.5s-1.5-0.2-2.2-0.5c-0.6-0.3-1.1-0.8-1.4-1.4c-0.3-0.6-0.5-1.3-0.5-2c0-0.8,0.2-1.4,0.5-2
			c0.3-0.6,0.8-1,1.4-1.4c0.6-0.3,1.3-0.5,2.2-0.5S763.4,238.8,764.1,239.2z M760.7,241.2c-0.3,0.3-0.4,0.8-0.4,1.4
			c0,0.6,0.1,1,0.4,1.4c0.3,0.3,0.7,0.5,1.2,0.5c0.5,0,0.9-0.2,1.2-0.5c0.3-0.3,0.4-0.8,0.4-1.4c0-0.6-0.2-1-0.5-1.4
			c-0.3-0.3-0.7-0.5-1.2-0.5S761,240.9,760.7,241.2z"/>
		<path class="st20" d="M773,239.2c0.6,0.3,1.1,0.8,1.5,1.4c0.3,0.6,0.5,1.3,0.5,2c0,0.8-0.2,1.5-0.5,2c-0.3,0.6-0.8,1-1.5,1.4
			c-0.6,0.3-1.3,0.5-2.2,0.5s-1.5-0.2-2.2-0.5c-0.6-0.3-1.1-0.8-1.4-1.4c-0.3-0.6-0.5-1.3-0.5-2c0-0.8,0.2-1.4,0.5-2
			c0.3-0.6,0.8-1,1.4-1.4c0.6-0.3,1.3-0.5,2.2-0.5S772.4,238.8,773,239.2z M769.7,241.2c-0.3,0.3-0.4,0.8-0.4,1.4
			c0,0.6,0.1,1,0.4,1.4c0.3,0.3,0.7,0.5,1.2,0.5c0.5,0,0.9-0.2,1.2-0.5c0.3-0.3,0.4-0.8,0.4-1.4c0-0.6-0.2-1-0.5-1.4
			c-0.3-0.3-0.7-0.5-1.2-0.5S770,240.9,769.7,241.2z"/>
		<path class="st20" d="M781.2,246.3l-1.6-2.9l-0.8,0.8v2.1h-2.5v-10.4h2.5v5.4l2.4-2.6h2.8l-2.8,2.9l2.8,4.6H781.2z"/>
		<path class="st20" d="M723.2,256.2v1.8l-4.6,1.8l4.6,1.8v1.8l-6.2-2.6v-2L723.2,256.2z"/>
		<path class="st20" d="M730.5,264.3l-1.4-2.7H729h-1.8v2.7h-2.6v-9.8h4.4c1.3,0,2.3,0.3,3,0.9c0.7,0.6,1.1,1.4,1.1,2.5
			c0,0.7-0.1,1.4-0.4,1.9c-0.3,0.5-0.7,1-1.3,1.3l2,3.2H730.5z M727.2,259.6h1.9c0.5,0,0.9-0.1,1.2-0.4c0.3-0.3,0.4-0.6,0.4-1.1
			c0-0.5-0.1-0.8-0.4-1.1c-0.3-0.3-0.7-0.4-1.2-0.4h-1.9V259.6z"/>
		<path class="st20" d="M740.9,257.8c0.7,0.7,1,1.7,1,3c0,0.2,0,0.3,0,0.4h-5.3c0.1,0.4,0.3,0.8,0.6,1s0.7,0.3,1.1,0.3
			c0.3,0,0.6-0.1,0.9-0.2c0.3-0.1,0.6-0.3,0.8-0.6l1.3,1.3c-0.4,0.4-0.9,0.8-1.4,1s-1.2,0.3-1.9,0.3c-0.8,0-1.5-0.2-2.1-0.5
			c-0.6-0.3-1.1-0.8-1.4-1.3c-0.3-0.6-0.5-1.3-0.5-2c0-0.8,0.2-1.5,0.5-2.1c0.3-0.6,0.8-1,1.4-1.4c0.6-0.3,1.3-0.5,2.1-0.5
			C739.3,256.7,740.2,257,740.9,257.8z M739.5,259.9c0-0.4-0.1-0.8-0.4-1.1c-0.3-0.3-0.6-0.4-1-0.4c-0.4,0-0.7,0.1-1,0.4
			c-0.3,0.3-0.4,0.6-0.5,1.1H739.5z"/>
		<path class="st20" d="M750.8,253.9v10.4h-2.5v-1c-0.3,0.4-0.6,0.6-1,0.8c-0.4,0.2-0.8,0.3-1.3,0.3c-0.7,0-1.3-0.2-1.8-0.5
			c-0.5-0.3-0.9-0.8-1.2-1.4c-0.3-0.6-0.4-1.3-0.4-2.1c0-0.8,0.1-1.4,0.4-2c0.3-0.6,0.7-1,1.2-1.3c0.5-0.3,1.1-0.5,1.8-0.5
			c0.5,0,0.9,0.1,1.3,0.3c0.4,0.2,0.7,0.5,1,0.8v-3.8H750.8z M747.9,261.9c0.3-0.3,0.4-0.8,0.4-1.4c0-0.6-0.1-1-0.4-1.4
			c-0.3-0.3-0.7-0.5-1.2-0.5s-0.9,0.2-1.2,0.5c-0.3,0.4-0.5,0.8-0.5,1.4c0,0.6,0.2,1,0.5,1.4c0.3,0.3,0.7,0.5,1.2,0.5
			S747.6,262.3,747.9,261.9z"/>
		<path class="st20" d="M755,253.6c0.2,0.2,0.4,0.6,0.4,1c0,0.4-0.1,0.7-0.4,1s-0.6,0.4-0.9,0.4s-0.7-0.1-0.9-0.4
			c-0.2-0.3-0.4-0.6-0.4-1c0-0.4,0.1-0.7,0.4-1c0.2-0.2,0.6-0.4,0.9-0.4S754.7,253.4,755,253.6z M752.8,256.8h2.5v7.6h-2.5V256.8z"
			/>
		<path class="st20" d="M759.8,258.4c-0.2,0-0.4,0-0.5,0.1c-0.1,0.1-0.2,0.2-0.2,0.4c0,0.2,0.1,0.3,0.3,0.4c0.2,0.1,0.5,0.2,1,0.3
			c0.5,0.2,1,0.3,1.4,0.5c0.4,0.2,0.7,0.4,0.9,0.7s0.4,0.7,0.4,1.2c0,0.8-0.3,1.4-0.9,1.8s-1.4,0.7-2.3,0.7c-0.6,0-1.3-0.1-1.8-0.3
			s-1.1-0.5-1.6-0.8l0.8-1.6c0.4,0.3,0.9,0.5,1.4,0.7c0.5,0.2,0.9,0.2,1.3,0.2c0.2,0,0.4,0,0.6-0.1c0.1-0.1,0.2-0.2,0.2-0.3
			c0-0.2-0.1-0.3-0.3-0.4c-0.2-0.1-0.5-0.2-1-0.3c-0.5-0.2-1-0.3-1.3-0.5c-0.3-0.2-0.6-0.4-0.9-0.7c-0.3-0.3-0.4-0.7-0.4-1.2
			c0-0.8,0.3-1.4,0.9-1.8c0.6-0.4,1.3-0.7,2.2-0.7c0.6,0,1.1,0.1,1.6,0.2c0.5,0.1,1,0.4,1.5,0.7l-0.8,1.6
			C761.3,258.6,760.5,258.4,759.8,258.4z"/>
		<path class="st20" d="M763.9,263.3v-1.8l4.6-1.8l-4.6-1.8v-1.8l6.2,2.6v2L763.9,263.3z"/>
	</g>
</g>
<line class="st21" x1="769.7" y1="324.9" x2="713.3" y2="324.9"/>
<line class="st21" x1="769.7" y1="281.4" x2="713.3" y2="281.4"/>
<g>
</g>
</svg>
