<?xml version="1.0" encoding="utf-8"?>
<!-- Generator: Adobe Illustrator 21.1.0, SVG Export Plug-In . SVG Version: 6.00 Build 0)  -->
<svg version="1.1" id="Layer_1" xmlns="http://www.w3.org/2000/svg" xmlns:xlink="http://www.w3.org/1999/xlink" x="0px" y="0px"
	 viewBox="0 0 517 72.9" style="enable-background:new 0 0 517 72.9;" xml:space="preserve">
<style type="text/css">
	.st0{fill:#FFFFFF;stroke:#5C6783;stroke-width:3;stroke-linecap:round;stroke-linejoin:round;}
	.st1{fill:none;stroke:#5C6783;stroke-width:3;stroke-linecap:round;stroke-linejoin:round;}
	.st2{fill:#DC7061;}
	.st3{fill:#E08373;}
	.st4{fill:#C85960;}
	.st5{fill:#FAFB87;}
	.st6{fill:#FAFBA9;}
	.st7{fill:#E1DA84;}
	.st8{fill:#DCD584;}
	.st9{clip-path:url(#SVGID_2_);fill:url(#SVGID_3_);}
	.st10{clip-path:url(#SVGID_5_);fill:url(#SVGID_6_);}
</style>
<g>
	<polygon class="st0" points="515.5,62.3 215.2,62.3 215.2,19.8 515.5,19.8 501.2,40.2 	"/>
	<polyline class="st1" points="214.8,62.3 193.7,41.3 215.1,19.9 	"/>
	<line class="st1" x1="194.2" y1="41.2" x2="158.3" y2="41.2"/>
</g>
<g id="plane">
	<path class="st2" d="M50,25.4c-0.1,0.5-0.1,1-0.1,1.6c-0.1,7.6,6.5,13.9,14.7,14c8.2,0.1,14.9-6,15-13.7c0-0.7,0-1.4-0.1-2.1
		c24.9,0.9,52.7,4.2,71.8,8.8c2.6-4.1,6-9,7.9-10.1c3.4-2,20.4,0.8,20.4,0.8l-9.7,15.5c3,1.7,4.7,3.4,4.7,5.2
		c-0.1,10.7-61.4,18.8-106,18.3c-44.6-0.5-55.5-9.3-55.4-20C13.2,34.8,21.1,27.3,50,25.4z"/>
	<g>
		<path class="st3" d="M158.5,27.4c-1.9,1.1-5.2,6-7.9,10.1c-18.9-4.5-46.5-7.8-71.2-8.7c0.1-0.5,0.1-1,0.1-1.5c0-0.7,0-1.4-0.1-2.1
			c24.9,0.9,52.7,4.2,71.8,8.8c2.6-4.1,6-9,7.9-10.1c3.4-2,20.4,0.8,20.4,0.8l-2,3.3C173.3,27.3,161.3,25.7,158.5,27.4z"/>
		<path class="st3" d="M64,44.4c-8.2-0.1-14.8-6.3-14.7-14c0-0.5,0-1,0.1-1.6c-24.5,1.6-33.9,7.2-36.2,14.4
			c0.4-8.8,8.5-16,36.9-17.9c-0.1,0.5-0.1,1-0.1,1.6c-0.1,7.6,6.5,13.9,14.7,14c6.8,0.1,12.5-4.1,14.3-9.8
			C78.6,38.6,72,44.5,64,44.4z"/>
		<path class="st3" d="M169.2,43.7l1.8-2.8c2.3,1.5,3.5,3,3.5,4.5c0,0.7-0.3,1.5-0.9,2.2C173,46.3,171.4,45,169.2,43.7z"/>
	</g>
	<g>
		<path class="st4" d="M85.2,25.5c-0.9,4.8-4.4,8.7-9,10.4c2.1-2.4,3.3-5.4,3.4-8.7c0-0.7,0-1.4-0.1-2.1
			C81.3,25.3,83.3,25.4,85.2,25.5z"/>
		<path class="st4" d="M157.1,30c-0.9-0.2-1.8-0.4-2.8-0.6c1.8-2.5,3.6-4.7,4.7-5.4c0.6-0.3,1.5-0.5,2.6-0.6
			C160.2,25.2,158.6,27.7,157.1,30z"/>
		<path class="st4" d="M22.6,30.9C20,33.6,19,36.6,19,39.8c-0.1,10.7,10.8,19.5,55.4,20c35.8,0.4,82.4-4.8,99.4-12.4
			c-6.9,9.7-63.5,16.8-105.3,16.4c-44.6-0.5-55.5-9.3-55.4-20C13.2,38.8,15.6,34.3,22.6,30.9z"/>
	</g>
	<path class="st5" d="M56.7,49.6c0,0,33.3,17.4,42.4,20.1c9.1,2.7,36,3,42.8-1.6c6.8-4.6-17.8-21.3-27.3-24.9
		C104.9,39.6,49.7,41.7,56.7,49.6z"/>
	<path class="st6" d="M112.1,45.5c-7.8-2.9-46.1-2.1-56.1,2.6c0.6-6.7,49.5-8.3,58.4-5c9.6,3.6,34.1,20.4,27.3,24.9
		c-0.4,0.2-0.8,0.5-1.2,0.7C141.7,62.7,120.8,48.8,112.1,45.5z"/>
	<path class="st7" d="M60.4,45.1c-1,0.8-1.2,1.8-0.3,2.8c0,0,33.3,17.4,42.4,20.1c8,2.4,30,2.9,39.7-0.2c-0.1,0.1-0.3,0.2-0.4,0.3
		c-6.8,4.6-33.8,4.3-42.8,1.6C89.9,67,56.7,49.6,56.7,49.6C55.1,47.8,56.8,46.3,60.4,45.1z"/>
	<path class="st5" d="M153.9,45.4c-8.1,5.3,36.6,13.5,38,10C193.2,51.9,164.5,38.5,153.9,45.4z"/>
	<path class="st5" d="M153.9,45.4c-8.1,5.3,36.6,13.5,38,10C193.2,51.9,164.5,38.5,153.9,45.4z"/>
	<path class="st6" d="M157.4,44.2c10.6-6.9,39.3,6.6,38,10C194,57.7,149.3,49.5,157.4,44.2z"/>
	<path class="st5" d="M6.9,42.7c0,0-4.4,23.3,2.2,23.4c6.6,0.1,2.7-23.3,2.7-23.3s4.6-23.3-2.2-23.4C2.7,19.3,6.9,42.7,6.9,42.7z"/>
	<path class="st8" d="M9.6,19.4c0.4,0,0.8,0.1,1.2,0.3c-5.2,2.5-1.5,23.1-1.5,23.1s-3.9,20.4,1.1,23.1c-0.3,0.2-0.7,0.3-1.2,0.3
		C2.4,66,6.9,42.7,6.9,42.7S2.7,19.3,9.6,19.4z"/>
	<path class="st6" d="M10.6,42.7c0,0,4.4-21.9-1.6-23.3c0.2,0,0.4-0.1,0.6-0.1c6.8,0.1,2.2,23.4,2.2,23.4s4,23.4-2.7,23.3
		c-0.2,0-0.4,0-0.6-0.1C14.3,64.7,10.6,42.7,10.6,42.7z"/>
</g>
<g>
	<defs>
		<path id="SVGID_1_" d="M63.6,20.3l4.8,1.7c0,0,1-4,0.5-6.3C68.8,15.7,66.1,16.9,63.6,20.3"/>
	</defs>
	<clipPath id="SVGID_2_">
		<use xlink:href="#SVGID_1_"  style="overflow:visible;"/>
	</clipPath>
	
		<linearGradient id="SVGID_3_" gradientUnits="userSpaceOnUse" x1="-577.2326" y1="511.2458" x2="-576.2326" y2="511.2458" gradientTransform="matrix(5.3671 0 0 -5.3671 3161.6777 2762.7539)">
		<stop  offset="0" style="stop-color:#F56076"/>
		<stop  offset="1" style="stop-color:#FF8E69"/>
	</linearGradient>
	<rect x="63.6" y="15.7" class="st9" width="5.7" height="6.3"/>
</g>
<g>
	<defs>
		<path id="SVGID_4_" d="M50.8,22.8c2,5.4,5,8.6,7.8,10.5c4.7,3.1,11.1,1.9,14.5-2.7l6.3-8.6c-4.1-0.6-8.1,1.5-8.1,1.5
			c-4.2-2.7-8.1-3.6-11.2-3.6C54.4,20,50.8,22.8,50.8,22.8"/>
	</defs>
	<clipPath id="SVGID_5_">
		<use xlink:href="#SVGID_4_"  style="overflow:visible;"/>
	</clipPath>
	
		<linearGradient id="SVGID_6_" gradientUnits="userSpaceOnUse" x1="-532.3271" y1="499.9607" x2="-531.3271" y2="499.9607" gradientTransform="matrix(0 -15.0042 -15.0042 0 7566.623 -7952.0845)">
		<stop  offset="0" style="stop-color:#F56076"/>
		<stop  offset="0.3398" style="stop-color:#FA7670"/>
		<stop  offset="0.7234" style="stop-color:#FE886B"/>
		<stop  offset="1" style="stop-color:#FF8E69"/>
	</linearGradient>
	<rect x="50.8" y="20" class="st10" width="28.6" height="16.4"/>
</g>
</svg>
