<?xml version="1.0" encoding="utf-8"?>
<!-- Generator: Adobe Illustrator 19.2.1, SVG Export Plug-In . SVG Version: 6.00 Build 0)  -->
<svg version="1.1" id="Layer_1" xmlns="http://www.w3.org/2000/svg" xmlns:xlink="http://www.w3.org/1999/xlink" x="0px" y="0px"
	 viewBox="0 0 517 72.9" style="enable-background:new 0 0 517 72.9;" xml:space="preserve">
<style type="text/css">
	.st0{fill:#FFFFFF;stroke:#5C6783;stroke-width:3;stroke-linecap:round;stroke-linejoin:round;}
	.st1{fill:none;stroke:#5C6783;stroke-width:3;stroke-linecap:round;stroke-linejoin:round;}
	.st2{fill:#FFDB03;stroke:#5C6783;stroke-width:3;stroke-miterlimit:10;}
	.st3{fill:#87DEE8;stroke:#5C6783;stroke-width:3;stroke-linecap:round;stroke-linejoin:round;stroke-miterlimit:10;}
	.st4{fill:#A08AC9;stroke:#5C6783;stroke-width:3;stroke-miterlimit:10;}
</style>
<g>
	<polygon class="st0" points="515.5,62.3 215.2,62.3 215.2,19.8 515.5,19.8 501.2,40.2 	"/>
	<g>
		<line class="st1" x1="36.8" y1="58.5" x2="34.3" y2="67.9"/>
	</g>
	<path class="st0" d="M19.5,30.6c-1.4,0.2-2.3,1.4-2.3,2.8V43c0,1.1,0.6,2.1,1.7,2.6l7.3,3.4l3.2,6.4c1.2,2.4,3.7,3.9,6.4,3.9
		l45.9-0.1c9.7,0,19.4-1.2,28.8-3.6l76.1-20l7.5-20.7c2.2-6.5-2.7-13.2-9.5-13.2h0l-17.4,22.6c-1.2,1.5-3,2.4-4.9,2.5l-29.7,0.8
		c-12.5,0.3-24.8-2.9-35.4-9.5l0,0c-3.2-1.9-6.8-3-10.5-3H47.6c-3.1,0-6.1,1.5-7.9,4l-6.6,9L19.5,30.6z M43.1,19.6
		c0.8-1.2,2.2-1.9,3.7-1.9h34.5c3.3,0,6.4,1,9.1,2.9l10.3,7.2H37.2L43.1,19.6z"/>
	<path class="st2" d="M135.4,48.6l57.2-15.5l1.3-18.2c2.2-6.5-2.7-13.2-9.5-13.2h0l-17.4,22.6c-1.2,1.5-3,2.4-4.9,2.5l-29.7,0.8
		c-12.5,0.3-24.8-2.9-35.4-9.5l0,0c-3.2-1.9-6.8-3-10.5-3H47.6c-3.1,0-6.1,1.5-7.9,4l-6.6,9l-13.5,2.5c-1.4,0.2-2.3,1.4-2.3,2.8V43
		c0,1.1,0.6,2.1,1.7,2.6l6.5,3H135.4z M100.7,27.9H37.2l5.9-8.2c0.8-1.2,2.2-1.9,3.7-1.9h34.5c3.3,0,6.4,1,9.1,2.9L100.7,27.9z"/>
	<path class="st3" d="M186.9,35.9c12.4-3.1,11.5-10.5,11.5-32.6c0-1-0.8-1.8-1.8-1.8h-12.2c-8.1,0.6-14.2,7.1-18.1,20.5
		c-0.8,2.7-3.2,4.5-6,4.6l-28,0.8c-12.5,0.3-24.8-2.9-35.4-9.5l0,0c-3.2-1.9-6.8-3-10.5-3H47.6c-3.1,0-6.1,1.5-7.9,4l-6.6,9
		l-13.5,2.5c-1.4,0.2-2.3,1.4-2.3,2.8v7.9h149.9L186.9,35.9z"/>
	<circle class="st0" cx="34.2" cy="68.2" r="3.2"/>
	<g>
		<line class="st1" x1="85.6" y1="59.5" x2="87.8" y2="67.9"/>
	</g>
	<circle class="st0" cx="88" cy="68.2" r="3.2"/>
	<path class="st0" d="M92.6,28.9h-53l4.9-6.9c0.7-1,1.8-1.6,3.1-1.6h28.8c2.7,0,5.4,0.8,7.6,2.4L92.6,28.9z"/>
	<path class="st4" d="M87.4,17.6c-13.8,1.3-27.2,1.4-40.1,0.1c-2.3-0.2-4.1-2.1-4.1-4.5v-0.1c0-2.3,1.8-4.3,4.1-4.5
		c12.6-1.1,26-1,40,0.1c2.3,0.2,4.1,2.1,4.1,4.5l0,0C91.4,15.5,89.7,17.4,87.4,17.6z"/>
	<path class="st3" d="M8.7,43.3l-5.5-2.2c-1.1-0.4-1.8-1.5-1.8-2.6l0,0c0-1.1,0.7-2.2,1.8-2.6l5.5-2.2V43.3z"/>
	<polyline class="st1" points="214.8,62.3 193.7,41.3 215.1,19.9 	"/>
	<line class="st1" x1="194.2" y1="41.2" x2="158.3" y2="41.2"/>
	<line class="st1" x1="12.8" y1="16.7" x2="12.8" y2="59.9"/>
</g>
</svg>
