<?xml version="1.0" encoding="utf-8"?>
<!-- Generator: Adobe Illustrator 21.1.0, SVG Export Plug-In . SVG Version: 6.00 Build 0)  -->
<svg version="1.1" id="Layer_1" xmlns="http://www.w3.org/2000/svg" xmlns:xlink="http://www.w3.org/1999/xlink" x="0px" y="0px"
	 viewBox="0 0 517 72.9" style="enable-background:new 0 0 517 72.9;" xml:space="preserve">
<style type="text/css">
	.st0{fill:#FFFFFF;stroke:#5C6783;stroke-width:3;stroke-linecap:round;stroke-linejoin:round;}
	.st1{fill:none;stroke:#5C6783;stroke-width:3;stroke-linecap:round;stroke-linejoin:round;}
	.st2{fill-rule:evenodd;clip-rule:evenodd;fill:#FFAC00;}
	.st3{fill-rule:evenodd;clip-rule:evenodd;fill:#B71815;}
</style>
<g>
	<polygon class="st0" points="515.5,62.3 215.2,62.3 215.2,19.8 515.5,19.8 501.2,40.2 	"/>
	<polyline class="st1" points="214.8,62.3 193.7,41.3 215.1,19.9 	"/>
	<line class="st1" x1="194.2" y1="41.2" x2="158.3" y2="41.2"/>
</g>
<g>
	<path class="st2" d="M48.6,28.4c22.2-19.5,72.8-12.7,94.8-5.2c-0.2,0.7-0.5,1.4-0.7,2.1C105.5,15.9,66.3,21.2,48.6,28.4L48.6,28.4z
		 M46.8,37.3C70,63,122.8,54.1,145.9,44.2c-0.2-0.9-0.5-1.9-0.7-2.8C106.2,53.7,65.2,46.9,46.8,37.3L46.8,37.3z M42.3,35.2
		c0,34.2,109.5,26,117.9,2.5c2.7-0.2,5.4-0.5,8.1-0.8c0-1.3,0-2.7,0-4.1c-9.2-1.2-12-1.5-22.5-1c0-0.6-0.1-1.2-0.1-1.8
		c4.8-0.7,9.7-1.5,14.5-2.2l0,0V3.1h-9.7l-5.8,17.8C131.5,15.5,111.9,12,93,12C60.4,12,42.3,22.4,42.3,35.2z"/>
	<path class="st3" d="M109,64.6v5.3H92.9l-2.6-5.3h-1.6v-4.2l22.4-0.5v4.6H109L109,64.6z M159.8,45.3v12.1l-16-3.6
		C150.7,51.4,156.3,48.5,159.8,45.3L159.8,45.3z M93.9,65.4V67h2.8v-1.6H93.9L93.9,65.4z M103.7,65.4V67h2.8v-1.6H103.7L103.7,65.4z
		 M98.6,65.4V67h2.8v-1.6H98.6z"/>
</g>
</svg>
