<?xml version="1.0" encoding="utf-8"?>
<!-- Generator: Adobe Illustrator 22.0.0, SVG Export Plug-In . SVG Version: 6.00 Build 0)  -->
<svg version="1.1" id="Layer_1" xmlns="http://www.w3.org/2000/svg" xmlns:xlink="http://www.w3.org/1999/xlink" x="0px" y="0px"
	 viewBox="0 0 1200 408.6" style="enable-background:new 0 0 1200 408.6;" xml:space="preserve">
<style type="text/css">
	.st0{fill:none;stroke:#BCC1CD;stroke-width:3;stroke-linecap:round;stroke-linejoin:round;}
	.st1{fill:none;stroke:#BCC1CD;stroke-width:3;stroke-linecap:round;stroke-linejoin:round;stroke-dasharray:0,8.01;}
	.st2{fill:#7A839B;}
	.st3{fill:none;}
	.st4{fill:#AE9BD1;stroke:#5C6783;stroke-width:2;stroke-linecap:round;stroke-linejoin:round;}
	.st5{fill:#87DEE8;stroke:#5C6783;stroke-width:2;stroke-linecap:round;stroke-linejoin:round;}
	.st6{fill:#A08AC9;stroke:#5C6783;stroke-width:2;stroke-linecap:round;stroke-linejoin:round;}
	.st7{fill:none;stroke:#5C6783;stroke-width:2;stroke-linecap:round;stroke-linejoin:round;}
	.st8{fill:#87DEE8;}
	.st9{fill:#FFFFFF;stroke:#5C6783;stroke-width:2;stroke-linecap:round;stroke-linejoin:round;}
	.st10{fill:#5C6783;}
	.st11{fill:#7A839B;stroke:#5C6783;stroke-width:2;stroke-linecap:round;stroke-linejoin:round;}
	.st12{fill:#717B91;stroke:#5C6783;stroke-width:2;stroke-linecap:round;stroke-linejoin:round;}
	.st13{fill:#5C6783;stroke:#5C6783;stroke-width:2;stroke-linecap:round;stroke-linejoin:round;}
	.st14{fill:none;stroke:#A08AC9;stroke-width:2;stroke-linecap:round;stroke-linejoin:round;}
	.st15{fill:#A08AC9;}
	.st16{fill:#FFFFFF;stroke:#A08AC9;stroke-width:2;stroke-linecap:round;stroke-linejoin:round;}
</style>
<g>
	<g>
		<line class="st0" x1="315.3" y1="18.8" x2="315.3" y2="18.8"/>
		<line class="st1" x1="315.3" y1="26.8" x2="315.3" y2="391.3"/>
		<line class="st0" x1="315.3" y1="395.3" x2="315.3" y2="395.3"/>
	</g>
</g>
<g>
	<g>
		<path class="st2" d="M159.4,282.2c-0.5-0.2-1-0.3-1.5-0.3c-0.7,0-1.3,0.2-1.9,0.5c-0.6,0.3-1,0.8-1.4,1.4
			c-0.3,0.6-0.5,1.2-0.5,1.9c0,0.7,0.2,1.3,0.5,1.9s0.8,1,1.4,1.4c0.6,0.3,1.2,0.5,1.9,0.5c0.5,0,1-0.1,1.5-0.3
			c0.5-0.2,0.9-0.5,1.3-0.9l0.8,0.9c-0.5,0.5-1.1,0.9-1.7,1.1s-1.3,0.4-2,0.4c-0.9,0-1.8-0.2-2.6-0.7c-0.8-0.4-1.4-1-1.8-1.8
			c-0.4-0.8-0.7-1.6-0.7-2.5c0-0.9,0.2-1.8,0.7-2.5s1.1-1.4,1.9-1.8c0.8-0.4,1.6-0.7,2.6-0.7c0.7,0,1.3,0.1,2,0.4
			c0.6,0.3,1.2,0.6,1.7,1.1l-0.8,1C160.3,282.8,159.9,282.5,159.4,282.2z"/>
		<path class="st2" d="M168,283.6c0.6,0.3,1,0.8,1.3,1.3c0.3,0.6,0.5,1.2,0.5,1.9s-0.2,1.4-0.5,1.9c-0.3,0.6-0.8,1-1.3,1.3
			c-0.6,0.3-1.2,0.5-2,0.5c-0.7,0-1.4-0.2-2-0.5c-0.6-0.3-1-0.8-1.3-1.3c-0.3-0.6-0.5-1.2-0.5-2c0-0.7,0.2-1.4,0.5-1.9
			c0.3-0.6,0.8-1,1.3-1.3c0.6-0.3,1.2-0.5,2-0.5C166.8,283.2,167.5,283.3,168,283.6z M164.8,284.6c-0.4,0.2-0.7,0.5-0.9,0.9
			c-0.2,0.4-0.3,0.8-0.3,1.4c0,0.5,0.1,1,0.3,1.4c0.2,0.4,0.5,0.7,0.9,0.9c0.4,0.2,0.8,0.3,1.3,0.3c0.5,0,0.9-0.1,1.3-0.3
			c0.4-0.2,0.7-0.5,0.9-0.9c0.2-0.4,0.3-0.9,0.3-1.4c0-0.5-0.1-1-0.3-1.4s-0.5-0.7-0.9-0.9c-0.4-0.2-0.8-0.3-1.3-0.3
			C165.6,284.3,165.2,284.4,164.8,284.6z"/>
		<path class="st2" d="M171.8,280.2h1.3v10.4h-1.3V280.2z"/>
		<path class="st2" d="M182.6,280.2v10.4h-1.3v-1.5c-0.3,0.5-0.7,0.9-1.1,1.1c-0.5,0.3-1,0.4-1.6,0.4c-0.7,0-1.3-0.2-1.9-0.5
			c-0.5-0.3-1-0.8-1.3-1.3c-0.3-0.6-0.4-1.2-0.4-2c0-0.7,0.1-1.4,0.4-1.9c0.3-0.6,0.7-1,1.3-1.3c0.5-0.3,1.1-0.5,1.8-0.5
			c0.6,0,1.2,0.1,1.7,0.4c0.5,0.3,0.8,0.6,1.1,1.1v-4.5H182.6z M180.1,289.2c0.4-0.2,0.7-0.5,0.9-0.9c0.2-0.4,0.3-0.9,0.3-1.4
			c0-0.5-0.1-1-0.3-1.4c-0.2-0.4-0.5-0.7-0.9-0.9c-0.4-0.2-0.8-0.3-1.3-0.3c-0.5,0-0.9,0.1-1.3,0.3c-0.4,0.2-0.7,0.5-0.9,0.9
			c-0.2,0.4-0.3,0.9-0.3,1.4s0.1,1,0.3,1.4c0.2,0.4,0.5,0.7,0.9,0.9c0.4,0.2,0.8,0.3,1.3,0.3C179.3,289.6,179.7,289.4,180.1,289.2z"
			/>
		<path class="st2" d="M200.8,280.8h1.4l-3.3,9.8h-1.4l-2.5-8.1l-2.6,8.1H191l-3.3-9.8h1.4l2.6,8.4l2.6-8.4h1.3l2.6,8.4L200.8,280.8
			z"/>
		<path class="st2" d="M207.3,290.6v-1c-0.6,0.7-1.4,1.1-2.6,1.1c-0.5,0-1-0.1-1.4-0.3c-0.4-0.2-0.7-0.5-0.9-0.8s-0.3-0.7-0.3-1.2
			c0-0.7,0.2-1.2,0.7-1.6c0.5-0.4,1.2-0.6,2.1-0.6h2.4v-0.4c0-0.5-0.2-0.9-0.5-1.2c-0.3-0.3-0.8-0.4-1.4-0.4c-0.7,0-1.5,0.3-2.3,0.8
			l-0.5-0.9c0.5-0.3,1-0.6,1.5-0.7s1-0.2,1.6-0.2c0.9,0,1.6,0.2,2.1,0.7c0.5,0.5,0.8,1.1,0.8,1.9l0,4.9H207.3z M206.6,289.1
			c0.4-0.3,0.7-0.7,0.8-1.2v-0.7h-2.2c-0.6,0-1,0.1-1.3,0.3c-0.3,0.2-0.4,0.5-0.4,0.8s0.1,0.7,0.4,0.9c0.3,0.2,0.7,0.3,1.2,0.3
			C205.6,289.6,206.1,289.4,206.6,289.1z"/>
		<path class="st2" d="M211,280.2h1.3v10.4H211V280.2z"/>
		<path class="st2" d="M215,280.2h1.3v10.4H215V280.2z"/>
		<path class="st2" d="M224.5,284.2c0.6,0.7,0.9,1.6,0.9,2.8c0,0.2,0,0.3,0,0.4h-5.9c0.1,0.7,0.4,1.2,0.8,1.6c0.5,0.4,1,0.6,1.7,0.6
			c0.4,0,0.8-0.1,1.2-0.2c0.4-0.2,0.7-0.4,1-0.7l0.7,0.7c-0.4,0.4-0.8,0.7-1.3,0.9c-0.5,0.2-1.1,0.3-1.7,0.3c-0.7,0-1.4-0.2-1.9-0.5
			c-0.6-0.3-1-0.8-1.3-1.3c-0.3-0.6-0.5-1.2-0.5-1.9c0-0.7,0.2-1.4,0.5-1.9c0.3-0.6,0.7-1,1.3-1.3c0.6-0.3,1.2-0.5,1.9-0.5
			C223,283.2,223.9,283.5,224.5,284.2z M224.2,286.4c0-0.7-0.3-1.2-0.7-1.6c-0.4-0.4-1-0.6-1.6-0.6c-0.7,0-1.2,0.2-1.6,0.6
			s-0.7,0.9-0.8,1.6H224.2z"/>
		<path class="st2" d="M231.1,290.1c-0.6,0.4-1.1,0.5-1.7,0.5c-0.6,0-1.1-0.2-1.4-0.5c-0.4-0.3-0.5-0.9-0.5-1.6v-4.1h-1v-1h1v-2h1.3
			v2h2.3v1h-2.3v3.9c0,0.4,0.1,0.7,0.2,0.9c0.1,0.2,0.4,0.3,0.7,0.3c0.4,0,0.7-0.1,1.1-0.3L231.1,290.1z"/>
	</g>
	<path id="Fill-1" class="st3" d="M117.2,170.5H176c8.5,0,15.3,6.9,15.3,15.3v7.7c0,8.5-6.9,15.3-15.3,15.3h-58.7v43.4h149.1v-120
		H117.2V170.5z"/>
	<path id="Stroke-2" class="st4" d="M117.2,132.2v38.3h35.2c8.5,0,15.3,6.9,15.3,15.3v7.7c0,8.5-6.9,15.3-15.3,15.3h-35.2v43.4
		h149.1v-120H117.2L117.2,132.2z"/>
	<polygon id="Fill-41" class="st3" points="266.4,132.2 274,132.2 274,252.2 266.4,252.2 	"/>
	<polygon id="Stroke-42" class="st5" points="266.4,132.2 274,132.2 274,252.2 266.4,252.2 	"/>
	<path id="Stroke-44_1_" class="st5" d="M153.4,170.5h-41c-6.7,0-12.1,5.4-12.1,12.1V219c0-5.6,4.6-10.2,10.2-10.2h42.9
		c8.5,0,15.3-6.9,15.3-15.3v-7.7C168.7,177.3,161.9,170.5,153.4,170.5L153.4,170.5z"/>
	<path id="Stroke-46" class="st6" d="M117.2,208.8H110c-5.3,0-9.7,4.4-9.7,9.7s4.4,9.7,9.7,9.7h7.3V208.8L117.2,208.8z"/>
	<path id="Stroke-48" class="st6" d="M122.1,208.8h-4.9v19.5c12.5-0.3,23.2-8.3,27.4-19.5H122.1L122.1,208.8z"/>
	<path id="Stroke-50" class="st6" d="M117.2,154.2v16.2h25.9C138.3,161,128.5,154.5,117.2,154.2z"/>
	<path id="Stroke-51" class="st7" d="M151.8,170.5v38.3"/>
	<path id="Fill-52" class="st8" d="M266.4,231.7c-11.3,0-20.4,9.1-20.4,20.4h20.4V231.7L266.4,231.7z"/>
	<path id="Stroke-53" class="st6" d="M266.4,231.7c-11.3,0-20.4,9.1-20.4,20.4h20.4V231.7L266.4,231.7z"/>
	<path id="Fill-54" class="st8" d="M245.9,132.2c0,11.3,9.1,20.4,20.4,20.4v-20.4H245.9L245.9,132.2z"/>
	<path id="Stroke-55" class="st6" d="M245.9,132.2c0,11.3,9.1,20.4,20.4,20.4v-20.4H245.9L245.9,132.2z"/>
	<circle class="st9" cx="212.4" cy="192.2" r="26"/>
	<g>
		<g>
			<g>
				<path class="st7" d="M199.9,192.2c0-3.4,1.4-6.6,3.6-8.8c2.3-2.3,5.4-3.6,8.8-3.6c1.4,0,2.7,0.2,3.9,0.6"/>
				<g>
					<polygon class="st10" points="213.2,183.4 221.2,183.4 217.1,176.5 					"/>
				</g>
			</g>
		</g>
		<g>
			<g>
				<path class="st7" d="M224.8,192.2c0,3.4-1.4,6.6-3.6,8.8c-2.3,2.3-5.4,3.6-8.8,3.6c-1.4,0-2.7-0.2-3.9-0.6"/>
				<g>
					<polygon class="st10" points="211.5,200.9 203.6,201 207.6,207.8 					"/>
				</g>
			</g>
		</g>
	</g>
</g>
<g>
	<g>
		<path class="st2" d="M404.9,280.8h1.4l-3.3,9.8h-1.4l-2.5-8.1l-2.6,8.1h-1.4l-3.3-9.8h1.4l2.6,8.4l2.6-8.4h1.3l2.6,8.4
			L404.9,280.8z"/>
		<path class="st2" d="M411.4,290.6v-1c-0.6,0.7-1.4,1.1-2.6,1.1c-0.5,0-1-0.1-1.4-0.3c-0.4-0.2-0.7-0.5-0.9-0.8s-0.3-0.7-0.3-1.2
			c0-0.7,0.2-1.2,0.7-1.6c0.5-0.4,1.2-0.6,2.1-0.6h2.4v-0.4c0-0.5-0.2-0.9-0.5-1.2c-0.3-0.3-0.8-0.4-1.4-0.4c-0.7,0-1.5,0.3-2.3,0.8
			l-0.5-0.9c0.5-0.3,1-0.6,1.5-0.7s1-0.2,1.6-0.2c0.9,0,1.6,0.2,2.1,0.7c0.5,0.5,0.8,1.1,0.8,1.9l0,4.9H411.4z M410.6,289.1
			c0.4-0.3,0.7-0.7,0.8-1.2v-0.7h-2.2c-0.6,0-1,0.1-1.3,0.3c-0.3,0.2-0.4,0.5-0.4,0.8s0.1,0.7,0.4,0.9c0.3,0.2,0.7,0.3,1.2,0.3
			C409.7,289.6,410.2,289.4,410.6,289.1z"/>
		<path class="st2" d="M417.4,283.6c0.4-0.3,1-0.4,1.6-0.4v1.3c-0.8,0-1.4,0.2-1.8,0.6s-0.7,1-0.8,1.7v3.9H415v-7.4h1.3v1.6
			C416.6,284.3,416.9,283.9,417.4,283.6z"/>
		<path class="st2" d="M431.9,283.9c0.5,0.5,0.7,1.2,0.7,2.1v4.6h-1.3v-4.2c0-0.6-0.2-1.1-0.5-1.5s-0.8-0.5-1.4-0.5
			c-0.7,0-1.3,0.3-1.7,0.7c-0.4,0.5-0.6,1.1-0.6,1.8v3.7h-1.3v-4.2c0-0.6-0.2-1.1-0.5-1.5c-0.3-0.4-0.8-0.5-1.4-0.5
			c-0.7,0-1.3,0.3-1.7,0.7c-0.4,0.5-0.6,1.1-0.6,1.8v3.7h-1.3v-7.4h1.3v1.6c0.5-1,1.4-1.6,2.8-1.6c0.7,0,1.2,0.2,1.7,0.5
			c0.5,0.3,0.8,0.8,0.9,1.4c0.5-1.2,1.4-1.8,2.9-1.9C430.8,283.2,431.5,283.4,431.9,283.9z"/>
		<path class="st2" d="M450.6,280.8h1.4l-3.3,9.8h-1.4l-2.5-8.1l-2.6,8.1h-1.4l-3.3-9.8h1.4l2.6,8.4l2.6-8.4h1.3l2.6,8.4
			L450.6,280.8z"/>
		<path class="st2" d="M457.1,290.6v-1c-0.6,0.7-1.4,1.1-2.6,1.1c-0.5,0-1-0.1-1.4-0.3c-0.4-0.2-0.7-0.5-0.9-0.8s-0.3-0.7-0.3-1.2
			c0-0.7,0.2-1.2,0.7-1.6c0.5-0.4,1.2-0.6,2.1-0.6h2.4v-0.4c0-0.5-0.2-0.9-0.5-1.2c-0.3-0.3-0.8-0.4-1.4-0.4c-0.7,0-1.5,0.3-2.3,0.8
			l-0.5-0.9c0.5-0.3,1-0.6,1.5-0.7s1-0.2,1.6-0.2c0.9,0,1.6,0.2,2.1,0.7c0.5,0.5,0.8,1.1,0.8,1.9l0,4.9H457.1z M456.4,289.1
			c0.4-0.3,0.7-0.7,0.8-1.2v-0.7h-2.2c-0.6,0-1,0.1-1.3,0.3c-0.3,0.2-0.4,0.5-0.4,0.8s0.1,0.7,0.4,0.9c0.3,0.2,0.7,0.3,1.2,0.3
			C455.4,289.6,455.9,289.4,456.4,289.1z"/>
		<path class="st2" d="M460.8,280.2h1.3v10.4h-1.3V280.2z"/>
		<path class="st2" d="M464.8,280.2h1.3v10.4h-1.3V280.2z"/>
		<path class="st2" d="M474.3,284.2c0.6,0.7,0.9,1.6,0.9,2.8c0,0.2,0,0.3,0,0.4h-5.9c0.1,0.7,0.4,1.2,0.8,1.6c0.5,0.4,1,0.6,1.7,0.6
			c0.4,0,0.8-0.1,1.2-0.2c0.4-0.2,0.7-0.4,1-0.7l0.7,0.7c-0.4,0.4-0.8,0.7-1.3,0.9c-0.5,0.2-1.1,0.3-1.7,0.3c-0.7,0-1.4-0.2-1.9-0.5
			c-0.6-0.3-1-0.8-1.3-1.3c-0.3-0.6-0.5-1.2-0.5-1.9c0-0.7,0.2-1.4,0.5-1.9c0.3-0.6,0.7-1,1.3-1.3c0.6-0.3,1.2-0.5,1.9-0.5
			C472.8,283.2,473.7,283.5,474.3,284.2z M474,286.4c0-0.7-0.3-1.2-0.7-1.6c-0.4-0.4-1-0.6-1.6-0.6c-0.7,0-1.2,0.2-1.6,0.6
			s-0.7,0.9-0.8,1.6H474z"/>
		<path class="st2" d="M480.9,290.1c-0.6,0.4-1.1,0.5-1.7,0.5c-0.6,0-1.1-0.2-1.4-0.5c-0.4-0.3-0.5-0.9-0.5-1.6v-4.1h-1v-1h1v-2h1.3
			v2h2.3v1h-2.3v3.9c0,0.4,0.1,0.7,0.2,0.9c0.1,0.2,0.4,0.3,0.7,0.3c0.4,0,0.7-0.1,1.1-0.3L480.9,290.1z"/>
	</g>
	<path id="Fill-1_1_" class="st3" d="M361.9,170.5h58.7c8.5,0,15.3,6.9,15.3,15.3v7.7c0,8.5-6.9,15.3-15.3,15.3h-58.7v43.4H511v-120
		H361.9V170.5z"/>
	<path id="Stroke-2_1_" class="st4" d="M361.9,132.2v38.3h35.2c8.5,0,15.3,6.9,15.3,15.3v7.7c0,8.5-6.9,15.3-15.3,15.3h-35.2v43.4
		H511v-120H361.9L361.9,132.2z"/>
	<polygon id="Fill-41_1_" class="st3" points="511,132.2 518.7,132.2 518.7,252.2 511,252.2 	"/>
	<polygon id="Stroke-42_1_" class="st5" points="511,132.2 518.7,132.2 518.7,252.2 511,252.2 	"/>
	<path id="Stroke-44_2_" class="st5" d="M398.1,170.5h-41c-6.7,0-12.1,5.4-12.1,12.1V219c0-5.6,4.6-10.2,10.2-10.2h42.9
		c8.5,0,15.3-6.9,15.3-15.3v-7.7C413.4,177.3,406.5,170.5,398.1,170.5L398.1,170.5z"/>
	<path id="Stroke-46_1_" class="st6" d="M361.9,208.8h-7.3c-5.3,0-9.7,4.4-9.7,9.7s4.4,9.7,9.7,9.7h7.3V208.8L361.9,208.8z"/>
	<path id="Stroke-48_1_" class="st6" d="M366.8,208.8h-4.9v19.5c12.5-0.3,23.2-8.3,27.4-19.5H366.8L366.8,208.8z"/>
	<path id="Stroke-50_1_" class="st6" d="M361.9,154.2v16.2h25.9C382.9,161,373.2,154.5,361.9,154.2z"/>
	<path id="Stroke-51_1_" class="st7" d="M396.5,170.5v38.3"/>
	<path id="Fill-52_1_" class="st8" d="M511,231.7c-11.3,0-20.4,9.1-20.4,20.4H511V231.7L511,231.7z"/>
	<path id="Stroke-53_1_" class="st6" d="M511,231.7c-11.3,0-20.4,9.1-20.4,20.4H511V231.7L511,231.7z"/>
	<path id="Fill-54_1_" class="st8" d="M490.6,132.2c0,11.3,9.1,20.4,20.4,20.4v-20.4H490.6L490.6,132.2z"/>
	<path id="Stroke-55_1_" class="st6" d="M490.6,132.2c0,11.3,9.1,20.4,20.4,20.4v-20.4H490.6L490.6,132.2z"/>
	<circle class="st9" cx="457" cy="192.2" r="26"/>
	<path class="st10" d="M457,179.7c-6.9,0-12.5,5.6-12.5,12.5c0,6.9,5.6,12.5,12.5,12.5s12.5-5.6,12.5-12.5S463.9,179.7,457,179.7
		L457,179.7z M457,181.7c0.4,0,0.8,0.2,1.3,0.6c0.5,0.5,1,1.2,1.4,2.1c0.3,0.7,0.6,1.6,0.8,2.5h-7.1c0.2-0.9,0.5-1.8,0.8-2.5
		c0.4-0.9,0.9-1.7,1.4-2.1C456.2,181.9,456.6,181.7,457,181.7L457,181.7z M452.9,182.6c-0.2,0.3-0.4,0.7-0.6,1.1
		c-0.4,1-0.8,2.1-1.1,3.3H448C449.1,185,450.9,183.5,452.9,182.6L452.9,182.6z M461.1,182.6c2.1,0.9,3.8,2.4,4.9,4.4h-3.3
		c-0.3-1.2-0.6-2.3-1.1-3.3C461.5,183.2,461.3,182.9,461.1,182.6L461.1,182.6z M447.1,189h3.9c-0.1,1-0.2,2-0.2,3.1
		c0,1.1,0.1,2.1,0.2,3.1h-3.9c-0.3-1-0.5-2-0.5-3.1C446.6,191.1,446.8,190,447.1,189L447.1,189z M453.1,189h7.9c0.1,1,0.2,2,0.2,3.1
		s-0.1,2.1-0.2,3.1h-7.9c-0.1-1-0.2-2-0.2-3.1S453,190,453.1,189L453.1,189z M463.1,189h3.9c0.3,1,0.5,2,0.5,3.1
		c0,1.1-0.2,2.1-0.5,3.1h-3.9c0.1-1,0.2-2,0.2-3.1C463.3,191.1,463.2,190,463.1,189L463.1,189z M448,197.4h3.3
		c0.3,1.2,0.6,2.3,1.1,3.3c0.2,0.4,0.4,0.7,0.6,1.1C450.9,200.9,449.1,199.3,448,197.4L448,197.4z M453.5,197.4h7.1
		c-0.2,0.9-0.5,1.8-0.8,2.5c-0.4,0.9-0.9,1.7-1.4,2.1c-0.5,0.4-0.9,0.6-1.3,0.6c-0.4,0-0.8-0.2-1.3-0.6c-0.5-0.5-1-1.2-1.4-2.1
		C454,199.1,453.7,198.3,453.5,197.4L453.5,197.4z M462.7,197.4h3.3c-1.1,1.9-2.9,3.5-4.9,4.4c0.2-0.3,0.4-0.7,0.6-1.1
		C462.1,199.7,462.5,198.6,462.7,197.4L462.7,197.4z"/>
</g>
<g>
	<g>
		<g>
			<path class="st2" d="M679.5,177.3l-1.9-3.1c-0.2,0-0.4,0-0.5,0h-2.5v3.1h-1.3v-9.8h3.8c1.2,0,2.2,0.3,2.9,0.9s1,1.4,1,2.4
				c0,0.8-0.2,1.5-0.6,2c-0.4,0.5-0.9,0.9-1.6,1.2l2.3,3.3H679.5z M677,173c0.8,0,1.5-0.2,1.9-0.6c0.4-0.4,0.7-0.9,0.7-1.6
				c0-0.7-0.2-1.2-0.7-1.6c-0.4-0.4-1.1-0.5-1.9-0.5h-2.5v4.3H677z"/>
			<path class="st2" d="M688.8,170.8c0.6,0.7,0.9,1.6,0.9,2.8c0,0.2,0,0.3,0,0.4h-5.9c0.1,0.7,0.4,1.2,0.8,1.6
				c0.5,0.4,1,0.6,1.7,0.6c0.4,0,0.8-0.1,1.2-0.2c0.4-0.2,0.7-0.4,1-0.7l0.7,0.7c-0.4,0.4-0.8,0.7-1.3,0.9c-0.5,0.2-1.1,0.3-1.7,0.3
				c-0.7,0-1.4-0.2-1.9-0.5c-0.6-0.3-1-0.8-1.3-1.3c-0.3-0.6-0.5-1.2-0.5-1.9c0-0.7,0.2-1.4,0.5-1.9c0.3-0.6,0.7-1,1.3-1.3
				c0.6-0.3,1.2-0.5,1.9-0.5C687.3,169.8,688.2,170.1,688.8,170.8z M688.5,173.1c0-0.7-0.3-1.2-0.7-1.6c-0.4-0.4-1-0.6-1.6-0.6
				c-0.7,0-1.2,0.2-1.6,0.6c-0.4,0.4-0.7,0.9-0.8,1.6H688.5z"/>
			<path class="st2" d="M694.5,171c-0.5,0-0.9,0.1-1.3,0.3s-0.7,0.5-0.9,0.9c-0.2,0.4-0.3,0.8-0.3,1.4c0,0.5,0.1,1,0.3,1.4
				c0.2,0.4,0.5,0.7,0.9,0.9c0.4,0.2,0.8,0.3,1.3,0.3c0.5,0,0.9-0.1,1.3-0.2c0.4-0.2,0.7-0.4,1-0.7l0.7,0.8c-0.3,0.4-0.8,0.7-1.3,1
				c-0.5,0.2-1.1,0.3-1.8,0.3c-0.7,0-1.4-0.2-1.9-0.5c-0.6-0.3-1-0.8-1.3-1.3c-0.3-0.6-0.5-1.2-0.5-1.9c0-0.7,0.2-1.4,0.5-1.9
				s0.7-1,1.3-1.3c0.6-0.3,1.2-0.5,1.9-0.5c0.6,0,1.2,0.1,1.7,0.3s0.9,0.5,1.3,0.8l-0.7,0.9C696,171.3,695.3,171,694.5,171z"/>
			<path class="st2" d="M704.5,170.8c0.6,0.7,0.9,1.6,0.9,2.8c0,0.2,0,0.3,0,0.4h-5.9c0.1,0.7,0.4,1.2,0.8,1.6
				c0.5,0.4,1,0.6,1.7,0.6c0.4,0,0.8-0.1,1.2-0.2c0.4-0.2,0.7-0.4,1-0.7l0.7,0.7c-0.4,0.4-0.8,0.7-1.3,0.9s-1.1,0.3-1.7,0.3
				c-0.7,0-1.4-0.2-1.9-0.5c-0.6-0.3-1-0.8-1.3-1.3s-0.5-1.2-0.5-1.9c0-0.7,0.2-1.4,0.5-1.9c0.3-0.6,0.7-1,1.3-1.3
				c0.6-0.3,1.2-0.5,1.9-0.5C703.1,169.8,704,170.1,704.5,170.8z M704.3,173.1c0-0.7-0.3-1.2-0.7-1.6c-0.4-0.4-1-0.6-1.6-0.6
				c-0.7,0-1.2,0.2-1.6,0.6c-0.4,0.4-0.7,0.9-0.8,1.6H704.3z"/>
			<path class="st2" d="M708.4,167.1c0.2,0.2,0.2,0.4,0.2,0.6c0,0.2-0.1,0.4-0.2,0.6c-0.2,0.2-0.3,0.2-0.6,0.2s-0.4-0.1-0.6-0.2
				c-0.2-0.2-0.2-0.4-0.2-0.6c0-0.2,0.1-0.4,0.2-0.6c0.2-0.2,0.3-0.2,0.6-0.2S708.3,167,708.4,167.1z M707.2,169.8h1.3v7.4h-1.3
				V169.8z"/>
			<path class="st2" d="M709.8,169.8h1.4l2.2,6.1l2.2-6.1h1.3l-2.9,7.4h-1.4L709.8,169.8z"/>
			<path class="st2" d="M723.5,170.8c0.6,0.7,0.9,1.6,0.9,2.8c0,0.2,0,0.3,0,0.4h-5.9c0.1,0.7,0.4,1.2,0.8,1.6
				c0.5,0.4,1,0.6,1.7,0.6c0.4,0,0.8-0.1,1.2-0.2c0.4-0.2,0.7-0.4,1-0.7l0.7,0.7c-0.4,0.4-0.8,0.7-1.3,0.9c-0.5,0.2-1.1,0.3-1.7,0.3
				c-0.7,0-1.4-0.2-1.9-0.5c-0.6-0.3-1-0.8-1.3-1.3c-0.3-0.6-0.5-1.2-0.5-1.9c0-0.7,0.2-1.4,0.5-1.9c0.3-0.6,0.7-1,1.3-1.3
				c0.6-0.3,1.2-0.5,1.9-0.5C722,169.8,722.9,170.1,723.5,170.8z M723.2,173.1c0-0.7-0.3-1.2-0.7-1.6c-0.4-0.4-1-0.6-1.6-0.6
				c-0.7,0-1.2,0.2-1.6,0.6c-0.4,0.4-0.7,0.9-0.8,1.6H723.2z"/>
			<path class="st2" d="M741.7,167.5h1.4l-3.3,9.8h-1.4l-2.5-8.1l-2.6,8.1h-1.4l-3.3-9.8h1.4l2.6,8.4l2.6-8.4h1.3l2.6,8.4
				L741.7,167.5z"/>
			<path class="st2" d="M748.3,177.3v-1c-0.6,0.7-1.4,1.1-2.6,1.1c-0.5,0-1-0.1-1.4-0.3c-0.4-0.2-0.7-0.5-0.9-0.8
				c-0.2-0.3-0.3-0.7-0.3-1.2c0-0.7,0.2-1.2,0.7-1.6s1.2-0.6,2.1-0.6h2.4v-0.4c0-0.5-0.2-0.9-0.5-1.2c-0.3-0.3-0.8-0.4-1.4-0.4
				c-0.7,0-1.5,0.3-2.3,0.8l-0.5-0.9c0.5-0.3,1-0.6,1.5-0.7c0.5-0.2,1-0.2,1.6-0.2c0.9,0,1.6,0.2,2.1,0.7c0.5,0.5,0.8,1.1,0.8,1.9
				l0,4.9H748.3z M747.5,175.8c0.4-0.3,0.7-0.7,0.8-1.2v-0.7h-2.2c-0.6,0-1,0.1-1.3,0.3c-0.3,0.2-0.4,0.5-0.4,0.8
				c0,0.4,0.1,0.7,0.4,0.9c0.3,0.2,0.7,0.3,1.2,0.3C746.6,176.2,747.1,176.1,747.5,175.8z"/>
			<path class="st2" d="M752,166.9h1.3v10.4H752V166.9z"/>
			<path class="st2" d="M756,166.9h1.3v10.4H756V166.9z"/>
			<path class="st2" d="M765.5,170.8c0.6,0.7,0.9,1.6,0.9,2.8c0,0.2,0,0.3,0,0.4h-5.9c0.1,0.7,0.4,1.2,0.8,1.6
				c0.5,0.4,1,0.6,1.7,0.6c0.4,0,0.8-0.1,1.2-0.2c0.4-0.2,0.7-0.4,1-0.7l0.7,0.7c-0.4,0.4-0.8,0.7-1.3,0.9s-1.1,0.3-1.7,0.3
				c-0.7,0-1.4-0.2-1.9-0.5c-0.6-0.3-1-0.8-1.3-1.3s-0.5-1.2-0.5-1.9c0-0.7,0.2-1.4,0.5-1.9c0.3-0.6,0.7-1,1.3-1.3
				c0.6-0.3,1.2-0.5,1.9-0.5C764,169.8,764.9,170.1,765.5,170.8z M765.2,173.1c0-0.7-0.3-1.2-0.7-1.6c-0.4-0.4-1-0.6-1.6-0.6
				c-0.7,0-1.2,0.2-1.6,0.6c-0.4,0.4-0.7,0.9-0.8,1.6H765.2z"/>
			<path class="st2" d="M772.1,176.8c-0.6,0.4-1.1,0.5-1.7,0.5c-0.6,0-1.1-0.2-1.4-0.5c-0.4-0.3-0.5-0.9-0.5-1.6v-4.1h-1v-1h1v-2
				h1.3v2h2.3v1h-2.3v3.9c0,0.4,0.1,0.7,0.2,0.9c0.1,0.2,0.4,0.3,0.7,0.3c0.4,0,0.7-0.1,1.1-0.3L772.1,176.8z"/>
		</g>
		<g>
			<path id="Fill-1_2_" class="st3" d="M647.5,57.1h58.7c8.5,0,15.3,6.9,15.3,15.3v7.7c0,8.5-6.9,15.3-15.3,15.3h-58.7v43.4h149.1
				v-120H647.5V57.1z"/>
			<path id="Stroke-2_2_" class="st11" d="M647.5,18.8v38.3h35.2c8.5,0,15.3,6.9,15.3,15.3v7.7c0,8.5-6.9,15.3-15.3,15.3h-35.2v43.4
				h149.1v-120H647.5L647.5,18.8z"/>
			<polygon id="Fill-41_2_" class="st3" points="796.7,18.8 804.3,18.8 804.3,138.8 796.7,138.8 			"/>
			<polygon id="Stroke-42_2_" class="st5" points="796.7,18.8 804.3,18.8 804.3,138.8 796.7,138.8 			"/>
			<path id="Stroke-44_3_" class="st5" d="M683.7,57.1h-41c-6.7,0-12.1,5.4-12.1,12.1v36.4c0-5.6,4.6-10.2,10.2-10.2h42.9
				c8.5,0,15.3-6.9,15.3-15.3v-7.7C699,64,692.2,57.1,683.7,57.1L683.7,57.1z"/>
			<path id="Stroke-46_2_" class="st12" d="M647.5,95.4h-7.3c-5.3,0-9.7,4.4-9.7,9.7s4.4,9.7,9.7,9.7h7.3V95.4L647.5,95.4z"/>
			<path id="Stroke-48_2_" class="st12" d="M652.4,95.4h-4.9v19.5c12.5-0.3,23.2-8.3,27.4-19.5H652.4L652.4,95.4z"/>
			<path id="Stroke-50_2_" class="st12" d="M647.5,40.9v16.2h25.9C668.6,47.7,658.8,41.2,647.5,40.9z"/>
			<path id="Stroke-51_2_" class="st7" d="M682.1,57.1v38.3"/>
			<path id="Fill-52_2_" class="st8" d="M796.7,118.4c-11.3,0-20.4,9.1-20.4,20.4h20.4V118.4L796.7,118.4z"/>
			<path id="Stroke-53_2_" class="st12" d="M796.7,118.4c-11.3,0-20.4,9.1-20.4,20.4h20.4V118.4L796.7,118.4z"/>
			<path id="Fill-54_2_" class="st8" d="M776.2,18.8c0,11.3,9.1,20.4,20.4,20.4V18.8H776.2L776.2,18.8z"/>
			<path id="Stroke-55_2_" class="st12" d="M776.2,18.8c0,11.3,9.1,20.4,20.4,20.4V18.8H776.2L776.2,18.8z"/>
			<circle class="st9" cx="742.7" cy="78.8" r="26"/>
			<polygon class="st13" points="742.7,87.9 750.2,74.9 735.2,74.9 			"/>
		</g>
	</g>
	<g>
		<g>
			<path class="st2" d="M686.2,386.9c-0.5-0.1-0.9-0.2-1.4-0.2c-0.6,0-1,0.1-1.4,0.3s-0.5,0.5-0.5,0.9c0,0.3,0.1,0.6,0.3,0.8
				c0.2,0.2,0.5,0.4,0.8,0.5c0.3,0.1,0.7,0.3,1.2,0.4c0.7,0.2,1.2,0.4,1.6,0.6c0.4,0.2,0.8,0.5,1.1,0.8c0.3,0.4,0.4,0.9,0.4,1.5
				c0,0.6-0.2,1.1-0.5,1.5c-0.3,0.4-0.7,0.7-1.3,1c-0.5,0.2-1.2,0.3-1.9,0.3c-0.7,0-1.4-0.1-2.1-0.4c-0.7-0.3-1.3-0.7-1.8-1.1
				l0.6-1.2c0.5,0.5,1,0.8,1.6,1.1c0.6,0.2,1.2,0.4,1.7,0.4c0.7,0,1.2-0.1,1.5-0.4c0.4-0.3,0.6-0.6,0.6-1c0-0.3-0.1-0.6-0.3-0.9
				c-0.2-0.2-0.5-0.4-0.8-0.5s-0.7-0.3-1.3-0.4c-0.7-0.2-1.2-0.4-1.6-0.6c-0.4-0.2-0.8-0.5-1-0.8c-0.3-0.4-0.4-0.8-0.4-1.4
				c0-0.5,0.1-1,0.4-1.4c0.3-0.4,0.7-0.7,1.2-0.9s1.1-0.3,1.8-0.3c0.6,0,1.2,0.1,1.7,0.3c0.6,0.2,1.1,0.4,1.5,0.7l-0.6,1.2
				C687.2,387.2,686.7,387,686.2,386.9z"/>
			<path class="st2" d="M696,388.8c0.6,0.7,0.9,1.6,0.9,2.8c0,0.2,0,0.3,0,0.4H691c0.1,0.7,0.4,1.2,0.8,1.6c0.5,0.4,1,0.6,1.7,0.6
				c0.4,0,0.8-0.1,1.2-0.2s0.7-0.4,1-0.7l0.7,0.7c-0.4,0.4-0.8,0.7-1.3,0.9s-1.1,0.3-1.7,0.3c-0.7,0-1.4-0.2-1.9-0.5
				c-0.6-0.3-1-0.8-1.3-1.3s-0.5-1.2-0.5-1.9c0-0.7,0.2-1.4,0.5-1.9c0.3-0.6,0.7-1,1.3-1.3c0.6-0.3,1.2-0.5,1.9-0.5
				C694.6,387.8,695.4,388.2,696,388.8z M695.7,391.1c0-0.7-0.3-1.2-0.7-1.6c-0.4-0.4-1-0.6-1.6-0.6c-0.7,0-1.2,0.2-1.6,0.6
				c-0.4,0.4-0.7,0.9-0.8,1.6H695.7z"/>
			<path class="st2" d="M704.8,388.6c0.5,0.5,0.7,1.2,0.7,2.1v4.6h-1.3v-4.2c0-0.6-0.2-1.1-0.5-1.5c-0.4-0.4-0.8-0.5-1.4-0.5
				c-0.7,0-1.2,0.2-1.6,0.6c-0.4,0.4-0.7,1-0.7,1.6v4h-1.3v-7.4h1.3v1.6c0.5-1.1,1.4-1.6,2.8-1.6
				C703.7,387.8,704.3,388.1,704.8,388.6z"/>
			<path class="st2" d="M714.8,384.9v10.4h-1.3v-1.5c-0.3,0.5-0.7,0.9-1.1,1.1c-0.5,0.3-1,0.4-1.6,0.4c-0.7,0-1.3-0.2-1.9-0.5
				c-0.5-0.3-1-0.8-1.3-1.3c-0.3-0.6-0.4-1.2-0.4-2c0-0.7,0.1-1.4,0.4-1.9c0.3-0.6,0.7-1,1.3-1.3c0.5-0.3,1.1-0.5,1.8-0.5
				c0.6,0,1.2,0.1,1.7,0.4c0.5,0.3,0.8,0.6,1.1,1.1v-4.5H714.8z M712.3,393.9c0.4-0.2,0.7-0.5,0.9-0.9s0.3-0.9,0.3-1.4
				c0-0.5-0.1-1-0.3-1.4c-0.2-0.4-0.5-0.7-0.9-0.9s-0.8-0.3-1.3-0.3c-0.5,0-0.9,0.1-1.3,0.3c-0.4,0.2-0.7,0.5-0.9,0.9
				s-0.3,0.9-0.3,1.4s0.1,1,0.3,1.4s0.5,0.7,0.9,0.9c0.4,0.2,0.8,0.3,1.3,0.3C711.5,394.2,711.9,394.1,712.3,393.9z"/>
			<path class="st2" d="M733,385.5h1.4l-3.3,9.8h-1.4l-2.5-8.1l-2.6,8.1h-1.4l-3.3-9.8h1.4l2.6,8.4l2.6-8.4h1.3l2.6,8.4L733,385.5z"
				/>
			<path class="st2" d="M739.6,395.3v-1c-0.6,0.7-1.4,1.1-2.6,1.1c-0.5,0-1-0.1-1.4-0.3c-0.4-0.2-0.7-0.5-0.9-0.8s-0.3-0.7-0.3-1.2
				c0-0.7,0.2-1.2,0.7-1.6s1.2-0.6,2.1-0.6h2.4v-0.3c0-0.5-0.2-0.9-0.5-1.2c-0.3-0.3-0.8-0.4-1.4-0.4c-0.7,0-1.5,0.3-2.3,0.8
				l-0.5-0.9c0.5-0.3,1-0.6,1.5-0.7c0.5-0.2,1-0.2,1.6-0.2c0.9,0,1.6,0.2,2.1,0.7c0.5,0.5,0.8,1.1,0.8,1.9l0,4.9H739.6z
				 M738.8,393.8c0.4-0.3,0.7-0.7,0.8-1.2v-0.7h-2.2c-0.6,0-1,0.1-1.3,0.3c-0.3,0.2-0.4,0.5-0.4,0.8c0,0.4,0.1,0.7,0.4,0.9
				c0.3,0.2,0.7,0.3,1.2,0.3C737.8,394.3,738.3,394.1,738.8,393.8z"/>
			<path class="st2" d="M743.2,384.9h1.3v10.4h-1.3V384.9z"/>
			<path class="st2" d="M747.2,384.9h1.3v10.4h-1.3V384.9z"/>
			<path class="st2" d="M756.7,388.8c0.6,0.7,0.9,1.6,0.9,2.8c0,0.2,0,0.3,0,0.4h-5.9c0.1,0.7,0.4,1.2,0.8,1.6
				c0.5,0.4,1,0.6,1.7,0.6c0.4,0,0.8-0.1,1.2-0.2s0.7-0.4,1-0.7l0.7,0.7c-0.4,0.4-0.8,0.7-1.3,0.9s-1.1,0.3-1.7,0.3
				c-0.7,0-1.4-0.2-1.9-0.5c-0.6-0.3-1-0.8-1.3-1.3s-0.5-1.2-0.5-1.9c0-0.7,0.2-1.4,0.5-1.9c0.3-0.6,0.7-1,1.3-1.3
				c0.6-0.3,1.2-0.5,1.9-0.5C755.3,387.8,756.1,388.2,756.7,388.8z M756.4,391.1c0-0.7-0.3-1.2-0.7-1.6c-0.4-0.4-1-0.6-1.6-0.6
				c-0.7,0-1.2,0.2-1.6,0.6c-0.4,0.4-0.7,0.9-0.8,1.6H756.4z"/>
			<path class="st2" d="M763.3,394.8c-0.6,0.4-1.1,0.5-1.7,0.5c-0.6,0-1.1-0.2-1.4-0.5c-0.4-0.3-0.5-0.9-0.5-1.6v-4.1h-1v-1h1v-2
				h1.3v2h2.3v1H761v3.9c0,0.4,0.1,0.7,0.2,0.9s0.4,0.3,0.7,0.3c0.4,0,0.7-0.1,1.1-0.4L763.3,394.8z"/>
		</g>
		<g>
			<path id="Fill-1_3_" class="st3" d="M647.5,275.1h58.7c8.5,0,15.3,6.9,15.3,15.3v7.7c0,8.5-6.9,15.3-15.3,15.3h-58.7v43.4h149.1
				v-120H647.5V275.1z"/>
			<path id="Stroke-2_3_" class="st11" d="M647.5,236.8v38.3h35.2c8.5,0,15.3,6.9,15.3,15.3v7.7c0,8.5-6.9,15.3-15.3,15.3h-35.2
				v43.4h149.1v-120H647.5L647.5,236.8z"/>
			<polygon id="Fill-41_3_" class="st3" points="796.7,236.8 804.3,236.8 804.3,356.8 796.7,356.8 			"/>
			<polygon id="Stroke-42_3_" class="st5" points="796.7,236.8 804.3,236.8 804.3,356.8 796.7,356.8 			"/>
			<path id="Stroke-44_4_" class="st5" d="M683.7,275.1h-41c-6.7,0-12.1,5.4-12.1,12.1v36.4c0-5.6,4.6-10.2,10.2-10.2h42.9
				c8.5,0,15.3-6.9,15.3-15.3v-7.7C699,282,692.2,275.1,683.7,275.1L683.7,275.1z"/>
			<path id="Stroke-46_3_" class="st12" d="M647.5,313.4h-7.3c-5.3,0-9.7,4.4-9.7,9.7c0,5.3,4.4,9.7,9.7,9.7h7.3V313.4L647.5,313.4z
				"/>
			<path id="Stroke-48_3_" class="st12" d="M652.4,313.4h-4.9v19.5c12.5-0.3,23.2-8.3,27.4-19.5H652.4L652.4,313.4z"/>
			<path id="Stroke-50_3_" class="st12" d="M647.5,258.9v16.2h25.9C668.6,265.7,658.8,259.2,647.5,258.9z"/>
			<path id="Stroke-51_3_" class="st7" d="M682.1,275.1v38.3"/>
			<path id="Fill-52_3_" class="st8" d="M796.7,336.4c-11.3,0-20.4,9.1-20.4,20.4h20.4V336.4L796.7,336.4z"/>
			<path id="Stroke-53_3_" class="st12" d="M796.7,336.4c-11.3,0-20.4,9.1-20.4,20.4h20.4V336.4L796.7,336.4z"/>
			<path id="Fill-54_3_" class="st8" d="M776.2,236.8c0,11.3,9.1,20.4,20.4,20.4v-20.4H776.2L776.2,236.8z"/>
			<path id="Stroke-55_3_" class="st12" d="M776.2,236.8c0,11.3,9.1,20.4,20.4,20.4v-20.4H776.2L776.2,236.8z"/>
			<circle class="st9" cx="742.7" cy="296.8" r="26"/>
			<polygon class="st13" points="742.7,290.3 735.2,303.3 750.2,303.3 			"/>
		</g>
	</g>
</g>
<g>
	<g>
		<line class="st14" x1="334.1" y1="152.6" x2="289.3" y2="152.6"/>
		<g>
			<polygon class="st15" points="332.7,147.6 341.3,152.6 332.7,157.6 			"/>
		</g>
	</g>
</g>
<g>
	<g>
		<line class="st14" x1="296.5" y1="236.8" x2="341.3" y2="236.8"/>
		<g>
			<polygon class="st15" points="297.9,241.8 289.3,236.8 297.9,231.8 			"/>
		</g>
	</g>
</g>
<g>
	<g>
		<path class="st14" d="M634.6,130.2c0,12.3-10,22.4-22.4,22.4h-72.7"/>
		<g>
			<polygon class="st15" points="541,147.6 532.3,152.6 541,157.6 			"/>
		</g>
	</g>
</g>
<g>
	<g>
		<path class="st14" d="M633.4,252.1c-3-8.9-11.3-15.3-21.2-15.3h-79.9"/>
		<g>
			<polygon class="st15" points="637.9,249.8 634.6,259.2 628.1,251.6 			"/>
		</g>
	</g>
</g>
<g>
	<g>
		<g>
			<line class="st14" x1="1105.7" y1="78.9" x2="829.1" y2="78.9"/>
			<g>
				<polygon class="st15" points="830.6,74 821.9,78.9 830.6,83.9 				"/>
			</g>
		</g>
	</g>
	<g>
		<path class="st16" d="M1046.3,98.9H893.9c-11,0-20-9-20-20v0c0-11,9-20,20-20h152.5c11,0,20,9,20,20v0
			C1066.3,90,1057.4,98.9,1046.3,98.9z"/>
		<g>
			<g>
				<path class="st10" d="M949.9,74.8c0.8,0.4,1.4,1,1.8,1.7c0.4,0.7,0.7,1.6,0.7,2.6c0,1-0.2,1.8-0.7,2.6c-0.4,0.7-1.1,1.3-1.9,1.7
					c-0.8,0.4-1.7,0.6-2.8,0.6H943v-9.8h4.2C948.2,74.2,949.1,74.4,949.9,74.8z M948.6,81.6c0.4-0.2,0.7-0.6,0.9-1
					c0.2-0.4,0.3-0.9,0.3-1.5c0-0.6-0.1-1.1-0.3-1.5c-0.2-0.4-0.5-0.8-0.9-1c-0.4-0.2-0.9-0.4-1.4-0.4h-1.6V82h1.7
					C947.8,82,948.2,81.8,948.6,81.6z"/>
				<path class="st10" d="M959.9,77.5c0.7,0.7,1,1.7,1,3c0,0.2,0,0.3,0,0.4h-5.3c0.1,0.4,0.3,0.8,0.6,1c0.3,0.2,0.7,0.3,1.1,0.3
					c0.3,0,0.6-0.1,0.9-0.2c0.3-0.1,0.6-0.3,0.8-0.6l1.3,1.3c-0.4,0.4-0.9,0.8-1.4,1c-0.6,0.2-1.2,0.3-1.9,0.3
					c-0.8,0-1.5-0.2-2.1-0.5s-1.1-0.8-1.4-1.3c-0.3-0.6-0.5-1.3-0.5-2c0-0.8,0.2-1.5,0.5-2.1s0.8-1,1.4-1.4c0.6-0.3,1.3-0.5,2.1-0.5
					C958.3,76.4,959.2,76.7,959.9,77.5z M958.4,79.6c0-0.4-0.1-0.8-0.4-1.1c-0.3-0.3-0.6-0.4-1-0.4c-0.4,0-0.7,0.1-1,0.4
					c-0.3,0.3-0.4,0.6-0.5,1.1H958.4z"/>
				<path class="st10" d="M968.8,76.8c0.5,0.3,0.9,0.8,1.2,1.4s0.4,1.3,0.4,2.1c0,0.8-0.1,1.4-0.4,2c-0.3,0.6-0.7,1-1.2,1.3
					s-1.1,0.5-1.8,0.5c-0.5,0-0.9-0.1-1.3-0.3c-0.4-0.2-0.7-0.4-1-0.8v3.7h-2.5V76.4h2.5v1c0.6-0.7,1.3-1.1,2.2-1.1
					C967.6,76.4,968.2,76.5,968.8,76.8z M967.5,81.6c0.3-0.3,0.5-0.8,0.5-1.4c0-0.6-0.2-1-0.5-1.4c-0.3-0.4-0.7-0.5-1.2-0.5
					c-0.5,0-0.9,0.2-1.2,0.5c-0.3,0.3-0.4,0.8-0.4,1.4c0,0.6,0.1,1,0.4,1.4c0.3,0.3,0.7,0.5,1.2,0.5
					C966.8,82.1,967.2,81.9,967.5,81.6z"/>
				<path class="st10" d="M977.4,76.8c0.6,0.3,1.1,0.8,1.5,1.4c0.3,0.6,0.5,1.3,0.5,2c0,0.8-0.2,1.5-0.5,2c-0.3,0.6-0.8,1-1.5,1.4
					c-0.6,0.3-1.3,0.5-2.2,0.5s-1.5-0.2-2.2-0.5c-0.6-0.3-1.1-0.8-1.4-1.4s-0.5-1.3-0.5-2c0-0.8,0.2-1.4,0.5-2
					c0.3-0.6,0.8-1,1.4-1.4c0.6-0.3,1.3-0.5,2.2-0.5S976.8,76.5,977.4,76.8z M974.1,78.9c-0.3,0.3-0.4,0.8-0.4,1.4
					c0,0.6,0.1,1,0.4,1.4c0.3,0.3,0.7,0.5,1.2,0.5c0.5,0,0.9-0.2,1.2-0.5c0.3-0.3,0.4-0.8,0.4-1.4c0-0.6-0.2-1-0.5-1.4
					c-0.3-0.3-0.7-0.5-1.2-0.5S974.4,78.6,974.1,78.9z"/>
				<path class="st10" d="M983.3,78.1c-0.2,0-0.4,0-0.5,0.1s-0.2,0.2-0.2,0.4c0,0.2,0.1,0.3,0.3,0.4c0.2,0.1,0.5,0.2,1,0.3
					c0.5,0.2,1,0.3,1.4,0.5c0.4,0.2,0.7,0.4,0.9,0.7c0.3,0.3,0.4,0.7,0.4,1.2c0,0.8-0.3,1.4-0.9,1.8s-1.4,0.7-2.3,0.7
					c-0.6,0-1.3-0.1-1.8-0.3c-0.6-0.2-1.1-0.5-1.6-0.8l0.8-1.6c0.4,0.3,0.9,0.5,1.4,0.7c0.5,0.2,0.9,0.2,1.3,0.2
					c0.2,0,0.4,0,0.6-0.1s0.2-0.2,0.2-0.3c0-0.2-0.1-0.3-0.3-0.4s-0.5-0.2-1-0.3c-0.5-0.2-1-0.3-1.3-0.5c-0.3-0.2-0.6-0.4-0.9-0.7
					c-0.3-0.3-0.4-0.7-0.4-1.2c0-0.8,0.3-1.4,0.9-1.8c0.6-0.4,1.3-0.7,2.2-0.7c0.6,0,1.1,0.1,1.6,0.2s1,0.4,1.5,0.7l-0.8,1.6
					C984.7,78.3,983.9,78.1,983.3,78.1z"/>
				<path class="st10" d="M990.1,73.3c0.2,0.2,0.4,0.6,0.4,1c0,0.4-0.1,0.7-0.4,1c-0.2,0.3-0.6,0.4-0.9,0.4s-0.7-0.1-0.9-0.4
					s-0.4-0.6-0.4-1c0-0.4,0.1-0.7,0.4-1c0.2-0.2,0.6-0.4,0.9-0.4S989.8,73.1,990.1,73.3z M987.9,76.4h2.5V84h-2.5V76.4z"/>
				<path class="st10" d="M997.2,83.6c-0.3,0.2-0.6,0.3-1,0.4c-0.4,0.1-0.7,0.1-1.1,0.1c-0.7,0-1.4-0.2-1.8-0.6
					c-0.5-0.4-0.7-1-0.7-1.8v-3.2h-1v-1.7h1v-2.1h2.5v2.1h2v1.7h-2v2.9c0,0.5,0.2,0.8,0.7,0.8c0.3,0,0.6-0.1,1-0.3L997.2,83.6z"/>
			</g>
		</g>
	</g>
</g>
<g>
	<g>
		<line class="st14" x1="1104.8" y1="296.8" x2="828.3" y2="296.8"/>
		<g>
			<polygon class="st15" points="1103.3,291.8 1112,296.8 1103.3,301.8 			"/>
		</g>
	</g>
</g>
<g>
	<path class="st16" d="M1046.3,316.8H893.9c-11,0-20-9-20-20v0c0-11,9-20,20-20h152.5c11,0,20,9,20,20v0
		C1066.3,307.9,1057.4,316.8,1046.3,316.8z"/>
	<g>
		<g>
			<path class="st10" d="M936.5,292.1h2.6l-3.3,9.8h-2.6l-1.9-6.7l-1.9,6.7h-2.6l-3.3-9.8h2.8l1.9,7.2l1.9-7.2h2.5l2,7.2
				L936.5,292.1z"/>
			<path class="st10" d="M942.2,291.2c0.2,0.2,0.4,0.6,0.4,1c0,0.4-0.1,0.7-0.4,1s-0.6,0.4-0.9,0.4s-0.7-0.1-0.9-0.4
				c-0.2-0.3-0.4-0.6-0.4-1c0-0.4,0.1-0.7,0.4-1c0.2-0.2,0.6-0.4,0.9-0.4S941.9,291,942.2,291.2z M940,294.3h2.5v7.6H940V294.3z"/>
			<path class="st10" d="M949.3,301.5c-0.3,0.2-0.6,0.3-1,0.4c-0.4,0.1-0.7,0.1-1.1,0.1c-0.7,0-1.4-0.2-1.8-0.6
				c-0.5-0.4-0.7-1-0.7-1.8v-3.2h-1v-1.7h1v-2.1h2.5v2.1h2v1.7h-2v2.9c0,0.5,0.2,0.8,0.7,0.8c0.3,0,0.6-0.1,1-0.3L949.3,301.5z"/>
			<path class="st10" d="M957.6,295c0.5,0.5,0.7,1.2,0.7,2.1v4.8h-2.5v-4.1c0-0.4-0.1-0.8-0.3-1c-0.2-0.2-0.5-0.4-0.9-0.4
				c-0.5,0-0.8,0.2-1.1,0.5c-0.3,0.3-0.4,0.7-0.4,1.2v3.7h-2.5v-10.4h2.5v4c0.3-0.4,0.6-0.8,1-1s0.9-0.3,1.5-0.3
				C956.4,294.2,957.1,294.5,957.6,295z"/>
			<path class="st10" d="M967.7,291.5v10.4h-2.5v-1c-0.3,0.4-0.6,0.6-1,0.8c-0.4,0.2-0.8,0.3-1.3,0.3c-0.7,0-1.3-0.2-1.8-0.5
				c-0.5-0.3-0.9-0.8-1.2-1.4c-0.3-0.6-0.4-1.3-0.4-2.1c0-0.8,0.1-1.4,0.4-2s0.7-1,1.2-1.3c0.5-0.3,1.1-0.5,1.8-0.5
				c0.5,0,0.9,0.1,1.3,0.3c0.4,0.2,0.7,0.5,1,0.8v-3.8H967.7z M964.7,299.5c0.3-0.4,0.4-0.8,0.4-1.4c0-0.6-0.1-1-0.4-1.4
				c-0.3-0.3-0.7-0.5-1.2-0.5s-0.9,0.2-1.2,0.5c-0.3,0.4-0.5,0.8-0.5,1.4s0.2,1,0.5,1.4c0.3,0.3,0.7,0.5,1.2,0.5
				S964.4,299.9,964.7,299.5z"/>
			<path class="st10" d="M973.2,294.6c0.4-0.2,0.9-0.3,1.4-0.3v2.3c-0.1,0-0.2,0-0.4,0c-0.6,0-1.1,0.1-1.4,0.4
				c-0.4,0.3-0.6,0.7-0.6,1.1v3.9h-2.5v-7.6h2.5v1.3C972.4,295.2,972.7,294.8,973.2,294.6z"/>
			<path class="st10" d="M981.3,295c0.6,0.5,0.9,1.2,0.9,2v4.9h-2.5v-0.9c-0.5,0.6-1.3,1-2.3,1c-0.8,0-1.4-0.2-1.9-0.7
				s-0.7-1-0.7-1.7c0-0.7,0.3-1.3,0.7-1.7c0.5-0.4,1.2-0.6,2.1-0.6h2v-0.1c0-0.4-0.1-0.6-0.4-0.8c-0.2-0.2-0.6-0.3-1.1-0.3
				c-0.3,0-0.7,0.1-1.1,0.2c-0.4,0.1-0.8,0.3-1.2,0.4l-0.7-1.7c0.6-0.3,1.2-0.5,1.8-0.6c0.6-0.1,1.2-0.2,1.8-0.2
				C979.9,294.2,980.7,294.5,981.3,295z M979.2,300.1c0.3-0.2,0.5-0.4,0.5-0.7v-0.7h-1.5c-0.7,0-1,0.3-1,0.8c0,0.3,0.1,0.5,0.3,0.6
				c0.2,0.2,0.4,0.2,0.7,0.2C978.6,300.3,978.9,300.2,979.2,300.1z"/>
			<path class="st10" d="M982.8,294.3h2.5l1.5,5.1l1.5-5.1h2.4l1.5,5.1l1.5-5.1h2.4l-2.8,7.6h-2.5l-1.4-4.7l-1.5,4.7h-2.5
				L982.8,294.3z"/>
			<path class="st10" d="M1002.6,295c0.6,0.5,0.9,1.2,0.9,2v4.9h-2.5v-0.9c-0.5,0.6-1.3,1-2.3,1c-0.8,0-1.4-0.2-1.9-0.7
				s-0.7-1-0.7-1.7c0-0.7,0.3-1.3,0.7-1.7c0.5-0.4,1.2-0.6,2.1-0.6h2v-0.1c0-0.4-0.1-0.6-0.4-0.8c-0.2-0.2-0.6-0.3-1.1-0.3
				c-0.3,0-0.7,0.1-1.1,0.2c-0.4,0.1-0.8,0.3-1.2,0.4l-0.7-1.7c0.6-0.3,1.2-0.5,1.8-0.6c0.6-0.1,1.2-0.2,1.8-0.2
				C1001.2,294.2,1002,294.5,1002.6,295z M1000.5,300.1c0.3-0.2,0.5-0.4,0.5-0.7v-0.7h-1.5c-0.7,0-1,0.3-1,0.8
				c0,0.3,0.1,0.5,0.3,0.6c0.2,0.2,0.4,0.2,0.7,0.2C999.9,300.3,1000.2,300.2,1000.5,300.1z"/>
			<path class="st10" d="M1005.2,291.5h2.5v10.4h-2.5V291.5z"/>
			<path class="st10" d="M1012.3,296c-0.2,0-0.4,0-0.5,0.1s-0.2,0.2-0.2,0.4c0,0.2,0.1,0.3,0.3,0.4c0.2,0.1,0.5,0.2,1,0.3
				c0.5,0.2,1,0.3,1.4,0.5c0.4,0.2,0.7,0.4,0.9,0.7c0.3,0.3,0.4,0.7,0.4,1.2c0,0.8-0.3,1.4-0.9,1.8s-1.4,0.7-2.3,0.7
				c-0.6,0-1.3-0.1-1.8-0.3c-0.6-0.2-1.1-0.5-1.6-0.8l0.8-1.6c0.4,0.3,0.9,0.5,1.4,0.7c0.5,0.2,0.9,0.2,1.3,0.2c0.2,0,0.4,0,0.6-0.1
				s0.2-0.2,0.2-0.3c0-0.2-0.1-0.3-0.3-0.4s-0.5-0.2-1-0.3c-0.5-0.2-1-0.3-1.3-0.5c-0.3-0.2-0.6-0.4-0.9-0.7
				c-0.3-0.3-0.4-0.7-0.4-1.2c0-0.8,0.3-1.4,0.9-1.8c0.6-0.4,1.3-0.7,2.2-0.7c0.6,0,1.1,0.1,1.6,0.2s1,0.4,1.5,0.7l-0.8,1.6
				C1013.8,296.2,1013,296,1012.3,296z"/>
		</g>
	</g>
</g>
<g>
</g>
</svg>
