<?xml version="1.0" encoding="utf-8"?>
<!-- Generator: Adobe Illustrator 22.0.1, SVG Export Plug-In . SVG Version: 6.00 Build 0)  -->
<svg version="1.1" id="Layer_1" xmlns="http://www.w3.org/2000/svg" xmlns:xlink="http://www.w3.org/1999/xlink" x="0px" y="0px"
	 viewBox="0 0 730.4 377.9" style="enable-background:new 0 0 730.4 377.9;" xml:space="preserve">
<style type="text/css">
	.st0{fill:#D7F4F7;}
</style>
<path class="st0" d="M4.6,57.1c2.5,0,4.5,2,4.5,4.5s-2,4.5-4.5,4.5s-4.5-2-4.5-4.5C0,59.2,2.1,57.1,4.6,57.1L4.6,57.1z M15.9,57.1
	c2.5,0,4.5,2,4.5,4.5s-2,4.5-4.5,4.5s-4.5-2-4.5-4.5C11.4,59.2,13.4,57.1,15.9,57.1L15.9,57.1z M15.9,45.8c2.5,0,4.5,2,4.5,4.5
	s-2,4.5-4.5,4.5s-4.5-2-4.5-4.5S13.4,45.8,15.9,45.8L15.9,45.8z M27.3,45.8c2.5,0,4.5,2,4.5,4.5s-2,4.5-4.5,4.5s-4.5-2-4.5-4.5
	S24.8,45.8,27.3,45.8L27.3,45.8z M27.3,34.4c2.5,0,4.5,2,4.5,4.5s-2,4.5-4.5,4.5s-4.5-2-4.5-4.5S24.8,34.4,27.3,34.4L27.3,34.4z
	 M38.7,45.8c2.5,0,4.5,2,4.5,4.5s-2,4.5-4.5,4.5s-4.5-2-4.5-4.5S36.2,45.8,38.7,45.8L38.7,45.8z M38.7,34.4c2.5,0,4.5,2,4.5,4.5
	s-2,4.5-4.5,4.5s-4.5-2-4.5-4.5S36.2,34.4,38.7,34.4L38.7,34.4z M50.1,136.8c2.5,0,4.5,2,4.5,4.5s-2,4.5-4.5,4.5s-4.5-2-4.5-4.5
	S47.6,136.8,50.1,136.8L50.1,136.8z M50.1,125.4c2.5,0,4.5,2,4.5,4.5c0,2.5-2,4.5-4.5,4.5s-4.5-2-4.5-4.5
	C45.6,127.4,47.6,125.4,50.1,125.4L50.1,125.4z M50.1,114c2.5,0,4.5,2,4.5,4.5s-2,4.5-4.5,4.5s-4.5-2-4.5-4.5
	C45.6,116.1,47.6,114,50.1,114L50.1,114z M50.1,102.7c2.5,0,4.5,2,4.5,4.5s-2,4.5-4.5,4.5s-4.5-2-4.5-4.5S47.6,102.7,50.1,102.7
	L50.1,102.7z M50.1,91.3c2.5,0,4.5,2,4.5,4.5s-2,4.5-4.5,4.5s-4.5-2-4.5-4.5S47.6,91.3,50.1,91.3L50.1,91.3z M50.1,57.1
	c2.5,0,4.5,2,4.5,4.5s-2,4.5-4.5,4.5s-4.5-2-4.5-4.5C45.6,59.2,47.6,57.1,50.1,57.1L50.1,57.1z M50.1,45.8c2.5,0,4.5,2,4.5,4.5
	s-2,4.5-4.5,4.5s-4.5-2-4.5-4.5S47.6,45.8,50.1,45.8L50.1,45.8z M50.1,34.4c2.5,0,4.5,2,4.5,4.5s-2,4.5-4.5,4.5s-4.5-2-4.5-4.5
	S47.6,34.4,50.1,34.4L50.1,34.4z M61.5,148.2c2.5,0,4.5,2,4.5,4.5s-2,4.5-4.5,4.5s-4.5-2-4.5-4.5C56.9,150.2,59,148.2,61.5,148.2
	L61.5,148.2z M61.5,136.8c2.5,0,4.5,2,4.5,4.5s-2,4.5-4.5,4.5s-4.5-2-4.5-4.5C56.9,138.8,59,136.8,61.5,136.8L61.5,136.8z
	 M61.5,125.4c2.5,0,4.5,2,4.5,4.5c0,2.5-2,4.5-4.5,4.5s-4.5-2-4.5-4.5C56.9,127.4,59,125.4,61.5,125.4L61.5,125.4z M61.5,114
	c2.5,0,4.5,2,4.5,4.5s-2,4.5-4.5,4.5s-4.5-2-4.5-4.5C56.9,116.1,59,114,61.5,114L61.5,114z M61.5,102.7c2.5,0,4.5,2,4.5,4.5
	s-2,4.5-4.5,4.5s-4.5-2-4.5-4.5C56.9,104.7,59,102.7,61.5,102.7L61.5,102.7z M61.5,91.3c2.5,0,4.5,2,4.5,4.5s-2,4.5-4.5,4.5
	s-4.5-2-4.5-4.5C56.9,93.3,59,91.3,61.5,91.3L61.5,91.3z M61.5,79.9c2.5,0,4.5,2,4.5,4.5s-2,4.5-4.5,4.5s-4.5-2-4.5-4.5
	C56.9,81.9,59,79.9,61.5,79.9L61.5,79.9z M61.5,68.5c2.5,0,4.5,2,4.5,4.5s-2,4.5-4.5,4.5S57,75.5,57,73C56.9,70.5,59,68.5,61.5,68.5
	L61.5,68.5z M61.5,57.1c2.5,0,4.5,2,4.5,4.5s-2,4.5-4.5,4.5s-4.5-2-4.5-4.5C56.9,59.2,59,57.1,61.5,57.1L61.5,57.1z M61.5,45.8
	c2.5,0,4.5,2,4.5,4.5s-2,4.5-4.5,4.5s-4.5-2-4.5-4.5C56.9,47.8,59,45.8,61.5,45.8L61.5,45.8z M61.5,34.4c2.5,0,4.5,2,4.5,4.5
	s-2,4.5-4.5,4.5s-4.5-2-4.5-4.5C56.9,36.4,59,34.4,61.5,34.4L61.5,34.4z M72.8,159.6c2.5,0,4.5,2,4.5,4.5s-2,4.5-4.5,4.5
	s-4.5-2-4.5-4.5S70.3,159.6,72.8,159.6L72.8,159.6z M72.8,148.2c2.5,0,4.5,2,4.5,4.5s-2,4.5-4.5,4.5s-4.5-2-4.5-4.5
	S70.3,148.2,72.8,148.2L72.8,148.2z M72.8,136.8c2.5,0,4.5,2,4.5,4.5s-2,4.5-4.5,4.5s-4.5-2-4.5-4.5S70.3,136.8,72.8,136.8
	L72.8,136.8z M72.8,125.4c2.5,0,4.5,2,4.5,4.5c0,2.5-2,4.5-4.5,4.5s-4.5-2-4.5-4.5C68.3,127.4,70.3,125.4,72.8,125.4L72.8,125.4z
	 M72.8,114c2.5,0,4.5,2,4.5,4.5s-2,4.5-4.5,4.5s-4.5-2-4.5-4.5C68.3,116.1,70.3,114,72.8,114L72.8,114z M72.8,102.7
	c2.5,0,4.5,2,4.5,4.5s-2,4.5-4.5,4.5s-4.5-2-4.5-4.5S70.3,102.7,72.8,102.7L72.8,102.7z M72.8,91.3c2.5,0,4.5,2,4.5,4.5
	s-2,4.5-4.5,4.5s-4.5-2-4.5-4.5S70.3,91.3,72.8,91.3L72.8,91.3z M72.8,79.9c2.5,0,4.5,2,4.5,4.5s-2,4.5-4.5,4.5s-4.5-2-4.5-4.5
	S70.3,79.9,72.8,79.9L72.8,79.9z M72.8,68.5c2.5,0,4.5,2,4.5,4.5s-2,4.5-4.5,4.5s-4.5-2-4.5-4.5S70.3,68.5,72.8,68.5L72.8,68.5z
	 M72.8,57.1c2.5,0,4.5,2,4.5,4.5s-2,4.5-4.5,4.5s-4.5-2-4.5-4.5C68.3,59.2,70.3,57.1,72.8,57.1L72.8,57.1z M72.8,45.8
	c2.5,0,4.5,2,4.5,4.5s-2,4.5-4.5,4.5s-4.5-2-4.5-4.5S70.3,45.8,72.8,45.8L72.8,45.8z M72.8,34.4c2.5,0,4.5,2,4.5,4.5s-2,4.5-4.5,4.5
	s-4.5-2-4.5-4.5S70.3,34.4,72.8,34.4L72.8,34.4z M84.2,170.9c2.5,0,4.5,2,4.5,4.5s-2,4.5-4.5,4.5s-4.5-2-4.5-4.5
	C79.7,173,81.7,170.9,84.2,170.9L84.2,170.9z M84.2,159.6c2.5,0,4.5,2,4.5,4.5s-2,4.5-4.5,4.5s-4.5-2-4.5-4.5S81.7,159.6,84.2,159.6
	L84.2,159.6z M84.2,148.2c2.5,0,4.5,2,4.5,4.5s-2,4.5-4.5,4.5s-4.5-2-4.5-4.5S81.7,148.2,84.2,148.2L84.2,148.2z M84.2,136.8
	c2.5,0,4.5,2,4.5,4.5s-2,4.5-4.5,4.5s-4.5-2-4.5-4.5S81.7,136.8,84.2,136.8L84.2,136.8z M84.2,125.4c2.5,0,4.5,2,4.5,4.5
	c0,2.5-2,4.5-4.5,4.5s-4.5-2-4.5-4.5C79.7,127.4,81.7,125.4,84.2,125.4L84.2,125.4z M84.2,114c2.5,0,4.5,2,4.5,4.5s-2,4.5-4.5,4.5
	s-4.5-2-4.5-4.5C79.7,116.1,81.7,114,84.2,114L84.2,114z M84.2,102.7c2.5,0,4.5,2,4.5,4.5s-2,4.5-4.5,4.5s-4.5-2-4.5-4.5
	S81.7,102.7,84.2,102.7L84.2,102.7z M84.2,91.3c2.5,0,4.5,2,4.5,4.5s-2,4.5-4.5,4.5s-4.5-2-4.5-4.5S81.7,91.3,84.2,91.3L84.2,91.3z
	 M84.2,79.9c2.5,0,4.5,2,4.5,4.5s-2,4.5-4.5,4.5s-4.5-2-4.5-4.5S81.7,79.9,84.2,79.9L84.2,79.9z M84.2,68.5c2.5,0,4.5,2,4.5,4.5
	s-2,4.5-4.5,4.5s-4.5-2-4.5-4.5S81.7,68.5,84.2,68.5L84.2,68.5z M84.2,57.1c2.5,0,4.5,2,4.5,4.5s-2,4.5-4.5,4.5s-4.5-2-4.5-4.5
	C79.7,59.2,81.7,57.1,84.2,57.1L84.2,57.1z M84.2,45.8c2.5,0,4.5,2,4.5,4.5s-2,4.5-4.5,4.5s-4.5-2-4.5-4.5S81.7,45.8,84.2,45.8
	L84.2,45.8z M84.2,34.4c2.5,0,4.5,2,4.5,4.5s-2,4.5-4.5,4.5s-4.5-2-4.5-4.5S81.7,34.4,84.2,34.4L84.2,34.4z M95.6,170.9
	c2.5,0,4.5,2,4.5,4.5s-2,4.5-4.5,4.5s-4.5-2-4.5-4.5C91.1,173,93.1,170.9,95.6,170.9L95.6,170.9z M95.6,136.8c2.5,0,4.5,2,4.5,4.5
	s-2,4.5-4.5,4.5s-4.5-2-4.5-4.5S93.1,136.8,95.6,136.8L95.6,136.8z M95.6,125.4c2.5,0,4.5,2,4.5,4.5c0,2.5-2,4.5-4.5,4.5
	s-4.5-2-4.5-4.5C91.1,127.4,93.1,125.4,95.6,125.4L95.6,125.4z M95.6,114c2.5,0,4.5,2,4.5,4.5s-2,4.5-4.5,4.5s-4.5-2-4.5-4.5
	C91.1,116.1,93.1,114,95.6,114L95.6,114z M95.6,102.7c2.5,0,4.5,2,4.5,4.5s-2,4.5-4.5,4.5s-4.5-2-4.5-4.5S93.1,102.7,95.6,102.7
	L95.6,102.7z M95.6,91.3c2.5,0,4.5,2,4.5,4.5s-2,4.5-4.5,4.5s-4.5-2-4.5-4.5S93.1,91.3,95.6,91.3L95.6,91.3z M95.6,79.9
	c2.5,0,4.5,2,4.5,4.5s-2,4.5-4.5,4.5s-4.5-2-4.5-4.5S93.1,79.9,95.6,79.9L95.6,79.9z M95.6,68.5c2.5,0,4.5,2,4.5,4.5s-2,4.5-4.5,4.5
	s-4.5-2-4.5-4.5S93.1,68.5,95.6,68.5L95.6,68.5z M95.6,57.1c2.5,0,4.5,2,4.5,4.5s-2,4.5-4.5,4.5s-4.5-2-4.5-4.5
	C91.1,59.2,93.1,57.1,95.6,57.1L95.6,57.1z M95.6,45.8c2.5,0,4.5,2,4.5,4.5s-2,4.5-4.5,4.5s-4.5-2-4.5-4.5S93.1,45.8,95.6,45.8
	L95.6,45.8z M95.6,34.4c2.5,0,4.5,2,4.5,4.5s-2,4.5-4.5,4.5s-4.5-2-4.5-4.5S93.1,34.4,95.6,34.4L95.6,34.4z M107,182.3
	c2.5,0,4.5,2,4.5,4.5s-2,4.5-4.5,4.5s-4.5-2-4.5-4.5S104.5,182.3,107,182.3L107,182.3z M107,170.9c2.5,0,4.5,2,4.5,4.5
	s-2,4.5-4.5,4.5s-4.5-2-4.5-4.5C102.5,173,104.5,170.9,107,170.9L107,170.9z M107,159.6c2.5,0,4.5,2,4.5,4.5s-2,4.5-4.5,4.5
	s-4.5-2-4.5-4.5S104.5,159.6,107,159.6L107,159.6z M107,125.4c2.5,0,4.5,2,4.5,4.5c0,2.5-2,4.5-4.5,4.5s-4.5-2-4.5-4.5
	C102.5,127.4,104.5,125.4,107,125.4L107,125.4z M107,114c2.5,0,4.5,2,4.5,4.5s-2,4.5-4.5,4.5s-4.5-2-4.5-4.5
	C102.5,116.1,104.5,114,107,114L107,114z M107,102.7c2.5,0,4.5,2,4.5,4.5s-2,4.5-4.5,4.5s-4.5-2-4.5-4.5S104.5,102.7,107,102.7
	L107,102.7z M107,91.3c2.5,0,4.5,2,4.5,4.5s-2,4.5-4.5,4.5s-4.5-2-4.5-4.5S104.5,91.3,107,91.3L107,91.3z M107,79.9
	c2.5,0,4.5,2,4.5,4.5s-2,4.5-4.5,4.5s-4.5-2-4.5-4.5S104.5,79.9,107,79.9L107,79.9z M107,68.5c2.5,0,4.5,2,4.5,4.5s-2,4.5-4.5,4.5
	s-4.5-2-4.5-4.5S104.5,68.5,107,68.5L107,68.5z M107,57.1c2.5,0,4.5,2,4.5,4.5s-2,4.5-4.5,4.5s-4.5-2-4.5-4.5
	C102.5,59.2,104.5,57.1,107,57.1L107,57.1z M107,45.8c2.5,0,4.5,2,4.5,4.5s-2,4.5-4.5,4.5s-4.5-2-4.5-4.5S104.5,45.8,107,45.8
	L107,45.8z M107,34.4c2.5,0,4.5,2,4.5,4.5s-2,4.5-4.5,4.5s-4.5-2-4.5-4.5S104.5,34.4,107,34.4L107,34.4z M118.4,193.7
	c2.5,0,4.5,2,4.5,4.5s-2,4.5-4.5,4.5s-4.5-2-4.5-4.5C113.8,195.7,115.9,193.7,118.4,193.7L118.4,193.7z M118.4,182.3
	c2.5,0,4.5,2,4.5,4.5s-2,4.5-4.5,4.5s-4.5-2-4.5-4.5C113.8,184.3,115.9,182.3,118.4,182.3L118.4,182.3z M118.4,170.9
	c2.5,0,4.5,2,4.5,4.5s-2,4.5-4.5,4.5s-4.5-2-4.5-4.5C113.8,173,115.9,170.9,118.4,170.9L118.4,170.9z M118.4,125.4
	c2.5,0,4.5,2,4.5,4.5c0,2.5-2,4.5-4.5,4.5s-4.5-2-4.5-4.5C113.8,127.4,115.9,125.4,118.4,125.4L118.4,125.4z M118.4,114
	c2.5,0,4.5,2,4.5,4.5s-2,4.5-4.5,4.5s-4.5-2-4.5-4.5C113.8,116.1,115.9,114,118.4,114L118.4,114z M118.4,102.7c2.5,0,4.5,2,4.5,4.5
	s-2,4.5-4.5,4.5s-4.5-2-4.5-4.5C113.8,104.7,115.9,102.7,118.4,102.7L118.4,102.7z M118.4,91.3c2.5,0,4.5,2,4.5,4.5s-2,4.5-4.5,4.5
	s-4.5-2-4.5-4.5C113.8,93.3,115.9,91.3,118.4,91.3L118.4,91.3z M118.4,79.9c2.5,0,4.5,2,4.5,4.5s-2,4.5-4.5,4.5s-4.5-2-4.5-4.5
	C113.8,81.9,115.9,79.9,118.4,79.9L118.4,79.9z M118.4,68.5c2.5,0,4.5,2,4.5,4.5s-2,4.5-4.5,4.5s-4.5-2-4.5-4.5
	C113.8,70.5,115.9,68.5,118.4,68.5L118.4,68.5z M118.4,57.1c2.5,0,4.5,2,4.5,4.5s-2,4.5-4.5,4.5s-4.5-2-4.5-4.5
	C113.8,59.2,115.9,57.1,118.4,57.1L118.4,57.1z M118.4,45.8c2.5,0,4.5,2,4.5,4.5s-2,4.5-4.5,4.5s-4.5-2-4.5-4.5
	C113.8,47.8,115.9,45.8,118.4,45.8L118.4,45.8z M118.4,34.4c2.5,0,4.5,2,4.5,4.5s-2,4.5-4.5,4.5s-4.5-2-4.5-4.5
	C113.8,36.4,115.9,34.4,118.4,34.4L118.4,34.4z M118.4,23c2.5,0,4.5,2,4.5,4.5s-2,4.5-4.5,4.5s-4.5-2-4.5-4.5
	C113.8,25,115.9,23,118.4,23L118.4,23z M129.7,239.2c2.5,0,4.5,2,4.5,4.5s-2,4.5-4.5,4.5s-4.5-2-4.5-4.5S127.2,239.2,129.7,239.2
	L129.7,239.2z M129.7,227.8c2.5,0,4.5,2,4.5,4.5s-2,4.5-4.5,4.5s-4.5-2-4.5-4.5C125.2,229.9,127.2,227.8,129.7,227.8L129.7,227.8z
	 M129.7,216.5c2.5,0,4.5,2,4.5,4.5s-2,4.5-4.5,4.5s-4.5-2-4.5-4.5S127.2,216.5,129.7,216.5L129.7,216.5z M129.7,205.1
	c2.5,0,4.5,2,4.5,4.5s-2,4.5-4.5,4.5s-4.5-2-4.5-4.5S127.2,205.1,129.7,205.1L129.7,205.1z M129.7,193.7c2.5,0,4.5,2,4.5,4.5
	s-2,4.5-4.5,4.5s-4.5-2-4.5-4.5S127.2,193.7,129.7,193.7L129.7,193.7z M129.7,148.2c2.5,0,4.5,2,4.5,4.5s-2,4.5-4.5,4.5
	s-4.5-2-4.5-4.5S127.2,148.2,129.7,148.2L129.7,148.2z M129.7,136.8c2.5,0,4.5,2,4.5,4.5s-2,4.5-4.5,4.5s-4.5-2-4.5-4.5
	S127.2,136.8,129.7,136.8L129.7,136.8z M129.7,125.4c2.5,0,4.5,2,4.5,4.5c0,2.5-2,4.5-4.5,4.5s-4.5-2-4.5-4.5
	C125.2,127.4,127.2,125.4,129.7,125.4L129.7,125.4z M129.7,114c2.5,0,4.5,2,4.5,4.5s-2,4.5-4.5,4.5s-4.5-2-4.5-4.5
	C125.2,116.1,127.2,114,129.7,114L129.7,114z M129.7,102.7c2.5,0,4.5,2,4.5,4.5s-2,4.5-4.5,4.5s-4.5-2-4.5-4.5
	S127.2,102.7,129.7,102.7L129.7,102.7z M129.7,91.3c2.5,0,4.5,2,4.5,4.5s-2,4.5-4.5,4.5s-4.5-2-4.5-4.5S127.2,91.3,129.7,91.3
	L129.7,91.3z M129.7,79.9c2.5,0,4.5,2,4.5,4.5s-2,4.5-4.5,4.5s-4.5-2-4.5-4.5S127.2,79.9,129.7,79.9L129.7,79.9z M129.7,68.5
	c2.5,0,4.5,2,4.5,4.5s-2,4.5-4.5,4.5s-4.5-2-4.5-4.5S127.2,68.5,129.7,68.5L129.7,68.5z M129.7,57.1c2.5,0,4.5,2,4.5,4.5
	s-2,4.5-4.5,4.5s-4.5-2-4.5-4.5C125.2,59.2,127.2,57.1,129.7,57.1L129.7,57.1z M129.7,45.8c2.5,0,4.5,2,4.5,4.5s-2,4.5-4.5,4.5
	s-4.5-2-4.5-4.5S127.2,45.8,129.7,45.8L129.7,45.8z M129.7,34.4c2.5,0,4.5,2,4.5,4.5s-2,4.5-4.5,4.5s-4.5-2-4.5-4.5
	S127.2,34.4,129.7,34.4L129.7,34.4z M129.7,23c2.5,0,4.5,2,4.5,4.5s-2,4.5-4.5,4.5s-4.5-2-4.5-4.5S127.2,23,129.7,23L129.7,23z
	 M141.1,250.6c2.5,0,4.5,2,4.5,4.5s-2,4.5-4.5,4.5s-4.5-2-4.5-4.5S138.6,250.6,141.1,250.6L141.1,250.6z M141.1,239.2
	c2.5,0,4.5,2,4.5,4.5s-2,4.5-4.5,4.5s-4.5-2-4.5-4.5S138.6,239.2,141.1,239.2L141.1,239.2z M141.1,227.8c2.5,0,4.5,2,4.5,4.5
	s-2,4.5-4.5,4.5s-4.5-2-4.5-4.5C136.6,229.9,138.6,227.8,141.1,227.8L141.1,227.8z M141.1,216.5c2.5,0,4.5,2,4.5,4.5s-2,4.5-4.5,4.5
	s-4.5-2-4.5-4.5S138.6,216.5,141.1,216.5L141.1,216.5z M141.1,205.1c2.5,0,4.5,2,4.5,4.5s-2,4.5-4.5,4.5s-4.5-2-4.5-4.5
	S138.6,205.1,141.1,205.1L141.1,205.1z M141.1,193.7c2.5,0,4.5,2,4.5,4.5s-2,4.5-4.5,4.5s-4.5-2-4.5-4.5S138.6,193.7,141.1,193.7
	L141.1,193.7z M141.1,182.3c2.5,0,4.5,2,4.5,4.5s-2,4.5-4.5,4.5s-4.5-2-4.5-4.5S138.6,182.3,141.1,182.3L141.1,182.3z M141.1,159.6
	c2.5,0,4.5,2,4.5,4.5s-2,4.5-4.5,4.5s-4.5-2-4.5-4.5S138.6,159.6,141.1,159.6L141.1,159.6z M141.1,125.4c2.5,0,4.5,2,4.5,4.5
	c0,2.5-2,4.5-4.5,4.5s-4.5-2-4.5-4.5C136.6,127.4,138.6,125.4,141.1,125.4L141.1,125.4z M141.1,114c2.5,0,4.5,2,4.5,4.5
	s-2,4.5-4.5,4.5s-4.5-2-4.5-4.5C136.6,116.1,138.6,114,141.1,114L141.1,114z M141.1,102.7c2.5,0,4.5,2,4.5,4.5s-2,4.5-4.5,4.5
	s-4.5-2-4.5-4.5S138.6,102.7,141.1,102.7L141.1,102.7z M141.1,91.3c2.5,0,4.5,2,4.5,4.5s-2,4.5-4.5,4.5s-4.5-2-4.5-4.5
	S138.6,91.3,141.1,91.3L141.1,91.3z M141.1,79.9c2.5,0,4.5,2,4.5,4.5s-2,4.5-4.5,4.5s-4.5-2-4.5-4.5S138.6,79.9,141.1,79.9
	L141.1,79.9z M141.1,68.5c2.5,0,4.5,2,4.5,4.5s-2,4.5-4.5,4.5s-4.5-2-4.5-4.5S138.6,68.5,141.1,68.5L141.1,68.5z M141.1,57.1
	c2.5,0,4.5,2,4.5,4.5s-2,4.5-4.5,4.5s-4.5-2-4.5-4.5C136.6,59.2,138.6,57.1,141.1,57.1L141.1,57.1z M141.1,45.8c2.5,0,4.5,2,4.5,4.5
	s-2,4.5-4.5,4.5s-4.5-2-4.5-4.5S138.6,45.8,141.1,45.8L141.1,45.8z M141.1,34.4c2.5,0,4.5,2,4.5,4.5s-2,4.5-4.5,4.5s-4.5-2-4.5-4.5
	S138.6,34.4,141.1,34.4L141.1,34.4z M141.1,23c2.5,0,4.5,2,4.5,4.5s-2,4.5-4.5,4.5s-4.5-2-4.5-4.5S138.6,23,141.1,23L141.1,23z
	 M152.5,262c2.5,0,4.5,2,4.5,4.5s-2,4.5-4.5,4.5s-4.5-2-4.5-4.5S150,262,152.5,262L152.5,262z M152.5,250.6c2.5,0,4.5,2,4.5,4.5
	s-2,4.5-4.5,4.5s-4.5-2-4.5-4.5S150,250.6,152.5,250.6L152.5,250.6z M152.5,239.2c2.5,0,4.5,2,4.5,4.5s-2,4.5-4.5,4.5
	s-4.5-2-4.5-4.5S150,239.2,152.5,239.2L152.5,239.2z M152.5,227.8c2.5,0,4.5,2,4.5,4.5s-2,4.5-4.5,4.5s-4.5-2-4.5-4.5
	C148,229.9,150,227.8,152.5,227.8L152.5,227.8z M152.5,216.5c2.5,0,4.5,2,4.5,4.5s-2,4.5-4.5,4.5s-4.5-2-4.5-4.5
	S150,216.5,152.5,216.5L152.5,216.5z M152.5,205.1c2.5,0,4.5,2,4.5,4.5s-2,4.5-4.5,4.5s-4.5-2-4.5-4.5S150,205.1,152.5,205.1
	L152.5,205.1z M152.5,193.7c2.5,0,4.5,2,4.5,4.5s-2,4.5-4.5,4.5s-4.5-2-4.5-4.5S150,193.7,152.5,193.7L152.5,193.7z M152.5,182.3
	c2.5,0,4.5,2,4.5,4.5s-2,4.5-4.5,4.5s-4.5-2-4.5-4.5S150,182.3,152.5,182.3L152.5,182.3z M152.5,159.6c2.5,0,4.5,2,4.5,4.5
	s-2,4.5-4.5,4.5s-4.5-2-4.5-4.5S150,159.6,152.5,159.6L152.5,159.6z M152.5,114c2.5,0,4.5,2,4.5,4.5s-2,4.5-4.5,4.5s-4.5-2-4.5-4.5
	C148,116.1,150,114,152.5,114L152.5,114z M152.5,102.7c2.5,0,4.5,2,4.5,4.5s-2,4.5-4.5,4.5s-4.5-2-4.5-4.5S150,102.7,152.5,102.7
	L152.5,102.7z M152.5,91.3c2.5,0,4.5,2,4.5,4.5s-2,4.5-4.5,4.5s-4.5-2-4.5-4.5S150,91.3,152.5,91.3L152.5,91.3z M152.5,79.9
	c2.5,0,4.5,2,4.5,4.5s-2,4.5-4.5,4.5s-4.5-2-4.5-4.5S150,79.9,152.5,79.9L152.5,79.9z M152.5,68.5c2.5,0,4.5,2,4.5,4.5
	s-2,4.5-4.5,4.5s-4.5-2-4.5-4.5S150,68.5,152.5,68.5L152.5,68.5z M152.5,45.8c2.5,0,4.5,2,4.5,4.5s-2,4.5-4.5,4.5s-4.5-2-4.5-4.5
	S150,45.8,152.5,45.8L152.5,45.8z M152.5,34.4c2.5,0,4.5,2,4.5,4.5s-2,4.5-4.5,4.5s-4.5-2-4.5-4.5S150,34.4,152.5,34.4L152.5,34.4z
	 M152.5,23c2.5,0,4.5,2,4.5,4.5s-2,4.5-4.5,4.5s-4.5-2-4.5-4.5S150,23,152.5,23L152.5,23z M163.9,330.3c2.5,0,4.5,2,4.5,4.5
	s-2,4.5-4.5,4.5s-4.5-2-4.5-4.5S161.4,330.3,163.9,330.3L163.9,330.3z M163.9,318.9c2.5,0,4.5,2,4.5,4.5s-2,4.5-4.5,4.5
	s-4.5-2-4.5-4.5S161.4,318.9,163.9,318.9L163.9,318.9z M163.9,307.5c2.5,0,4.5,2,4.5,4.5s-2,4.5-4.5,4.5s-4.5-2-4.5-4.5
	S161.4,307.5,163.9,307.5L163.9,307.5z M163.9,296.1c2.5,0,4.5,2,4.5,4.5s-2,4.5-4.5,4.5s-4.5-2-4.5-4.5S161.4,296.1,163.9,296.1
	L163.9,296.1z M163.9,284.7c2.5,0,4.5,2,4.5,4.5s-2,4.5-4.5,4.5s-4.5-2-4.5-4.5C159.4,286.8,161.4,284.7,163.9,284.7L163.9,284.7z
	 M163.9,273.4c2.5,0,4.5,2,4.5,4.5s-2,4.5-4.5,4.5s-4.5-2-4.5-4.5S161.4,273.4,163.9,273.4L163.9,273.4z M163.9,262
	c2.5,0,4.5,2,4.5,4.5s-2,4.5-4.5,4.5s-4.5-2-4.5-4.5S161.4,262,163.9,262L163.9,262z M163.9,250.6c2.5,0,4.5,2,4.5,4.5
	s-2,4.5-4.5,4.5s-4.5-2-4.5-4.5S161.4,250.6,163.9,250.6L163.9,250.6z M163.9,239.2c2.5,0,4.5,2,4.5,4.5s-2,4.5-4.5,4.5
	s-4.5-2-4.5-4.5S161.4,239.2,163.9,239.2L163.9,239.2z M163.9,227.8c2.5,0,4.5,2,4.5,4.5s-2,4.5-4.5,4.5s-4.5-2-4.5-4.5
	C159.4,229.9,161.4,227.8,163.9,227.8L163.9,227.8z M163.9,216.5c2.5,0,4.5,2,4.5,4.5s-2,4.5-4.5,4.5s-4.5-2-4.5-4.5
	S161.4,216.5,163.9,216.5L163.9,216.5z M163.9,205.1c2.5,0,4.5,2,4.5,4.5s-2,4.5-4.5,4.5s-4.5-2-4.5-4.5S161.4,205.1,163.9,205.1
	L163.9,205.1z M163.9,193.7c2.5,0,4.5,2,4.5,4.5s-2,4.5-4.5,4.5s-4.5-2-4.5-4.5S161.4,193.7,163.9,193.7L163.9,193.7z M163.9,182.3
	c2.5,0,4.5,2,4.5,4.5s-2,4.5-4.5,4.5s-4.5-2-4.5-4.5S161.4,182.3,163.9,182.3L163.9,182.3z M163.9,102.7c2.5,0,4.5,2,4.5,4.5
	s-2,4.5-4.5,4.5s-4.5-2-4.5-4.5S161.4,102.7,163.9,102.7L163.9,102.7z M163.9,91.3c2.5,0,4.5,2,4.5,4.5s-2,4.5-4.5,4.5
	s-4.5-2-4.5-4.5S161.4,91.3,163.9,91.3L163.9,91.3z M163.9,79.9c2.5,0,4.5,2,4.5,4.5s-2,4.5-4.5,4.5s-4.5-2-4.5-4.5
	S161.4,79.9,163.9,79.9L163.9,79.9z M163.9,68.5c2.5,0,4.5,2,4.5,4.5s-2,4.5-4.5,4.5s-4.5-2-4.5-4.5S161.4,68.5,163.9,68.5
	L163.9,68.5z M163.9,34.4c2.5,0,4.5,2,4.5,4.5s-2,4.5-4.5,4.5s-4.5-2-4.5-4.5S161.4,34.4,163.9,34.4L163.9,34.4z M163.9,23
	c2.5,0,4.5,2,4.5,4.5s-2,4.5-4.5,4.5s-4.5-2-4.5-4.5S161.4,23,163.9,23L163.9,23z M175.3,353c2.5,0,4.5,2,4.5,4.5s-2,4.5-4.5,4.5
	s-4.5-2-4.5-4.5C170.7,355,172.8,353,175.3,353L175.3,353z M175.3,341.6c2.5,0,4.5,2,4.5,4.5s-2,4.5-4.5,4.5s-4.5-2-4.5-4.5
	C170.7,343.7,172.8,341.6,175.3,341.6L175.3,341.6z M175.3,330.3c2.5,0,4.5,2,4.5,4.5s-2,4.5-4.5,4.5s-4.5-2-4.5-4.5
	C170.7,332.3,172.8,330.3,175.3,330.3L175.3,330.3z M175.3,318.9c2.5,0,4.5,2,4.5,4.5s-2,4.5-4.5,4.5s-4.5-2-4.5-4.5
	C170.7,320.9,172.8,318.9,175.3,318.9L175.3,318.9z M175.3,307.5c2.5,0,4.5,2,4.5,4.5s-2,4.5-4.5,4.5s-4.5-2-4.5-4.5
	C170.7,309.5,172.8,307.5,175.3,307.5L175.3,307.5z M175.3,296.1c2.5,0,4.5,2,4.5,4.5s-2,4.5-4.5,4.5s-4.5-2-4.5-4.5
	C170.7,298.1,172.8,296.1,175.3,296.1L175.3,296.1z M175.3,284.7c2.5,0,4.5,2,4.5,4.5s-2,4.5-4.5,4.5s-4.5-2-4.5-4.5
	C170.7,286.8,172.8,284.7,175.3,284.7L175.3,284.7z M175.3,273.4c2.5,0,4.5,2,4.5,4.5s-2,4.5-4.5,4.5s-4.5-2-4.5-4.5
	C170.7,275.4,172.8,273.4,175.3,273.4L175.3,273.4z M175.3,262c2.5,0,4.5,2,4.5,4.5s-2,4.5-4.5,4.5s-4.5-2-4.5-4.5
	S172.8,262,175.3,262L175.3,262z M175.3,250.6c2.5,0,4.5,2,4.5,4.5s-2,4.5-4.5,4.5s-4.5-2-4.5-4.5
	C170.7,252.6,172.8,250.6,175.3,250.6L175.3,250.6z M175.3,239.2c2.5,0,4.5,2,4.5,4.5s-2,4.5-4.5,4.5s-4.5-2-4.5-4.5
	C170.7,241.2,172.8,239.2,175.3,239.2L175.3,239.2z M175.3,227.8c2.5,0,4.5,2,4.5,4.5s-2,4.5-4.5,4.5s-4.5-2-4.5-4.5
	C170.7,229.9,172.8,227.8,175.3,227.8L175.3,227.8z M175.3,216.5c2.5,0,4.5,2,4.5,4.5s-2,4.5-4.5,4.5s-4.5-2-4.5-4.5
	C170.7,218.5,172.8,216.5,175.3,216.5L175.3,216.5z M175.3,205.1c2.5,0,4.5,2,4.5,4.5s-2,4.5-4.5,4.5s-4.5-2-4.5-4.5
	S172.8,205.1,175.3,205.1L175.3,205.1z M175.3,193.7c2.5,0,4.5,2,4.5,4.5s-2,4.5-4.5,4.5s-4.5-2-4.5-4.5
	C170.7,195.7,172.8,193.7,175.3,193.7L175.3,193.7z M175.3,91.3c2.5,0,4.5,2,4.5,4.5s-2,4.5-4.5,4.5s-4.5-2-4.5-4.5
	C170.7,93.3,172.8,91.3,175.3,91.3L175.3,91.3z M175.3,79.9c2.5,0,4.5,2,4.5,4.5s-2,4.5-4.5,4.5s-4.5-2-4.5-4.5
	C170.7,81.9,172.8,79.9,175.3,79.9L175.3,79.9z M175.3,68.5c2.5,0,4.5,2,4.5,4.5s-2,4.5-4.5,4.5s-4.5-2-4.5-4.5
	C170.7,70.5,172.8,68.5,175.3,68.5L175.3,68.5z M175.3,57.1c2.5,0,4.5,2,4.5,4.5s-2,4.5-4.5,4.5s-4.5-2-4.5-4.5
	C170.7,59.2,172.8,57.1,175.3,57.1L175.3,57.1z M175.3,45.8c2.5,0,4.5,2,4.5,4.5s-2,4.5-4.5,4.5s-4.5-2-4.5-4.5
	C170.7,47.8,172.8,45.8,175.3,45.8L175.3,45.8z M175.3,34.4c2.5,0,4.5,2,4.5,4.5s-2,4.5-4.5,4.5s-4.5-2-4.5-4.5
	C170.7,36.4,172.8,34.4,175.3,34.4L175.3,34.4z M175.3,23c2.5,0,4.5,2,4.5,4.5s-2,4.5-4.5,4.5s-4.5-2-4.5-4.5
	C170.7,25,172.8,23,175.3,23L175.3,23z M186.6,364.4c2.5,0,4.5,2,4.5,4.5s-2,4.5-4.5,4.5s-4.5-2-4.5-4.5S184.1,364.4,186.6,364.4
	L186.6,364.4z M186.6,353c2.5,0,4.5,2,4.5,4.5s-2,4.5-4.5,4.5s-4.5-2-4.5-4.5S184.1,353,186.6,353L186.6,353z M186.6,318.9
	c2.5,0,4.5,2,4.5,4.5s-2,4.5-4.5,4.5s-4.5-2-4.5-4.5S184.1,318.9,186.6,318.9L186.6,318.9z M186.6,307.5c2.5,0,4.5,2,4.5,4.5
	s-2,4.5-4.5,4.5s-4.5-2-4.5-4.5S184.1,307.5,186.6,307.5L186.6,307.5z M186.6,296.1c2.5,0,4.5,2,4.5,4.5s-2,4.5-4.5,4.5
	s-4.5-2-4.5-4.5S184.1,296.1,186.6,296.1L186.6,296.1z M186.6,284.7c2.5,0,4.5,2,4.5,4.5s-2,4.5-4.5,4.5s-4.5-2-4.5-4.5
	C182.1,286.8,184.1,284.7,186.6,284.7L186.6,284.7z M186.6,273.4c2.5,0,4.5,2,4.5,4.5s-2,4.5-4.5,4.5s-4.5-2-4.5-4.5
	S184.1,273.4,186.6,273.4L186.6,273.4z M186.6,262c2.5,0,4.5,2,4.5,4.5s-2,4.5-4.5,4.5s-4.5-2-4.5-4.5S184.1,262,186.6,262
	L186.6,262z M186.6,250.6c2.5,0,4.5,2,4.5,4.5s-2,4.5-4.5,4.5s-4.5-2-4.5-4.5S184.1,250.6,186.6,250.6L186.6,250.6z M186.6,239.2
	c2.5,0,4.5,2,4.5,4.5s-2,4.5-4.5,4.5s-4.5-2-4.5-4.5S184.1,239.2,186.6,239.2L186.6,239.2z M186.6,227.8c2.5,0,4.5,2,4.5,4.5
	s-2,4.5-4.5,4.5s-4.5-2-4.5-4.5C182.1,229.9,184.1,227.8,186.6,227.8L186.6,227.8z M186.6,216.5c2.5,0,4.5,2,4.5,4.5s-2,4.5-4.5,4.5
	s-4.5-2-4.5-4.5S184.1,216.5,186.6,216.5L186.6,216.5z M186.6,205.1c2.5,0,4.5,2,4.5,4.5s-2,4.5-4.5,4.5s-4.5-2-4.5-4.5
	S184.1,205.1,186.6,205.1L186.6,205.1z M186.6,91.3c2.5,0,4.5,2,4.5,4.5s-2,4.5-4.5,4.5s-4.5-2-4.5-4.5S184.1,91.3,186.6,91.3
	L186.6,91.3z M186.6,79.9c2.5,0,4.5,2,4.5,4.5s-2,4.5-4.5,4.5s-4.5-2-4.5-4.5S184.1,79.9,186.6,79.9L186.6,79.9z M186.6,68.5
	c2.5,0,4.5,2,4.5,4.5s-2,4.5-4.5,4.5s-4.5-2-4.5-4.5S184.1,68.5,186.6,68.5L186.6,68.5z M186.6,57.1c2.5,0,4.5,2,4.5,4.5
	s-2,4.5-4.5,4.5s-4.5-2-4.5-4.5C182.1,59.2,184.1,57.1,186.6,57.1L186.6,57.1z M186.6,45.8c2.5,0,4.5,2,4.5,4.5s-2,4.5-4.5,4.5
	s-4.5-2-4.5-4.5S184.1,45.8,186.6,45.8L186.6,45.8z M186.6,23c2.5,0,4.5,2,4.5,4.5s-2,4.5-4.5,4.5s-4.5-2-4.5-4.5S184.1,23,186.6,23
	L186.6,23z M186.6,11.6c2.5,0,4.5,2,4.5,4.5s-2,4.5-4.5,4.5s-4.5-2-4.5-4.5S184.1,11.6,186.6,11.6L186.6,11.6z M198,364.4
	c2.5,0,4.5,2,4.5,4.5s-2,4.5-4.5,4.5s-4.5-2-4.5-4.5S195.5,364.4,198,364.4L198,364.4z M198,307.5c2.5,0,4.5,2,4.5,4.5
	s-2,4.5-4.5,4.5s-4.5-2-4.5-4.5S195.5,307.5,198,307.5L198,307.5z M198,296.1c2.5,0,4.5,2,4.5,4.5s-2,4.5-4.5,4.5s-4.5-2-4.5-4.5
	S195.5,296.1,198,296.1L198,296.1z M198,284.7c2.5,0,4.5,2,4.5,4.5s-2,4.5-4.5,4.5s-4.5-2-4.5-4.5
	C193.5,286.8,195.5,284.7,198,284.7L198,284.7z M198,273.4c2.5,0,4.5,2,4.5,4.5s-2,4.5-4.5,4.5s-4.5-2-4.5-4.5
	S195.5,273.4,198,273.4L198,273.4z M198,262c2.5,0,4.5,2,4.5,4.5s-2,4.5-4.5,4.5s-4.5-2-4.5-4.5S195.5,262,198,262L198,262z
	 M198,250.6c2.5,0,4.5,2,4.5,4.5s-2,4.5-4.5,4.5s-4.5-2-4.5-4.5S195.5,250.6,198,250.6L198,250.6z M198,239.2c2.5,0,4.5,2,4.5,4.5
	s-2,4.5-4.5,4.5s-4.5-2-4.5-4.5S195.5,239.2,198,239.2L198,239.2z M198,227.8c2.5,0,4.5,2,4.5,4.5s-2,4.5-4.5,4.5s-4.5-2-4.5-4.5
	C193.5,229.9,195.5,227.8,198,227.8L198,227.8z M198,216.5c2.5,0,4.5,2,4.5,4.5s-2,4.5-4.5,4.5s-4.5-2-4.5-4.5
	S195.5,216.5,198,216.5L198,216.5z M198,205.1c2.5,0,4.5,2,4.5,4.5s-2,4.5-4.5,4.5s-4.5-2-4.5-4.5S195.5,205.1,198,205.1L198,205.1z
	 M198,68.5c2.5,0,4.5,2,4.5,4.5s-2,4.5-4.5,4.5s-4.5-2-4.5-4.5S195.5,68.5,198,68.5L198,68.5z M198,57.1c2.5,0,4.5,2,4.5,4.5
	s-2,4.5-4.5,4.5s-4.5-2-4.5-4.5C193.5,59.2,195.5,57.1,198,57.1L198,57.1z M198,45.8c2.5,0,4.5,2,4.5,4.5s-2,4.5-4.5,4.5
	s-4.5-2-4.5-4.5S195.5,45.8,198,45.8L198,45.8z M198,34.4c2.5,0,4.5,2,4.5,4.5s-2,4.5-4.5,4.5s-4.5-2-4.5-4.5S195.5,34.4,198,34.4
	L198,34.4z M198,23c2.5,0,4.5,2,4.5,4.5s-2,4.5-4.5,4.5s-4.5-2-4.5-4.5S195.5,23,198,23L198,23z M198,11.6c2.5,0,4.5,2,4.5,4.5
	s-2,4.5-4.5,4.5s-4.5-2-4.5-4.5S195.5,11.6,198,11.6L198,11.6z M209.4,296.1c2.5,0,4.5,2,4.5,4.5s-2,4.5-4.5,4.5s-4.5-2-4.5-4.5
	S206.9,296.1,209.4,296.1L209.4,296.1z M209.4,284.7c2.5,0,4.5,2,4.5,4.5s-2,4.5-4.5,4.5s-4.5-2-4.5-4.5
	C204.9,286.8,206.9,284.7,209.4,284.7L209.4,284.7z M209.4,273.4c2.5,0,4.5,2,4.5,4.5s-2,4.5-4.5,4.5s-4.5-2-4.5-4.5
	S206.9,273.4,209.4,273.4L209.4,273.4z M209.4,262c2.5,0,4.5,2,4.5,4.5s-2,4.5-4.5,4.5s-4.5-2-4.5-4.5S206.9,262,209.4,262
	L209.4,262z M209.4,250.6c2.5,0,4.5,2,4.5,4.5s-2,4.5-4.5,4.5s-4.5-2-4.5-4.5S206.9,250.6,209.4,250.6L209.4,250.6z M209.4,239.2
	c2.5,0,4.5,2,4.5,4.5s-2,4.5-4.5,4.5s-4.5-2-4.5-4.5S206.9,239.2,209.4,239.2L209.4,239.2z M209.4,227.8c2.5,0,4.5,2,4.5,4.5
	s-2,4.5-4.5,4.5s-4.5-2-4.5-4.5C204.9,229.9,206.9,227.8,209.4,227.8L209.4,227.8z M209.4,216.5c2.5,0,4.5,2,4.5,4.5s-2,4.5-4.5,4.5
	s-4.5-2-4.5-4.5S206.9,216.5,209.4,216.5L209.4,216.5z M209.4,79.9c2.5,0,4.5,2,4.5,4.5s-2,4.5-4.5,4.5s-4.5-2-4.5-4.5
	S206.9,79.9,209.4,79.9L209.4,79.9z M209.4,68.5c2.5,0,4.5,2,4.5,4.5s-2,4.5-4.5,4.5s-4.5-2-4.5-4.5S206.9,68.5,209.4,68.5
	L209.4,68.5z M209.4,34.4c2.5,0,4.5,2,4.5,4.5s-2,4.5-4.5,4.5s-4.5-2-4.5-4.5S206.9,34.4,209.4,34.4L209.4,34.4z M209.4,11.6
	c2.5,0,4.5,2,4.5,4.5s-2,4.5-4.5,4.5s-4.5-2-4.5-4.5S206.9,11.6,209.4,11.6L209.4,11.6z M220.8,273.4c2.5,0,4.5,2,4.5,4.5
	s-2,4.5-4.5,4.5s-4.5-2-4.5-4.5S218.3,273.4,220.8,273.4L220.8,273.4z M220.8,262c2.5,0,4.5,2,4.5,4.5s-2,4.5-4.5,4.5
	s-4.5-2-4.5-4.5S218.3,262,220.8,262L220.8,262z M220.8,250.6c2.5,0,4.5,2,4.5,4.5s-2,4.5-4.5,4.5s-4.5-2-4.5-4.5
	S218.3,250.6,220.8,250.6L220.8,250.6z M220.8,239.2c2.5,0,4.5,2,4.5,4.5s-2,4.5-4.5,4.5s-4.5-2-4.5-4.5S218.3,239.2,220.8,239.2
	L220.8,239.2z M220.8,227.8c2.5,0,4.5,2,4.5,4.5s-2,4.5-4.5,4.5s-4.5-2-4.5-4.5C216.3,229.9,218.3,227.8,220.8,227.8L220.8,227.8z
	 M220.8,11.6c2.5,0,4.5,2,4.5,4.5s-2,4.5-4.5,4.5s-4.5-2-4.5-4.5S218.3,11.6,220.8,11.6L220.8,11.6z M232.2,250.6
	c2.5,0,4.5,2,4.5,4.5s-2,4.5-4.5,4.5s-4.5-2-4.5-4.5C227.6,252.6,229.7,250.6,232.2,250.6L232.2,250.6z M232.2,239.2
	c2.5,0,4.5,2,4.5,4.5s-2,4.5-4.5,4.5s-4.5-2-4.5-4.5C227.6,241.2,229.7,239.2,232.2,239.2L232.2,239.2z M232.2,227.8
	c2.5,0,4.5,2,4.5,4.5s-2,4.5-4.5,4.5s-4.5-2-4.5-4.5C227.6,229.9,229.7,227.8,232.2,227.8L232.2,227.8z M232.2,45.8
	c2.5,0,4.5,2,4.5,4.5s-2,4.5-4.5,4.5s-4.5-2-4.5-4.5C227.6,47.8,229.7,45.8,232.2,45.8L232.2,45.8z M232.2,11.6c2.5,0,4.5,2,4.5,4.5
	s-2,4.5-4.5,4.5s-4.5-2-4.5-4.5C227.6,13.6,229.7,11.6,232.2,11.6L232.2,11.6z M232.2,0.2c2.5,0,4.5,2,4.5,4.5s-2,4.5-4.5,4.5
	s-4.5-2-4.5-4.5C227.6,2.3,229.7,0.2,232.2,0.2L232.2,0.2z M243.5,45.8c2.5,0,4.5,2,4.5,4.5s-2,4.5-4.5,4.5s-4.5-2-4.5-4.5
	S241,45.8,243.5,45.8L243.5,45.8z M243.5,34.4c2.5,0,4.5,2,4.5,4.5s-2,4.5-4.5,4.5s-4.5-2-4.5-4.5S241,34.4,243.5,34.4L243.5,34.4z
	 M243.5,23c2.5,0,4.5,2,4.5,4.5s-2,4.5-4.5,4.5s-4.5-2-4.5-4.5S241,23,243.5,23L243.5,23z M243.5,11.6c2.5,0,4.5,2,4.5,4.5
	s-2,4.5-4.5,4.5s-4.5-2-4.5-4.5S241,11.6,243.5,11.6L243.5,11.6z M254.9,34.4c2.5,0,4.5,2,4.5,4.5s-2,4.5-4.5,4.5s-4.5-2-4.5-4.5
	S252.4,34.4,254.9,34.4L254.9,34.4z M254.9,23c2.5,0,4.5,2,4.5,4.5s-2,4.5-4.5,4.5s-4.5-2-4.5-4.5S252.4,23,254.9,23L254.9,23z
	 M254.9,11.6c2.5,0,4.5,2,4.5,4.5s-2,4.5-4.5,4.5s-4.5-2-4.5-4.5S252.4,11.6,254.9,11.6L254.9,11.6z M266.3,34.4
	c2.5,0,4.5,2,4.5,4.5s-2,4.5-4.5,4.5s-4.5-2-4.5-4.5S263.8,34.4,266.3,34.4L266.3,34.4z M266.3,23c2.5,0,4.5,2,4.5,4.5
	s-2,4.5-4.5,4.5s-4.5-2-4.5-4.5S263.8,23,266.3,23L266.3,23z M266.3,11.6c2.5,0,4.5,2,4.5,4.5s-2,4.5-4.5,4.5s-4.5-2-4.5-4.5
	S263.8,11.6,266.3,11.6L266.3,11.6z M277.7,34.4c2.5,0,4.5,2,4.5,4.5s-2,4.5-4.5,4.5s-4.5-2-4.5-4.5S275.2,34.4,277.7,34.4
	L277.7,34.4z M277.7,23c2.5,0,4.5,2,4.5,4.5s-2,4.5-4.5,4.5s-4.5-2-4.5-4.5S275.2,23,277.7,23L277.7,23z M277.7,11.6
	c2.5,0,4.5,2,4.5,4.5s-2,4.5-4.5,4.5s-4.5-2-4.5-4.5S275.2,11.6,277.7,11.6L277.7,11.6z M277.7,0.2c2.5,0,4.5,2,4.5,4.5
	s-2,4.5-4.5,4.5s-4.5-2-4.5-4.5C273.2,2.3,275.2,0.2,277.7,0.2L277.7,0.2z M289.1,182.3c2.5,0,4.5,2,4.5,4.5s-2,4.5-4.5,4.5
	s-4.5-2-4.5-4.5C284.5,184.3,286.6,182.3,289.1,182.3L289.1,182.3z M289.1,170.9c2.5,0,4.5,2,4.5,4.5s-2,4.5-4.5,4.5s-4.5-2-4.5-4.5
	C284.5,173,286.6,170.9,289.1,170.9L289.1,170.9z M289.1,159.6c2.5,0,4.5,2,4.5,4.5s-2,4.5-4.5,4.5s-4.5-2-4.5-4.5
	C284.5,161.6,286.6,159.6,289.1,159.6L289.1,159.6z M289.1,148.2c2.5,0,4.5,2,4.5,4.5s-2,4.5-4.5,4.5s-4.5-2-4.5-4.5
	C284.5,150.2,286.6,148.2,289.1,148.2L289.1,148.2z M289.1,45.8c2.5,0,4.5,2,4.5,4.5s-2,4.5-4.5,4.5s-4.5-2-4.5-4.5
	C284.5,47.8,286.6,45.8,289.1,45.8L289.1,45.8z M289.1,23c2.5,0,4.5,2,4.5,4.5s-2,4.5-4.5,4.5s-4.5-2-4.5-4.5
	C284.5,25,286.6,23,289.1,23L289.1,23z M289.1,11.6c2.5,0,4.5,2,4.5,4.5s-2,4.5-4.5,4.5s-4.5-2-4.5-4.5
	C284.5,13.6,286.6,11.6,289.1,11.6L289.1,11.6z M289.1,0.2c2.5,0,4.5,2,4.5,4.5s-2,4.5-4.5,4.5s-4.5-2-4.5-4.5
	C284.5,2.3,286.6,0.2,289.1,0.2L289.1,0.2z M300.4,193.7c2.5,0,4.5,2,4.5,4.5s-2,4.5-4.5,4.5s-4.5-2-4.5-4.5
	S297.9,193.7,300.4,193.7L300.4,193.7z M300.4,182.3c2.5,0,4.5,2,4.5,4.5s-2,4.5-4.5,4.5s-4.5-2-4.5-4.5S297.9,182.3,300.4,182.3
	L300.4,182.3z M300.4,170.9c2.5,0,4.5,2,4.5,4.5s-2,4.5-4.5,4.5s-4.5-2-4.5-4.5C295.9,173,297.9,170.9,300.4,170.9L300.4,170.9z
	 M300.4,159.6c2.5,0,4.5,2,4.5,4.5s-2,4.5-4.5,4.5s-4.5-2-4.5-4.5S297.9,159.6,300.4,159.6L300.4,159.6z M300.4,148.2
	c2.5,0,4.5,2,4.5,4.5s-2,4.5-4.5,4.5s-4.5-2-4.5-4.5S297.9,148.2,300.4,148.2L300.4,148.2z M300.4,136.8c2.5,0,4.5,2,4.5,4.5
	s-2,4.5-4.5,4.5s-4.5-2-4.5-4.5S297.9,136.8,300.4,136.8L300.4,136.8z M300.4,45.8c2.5,0,4.5,2,4.5,4.5s-2,4.5-4.5,4.5
	s-4.5-2-4.5-4.5S297.9,45.8,300.4,45.8L300.4,45.8z M300.4,23c2.5,0,4.5,2,4.5,4.5s-2,4.5-4.5,4.5s-4.5-2-4.5-4.5S297.9,23,300.4,23
	L300.4,23z M300.4,11.6c2.5,0,4.5,2,4.5,4.5s-2,4.5-4.5,4.5s-4.5-2-4.5-4.5S297.9,11.6,300.4,11.6L300.4,11.6z M300.4,0.2
	c2.5,0,4.5,2,4.5,4.5s-2,4.5-4.5,4.5s-4.5-2-4.5-4.5C295.9,2.3,297.9,0.2,300.4,0.2L300.4,0.2z M311.8,205.1c2.5,0,4.5,2,4.5,4.5
	s-2,4.5-4.5,4.5s-4.5-2-4.5-4.5S309.3,205.1,311.8,205.1L311.8,205.1z M311.8,193.7c2.5,0,4.5,2,4.5,4.5s-2,4.5-4.5,4.5
	s-4.5-2-4.5-4.5S309.3,193.7,311.8,193.7L311.8,193.7z M311.8,182.3c2.5,0,4.5,2,4.5,4.5s-2,4.5-4.5,4.5s-4.5-2-4.5-4.5
	S309.3,182.3,311.8,182.3L311.8,182.3z M311.8,170.9c2.5,0,4.5,2,4.5,4.5s-2,4.5-4.5,4.5s-4.5-2-4.5-4.5
	C307.3,173,309.3,170.9,311.8,170.9L311.8,170.9z M311.8,159.6c2.5,0,4.5,2,4.5,4.5s-2,4.5-4.5,4.5s-4.5-2-4.5-4.5
	S309.3,159.6,311.8,159.6L311.8,159.6z M311.8,148.2c2.5,0,4.5,2,4.5,4.5s-2,4.5-4.5,4.5s-4.5-2-4.5-4.5S309.3,148.2,311.8,148.2
	L311.8,148.2z M311.8,136.8c2.5,0,4.5,2,4.5,4.5s-2,4.5-4.5,4.5s-4.5-2-4.5-4.5S309.3,136.8,311.8,136.8L311.8,136.8z M311.8,125.4
	c2.5,0,4.5,2,4.5,4.5c0,2.5-2,4.5-4.5,4.5s-4.5-2-4.5-4.5C307.3,127.4,309.3,125.4,311.8,125.4L311.8,125.4z M311.8,102.7
	c2.5,0,4.5,2,4.5,4.5s-2,4.5-4.5,4.5s-4.5-2-4.5-4.5S309.3,102.7,311.8,102.7L311.8,102.7z M311.8,68.5c2.5,0,4.5,2,4.5,4.5
	s-2,4.5-4.5,4.5s-4.5-2-4.5-4.5S309.3,68.5,311.8,68.5L311.8,68.5z M311.8,0.2c2.5,0,4.5,2,4.5,4.5s-2,4.5-4.5,4.5s-4.5-2-4.5-4.5
	C307.3,2.3,309.3,0.2,311.8,0.2L311.8,0.2z M323.2,193.7c2.5,0,4.5,2,4.5,4.5s-2,4.5-4.5,4.5s-4.5-2-4.5-4.5
	S320.7,193.7,323.2,193.7L323.2,193.7z M323.2,182.3c2.5,0,4.5,2,4.5,4.5s-2,4.5-4.5,4.5s-4.5-2-4.5-4.5S320.7,182.3,323.2,182.3
	L323.2,182.3z M323.2,170.9c2.5,0,4.5,2,4.5,4.5s-2,4.5-4.5,4.5s-4.5-2-4.5-4.5C318.7,173,320.7,170.9,323.2,170.9L323.2,170.9z
	 M323.2,159.6c2.5,0,4.5,2,4.5,4.5s-2,4.5-4.5,4.5s-4.5-2-4.5-4.5S320.7,159.6,323.2,159.6L323.2,159.6z M323.2,148.2
	c2.5,0,4.5,2,4.5,4.5s-2,4.5-4.5,4.5s-4.5-2-4.5-4.5S320.7,148.2,323.2,148.2L323.2,148.2z M323.2,136.8c2.5,0,4.5,2,4.5,4.5
	s-2,4.5-4.5,4.5s-4.5-2-4.5-4.5S320.7,136.8,323.2,136.8L323.2,136.8z M323.2,125.4c2.5,0,4.5,2,4.5,4.5c0,2.5-2,4.5-4.5,4.5
	s-4.5-2-4.5-4.5C318.7,127.4,320.7,125.4,323.2,125.4L323.2,125.4z M323.2,114c2.5,0,4.5,2,4.5,4.5s-2,4.5-4.5,4.5s-4.5-2-4.5-4.5
	C318.7,116.1,320.7,114,323.2,114L323.2,114z M323.2,102.7c2.5,0,4.5,2,4.5,4.5s-2,4.5-4.5,4.5s-4.5-2-4.5-4.5
	S320.7,102.7,323.2,102.7L323.2,102.7z M323.2,79.9c2.5,0,4.5,2,4.5,4.5s-2,4.5-4.5,4.5s-4.5-2-4.5-4.5S320.7,79.9,323.2,79.9
	L323.2,79.9z M323.2,68.5c2.5,0,4.5,2,4.5,4.5s-2,4.5-4.5,4.5s-4.5-2-4.5-4.5S320.7,68.5,323.2,68.5L323.2,68.5z M323.2,57.1
	c2.5,0,4.5,2,4.5,4.5s-2,4.5-4.5,4.5s-4.5-2-4.5-4.5C318.7,59.2,320.7,57.1,323.2,57.1L323.2,57.1z M334.6,193.7
	c2.5,0,4.5,2,4.5,4.5s-2,4.5-4.5,4.5s-4.5-2-4.5-4.5S332.1,193.7,334.6,193.7L334.6,193.7z M334.6,182.3c2.5,0,4.5,2,4.5,4.5
	s-2,4.5-4.5,4.5s-4.5-2-4.5-4.5S332.1,182.3,334.6,182.3L334.6,182.3z M334.6,170.9c2.5,0,4.5,2,4.5,4.5s-2,4.5-4.5,4.5
	s-4.5-2-4.5-4.5C330.1,173,332.1,170.9,334.6,170.9L334.6,170.9z M334.6,159.6c2.5,0,4.5,2,4.5,4.5s-2,4.5-4.5,4.5s-4.5-2-4.5-4.5
	S332.1,159.6,334.6,159.6L334.6,159.6z M334.6,148.2c2.5,0,4.5,2,4.5,4.5s-2,4.5-4.5,4.5s-4.5-2-4.5-4.5S332.1,148.2,334.6,148.2
	L334.6,148.2z M334.6,136.8c2.5,0,4.5,2,4.5,4.5s-2,4.5-4.5,4.5s-4.5-2-4.5-4.5S332.1,136.8,334.6,136.8L334.6,136.8z M334.6,125.4
	c2.5,0,4.5,2,4.5,4.5c0,2.5-2,4.5-4.5,4.5s-4.5-2-4.5-4.5C330.1,127.4,332.1,125.4,334.6,125.4L334.6,125.4z M334.6,102.7
	c2.5,0,4.5,2,4.5,4.5s-2,4.5-4.5,4.5s-4.5-2-4.5-4.5S332.1,102.7,334.6,102.7L334.6,102.7z M334.6,91.3c2.5,0,4.5,2,4.5,4.5
	s-2,4.5-4.5,4.5s-4.5-2-4.5-4.5S332.1,91.3,334.6,91.3L334.6,91.3z M334.6,79.9c2.5,0,4.5,2,4.5,4.5s-2,4.5-4.5,4.5s-4.5-2-4.5-4.5
	S332.1,79.9,334.6,79.9L334.6,79.9z M346,193.7c2.5,0,4.5,2,4.5,4.5s-2,4.5-4.5,4.5s-4.5-2-4.5-4.5
	C341.4,195.7,343.5,193.7,346,193.7L346,193.7z M346,182.3c2.5,0,4.5,2,4.5,4.5s-2,4.5-4.5,4.5s-4.5-2-4.5-4.5
	C341.4,184.3,343.5,182.3,346,182.3L346,182.3z M346,170.9c2.5,0,4.5,2,4.5,4.5s-2,4.5-4.5,4.5s-4.5-2-4.5-4.5
	C341.4,173,343.5,170.9,346,170.9L346,170.9z M346,159.6c2.5,0,4.5,2,4.5,4.5s-2,4.5-4.5,4.5s-4.5-2-4.5-4.5
	C341.4,161.6,343.5,159.6,346,159.6L346,159.6z M346,148.2c2.5,0,4.5,2,4.5,4.5s-2,4.5-4.5,4.5s-4.5-2-4.5-4.5
	C341.4,150.2,343.5,148.2,346,148.2L346,148.2z M346,136.8c2.5,0,4.5,2,4.5,4.5s-2,4.5-4.5,4.5s-4.5-2-4.5-4.5
	C341.4,138.8,343.5,136.8,346,136.8L346,136.8z M346,125.4c2.5,0,4.5,2,4.5,4.5c0,2.5-2,4.5-4.5,4.5s-4.5-2-4.5-4.5
	C341.4,127.4,343.5,125.4,346,125.4L346,125.4z M346,114c2.5,0,4.5,2,4.5,4.5s-2,4.5-4.5,4.5s-4.5-2-4.5-4.5
	C341.4,116.1,343.5,114,346,114L346,114z M346,91.3c2.5,0,4.5,2,4.5,4.5s-2,4.5-4.5,4.5s-4.5-2-4.5-4.5
	C341.4,93.3,343.5,91.3,346,91.3L346,91.3z M346,79.9c2.5,0,4.5,2,4.5,4.5s-2,4.5-4.5,4.5s-4.5-2-4.5-4.5
	C341.4,81.9,343.5,79.9,346,79.9L346,79.9z M346,68.5c2.5,0,4.5,2,4.5,4.5s-2,4.5-4.5,4.5s-4.5-2-4.5-4.5
	C341.4,70.5,343.5,68.5,346,68.5L346,68.5z M346,57.1c2.5,0,4.5,2,4.5,4.5s-2,4.5-4.5,4.5s-4.5-2-4.5-4.5
	C341.4,59.2,343.5,57.1,346,57.1L346,57.1z M346,45.8c2.5,0,4.5,2,4.5,4.5s-2,4.5-4.5,4.5s-4.5-2-4.5-4.5
	C341.4,47.8,343.5,45.8,346,45.8L346,45.8z M357.3,273.4c2.5,0,4.5,2,4.5,4.5s-2,4.5-4.5,4.5s-4.5-2-4.5-4.5
	S354.8,273.4,357.3,273.4L357.3,273.4z M357.3,262c2.5,0,4.5,2,4.5,4.5s-2,4.5-4.5,4.5s-4.5-2-4.5-4.5S354.8,262,357.3,262
	L357.3,262z M357.3,227.8c2.5,0,4.5,2,4.5,4.5s-2,4.5-4.5,4.5s-4.5-2-4.5-4.5C352.8,229.9,354.8,227.8,357.3,227.8L357.3,227.8z
	 M357.3,216.5c2.5,0,4.5,2,4.5,4.5s-2,4.5-4.5,4.5s-4.5-2-4.5-4.5S354.8,216.5,357.3,216.5L357.3,216.5z M357.3,205.1
	c2.5,0,4.5,2,4.5,4.5s-2,4.5-4.5,4.5s-4.5-2-4.5-4.5S354.8,205.1,357.3,205.1L357.3,205.1z M357.3,193.7c2.5,0,4.5,2,4.5,4.5
	s-2,4.5-4.5,4.5s-4.5-2-4.5-4.5S354.8,193.7,357.3,193.7L357.3,193.7z M357.3,182.3c2.5,0,4.5,2,4.5,4.5s-2,4.5-4.5,4.5
	s-4.5-2-4.5-4.5S354.8,182.3,357.3,182.3L357.3,182.3z M357.3,170.9c2.5,0,4.5,2,4.5,4.5s-2,4.5-4.5,4.5s-4.5-2-4.5-4.5
	C352.8,173,354.8,170.9,357.3,170.9L357.3,170.9z M357.3,159.6c2.5,0,4.5,2,4.5,4.5s-2,4.5-4.5,4.5s-4.5-2-4.5-4.5
	S354.8,159.6,357.3,159.6L357.3,159.6z M357.3,148.2c2.5,0,4.5,2,4.5,4.5s-2,4.5-4.5,4.5s-4.5-2-4.5-4.5S354.8,148.2,357.3,148.2
	L357.3,148.2z M357.3,136.8c2.5,0,4.5,2,4.5,4.5s-2,4.5-4.5,4.5s-4.5-2-4.5-4.5S354.8,136.8,357.3,136.8L357.3,136.8z M357.3,125.4
	c2.5,0,4.5,2,4.5,4.5c0,2.5-2,4.5-4.5,4.5s-4.5-2-4.5-4.5C352.8,127.4,354.8,125.4,357.3,125.4L357.3,125.4z M357.3,114
	c2.5,0,4.5,2,4.5,4.5s-2,4.5-4.5,4.5s-4.5-2-4.5-4.5C352.8,116.1,354.8,114,357.3,114L357.3,114z M357.3,91.3c2.5,0,4.5,2,4.5,4.5
	s-2,4.5-4.5,4.5s-4.5-2-4.5-4.5S354.8,91.3,357.3,91.3L357.3,91.3z M357.3,79.9c2.5,0,4.5,2,4.5,4.5s-2,4.5-4.5,4.5s-4.5-2-4.5-4.5
	S354.8,79.9,357.3,79.9L357.3,79.9z M357.3,68.5c2.5,0,4.5,2,4.5,4.5s-2,4.5-4.5,4.5s-4.5-2-4.5-4.5S354.8,68.5,357.3,68.5
	L357.3,68.5z M357.3,57.1c2.5,0,4.5,2,4.5,4.5s-2,4.5-4.5,4.5s-4.5-2-4.5-4.5C352.8,59.2,354.8,57.1,357.3,57.1L357.3,57.1z
	 M357.3,45.8c2.5,0,4.5,2,4.5,4.5s-2,4.5-4.5,4.5s-4.5-2-4.5-4.5S354.8,45.8,357.3,45.8L357.3,45.8z M368.7,296.1
	c2.5,0,4.5,2,4.5,4.5s-2,4.5-4.5,4.5s-4.5-2-4.5-4.5S366.2,296.1,368.7,296.1L368.7,296.1z M368.7,284.7c2.5,0,4.5,2,4.5,4.5
	s-2,4.5-4.5,4.5s-4.5-2-4.5-4.5C364.2,286.8,366.2,284.7,368.7,284.7L368.7,284.7z M368.7,273.4c2.5,0,4.5,2,4.5,4.5s-2,4.5-4.5,4.5
	s-4.5-2-4.5-4.5S366.2,273.4,368.7,273.4L368.7,273.4z M368.7,262c2.5,0,4.5,2,4.5,4.5s-2,4.5-4.5,4.5s-4.5-2-4.5-4.5
	S366.2,262,368.7,262L368.7,262z M368.7,250.6c2.5,0,4.5,2,4.5,4.5s-2,4.5-4.5,4.5s-4.5-2-4.5-4.5S366.2,250.6,368.7,250.6
	L368.7,250.6z M368.7,239.2c2.5,0,4.5,2,4.5,4.5s-2,4.5-4.5,4.5s-4.5-2-4.5-4.5S366.2,239.2,368.7,239.2L368.7,239.2z M368.7,227.8
	c2.5,0,4.5,2,4.5,4.5s-2,4.5-4.5,4.5s-4.5-2-4.5-4.5C364.2,229.9,366.2,227.8,368.7,227.8L368.7,227.8z M368.7,216.5
	c2.5,0,4.5,2,4.5,4.5s-2,4.5-4.5,4.5s-4.5-2-4.5-4.5S366.2,216.5,368.7,216.5L368.7,216.5z M368.7,205.1c2.5,0,4.5,2,4.5,4.5
	s-2,4.5-4.5,4.5s-4.5-2-4.5-4.5S366.2,205.1,368.7,205.1L368.7,205.1z M368.7,193.7c2.5,0,4.5,2,4.5,4.5s-2,4.5-4.5,4.5
	s-4.5-2-4.5-4.5S366.2,193.7,368.7,193.7L368.7,193.7z M368.7,182.3c2.5,0,4.5,2,4.5,4.5s-2,4.5-4.5,4.5s-4.5-2-4.5-4.5
	S366.2,182.3,368.7,182.3L368.7,182.3z M368.7,170.9c2.5,0,4.5,2,4.5,4.5s-2,4.5-4.5,4.5s-4.5-2-4.5-4.5
	C364.2,173,366.2,170.9,368.7,170.9L368.7,170.9z M368.7,159.6c2.5,0,4.5,2,4.5,4.5s-2,4.5-4.5,4.5s-4.5-2-4.5-4.5
	S366.2,159.6,368.7,159.6L368.7,159.6z M368.7,148.2c2.5,0,4.5,2,4.5,4.5s-2,4.5-4.5,4.5s-4.5-2-4.5-4.5S366.2,148.2,368.7,148.2
	L368.7,148.2z M368.7,136.8c2.5,0,4.5,2,4.5,4.5s-2,4.5-4.5,4.5s-4.5-2-4.5-4.5S366.2,136.8,368.7,136.8L368.7,136.8z M368.7,102.7
	c2.5,0,4.5,2,4.5,4.5s-2,4.5-4.5,4.5s-4.5-2-4.5-4.5S366.2,102.7,368.7,102.7L368.7,102.7z M368.7,91.3c2.5,0,4.5,2,4.5,4.5
	s-2,4.5-4.5,4.5s-4.5-2-4.5-4.5S366.2,91.3,368.7,91.3L368.7,91.3z M368.7,79.9c2.5,0,4.5,2,4.5,4.5s-2,4.5-4.5,4.5s-4.5-2-4.5-4.5
	S366.2,79.9,368.7,79.9L368.7,79.9z M368.7,68.5c2.5,0,4.5,2,4.5,4.5s-2,4.5-4.5,4.5s-4.5-2-4.5-4.5S366.2,68.5,368.7,68.5
	L368.7,68.5z M368.7,57.1c2.5,0,4.5,2,4.5,4.5s-2,4.5-4.5,4.5s-4.5-2-4.5-4.5C364.2,59.2,366.2,57.1,368.7,57.1L368.7,57.1z
	 M368.7,45.8c2.5,0,4.5,2,4.5,4.5s-2,4.5-4.5,4.5s-4.5-2-4.5-4.5S366.2,45.8,368.7,45.8L368.7,45.8z M368.7,34.4
	c2.5,0,4.5,2,4.5,4.5s-2,4.5-4.5,4.5s-4.5-2-4.5-4.5S366.2,34.4,368.7,34.4L368.7,34.4z M380.1,307.5c2.5,0,4.5,2,4.5,4.5
	s-2,4.5-4.5,4.5s-4.5-2-4.5-4.5S377.6,307.5,380.1,307.5L380.1,307.5z M380.1,296.1c2.5,0,4.5,2,4.5,4.5s-2,4.5-4.5,4.5
	s-4.5-2-4.5-4.5S377.6,296.1,380.1,296.1L380.1,296.1z M380.1,284.7c2.5,0,4.5,2,4.5,4.5s-2,4.5-4.5,4.5s-4.5-2-4.5-4.5
	C375.6,286.8,377.6,284.7,380.1,284.7L380.1,284.7z M380.1,273.4c2.5,0,4.5,2,4.5,4.5s-2,4.5-4.5,4.5s-4.5-2-4.5-4.5
	S377.6,273.4,380.1,273.4L380.1,273.4z M380.1,262c2.5,0,4.5,2,4.5,4.5s-2,4.5-4.5,4.5s-4.5-2-4.5-4.5S377.6,262,380.1,262
	L380.1,262z M380.1,250.6c2.5,0,4.5,2,4.5,4.5s-2,4.5-4.5,4.5s-4.5-2-4.5-4.5S377.6,250.6,380.1,250.6L380.1,250.6z M380.1,239.2
	c2.5,0,4.5,2,4.5,4.5s-2,4.5-4.5,4.5s-4.5-2-4.5-4.5S377.6,239.2,380.1,239.2L380.1,239.2z M380.1,227.8c2.5,0,4.5,2,4.5,4.5
	s-2,4.5-4.5,4.5s-4.5-2-4.5-4.5C375.6,229.9,377.6,227.8,380.1,227.8L380.1,227.8z M380.1,216.5c2.5,0,4.5,2,4.5,4.5s-2,4.5-4.5,4.5
	s-4.5-2-4.5-4.5S377.6,216.5,380.1,216.5L380.1,216.5z M380.1,205.1c2.5,0,4.5,2,4.5,4.5s-2,4.5-4.5,4.5s-4.5-2-4.5-4.5
	S377.6,205.1,380.1,205.1L380.1,205.1z M380.1,193.7c2.5,0,4.5,2,4.5,4.5s-2,4.5-4.5,4.5s-4.5-2-4.5-4.5S377.6,193.7,380.1,193.7
	L380.1,193.7z M380.1,182.3c2.5,0,4.5,2,4.5,4.5s-2,4.5-4.5,4.5s-4.5-2-4.5-4.5S377.6,182.3,380.1,182.3L380.1,182.3z M380.1,170.9
	c2.5,0,4.5,2,4.5,4.5s-2,4.5-4.5,4.5s-4.5-2-4.5-4.5C375.6,173,377.6,170.9,380.1,170.9L380.1,170.9z M380.1,159.6
	c2.5,0,4.5,2,4.5,4.5s-2,4.5-4.5,4.5s-4.5-2-4.5-4.5S377.6,159.6,380.1,159.6L380.1,159.6z M380.1,148.2c2.5,0,4.5,2,4.5,4.5
	s-2,4.5-4.5,4.5s-4.5-2-4.5-4.5S377.6,148.2,380.1,148.2L380.1,148.2z M380.1,136.8c2.5,0,4.5,2,4.5,4.5s-2,4.5-4.5,4.5
	s-4.5-2-4.5-4.5S377.6,136.8,380.1,136.8L380.1,136.8z M380.1,114c2.5,0,4.5,2,4.5,4.5s-2,4.5-4.5,4.5s-4.5-2-4.5-4.5
	C375.6,116.1,377.6,114,380.1,114L380.1,114z M380.1,102.7c2.5,0,4.5,2,4.5,4.5s-2,4.5-4.5,4.5s-4.5-2-4.5-4.5
	S377.6,102.7,380.1,102.7L380.1,102.7z M380.1,91.3c2.5,0,4.5,2,4.5,4.5s-2,4.5-4.5,4.5s-4.5-2-4.5-4.5S377.6,91.3,380.1,91.3
	L380.1,91.3z M380.1,79.9c2.5,0,4.5,2,4.5,4.5s-2,4.5-4.5,4.5s-4.5-2-4.5-4.5S377.6,79.9,380.1,79.9L380.1,79.9z M380.1,68.5
	c2.5,0,4.5,2,4.5,4.5s-2,4.5-4.5,4.5s-4.5-2-4.5-4.5S377.6,68.5,380.1,68.5L380.1,68.5z M380.1,57.1c2.5,0,4.5,2,4.5,4.5
	s-2,4.5-4.5,4.5s-4.5-2-4.5-4.5C375.6,59.2,377.6,57.1,380.1,57.1L380.1,57.1z M380.1,45.8c2.5,0,4.5,2,4.5,4.5s-2,4.5-4.5,4.5
	s-4.5-2-4.5-4.5S377.6,45.8,380.1,45.8L380.1,45.8z M380.1,34.4c2.5,0,4.5,2,4.5,4.5s-2,4.5-4.5,4.5s-4.5-2-4.5-4.5
	S377.6,34.4,380.1,34.4L380.1,34.4z M391.5,307.5c2.5,0,4.5,2,4.5,4.5s-2,4.5-4.5,4.5s-4.5-2-4.5-4.5S389,307.5,391.5,307.5
	L391.5,307.5z M391.5,296.1c2.5,0,4.5,2,4.5,4.5s-2,4.5-4.5,4.5s-4.5-2-4.5-4.5S389,296.1,391.5,296.1L391.5,296.1z M391.5,284.7
	c2.5,0,4.5,2,4.5,4.5s-2,4.5-4.5,4.5s-4.5-2-4.5-4.5C387,286.8,389,284.7,391.5,284.7L391.5,284.7z M391.5,273.4
	c2.5,0,4.5,2,4.5,4.5s-2,4.5-4.5,4.5s-4.5-2-4.5-4.5S389,273.4,391.5,273.4L391.5,273.4z M391.5,262c2.5,0,4.5,2,4.5,4.5
	s-2,4.5-4.5,4.5s-4.5-2-4.5-4.5S389,262,391.5,262L391.5,262z M391.5,250.6c2.5,0,4.5,2,4.5,4.5s-2,4.5-4.5,4.5s-4.5-2-4.5-4.5
	S389,250.6,391.5,250.6L391.5,250.6z M391.5,239.2c2.5,0,4.5,2,4.5,4.5s-2,4.5-4.5,4.5s-4.5-2-4.5-4.5S389,239.2,391.5,239.2
	L391.5,239.2z M391.5,227.8c2.5,0,4.5,2,4.5,4.5s-2,4.5-4.5,4.5s-4.5-2-4.5-4.5C387,229.9,389,227.8,391.5,227.8L391.5,227.8z
	 M391.5,216.5c2.5,0,4.5,2,4.5,4.5s-2,4.5-4.5,4.5s-4.5-2-4.5-4.5S389,216.5,391.5,216.5L391.5,216.5z M391.5,205.1
	c2.5,0,4.5,2,4.5,4.5s-2,4.5-4.5,4.5s-4.5-2-4.5-4.5S389,205.1,391.5,205.1L391.5,205.1z M391.5,193.7c2.5,0,4.5,2,4.5,4.5
	s-2,4.5-4.5,4.5s-4.5-2-4.5-4.5S389,193.7,391.5,193.7L391.5,193.7z M391.5,182.3c2.5,0,4.5,2,4.5,4.5s-2,4.5-4.5,4.5
	s-4.5-2-4.5-4.5S389,182.3,391.5,182.3L391.5,182.3z M391.5,170.9c2.5,0,4.5,2,4.5,4.5s-2,4.5-4.5,4.5s-4.5-2-4.5-4.5
	C387,173,389,170.9,391.5,170.9L391.5,170.9z M391.5,159.6c2.5,0,4.5,2,4.5,4.5s-2,4.5-4.5,4.5s-4.5-2-4.5-4.5
	S389,159.6,391.5,159.6L391.5,159.6z M391.5,148.2c2.5,0,4.5,2,4.5,4.5s-2,4.5-4.5,4.5s-4.5-2-4.5-4.5S389,148.2,391.5,148.2
	L391.5,148.2z M391.5,136.8c2.5,0,4.5,2,4.5,4.5s-2,4.5-4.5,4.5s-4.5-2-4.5-4.5S389,136.8,391.5,136.8L391.5,136.8z M391.5,102.7
	c2.5,0,4.5,2,4.5,4.5s-2,4.5-4.5,4.5s-4.5-2-4.5-4.5S389,102.7,391.5,102.7L391.5,102.7z M391.5,91.3c2.5,0,4.5,2,4.5,4.5
	s-2,4.5-4.5,4.5s-4.5-2-4.5-4.5S389,91.3,391.5,91.3L391.5,91.3z M391.5,79.9c2.5,0,4.5,2,4.5,4.5s-2,4.5-4.5,4.5s-4.5-2-4.5-4.5
	S389,79.9,391.5,79.9L391.5,79.9z M391.5,68.5c2.5,0,4.5,2,4.5,4.5s-2,4.5-4.5,4.5s-4.5-2-4.5-4.5S389,68.5,391.5,68.5L391.5,68.5z
	 M391.5,57.1c2.5,0,4.5,2,4.5,4.5s-2,4.5-4.5,4.5s-4.5-2-4.5-4.5C387,59.2,389,57.1,391.5,57.1L391.5,57.1z M391.5,45.8
	c2.5,0,4.5,2,4.5,4.5s-2,4.5-4.5,4.5s-4.5-2-4.5-4.5S389,45.8,391.5,45.8L391.5,45.8z M391.5,34.4c2.5,0,4.5,2,4.5,4.5
	s-2,4.5-4.5,4.5s-4.5-2-4.5-4.5S389,34.4,391.5,34.4L391.5,34.4z M402.9,296.1c2.5,0,4.5,2,4.5,4.5s-2,4.5-4.5,4.5s-4.5-2-4.5-4.5
	C398.3,298.1,400.4,296.1,402.9,296.1L402.9,296.1z M402.9,284.7c2.5,0,4.5,2,4.5,4.5s-2,4.5-4.5,4.5s-4.5-2-4.5-4.5
	C398.3,286.8,400.4,284.7,402.9,284.7L402.9,284.7z M402.9,273.4c2.5,0,4.5,2,4.5,4.5s-2,4.5-4.5,4.5s-4.5-2-4.5-4.5
	C398.3,275.4,400.4,273.4,402.9,273.4L402.9,273.4z M402.9,262c2.5,0,4.5,2,4.5,4.5s-2,4.5-4.5,4.5s-4.5-2-4.5-4.5
	S400.4,262,402.9,262L402.9,262z M402.9,250.6c2.5,0,4.5,2,4.5,4.5s-2,4.5-4.5,4.5s-4.5-2-4.5-4.5
	C398.3,252.6,400.4,250.6,402.9,250.6L402.9,250.6z M402.9,239.2c2.5,0,4.5,2,4.5,4.5s-2,4.5-4.5,4.5s-4.5-2-4.5-4.5
	C398.3,241.2,400.4,239.2,402.9,239.2L402.9,239.2z M402.9,227.8c2.5,0,4.5,2,4.5,4.5s-2,4.5-4.5,4.5s-4.5-2-4.5-4.5
	C398.3,229.9,400.4,227.8,402.9,227.8L402.9,227.8z M402.9,216.5c2.5,0,4.5,2,4.5,4.5s-2,4.5-4.5,4.5s-4.5-2-4.5-4.5
	C398.3,218.5,400.4,216.5,402.9,216.5L402.9,216.5z M402.9,205.1c2.5,0,4.5,2,4.5,4.5s-2,4.5-4.5,4.5s-4.5-2-4.5-4.5
	S400.4,205.1,402.9,205.1L402.9,205.1z M402.9,193.7c2.5,0,4.5,2,4.5,4.5s-2,4.5-4.5,4.5s-4.5-2-4.5-4.5
	C398.3,195.7,400.4,193.7,402.9,193.7L402.9,193.7z M402.9,182.3c2.5,0,4.5,2,4.5,4.5s-2,4.5-4.5,4.5s-4.5-2-4.5-4.5
	C398.3,184.3,400.4,182.3,402.9,182.3L402.9,182.3z M402.9,170.9c2.5,0,4.5,2,4.5,4.5s-2,4.5-4.5,4.5s-4.5-2-4.5-4.5
	C398.3,173,400.4,170.9,402.9,170.9L402.9,170.9z M402.9,159.6c2.5,0,4.5,2,4.5,4.5s-2,4.5-4.5,4.5s-4.5-2-4.5-4.5
	C398.3,161.6,400.4,159.6,402.9,159.6L402.9,159.6z M402.9,148.2c2.5,0,4.5,2,4.5,4.5s-2,4.5-4.5,4.5s-4.5-2-4.5-4.5
	C398.3,150.2,400.4,148.2,402.9,148.2L402.9,148.2z M402.9,136.8c2.5,0,4.5,2,4.5,4.5s-2,4.5-4.5,4.5s-4.5-2-4.5-4.5
	C398.3,138.8,400.4,136.8,402.9,136.8L402.9,136.8z M402.9,114c2.5,0,4.5,2,4.5,4.5s-2,4.5-4.5,4.5s-4.5-2-4.5-4.5
	C398.3,116.1,400.4,114,402.9,114L402.9,114z M402.9,102.7c2.5,0,4.5,2,4.5,4.5s-2,4.5-4.5,4.5s-4.5-2-4.5-4.5
	C398.3,104.7,400.4,102.7,402.9,102.7L402.9,102.7z M402.9,91.3c2.5,0,4.5,2,4.5,4.5s-2,4.5-4.5,4.5s-4.5-2-4.5-4.5
	C398.3,93.3,400.4,91.3,402.9,91.3L402.9,91.3z M402.9,79.9c2.5,0,4.5,2,4.5,4.5s-2,4.5-4.5,4.5s-4.5-2-4.5-4.5
	C398.3,81.9,400.4,79.9,402.9,79.9L402.9,79.9z M402.9,68.5c2.5,0,4.5,2,4.5,4.5s-2,4.5-4.5,4.5s-4.5-2-4.5-4.5
	C398.3,70.5,400.4,68.5,402.9,68.5L402.9,68.5z M402.9,57.1c2.5,0,4.5,2,4.5,4.5s-2,4.5-4.5,4.5s-4.5-2-4.5-4.5
	C398.3,59.2,400.4,57.1,402.9,57.1L402.9,57.1z M402.9,45.8c2.5,0,4.5,2,4.5,4.5s-2,4.5-4.5,4.5s-4.5-2-4.5-4.5
	C398.3,47.8,400.4,45.8,402.9,45.8L402.9,45.8z M402.9,34.4c2.5,0,4.5,2,4.5,4.5s-2,4.5-4.5,4.5s-4.5-2-4.5-4.5
	C398.3,36.4,400.4,34.4,402.9,34.4L402.9,34.4z M414.2,273.4c2.5,0,4.5,2,4.5,4.5s-2,4.5-4.5,4.5s-4.5-2-4.5-4.5
	S411.7,273.4,414.2,273.4L414.2,273.4z M414.2,262c2.5,0,4.5,2,4.5,4.5s-2,4.5-4.5,4.5s-4.5-2-4.5-4.5S411.7,262,414.2,262
	L414.2,262z M414.2,250.6c2.5,0,4.5,2,4.5,4.5s-2,4.5-4.5,4.5s-4.5-2-4.5-4.5S411.7,250.6,414.2,250.6L414.2,250.6z M414.2,239.2
	c2.5,0,4.5,2,4.5,4.5s-2,4.5-4.5,4.5s-4.5-2-4.5-4.5S411.7,239.2,414.2,239.2L414.2,239.2z M414.2,227.8c2.5,0,4.5,2,4.5,4.5
	s-2,4.5-4.5,4.5s-4.5-2-4.5-4.5C409.7,229.9,411.7,227.8,414.2,227.8L414.2,227.8z M414.2,216.5c2.5,0,4.5,2,4.5,4.5s-2,4.5-4.5,4.5
	s-4.5-2-4.5-4.5S411.7,216.5,414.2,216.5L414.2,216.5z M414.2,205.1c2.5,0,4.5,2,4.5,4.5s-2,4.5-4.5,4.5s-4.5-2-4.5-4.5
	S411.7,205.1,414.2,205.1L414.2,205.1z M414.2,193.7c2.5,0,4.5,2,4.5,4.5s-2,4.5-4.5,4.5s-4.5-2-4.5-4.5S411.7,193.7,414.2,193.7
	L414.2,193.7z M414.2,182.3c2.5,0,4.5,2,4.5,4.5s-2,4.5-4.5,4.5s-4.5-2-4.5-4.5S411.7,182.3,414.2,182.3L414.2,182.3z M414.2,170.9
	c2.5,0,4.5,2,4.5,4.5s-2,4.5-4.5,4.5s-4.5-2-4.5-4.5C409.7,173,411.7,170.9,414.2,170.9L414.2,170.9z M414.2,159.6
	c2.5,0,4.5,2,4.5,4.5s-2,4.5-4.5,4.5s-4.5-2-4.5-4.5S411.7,159.6,414.2,159.6L414.2,159.6z M414.2,136.8c2.5,0,4.5,2,4.5,4.5
	s-2,4.5-4.5,4.5s-4.5-2-4.5-4.5S411.7,136.8,414.2,136.8L414.2,136.8z M414.2,125.4c2.5,0,4.5,2,4.5,4.5c0,2.5-2,4.5-4.5,4.5
	s-4.5-2-4.5-4.5C409.7,127.4,411.7,125.4,414.2,125.4L414.2,125.4z M414.2,114c2.5,0,4.5,2,4.5,4.5s-2,4.5-4.5,4.5s-4.5-2-4.5-4.5
	C409.7,116.1,411.7,114,414.2,114L414.2,114z M414.2,102.7c2.5,0,4.5,2,4.5,4.5s-2,4.5-4.5,4.5s-4.5-2-4.5-4.5
	S411.7,102.7,414.2,102.7L414.2,102.7z M414.2,91.3c2.5,0,4.5,2,4.5,4.5s-2,4.5-4.5,4.5s-4.5-2-4.5-4.5S411.7,91.3,414.2,91.3
	L414.2,91.3z M414.2,79.9c2.5,0,4.5,2,4.5,4.5s-2,4.5-4.5,4.5s-4.5-2-4.5-4.5S411.7,79.9,414.2,79.9L414.2,79.9z M414.2,68.5
	c2.5,0,4.5,2,4.5,4.5s-2,4.5-4.5,4.5s-4.5-2-4.5-4.5S411.7,68.5,414.2,68.5L414.2,68.5z M414.2,57.1c2.5,0,4.5,2,4.5,4.5
	s-2,4.5-4.5,4.5s-4.5-2-4.5-4.5C409.7,59.2,411.7,57.1,414.2,57.1L414.2,57.1z M414.2,45.8c2.5,0,4.5,2,4.5,4.5s-2,4.5-4.5,4.5
	s-4.5-2-4.5-4.5S411.7,45.8,414.2,45.8L414.2,45.8z M425.6,250.6c2.5,0,4.5,2,4.5,4.5s-2,4.5-4.5,4.5s-4.5-2-4.5-4.5
	S423.1,250.6,425.6,250.6L425.6,250.6z M425.6,239.2c2.5,0,4.5,2,4.5,4.5s-2,4.5-4.5,4.5s-4.5-2-4.5-4.5S423.1,239.2,425.6,239.2
	L425.6,239.2z M425.6,227.8c2.5,0,4.5,2,4.5,4.5s-2,4.5-4.5,4.5s-4.5-2-4.5-4.5C421.1,229.9,423.1,227.8,425.6,227.8L425.6,227.8z
	 M425.6,216.5c2.5,0,4.5,2,4.5,4.5s-2,4.5-4.5,4.5s-4.5-2-4.5-4.5S423.1,216.5,425.6,216.5L425.6,216.5z M425.6,205.1
	c2.5,0,4.5,2,4.5,4.5s-2,4.5-4.5,4.5s-4.5-2-4.5-4.5S423.1,205.1,425.6,205.1L425.6,205.1z M425.6,193.7c2.5,0,4.5,2,4.5,4.5
	s-2,4.5-4.5,4.5s-4.5-2-4.5-4.5S423.1,193.7,425.6,193.7L425.6,193.7z M425.6,182.3c2.5,0,4.5,2,4.5,4.5s-2,4.5-4.5,4.5
	s-4.5-2-4.5-4.5S423.1,182.3,425.6,182.3L425.6,182.3z M425.6,170.9c2.5,0,4.5,2,4.5,4.5s-2,4.5-4.5,4.5s-4.5-2-4.5-4.5
	C421.1,173,423.1,170.9,425.6,170.9L425.6,170.9z M425.6,148.2c2.5,0,4.5,2,4.5,4.5s-2,4.5-4.5,4.5s-4.5-2-4.5-4.5
	S423.1,148.2,425.6,148.2L425.6,148.2z M425.6,136.8c2.5,0,4.5,2,4.5,4.5s-2,4.5-4.5,4.5s-4.5-2-4.5-4.5S423.1,136.8,425.6,136.8
	L425.6,136.8z M425.6,125.4c2.5,0,4.5,2,4.5,4.5c0,2.5-2,4.5-4.5,4.5s-4.5-2-4.5-4.5C421.1,127.4,423.1,125.4,425.6,125.4
	L425.6,125.4z M425.6,114c2.5,0,4.5,2,4.5,4.5s-2,4.5-4.5,4.5s-4.5-2-4.5-4.5C421.1,116.1,423.1,114,425.6,114L425.6,114z
	 M425.6,102.7c2.5,0,4.5,2,4.5,4.5s-2,4.5-4.5,4.5s-4.5-2-4.5-4.5S423.1,102.7,425.6,102.7L425.6,102.7z M425.6,91.3
	c2.5,0,4.5,2,4.5,4.5s-2,4.5-4.5,4.5s-4.5-2-4.5-4.5S423.1,91.3,425.6,91.3L425.6,91.3z M425.6,79.9c2.5,0,4.5,2,4.5,4.5
	s-2,4.5-4.5,4.5s-4.5-2-4.5-4.5S423.1,79.9,425.6,79.9L425.6,79.9z M425.6,68.5c2.5,0,4.5,2,4.5,4.5s-2,4.5-4.5,4.5s-4.5-2-4.5-4.5
	S423.1,68.5,425.6,68.5L425.6,68.5z M425.6,57.1c2.5,0,4.5,2,4.5,4.5s-2,4.5-4.5,4.5s-4.5-2-4.5-4.5
	C421.1,59.2,423.1,57.1,425.6,57.1L425.6,57.1z M425.6,45.8c2.5,0,4.5,2,4.5,4.5s-2,4.5-4.5,4.5s-4.5-2-4.5-4.5
	S423.1,45.8,425.6,45.8L425.6,45.8z M425.6,34.4c2.5,0,4.5,2,4.5,4.5s-2,4.5-4.5,4.5s-4.5-2-4.5-4.5S423.1,34.4,425.6,34.4
	L425.6,34.4z M437,284.7c2.5,0,4.5,2,4.5,4.5s-2,4.5-4.5,4.5s-4.5-2-4.5-4.5C432.5,286.8,434.5,284.7,437,284.7L437,284.7z
	 M437,273.4c2.5,0,4.5,2,4.5,4.5s-2,4.5-4.5,4.5s-4.5-2-4.5-4.5S434.5,273.4,437,273.4L437,273.4z M437,262c2.5,0,4.5,2,4.5,4.5
	s-2,4.5-4.5,4.5s-4.5-2-4.5-4.5S434.5,262,437,262L437,262z M437,205.1c2.5,0,4.5,2,4.5,4.5s-2,4.5-4.5,4.5s-4.5-2-4.5-4.5
	S434.5,205.1,437,205.1L437,205.1z M437,193.7c2.5,0,4.5,2,4.5,4.5s-2,4.5-4.5,4.5s-4.5-2-4.5-4.5S434.5,193.7,437,193.7L437,193.7z
	 M437,182.3c2.5,0,4.5,2,4.5,4.5s-2,4.5-4.5,4.5s-4.5-2-4.5-4.5S434.5,182.3,437,182.3L437,182.3z M437,170.9c2.5,0,4.5,2,4.5,4.5
	s-2,4.5-4.5,4.5s-4.5-2-4.5-4.5C432.5,173,434.5,170.9,437,170.9L437,170.9z M437,159.6c2.5,0,4.5,2,4.5,4.5s-2,4.5-4.5,4.5
	s-4.5-2-4.5-4.5S434.5,159.6,437,159.6L437,159.6z M437,148.2c2.5,0,4.5,2,4.5,4.5s-2,4.5-4.5,4.5s-4.5-2-4.5-4.5
	S434.5,148.2,437,148.2L437,148.2z M437,136.8c2.5,0,4.5,2,4.5,4.5s-2,4.5-4.5,4.5s-4.5-2-4.5-4.5S434.5,136.8,437,136.8L437,136.8z
	 M437,125.4c2.5,0,4.5,2,4.5,4.5c0,2.5-2,4.5-4.5,4.5s-4.5-2-4.5-4.5C432.5,127.4,434.5,125.4,437,125.4L437,125.4z M437,114
	c2.5,0,4.5,2,4.5,4.5s-2,4.5-4.5,4.5s-4.5-2-4.5-4.5C432.5,116.1,434.5,114,437,114L437,114z M437,102.7c2.5,0,4.5,2,4.5,4.5
	s-2,4.5-4.5,4.5s-4.5-2-4.5-4.5S434.5,102.7,437,102.7L437,102.7z M437,91.3c2.5,0,4.5,2,4.5,4.5s-2,4.5-4.5,4.5s-4.5-2-4.5-4.5
	S434.5,91.3,437,91.3L437,91.3z M437,79.9c2.5,0,4.5,2,4.5,4.5s-2,4.5-4.5,4.5s-4.5-2-4.5-4.5S434.5,79.9,437,79.9L437,79.9z
	 M437,68.5c2.5,0,4.5,2,4.5,4.5s-2,4.5-4.5,4.5s-4.5-2-4.5-4.5S434.5,68.5,437,68.5L437,68.5z M437,57.1c2.5,0,4.5,2,4.5,4.5
	s-2,4.5-4.5,4.5s-4.5-2-4.5-4.5C432.5,59.2,434.5,57.1,437,57.1L437,57.1z M437,45.8c2.5,0,4.5,2,4.5,4.5s-2,4.5-4.5,4.5
	s-4.5-2-4.5-4.5S434.5,45.8,437,45.8L437,45.8z M437,34.4c2.5,0,4.5,2,4.5,4.5s-2,4.5-4.5,4.5s-4.5-2-4.5-4.5S434.5,34.4,437,34.4
	L437,34.4z M448.4,262c2.5,0,4.5,2,4.5,4.5s-2,4.5-4.5,4.5s-4.5-2-4.5-4.5S445.9,262,448.4,262L448.4,262z M448.4,250.6
	c2.5,0,4.5,2,4.5,4.5s-2,4.5-4.5,4.5s-4.5-2-4.5-4.5S445.9,250.6,448.4,250.6L448.4,250.6z M448.4,193.7c2.5,0,4.5,2,4.5,4.5
	s-2,4.5-4.5,4.5s-4.5-2-4.5-4.5S445.9,193.7,448.4,193.7L448.4,193.7z M448.4,170.9c2.5,0,4.5,2,4.5,4.5s-2,4.5-4.5,4.5
	s-4.5-2-4.5-4.5C443.9,173,445.9,170.9,448.4,170.9L448.4,170.9z M448.4,159.6c2.5,0,4.5,2,4.5,4.5s-2,4.5-4.5,4.5s-4.5-2-4.5-4.5
	S445.9,159.6,448.4,159.6L448.4,159.6z M448.4,148.2c2.5,0,4.5,2,4.5,4.5s-2,4.5-4.5,4.5s-4.5-2-4.5-4.5S445.9,148.2,448.4,148.2
	L448.4,148.2z M448.4,125.4c2.5,0,4.5,2,4.5,4.5c0,2.5-2,4.5-4.5,4.5s-4.5-2-4.5-4.5C443.9,127.4,445.9,125.4,448.4,125.4
	L448.4,125.4z M448.4,114c2.5,0,4.5,2,4.5,4.5s-2,4.5-4.5,4.5s-4.5-2-4.5-4.5C443.9,116.1,445.9,114,448.4,114L448.4,114z
	 M448.4,91.3c2.5,0,4.5,2,4.5,4.5s-2,4.5-4.5,4.5s-4.5-2-4.5-4.5S445.9,91.3,448.4,91.3L448.4,91.3z M448.4,79.9
	c2.5,0,4.5,2,4.5,4.5s-2,4.5-4.5,4.5s-4.5-2-4.5-4.5S445.9,79.9,448.4,79.9L448.4,79.9z M448.4,68.5c2.5,0,4.5,2,4.5,4.5
	s-2,4.5-4.5,4.5s-4.5-2-4.5-4.5S445.9,68.5,448.4,68.5L448.4,68.5z M448.4,57.1c2.5,0,4.5,2,4.5,4.5s-2,4.5-4.5,4.5s-4.5-2-4.5-4.5
	C443.9,59.2,445.9,57.1,448.4,57.1L448.4,57.1z M448.4,45.8c2.5,0,4.5,2,4.5,4.5s-2,4.5-4.5,4.5s-4.5-2-4.5-4.5
	S445.9,45.8,448.4,45.8L448.4,45.8z M448.4,34.4c2.5,0,4.5,2,4.5,4.5s-2,4.5-4.5,4.5s-4.5-2-4.5-4.5S445.9,34.4,448.4,34.4
	L448.4,34.4z M459.8,170.9c2.5,0,4.5,2,4.5,4.5s-2,4.5-4.5,4.5s-4.5-2-4.5-4.5C455.2,173,457.3,170.9,459.8,170.9L459.8,170.9z
	 M459.8,159.6c2.5,0,4.5,2,4.5,4.5s-2,4.5-4.5,4.5s-4.5-2-4.5-4.5C455.2,161.6,457.3,159.6,459.8,159.6L459.8,159.6z M459.8,136.8
	c2.5,0,4.5,2,4.5,4.5s-2,4.5-4.5,4.5s-4.5-2-4.5-4.5C455.2,138.8,457.3,136.8,459.8,136.8L459.8,136.8z M459.8,125.4
	c2.5,0,4.5,2,4.5,4.5c0,2.5-2,4.5-4.5,4.5s-4.5-2-4.5-4.5C455.2,127.4,457.3,125.4,459.8,125.4L459.8,125.4z M459.8,114
	c2.5,0,4.5,2,4.5,4.5s-2,4.5-4.5,4.5s-4.5-2-4.5-4.5C455.2,116.1,457.3,114,459.8,114L459.8,114z M459.8,102.7c2.5,0,4.5,2,4.5,4.5
	s-2,4.5-4.5,4.5s-4.5-2-4.5-4.5C455.2,104.7,457.3,102.7,459.8,102.7L459.8,102.7z M459.8,91.3c2.5,0,4.5,2,4.5,4.5s-2,4.5-4.5,4.5
	s-4.5-2-4.5-4.5C455.2,93.3,457.3,91.3,459.8,91.3L459.8,91.3z M459.8,79.9c2.5,0,4.5,2,4.5,4.5s-2,4.5-4.5,4.5s-4.5-2-4.5-4.5
	C455.2,81.9,457.3,79.9,459.8,79.9L459.8,79.9z M459.8,68.5c2.5,0,4.5,2,4.5,4.5s-2,4.5-4.5,4.5s-4.5-2-4.5-4.5
	C455.2,70.5,457.3,68.5,459.8,68.5L459.8,68.5z M459.8,57.1c2.5,0,4.5,2,4.5,4.5s-2,4.5-4.5,4.5s-4.5-2-4.5-4.5
	C455.2,59.2,457.3,57.1,459.8,57.1L459.8,57.1z M459.8,45.8c2.5,0,4.5,2,4.5,4.5s-2,4.5-4.5,4.5s-4.5-2-4.5-4.5
	C455.2,47.8,457.3,45.8,459.8,45.8L459.8,45.8z M459.8,34.4c2.5,0,4.5,2,4.5,4.5s-2,4.5-4.5,4.5s-4.5-2-4.5-4.5
	C455.2,36.4,457.3,34.4,459.8,34.4L459.8,34.4z M459.8,23c2.5,0,4.5,2,4.5,4.5s-2,4.5-4.5,4.5s-4.5-2-4.5-4.5
	C455.2,25,457.3,23,459.8,23L459.8,23z M471.1,148.2c2.5,0,4.5,2,4.5,4.5s-2,4.5-4.5,4.5s-4.5-2-4.5-4.5S468.6,148.2,471.1,148.2
	L471.1,148.2z M471.1,136.8c2.5,0,4.5,2,4.5,4.5s-2,4.5-4.5,4.5s-4.5-2-4.5-4.5S468.6,136.8,471.1,136.8L471.1,136.8z M471.1,125.4
	c2.5,0,4.5,2,4.5,4.5c0,2.5-2,4.5-4.5,4.5s-4.5-2-4.5-4.5C466.6,127.4,468.6,125.4,471.1,125.4L471.1,125.4z M471.1,114
	c2.5,0,4.5,2,4.5,4.5s-2,4.5-4.5,4.5s-4.5-2-4.5-4.5C466.6,116.1,468.6,114,471.1,114L471.1,114z M471.1,102.7c2.5,0,4.5,2,4.5,4.5
	s-2,4.5-4.5,4.5s-4.5-2-4.5-4.5S468.6,102.7,471.1,102.7L471.1,102.7z M471.1,91.3c2.5,0,4.5,2,4.5,4.5s-2,4.5-4.5,4.5
	s-4.5-2-4.5-4.5S468.6,91.3,471.1,91.3L471.1,91.3z M471.1,79.9c2.5,0,4.5,2,4.5,4.5s-2,4.5-4.5,4.5s-4.5-2-4.5-4.5
	S468.6,79.9,471.1,79.9L471.1,79.9z M471.1,68.5c2.5,0,4.5,2,4.5,4.5s-2,4.5-4.5,4.5s-4.5-2-4.5-4.5S468.6,68.5,471.1,68.5
	L471.1,68.5z M471.1,57.1c2.5,0,4.5,2,4.5,4.5s-2,4.5-4.5,4.5s-4.5-2-4.5-4.5C466.6,59.2,468.6,57.1,471.1,57.1L471.1,57.1z
	 M471.1,45.8c2.5,0,4.5,2,4.5,4.5s-2,4.5-4.5,4.5s-4.5-2-4.5-4.5S468.6,45.8,471.1,45.8L471.1,45.8z M471.1,34.4
	c2.5,0,4.5,2,4.5,4.5s-2,4.5-4.5,4.5s-4.5-2-4.5-4.5S468.6,34.4,471.1,34.4L471.1,34.4z M482.5,136.8c2.5,0,4.5,2,4.5,4.5
	s-2,4.5-4.5,4.5s-4.5-2-4.5-4.5S480,136.8,482.5,136.8L482.5,136.8z M482.5,125.4c2.5,0,4.5,2,4.5,4.5c0,2.5-2,4.5-4.5,4.5
	s-4.5-2-4.5-4.5C478,127.4,480,125.4,482.5,125.4L482.5,125.4z M482.5,114c2.5,0,4.5,2,4.5,4.5s-2,4.5-4.5,4.5s-4.5-2-4.5-4.5
	C478,116.1,480,114,482.5,114L482.5,114z M482.5,102.7c2.5,0,4.5,2,4.5,4.5s-2,4.5-4.5,4.5s-4.5-2-4.5-4.5S480,102.7,482.5,102.7
	L482.5,102.7z M482.5,91.3c2.5,0,4.5,2,4.5,4.5s-2,4.5-4.5,4.5s-4.5-2-4.5-4.5S480,91.3,482.5,91.3L482.5,91.3z M482.5,79.9
	c2.5,0,4.5,2,4.5,4.5s-2,4.5-4.5,4.5s-4.5-2-4.5-4.5S480,79.9,482.5,79.9L482.5,79.9z M482.5,68.5c2.5,0,4.5,2,4.5,4.5
	s-2,4.5-4.5,4.5s-4.5-2-4.5-4.5S480,68.5,482.5,68.5L482.5,68.5z M482.5,57.1c2.5,0,4.5,2,4.5,4.5s-2,4.5-4.5,4.5s-4.5-2-4.5-4.5
	C478,59.2,480,57.1,482.5,57.1L482.5,57.1z M482.5,45.8c2.5,0,4.5,2,4.5,4.5s-2,4.5-4.5,4.5s-4.5-2-4.5-4.5S480,45.8,482.5,45.8
	L482.5,45.8z M482.5,34.4c2.5,0,4.5,2,4.5,4.5s-2,4.5-4.5,4.5s-4.5-2-4.5-4.5S480,34.4,482.5,34.4L482.5,34.4z M482.5,23
	c2.5,0,4.5,2,4.5,4.5s-2,4.5-4.5,4.5s-4.5-2-4.5-4.5S480,23,482.5,23L482.5,23z M493.9,148.2c2.5,0,4.5,2,4.5,4.5s-2,4.5-4.5,4.5
	s-4.5-2-4.5-4.5S491.4,148.2,493.9,148.2L493.9,148.2z M493.9,136.8c2.5,0,4.5,2,4.5,4.5s-2,4.5-4.5,4.5s-4.5-2-4.5-4.5
	S491.4,136.8,493.9,136.8L493.9,136.8z M493.9,125.4c2.5,0,4.5,2,4.5,4.5c0,2.5-2,4.5-4.5,4.5s-4.5-2-4.5-4.5
	C489.4,127.4,491.4,125.4,493.9,125.4L493.9,125.4z M493.9,114c2.5,0,4.5,2,4.5,4.5s-2,4.5-4.5,4.5s-4.5-2-4.5-4.5
	C489.4,116.1,491.4,114,493.9,114L493.9,114z M493.9,102.7c2.5,0,4.5,2,4.5,4.5s-2,4.5-4.5,4.5s-4.5-2-4.5-4.5
	S491.4,102.7,493.9,102.7L493.9,102.7z M493.9,91.3c2.5,0,4.5,2,4.5,4.5s-2,4.5-4.5,4.5s-4.5-2-4.5-4.5S491.4,91.3,493.9,91.3
	L493.9,91.3z M493.9,79.9c2.5,0,4.5,2,4.5,4.5s-2,4.5-4.5,4.5s-4.5-2-4.5-4.5S491.4,79.9,493.9,79.9L493.9,79.9z M493.9,68.5
	c2.5,0,4.5,2,4.5,4.5s-2,4.5-4.5,4.5s-4.5-2-4.5-4.5S491.4,68.5,493.9,68.5L493.9,68.5z M493.9,57.1c2.5,0,4.5,2,4.5,4.5
	s-2,4.5-4.5,4.5s-4.5-2-4.5-4.5C489.4,59.2,491.4,57.1,493.9,57.1L493.9,57.1z M493.9,45.8c2.5,0,4.5,2,4.5,4.5s-2,4.5-4.5,4.5
	s-4.5-2-4.5-4.5S491.4,45.8,493.9,45.8L493.9,45.8z M493.9,34.4c2.5,0,4.5,2,4.5,4.5s-2,4.5-4.5,4.5s-4.5-2-4.5-4.5
	S491.4,34.4,493.9,34.4L493.9,34.4z M493.9,23c2.5,0,4.5,2,4.5,4.5s-2,4.5-4.5,4.5s-4.5-2-4.5-4.5S491.4,23,493.9,23L493.9,23z
	 M505.3,159.6c2.5,0,4.5,2,4.5,4.5s-2,4.5-4.5,4.5s-4.5-2-4.5-4.5S502.8,159.6,505.3,159.6L505.3,159.6z M505.3,148.2
	c2.5,0,4.5,2,4.5,4.5s-2,4.5-4.5,4.5s-4.5-2-4.5-4.5S502.8,148.2,505.3,148.2L505.3,148.2z M505.3,136.8c2.5,0,4.5,2,4.5,4.5
	s-2,4.5-4.5,4.5s-4.5-2-4.5-4.5S502.8,136.8,505.3,136.8L505.3,136.8z M505.3,125.4c2.5,0,4.5,2,4.5,4.5c0,2.5-2,4.5-4.5,4.5
	s-4.5-2-4.5-4.5C500.8,127.4,502.8,125.4,505.3,125.4L505.3,125.4z M505.3,114c2.5,0,4.5,2,4.5,4.5s-2,4.5-4.5,4.5s-4.5-2-4.5-4.5
	C500.8,116.1,502.8,114,505.3,114L505.3,114z M505.3,102.7c2.5,0,4.5,2,4.5,4.5s-2,4.5-4.5,4.5s-4.5-2-4.5-4.5
	S502.8,102.7,505.3,102.7L505.3,102.7z M505.3,91.3c2.5,0,4.5,2,4.5,4.5s-2,4.5-4.5,4.5s-4.5-2-4.5-4.5S502.8,91.3,505.3,91.3
	L505.3,91.3z M505.3,79.9c2.5,0,4.5,2,4.5,4.5s-2,4.5-4.5,4.5s-4.5-2-4.5-4.5S502.8,79.9,505.3,79.9L505.3,79.9z M505.3,68.5
	c2.5,0,4.5,2,4.5,4.5s-2,4.5-4.5,4.5s-4.5-2-4.5-4.5S502.8,68.5,505.3,68.5L505.3,68.5z M505.3,57.1c2.5,0,4.5,2,4.5,4.5
	s-2,4.5-4.5,4.5s-4.5-2-4.5-4.5C500.8,59.2,502.8,57.1,505.3,57.1L505.3,57.1z M505.3,45.8c2.5,0,4.5,2,4.5,4.5s-2,4.5-4.5,4.5
	s-4.5-2-4.5-4.5S502.8,45.8,505.3,45.8L505.3,45.8z M505.3,34.4c2.5,0,4.5,2,4.5,4.5s-2,4.5-4.5,4.5s-4.5-2-4.5-4.5
	S502.8,34.4,505.3,34.4L505.3,34.4z M505.3,23c2.5,0,4.5,2,4.5,4.5s-2,4.5-4.5,4.5s-4.5-2-4.5-4.5S502.8,23,505.3,23L505.3,23z
	 M505.3,11.6c2.5,0,4.5,2,4.5,4.5s-2,4.5-4.5,4.5s-4.5-2-4.5-4.5S502.8,11.6,505.3,11.6L505.3,11.6z M516.7,182.3
	c2.5,0,4.5,2,4.5,4.5s-2,4.5-4.5,4.5s-4.5-2-4.5-4.5C512.1,184.3,514.2,182.3,516.7,182.3L516.7,182.3z M516.7,170.9
	c2.5,0,4.5,2,4.5,4.5s-2,4.5-4.5,4.5s-4.5-2-4.5-4.5C512.1,173,514.2,170.9,516.7,170.9L516.7,170.9z M516.7,159.6
	c2.5,0,4.5,2,4.5,4.5s-2,4.5-4.5,4.5s-4.5-2-4.5-4.5C512.1,161.6,514.2,159.6,516.7,159.6L516.7,159.6z M516.7,148.2
	c2.5,0,4.5,2,4.5,4.5s-2,4.5-4.5,4.5s-4.5-2-4.5-4.5C512.1,150.2,514.2,148.2,516.7,148.2L516.7,148.2z M516.7,136.8
	c2.5,0,4.5,2,4.5,4.5s-2,4.5-4.5,4.5s-4.5-2-4.5-4.5C512.1,138.8,514.2,136.8,516.7,136.8L516.7,136.8z M516.7,125.4
	c2.5,0,4.5,2,4.5,4.5c0,2.5-2,4.5-4.5,4.5s-4.5-2-4.5-4.5C512.1,127.4,514.2,125.4,516.7,125.4L516.7,125.4z M516.7,114
	c2.5,0,4.5,2,4.5,4.5s-2,4.5-4.5,4.5s-4.5-2-4.5-4.5C512.1,116.1,514.2,114,516.7,114L516.7,114z M516.7,102.7c2.5,0,4.5,2,4.5,4.5
	s-2,4.5-4.5,4.5s-4.5-2-4.5-4.5C512.1,104.7,514.2,102.7,516.7,102.7L516.7,102.7z M516.7,91.3c2.5,0,4.5,2,4.5,4.5s-2,4.5-4.5,4.5
	s-4.5-2-4.5-4.5C512.1,93.3,514.2,91.3,516.7,91.3L516.7,91.3z M516.7,79.9c2.5,0,4.5,2,4.5,4.5s-2,4.5-4.5,4.5s-4.5-2-4.5-4.5
	C512.1,81.9,514.2,79.9,516.7,79.9L516.7,79.9z M516.7,68.5c2.5,0,4.5,2,4.5,4.5s-2,4.5-4.5,4.5s-4.5-2-4.5-4.5
	C512.1,70.5,514.2,68.5,516.7,68.5L516.7,68.5z M516.7,57.1c2.5,0,4.5,2,4.5,4.5s-2,4.5-4.5,4.5s-4.5-2-4.5-4.5
	C512.1,59.2,514.2,57.1,516.7,57.1L516.7,57.1z M516.7,45.8c2.5,0,4.5,2,4.5,4.5s-2,4.5-4.5,4.5s-4.5-2-4.5-4.5
	C512.1,47.8,514.2,45.8,516.7,45.8L516.7,45.8z M516.7,34.4c2.5,0,4.5,2,4.5,4.5s-2,4.5-4.5,4.5s-4.5-2-4.5-4.5
	C512.1,36.4,514.2,34.4,516.7,34.4L516.7,34.4z M516.7,23c2.5,0,4.5,2,4.5,4.5s-2,4.5-4.5,4.5s-4.5-2-4.5-4.5
	C512.1,25,514.2,23,516.7,23L516.7,23z M516.7,11.6c2.5,0,4.5,2,4.5,4.5s-2,4.5-4.5,4.5s-4.5-2-4.5-4.5
	C512.1,13.6,514.2,11.6,516.7,11.6L516.7,11.6z M528,182.3c2.5,0,4.5,2,4.5,4.5s-2,4.5-4.5,4.5s-4.5-2-4.5-4.5
	S525.5,182.3,528,182.3L528,182.3z M528,170.9c2.5,0,4.5,2,4.5,4.5s-2,4.5-4.5,4.5s-4.5-2-4.5-4.5C523.5,173,525.5,170.9,528,170.9
	L528,170.9z M528,159.6c2.5,0,4.5,2,4.5,4.5s-2,4.5-4.5,4.5s-4.5-2-4.5-4.5S525.5,159.6,528,159.6L528,159.6z M528,148.2
	c2.5,0,4.5,2,4.5,4.5s-2,4.5-4.5,4.5s-4.5-2-4.5-4.5S525.5,148.2,528,148.2L528,148.2z M528,136.8c2.5,0,4.5,2,4.5,4.5
	s-2,4.5-4.5,4.5s-4.5-2-4.5-4.5S525.5,136.8,528,136.8L528,136.8z M528,125.4c2.5,0,4.5,2,4.5,4.5c0,2.5-2,4.5-4.5,4.5
	s-4.5-2-4.5-4.5C523.5,127.4,525.5,125.4,528,125.4L528,125.4z M528,114c2.5,0,4.5,2,4.5,4.5s-2,4.5-4.5,4.5s-4.5-2-4.5-4.5
	C523.5,116.1,525.5,114,528,114L528,114z M528,102.7c2.5,0,4.5,2,4.5,4.5s-2,4.5-4.5,4.5s-4.5-2-4.5-4.5S525.5,102.7,528,102.7
	L528,102.7z M528,91.3c2.5,0,4.5,2,4.5,4.5s-2,4.5-4.5,4.5s-4.5-2-4.5-4.5S525.5,91.3,528,91.3L528,91.3z M528,79.9
	c2.5,0,4.5,2,4.5,4.5s-2,4.5-4.5,4.5s-4.5-2-4.5-4.5S525.5,79.9,528,79.9L528,79.9z M528,68.5c2.5,0,4.5,2,4.5,4.5s-2,4.5-4.5,4.5
	s-4.5-2-4.5-4.5S525.5,68.5,528,68.5L528,68.5z M528,57.1c2.5,0,4.5,2,4.5,4.5s-2,4.5-4.5,4.5s-4.5-2-4.5-4.5
	C523.5,59.2,525.5,57.1,528,57.1L528,57.1z M528,45.8c2.5,0,4.5,2,4.5,4.5s-2,4.5-4.5,4.5s-4.5-2-4.5-4.5S525.5,45.8,528,45.8
	L528,45.8z M528,34.4c2.5,0,4.5,2,4.5,4.5s-2,4.5-4.5,4.5s-4.5-2-4.5-4.5S525.5,34.4,528,34.4L528,34.4z M528,23
	c2.5,0,4.5,2,4.5,4.5s-2,4.5-4.5,4.5s-4.5-2-4.5-4.5S525.5,23,528,23L528,23z M539.4,159.6c2.5,0,4.5,2,4.5,4.5s-2,4.5-4.5,4.5
	s-4.5-2-4.5-4.5S536.9,159.6,539.4,159.6L539.4,159.6z M539.4,148.2c2.5,0,4.5,2,4.5,4.5s-2,4.5-4.5,4.5s-4.5-2-4.5-4.5
	S536.9,148.2,539.4,148.2L539.4,148.2z M539.4,136.8c2.5,0,4.5,2,4.5,4.5s-2,4.5-4.5,4.5s-4.5-2-4.5-4.5S536.9,136.8,539.4,136.8
	L539.4,136.8z M539.4,125.4c2.5,0,4.5,2,4.5,4.5c0,2.5-2,4.5-4.5,4.5s-4.5-2-4.5-4.5C534.9,127.4,536.9,125.4,539.4,125.4
	L539.4,125.4z M539.4,114c2.5,0,4.5,2,4.5,4.5s-2,4.5-4.5,4.5s-4.5-2-4.5-4.5C534.9,116.1,536.9,114,539.4,114L539.4,114z
	 M539.4,102.7c2.5,0,4.5,2,4.5,4.5s-2,4.5-4.5,4.5s-4.5-2-4.5-4.5S536.9,102.7,539.4,102.7L539.4,102.7z M539.4,91.3
	c2.5,0,4.5,2,4.5,4.5s-2,4.5-4.5,4.5s-4.5-2-4.5-4.5S536.9,91.3,539.4,91.3L539.4,91.3z M539.4,79.9c2.5,0,4.5,2,4.5,4.5
	s-2,4.5-4.5,4.5s-4.5-2-4.5-4.5S536.9,79.9,539.4,79.9L539.4,79.9z M539.4,68.5c2.5,0,4.5,2,4.5,4.5s-2,4.5-4.5,4.5s-4.5-2-4.5-4.5
	S536.9,68.5,539.4,68.5L539.4,68.5z M539.4,57.1c2.5,0,4.5,2,4.5,4.5s-2,4.5-4.5,4.5s-4.5-2-4.5-4.5
	C534.9,59.2,536.9,57.1,539.4,57.1L539.4,57.1z M539.4,45.8c2.5,0,4.5,2,4.5,4.5s-2,4.5-4.5,4.5s-4.5-2-4.5-4.5
	S536.9,45.8,539.4,45.8L539.4,45.8z M539.4,34.4c2.5,0,4.5,2,4.5,4.5s-2,4.5-4.5,4.5s-4.5-2-4.5-4.5S536.9,34.4,539.4,34.4
	L539.4,34.4z M539.4,23c2.5,0,4.5,2,4.5,4.5s-2,4.5-4.5,4.5s-4.5-2-4.5-4.5S536.9,23,539.4,23L539.4,23z M550.8,148.2
	c2.5,0,4.5,2,4.5,4.5s-2,4.5-4.5,4.5s-4.5-2-4.5-4.5S548.3,148.2,550.8,148.2L550.8,148.2z M550.8,136.8c2.5,0,4.5,2,4.5,4.5
	s-2,4.5-4.5,4.5s-4.5-2-4.5-4.5S548.3,136.8,550.8,136.8L550.8,136.8z M550.8,125.4c2.5,0,4.5,2,4.5,4.5c0,2.5-2,4.5-4.5,4.5
	s-4.5-2-4.5-4.5C546.3,127.4,548.3,125.4,550.8,125.4L550.8,125.4z M550.8,114c2.5,0,4.5,2,4.5,4.5s-2,4.5-4.5,4.5s-4.5-2-4.5-4.5
	C546.3,116.1,548.3,114,550.8,114L550.8,114z M550.8,102.7c2.5,0,4.5,2,4.5,4.5s-2,4.5-4.5,4.5s-4.5-2-4.5-4.5
	S548.3,102.7,550.8,102.7L550.8,102.7z M550.8,91.3c2.5,0,4.5,2,4.5,4.5s-2,4.5-4.5,4.5s-4.5-2-4.5-4.5S548.3,91.3,550.8,91.3
	L550.8,91.3z M550.8,79.9c2.5,0,4.5,2,4.5,4.5s-2,4.5-4.5,4.5s-4.5-2-4.5-4.5S548.3,79.9,550.8,79.9L550.8,79.9z M550.8,68.5
	c2.5,0,4.5,2,4.5,4.5s-2,4.5-4.5,4.5s-4.5-2-4.5-4.5S548.3,68.5,550.8,68.5L550.8,68.5z M550.8,57.1c2.5,0,4.5,2,4.5,4.5
	s-2,4.5-4.5,4.5s-4.5-2-4.5-4.5C546.3,59.2,548.3,57.1,550.8,57.1L550.8,57.1z M550.8,45.8c2.5,0,4.5,2,4.5,4.5s-2,4.5-4.5,4.5
	s-4.5-2-4.5-4.5S548.3,45.8,550.8,45.8L550.8,45.8z M550.8,34.4c2.5,0,4.5,2,4.5,4.5s-2,4.5-4.5,4.5s-4.5-2-4.5-4.5
	S548.3,34.4,550.8,34.4L550.8,34.4z M550.8,23c2.5,0,4.5,2,4.5,4.5s-2,4.5-4.5,4.5s-4.5-2-4.5-4.5S548.3,23,550.8,23L550.8,23z
	 M562.2,170.9c2.5,0,4.5,2,4.5,4.5s-2,4.5-4.5,4.5s-4.5-2-4.5-4.5C557.7,173,559.7,170.9,562.2,170.9L562.2,170.9z M562.2,159.6
	c2.5,0,4.5,2,4.5,4.5s-2,4.5-4.5,4.5s-4.5-2-4.5-4.5S559.7,159.6,562.2,159.6L562.2,159.6z M562.2,148.2c2.5,0,4.5,2,4.5,4.5
	s-2,4.5-4.5,4.5s-4.5-2-4.5-4.5S559.7,148.2,562.2,148.2L562.2,148.2z M562.2,136.8c2.5,0,4.5,2,4.5,4.5s-2,4.5-4.5,4.5
	s-4.5-2-4.5-4.5S559.7,136.8,562.2,136.8L562.2,136.8z M562.2,125.4c2.5,0,4.5,2,4.5,4.5c0,2.5-2,4.5-4.5,4.5s-4.5-2-4.5-4.5
	C557.7,127.4,559.7,125.4,562.2,125.4L562.2,125.4z M562.2,114c2.5,0,4.5,2,4.5,4.5s-2,4.5-4.5,4.5s-4.5-2-4.5-4.5
	C557.7,116.1,559.7,114,562.2,114L562.2,114z M562.2,102.7c2.5,0,4.5,2,4.5,4.5s-2,4.5-4.5,4.5s-4.5-2-4.5-4.5
	S559.7,102.7,562.2,102.7L562.2,102.7z M562.2,91.3c2.5,0,4.5,2,4.5,4.5s-2,4.5-4.5,4.5s-4.5-2-4.5-4.5S559.7,91.3,562.2,91.3
	L562.2,91.3z M562.2,79.9c2.5,0,4.5,2,4.5,4.5s-2,4.5-4.5,4.5s-4.5-2-4.5-4.5S559.7,79.9,562.2,79.9L562.2,79.9z M562.2,68.5
	c2.5,0,4.5,2,4.5,4.5s-2,4.5-4.5,4.5s-4.5-2-4.5-4.5S559.7,68.5,562.2,68.5L562.2,68.5z M562.2,57.1c2.5,0,4.5,2,4.5,4.5
	s-2,4.5-4.5,4.5s-4.5-2-4.5-4.5C557.7,59.2,559.7,57.1,562.2,57.1L562.2,57.1z M562.2,45.8c2.5,0,4.5,2,4.5,4.5s-2,4.5-4.5,4.5
	s-4.5-2-4.5-4.5S559.7,45.8,562.2,45.8L562.2,45.8z M562.2,34.4c2.5,0,4.5,2,4.5,4.5s-2,4.5-4.5,4.5s-4.5-2-4.5-4.5
	S559.7,34.4,562.2,34.4L562.2,34.4z M573.6,216.5c2.5,0,4.5,2,4.5,4.5s-2,4.5-4.5,4.5s-4.5-2-4.5-4.5
	C569,218.5,571.1,216.5,573.6,216.5L573.6,216.5z M573.6,205.1c2.5,0,4.5,2,4.5,4.5s-2,4.5-4.5,4.5s-4.5-2-4.5-4.5
	S571.1,205.1,573.6,205.1L573.6,205.1z M573.6,193.7c2.5,0,4.5,2,4.5,4.5s-2,4.5-4.5,4.5s-4.5-2-4.5-4.5
	C569,195.7,571.1,193.7,573.6,193.7L573.6,193.7z M573.6,182.3c2.5,0,4.5,2,4.5,4.5s-2,4.5-4.5,4.5s-4.5-2-4.5-4.5
	C569,184.3,571.1,182.3,573.6,182.3L573.6,182.3z M573.6,170.9c2.5,0,4.5,2,4.5,4.5s-2,4.5-4.5,4.5s-4.5-2-4.5-4.5
	C569,173,571.1,170.9,573.6,170.9L573.6,170.9z M573.6,159.6c2.5,0,4.5,2,4.5,4.5s-2,4.5-4.5,4.5s-4.5-2-4.5-4.5
	C569,161.6,571.1,159.6,573.6,159.6L573.6,159.6z M573.6,148.2c2.5,0,4.5,2,4.5,4.5s-2,4.5-4.5,4.5s-4.5-2-4.5-4.5
	C569,150.2,571.1,148.2,573.6,148.2L573.6,148.2z M573.6,136.8c2.5,0,4.5,2,4.5,4.5s-2,4.5-4.5,4.5s-4.5-2-4.5-4.5
	C569,138.8,571.1,136.8,573.6,136.8L573.6,136.8z M573.6,125.4c2.5,0,4.5,2,4.5,4.5c0,2.5-2,4.5-4.5,4.5s-4.5-2-4.5-4.5
	C569,127.4,571.1,125.4,573.6,125.4L573.6,125.4z M573.6,114c2.5,0,4.5,2,4.5,4.5s-2,4.5-4.5,4.5s-4.5-2-4.5-4.5
	C569,116.1,571.1,114,573.6,114L573.6,114z M573.6,102.7c2.5,0,4.5,2,4.5,4.5s-2,4.5-4.5,4.5s-4.5-2-4.5-4.5
	C569,104.7,571.1,102.7,573.6,102.7L573.6,102.7z M573.6,91.3c2.5,0,4.5,2,4.5,4.5s-2,4.5-4.5,4.5s-4.5-2-4.5-4.5
	C569,93.3,571.1,91.3,573.6,91.3L573.6,91.3z M573.6,79.9c2.5,0,4.5,2,4.5,4.5s-2,4.5-4.5,4.5s-4.5-2-4.5-4.5
	C569,81.9,571.1,79.9,573.6,79.9L573.6,79.9z M573.6,68.5c2.5,0,4.5,2,4.5,4.5s-2,4.5-4.5,4.5s-4.5-2-4.5-4.5
	C569,70.5,571.1,68.5,573.6,68.5L573.6,68.5z M573.6,57.1c2.5,0,4.5,2,4.5,4.5s-2,4.5-4.5,4.5s-4.5-2-4.5-4.5
	C569,59.2,571.1,57.1,573.6,57.1L573.6,57.1z M573.6,45.8c2.5,0,4.5,2,4.5,4.5s-2,4.5-4.5,4.5s-4.5-2-4.5-4.5
	C569,47.8,571.1,45.8,573.6,45.8L573.6,45.8z M573.6,34.4c2.5,0,4.5,2,4.5,4.5s-2,4.5-4.5,4.5s-4.5-2-4.5-4.5
	C569,36.4,571.1,34.4,573.6,34.4L573.6,34.4z M584.9,227.8c2.5,0,4.5,2,4.5,4.5s-2,4.5-4.5,4.5s-4.5-2-4.5-4.5
	C580.4,229.9,582.4,227.8,584.9,227.8L584.9,227.8z M584.9,216.5c2.5,0,4.5,2,4.5,4.5s-2,4.5-4.5,4.5s-4.5-2-4.5-4.5
	S582.4,216.5,584.9,216.5L584.9,216.5z M584.9,205.1c2.5,0,4.5,2,4.5,4.5s-2,4.5-4.5,4.5s-4.5-2-4.5-4.5S582.4,205.1,584.9,205.1
	L584.9,205.1z M584.9,182.3c2.5,0,4.5,2,4.5,4.5s-2,4.5-4.5,4.5s-4.5-2-4.5-4.5S582.4,182.3,584.9,182.3L584.9,182.3z M584.9,170.9
	c2.5,0,4.5,2,4.5,4.5s-2,4.5-4.5,4.5s-4.5-2-4.5-4.5C580.4,173,582.4,170.9,584.9,170.9L584.9,170.9z M584.9,159.6
	c2.5,0,4.5,2,4.5,4.5s-2,4.5-4.5,4.5s-4.5-2-4.5-4.5S582.4,159.6,584.9,159.6L584.9,159.6z M584.9,148.2c2.5,0,4.5,2,4.5,4.5
	s-2,4.5-4.5,4.5s-4.5-2-4.5-4.5S582.4,148.2,584.9,148.2L584.9,148.2z M584.9,136.8c2.5,0,4.5,2,4.5,4.5s-2,4.5-4.5,4.5
	s-4.5-2-4.5-4.5S582.4,136.8,584.9,136.8L584.9,136.8z M584.9,125.4c2.5,0,4.5,2,4.5,4.5c0,2.5-2,4.5-4.5,4.5s-4.5-2-4.5-4.5
	C580.4,127.4,582.4,125.4,584.9,125.4L584.9,125.4z M584.9,114c2.5,0,4.5,2,4.5,4.5s-2,4.5-4.5,4.5s-4.5-2-4.5-4.5
	C580.4,116.1,582.4,114,584.9,114L584.9,114z M584.9,102.7c2.5,0,4.5,2,4.5,4.5s-2,4.5-4.5,4.5s-4.5-2-4.5-4.5
	S582.4,102.7,584.9,102.7L584.9,102.7z M584.9,91.3c2.5,0,4.5,2,4.5,4.5s-2,4.5-4.5,4.5s-4.5-2-4.5-4.5S582.4,91.3,584.9,91.3
	L584.9,91.3z M584.9,79.9c2.5,0,4.5,2,4.5,4.5s-2,4.5-4.5,4.5s-4.5-2-4.5-4.5S582.4,79.9,584.9,79.9L584.9,79.9z M584.9,68.5
	c2.5,0,4.5,2,4.5,4.5s-2,4.5-4.5,4.5s-4.5-2-4.5-4.5S582.4,68.5,584.9,68.5L584.9,68.5z M584.9,57.1c2.5,0,4.5,2,4.5,4.5
	s-2,4.5-4.5,4.5s-4.5-2-4.5-4.5C580.4,59.2,582.4,57.1,584.9,57.1L584.9,57.1z M584.9,45.8c2.5,0,4.5,2,4.5,4.5s-2,4.5-4.5,4.5
	s-4.5-2-4.5-4.5S582.4,45.8,584.9,45.8L584.9,45.8z M584.9,34.4c2.5,0,4.5,2,4.5,4.5s-2,4.5-4.5,4.5s-4.5-2-4.5-4.5
	S582.4,34.4,584.9,34.4L584.9,34.4z M584.9,23c2.5,0,4.5,2,4.5,4.5s-2,4.5-4.5,4.5s-4.5-2-4.5-4.5S582.4,23,584.9,23L584.9,23z
	 M596.3,307.5c2.5,0,4.5,2,4.5,4.5s-2,4.5-4.5,4.5s-4.5-2-4.5-4.5S593.8,307.5,596.3,307.5L596.3,307.5z M596.3,296.1
	c2.5,0,4.5,2,4.5,4.5s-2,4.5-4.5,4.5s-4.5-2-4.5-4.5S593.8,296.1,596.3,296.1L596.3,296.1z M596.3,284.7c2.5,0,4.5,2,4.5,4.5
	s-2,4.5-4.5,4.5s-4.5-2-4.5-4.5C591.8,286.8,593.8,284.7,596.3,284.7L596.3,284.7z M596.3,239.2c2.5,0,4.5,2,4.5,4.5s-2,4.5-4.5,4.5
	s-4.5-2-4.5-4.5S593.8,239.2,596.3,239.2L596.3,239.2z M596.3,182.3c2.5,0,4.5,2,4.5,4.5s-2,4.5-4.5,4.5s-4.5-2-4.5-4.5
	S593.8,182.3,596.3,182.3L596.3,182.3z M596.3,170.9c2.5,0,4.5,2,4.5,4.5s-2,4.5-4.5,4.5s-4.5-2-4.5-4.5
	C591.8,173,593.8,170.9,596.3,170.9L596.3,170.9z M596.3,159.6c2.5,0,4.5,2,4.5,4.5s-2,4.5-4.5,4.5s-4.5-2-4.5-4.5
	S593.8,159.6,596.3,159.6L596.3,159.6z M596.3,148.2c2.5,0,4.5,2,4.5,4.5s-2,4.5-4.5,4.5s-4.5-2-4.5-4.5S593.8,148.2,596.3,148.2
	L596.3,148.2z M596.3,136.8c2.5,0,4.5,2,4.5,4.5s-2,4.5-4.5,4.5s-4.5-2-4.5-4.5S593.8,136.8,596.3,136.8L596.3,136.8z M596.3,125.4
	c2.5,0,4.5,2,4.5,4.5c0,2.5-2,4.5-4.5,4.5s-4.5-2-4.5-4.5C591.8,127.4,593.8,125.4,596.3,125.4L596.3,125.4z M596.3,114
	c2.5,0,4.5,2,4.5,4.5s-2,4.5-4.5,4.5s-4.5-2-4.5-4.5C591.8,116.1,593.8,114,596.3,114L596.3,114z M596.3,102.7c2.5,0,4.5,2,4.5,4.5
	s-2,4.5-4.5,4.5s-4.5-2-4.5-4.5S593.8,102.7,596.3,102.7L596.3,102.7z M596.3,91.3c2.5,0,4.5,2,4.5,4.5s-2,4.5-4.5,4.5
	s-4.5-2-4.5-4.5S593.8,91.3,596.3,91.3L596.3,91.3z M596.3,79.9c2.5,0,4.5,2,4.5,4.5s-2,4.5-4.5,4.5s-4.5-2-4.5-4.5
	S593.8,79.9,596.3,79.9L596.3,79.9z M596.3,68.5c2.5,0,4.5,2,4.5,4.5s-2,4.5-4.5,4.5s-4.5-2-4.5-4.5S593.8,68.5,596.3,68.5
	L596.3,68.5z M596.3,57.1c2.5,0,4.5,2,4.5,4.5s-2,4.5-4.5,4.5s-4.5-2-4.5-4.5C591.8,59.2,593.8,57.1,596.3,57.1L596.3,57.1z
	 M596.3,45.8c2.5,0,4.5,2,4.5,4.5s-2,4.5-4.5,4.5s-4.5-2-4.5-4.5S593.8,45.8,596.3,45.8L596.3,45.8z M596.3,34.4
	c2.5,0,4.5,2,4.5,4.5s-2,4.5-4.5,4.5s-4.5-2-4.5-4.5S593.8,34.4,596.3,34.4L596.3,34.4z M596.3,23c2.5,0,4.5,2,4.5,4.5
	s-2,4.5-4.5,4.5s-4.5-2-4.5-4.5S593.8,23,596.3,23L596.3,23z M607.7,307.5c2.5,0,4.5,2,4.5,4.5s-2,4.5-4.5,4.5s-4.5-2-4.5-4.5
	S605.2,307.5,607.7,307.5L607.7,307.5z M607.7,296.1c2.5,0,4.5,2,4.5,4.5s-2,4.5-4.5,4.5s-4.5-2-4.5-4.5S605.2,296.1,607.7,296.1
	L607.7,296.1z M607.7,284.7c2.5,0,4.5,2,4.5,4.5s-2,4.5-4.5,4.5s-4.5-2-4.5-4.5C603.2,286.8,605.2,284.7,607.7,284.7L607.7,284.7z
	 M607.7,273.4c2.5,0,4.5,2,4.5,4.5s-2,4.5-4.5,4.5s-4.5-2-4.5-4.5S605.2,273.4,607.7,273.4L607.7,273.4z M607.7,239.2
	c2.5,0,4.5,2,4.5,4.5s-2,4.5-4.5,4.5s-4.5-2-4.5-4.5S605.2,239.2,607.7,239.2L607.7,239.2z M607.7,216.5c2.5,0,4.5,2,4.5,4.5
	s-2,4.5-4.5,4.5s-4.5-2-4.5-4.5S605.2,216.5,607.7,216.5L607.7,216.5z M607.7,205.1c2.5,0,4.5,2,4.5,4.5s-2,4.5-4.5,4.5
	s-4.5-2-4.5-4.5S605.2,205.1,607.7,205.1L607.7,205.1z M607.7,148.2c2.5,0,4.5,2,4.5,4.5s-2,4.5-4.5,4.5s-4.5-2-4.5-4.5
	S605.2,148.2,607.7,148.2L607.7,148.2z M607.7,136.8c2.5,0,4.5,2,4.5,4.5s-2,4.5-4.5,4.5s-4.5-2-4.5-4.5S605.2,136.8,607.7,136.8
	L607.7,136.8z M607.7,125.4c2.5,0,4.5,2,4.5,4.5c0,2.5-2,4.5-4.5,4.5s-4.5-2-4.5-4.5C603.2,127.4,605.2,125.4,607.7,125.4
	L607.7,125.4z M607.7,114c2.5,0,4.5,2,4.5,4.5s-2,4.5-4.5,4.5s-4.5-2-4.5-4.5C603.2,116.1,605.2,114,607.7,114L607.7,114z
	 M607.7,102.7c2.5,0,4.5,2,4.5,4.5s-2,4.5-4.5,4.5s-4.5-2-4.5-4.5S605.2,102.7,607.7,102.7L607.7,102.7z M607.7,91.3
	c2.5,0,4.5,2,4.5,4.5s-2,4.5-4.5,4.5s-4.5-2-4.5-4.5S605.2,91.3,607.7,91.3L607.7,91.3z M607.7,79.9c2.5,0,4.5,2,4.5,4.5
	s-2,4.5-4.5,4.5s-4.5-2-4.5-4.5S605.2,79.9,607.7,79.9L607.7,79.9z M607.7,68.5c2.5,0,4.5,2,4.5,4.5s-2,4.5-4.5,4.5s-4.5-2-4.5-4.5
	S605.2,68.5,607.7,68.5L607.7,68.5z M607.7,57.1c2.5,0,4.5,2,4.5,4.5s-2,4.5-4.5,4.5s-4.5-2-4.5-4.5
	C603.2,59.2,605.2,57.1,607.7,57.1L607.7,57.1z M607.7,45.8c2.5,0,4.5,2,4.5,4.5s-2,4.5-4.5,4.5s-4.5-2-4.5-4.5
	S605.2,45.8,607.7,45.8L607.7,45.8z M607.7,34.4c2.5,0,4.5,2,4.5,4.5s-2,4.5-4.5,4.5s-4.5-2-4.5-4.5S605.2,34.4,607.7,34.4
	L607.7,34.4z M619.1,296.1c2.5,0,4.5,2,4.5,4.5s-2,4.5-4.5,4.5s-4.5-2-4.5-4.5S616.6,296.1,619.1,296.1L619.1,296.1z M619.1,284.7
	c2.5,0,4.5,2,4.5,4.5s-2,4.5-4.5,4.5s-4.5-2-4.5-4.5C614.6,286.8,616.6,284.7,619.1,284.7L619.1,284.7z M619.1,273.4
	c2.5,0,4.5,2,4.5,4.5s-2,4.5-4.5,4.5s-4.5-2-4.5-4.5S616.6,273.4,619.1,273.4L619.1,273.4z M619.1,262c2.5,0,4.5,2,4.5,4.5
	s-2,4.5-4.5,4.5s-4.5-2-4.5-4.5S616.6,262,619.1,262L619.1,262z M619.1,239.2c2.5,0,4.5,2,4.5,4.5s-2,4.5-4.5,4.5s-4.5-2-4.5-4.5
	S616.6,239.2,619.1,239.2L619.1,239.2z M619.1,227.8c2.5,0,4.5,2,4.5,4.5s-2,4.5-4.5,4.5s-4.5-2-4.5-4.5
	C614.6,229.9,616.6,227.8,619.1,227.8L619.1,227.8z M619.1,216.5c2.5,0,4.5,2,4.5,4.5s-2,4.5-4.5,4.5s-4.5-2-4.5-4.5
	S616.6,216.5,619.1,216.5L619.1,216.5z M619.1,205.1c2.5,0,4.5,2,4.5,4.5s-2,4.5-4.5,4.5s-4.5-2-4.5-4.5S616.6,205.1,619.1,205.1
	L619.1,205.1z M619.1,193.7c2.5,0,4.5,2,4.5,4.5s-2,4.5-4.5,4.5s-4.5-2-4.5-4.5S616.6,193.7,619.1,193.7L619.1,193.7z M619.1,170.9
	c2.5,0,4.5,2,4.5,4.5s-2,4.5-4.5,4.5s-4.5-2-4.5-4.5C614.6,173,616.6,170.9,619.1,170.9L619.1,170.9z M619.1,148.2
	c2.5,0,4.5,2,4.5,4.5s-2,4.5-4.5,4.5s-4.5-2-4.5-4.5S616.6,148.2,619.1,148.2L619.1,148.2z M619.1,136.8c2.5,0,4.5,2,4.5,4.5
	s-2,4.5-4.5,4.5s-4.5-2-4.5-4.5S616.6,136.8,619.1,136.8L619.1,136.8z M619.1,102.7c2.5,0,4.5,2,4.5,4.5s-2,4.5-4.5,4.5
	s-4.5-2-4.5-4.5S616.6,102.7,619.1,102.7L619.1,102.7z M619.1,91.3c2.5,0,4.5,2,4.5,4.5s-2,4.5-4.5,4.5s-4.5-2-4.5-4.5
	S616.6,91.3,619.1,91.3L619.1,91.3z M619.1,79.9c2.5,0,4.5,2,4.5,4.5s-2,4.5-4.5,4.5s-4.5-2-4.5-4.5S616.6,79.9,619.1,79.9
	L619.1,79.9z M619.1,68.5c2.5,0,4.5,2,4.5,4.5s-2,4.5-4.5,4.5s-4.5-2-4.5-4.5S616.6,68.5,619.1,68.5L619.1,68.5z M619.1,57.1
	c2.5,0,4.5,2,4.5,4.5s-2,4.5-4.5,4.5s-4.5-2-4.5-4.5C614.6,59.2,616.6,57.1,619.1,57.1L619.1,57.1z M619.1,45.8c2.5,0,4.5,2,4.5,4.5
	s-2,4.5-4.5,4.5s-4.5-2-4.5-4.5S616.6,45.8,619.1,45.8L619.1,45.8z M619.1,34.4c2.5,0,4.5,2,4.5,4.5s-2,4.5-4.5,4.5s-4.5-2-4.5-4.5
	S616.6,34.4,619.1,34.4L619.1,34.4z M630.5,296.1c2.5,0,4.5,2,4.5,4.5s-2,4.5-4.5,4.5s-4.5-2-4.5-4.5
	C625.9,298.1,628,296.1,630.5,296.1L630.5,296.1z M630.5,284.7c2.5,0,4.5,2,4.5,4.5s-2,4.5-4.5,4.5s-4.5-2-4.5-4.5
	C625.9,286.8,628,284.7,630.5,284.7L630.5,284.7z M630.5,273.4c2.5,0,4.5,2,4.5,4.5s-2,4.5-4.5,4.5s-4.5-2-4.5-4.5
	C625.9,275.4,628,273.4,630.5,273.4L630.5,273.4z M630.5,262c2.5,0,4.5,2,4.5,4.5s-2,4.5-4.5,4.5s-4.5-2-4.5-4.5S628,262,630.5,262
	L630.5,262z M630.5,239.2c2.5,0,4.5,2,4.5,4.5s-2,4.5-4.5,4.5s-4.5-2-4.5-4.5C625.9,241.2,628,239.2,630.5,239.2L630.5,239.2z
	 M630.5,227.8c2.5,0,4.5,2,4.5,4.5s-2,4.5-4.5,4.5s-4.5-2-4.5-4.5C625.9,229.9,628,227.8,630.5,227.8L630.5,227.8z M630.5,216.5
	c2.5,0,4.5,2,4.5,4.5s-2,4.5-4.5,4.5s-4.5-2-4.5-4.5C625.9,218.5,628,216.5,630.5,216.5L630.5,216.5z M630.5,182.3
	c2.5,0,4.5,2,4.5,4.5s-2,4.5-4.5,4.5s-4.5-2-4.5-4.5C625.9,184.3,628,182.3,630.5,182.3L630.5,182.3z M630.5,170.9
	c2.5,0,4.5,2,4.5,4.5s-2,4.5-4.5,4.5s-4.5-2-4.5-4.5C625.9,173,628,170.9,630.5,170.9L630.5,170.9z M630.5,114c2.5,0,4.5,2,4.5,4.5
	s-2,4.5-4.5,4.5s-4.5-2-4.5-4.5C625.9,116.1,628,114,630.5,114L630.5,114z M630.5,91.3c2.5,0,4.5,2,4.5,4.5s-2,4.5-4.5,4.5
	s-4.5-2-4.5-4.5C625.9,93.3,628,91.3,630.5,91.3L630.5,91.3z M630.5,79.9c2.5,0,4.5,2,4.5,4.5s-2,4.5-4.5,4.5s-4.5-2-4.5-4.5
	C625.9,81.9,628,79.9,630.5,79.9L630.5,79.9z M630.5,57.1c2.5,0,4.5,2,4.5,4.5s-2,4.5-4.5,4.5s-4.5-2-4.5-4.5
	C625.9,59.2,628,57.1,630.5,57.1L630.5,57.1z M630.5,45.8c2.5,0,4.5,2,4.5,4.5s-2,4.5-4.5,4.5s-4.5-2-4.5-4.5
	C625.9,47.8,628,45.8,630.5,45.8L630.5,45.8z M630.5,34.4c2.5,0,4.5,2,4.5,4.5s-2,4.5-4.5,4.5s-4.5-2-4.5-4.5
	C625.9,36.4,628,34.4,630.5,34.4L630.5,34.4z M641.8,307.5c2.5,0,4.5,2,4.5,4.5s-2,4.5-4.5,4.5s-4.5-2-4.5-4.5
	S639.3,307.5,641.8,307.5L641.8,307.5z M641.8,296.1c2.5,0,4.5,2,4.5,4.5s-2,4.5-4.5,4.5s-4.5-2-4.5-4.5S639.3,296.1,641.8,296.1
	L641.8,296.1z M641.8,284.7c2.5,0,4.5,2,4.5,4.5s-2,4.5-4.5,4.5s-4.5-2-4.5-4.5C637.3,286.8,639.3,284.7,641.8,284.7L641.8,284.7z
	 M641.8,273.4c2.5,0,4.5,2,4.5,4.5s-2,4.5-4.5,4.5s-4.5-2-4.5-4.5S639.3,273.4,641.8,273.4L641.8,273.4z M641.8,262
	c2.5,0,4.5,2,4.5,4.5s-2,4.5-4.5,4.5s-4.5-2-4.5-4.5S639.3,262,641.8,262L641.8,262z M641.8,250.6c2.5,0,4.5,2,4.5,4.5
	s-2,4.5-4.5,4.5s-4.5-2-4.5-4.5S639.3,250.6,641.8,250.6L641.8,250.6z M641.8,239.2c2.5,0,4.5,2,4.5,4.5s-2,4.5-4.5,4.5
	s-4.5-2-4.5-4.5S639.3,239.2,641.8,239.2L641.8,239.2z M641.8,216.5c2.5,0,4.5,2,4.5,4.5s-2,4.5-4.5,4.5s-4.5-2-4.5-4.5
	S639.3,216.5,641.8,216.5L641.8,216.5z M641.8,193.7c2.5,0,4.5,2,4.5,4.5s-2,4.5-4.5,4.5s-4.5-2-4.5-4.5S639.3,193.7,641.8,193.7
	L641.8,193.7z M641.8,182.3c2.5,0,4.5,2,4.5,4.5s-2,4.5-4.5,4.5s-4.5-2-4.5-4.5S639.3,182.3,641.8,182.3L641.8,182.3z M641.8,125.4
	c2.5,0,4.5,2,4.5,4.5c0,2.5-2,4.5-4.5,4.5s-4.5-2-4.5-4.5C637.3,127.4,639.3,125.4,641.8,125.4L641.8,125.4z M641.8,79.9
	c2.5,0,4.5,2,4.5,4.5s-2,4.5-4.5,4.5s-4.5-2-4.5-4.5S639.3,79.9,641.8,79.9L641.8,79.9z M641.8,45.8c2.5,0,4.5,2,4.5,4.5
	s-2,4.5-4.5,4.5s-4.5-2-4.5-4.5S639.3,45.8,641.8,45.8L641.8,45.8z M641.8,34.4c2.5,0,4.5,2,4.5,4.5s-2,4.5-4.5,4.5s-4.5-2-4.5-4.5
	S639.3,34.4,641.8,34.4L641.8,34.4z M653.2,318.9c2.5,0,4.5,2,4.5,4.5s-2,4.5-4.5,4.5s-4.5-2-4.5-4.5S650.7,318.9,653.2,318.9
	L653.2,318.9z M653.2,307.5c2.5,0,4.5,2,4.5,4.5s-2,4.5-4.5,4.5s-4.5-2-4.5-4.5S650.7,307.5,653.2,307.5L653.2,307.5z M653.2,296.1
	c2.5,0,4.5,2,4.5,4.5s-2,4.5-4.5,4.5s-4.5-2-4.5-4.5S650.7,296.1,653.2,296.1L653.2,296.1z M653.2,284.7c2.5,0,4.5,2,4.5,4.5
	s-2,4.5-4.5,4.5s-4.5-2-4.5-4.5C648.7,286.8,650.7,284.7,653.2,284.7L653.2,284.7z M653.2,273.4c2.5,0,4.5,2,4.5,4.5s-2,4.5-4.5,4.5
	s-4.5-2-4.5-4.5S650.7,273.4,653.2,273.4L653.2,273.4z M653.2,262c2.5,0,4.5,2,4.5,4.5s-2,4.5-4.5,4.5s-4.5-2-4.5-4.5
	S650.7,262,653.2,262L653.2,262z M653.2,216.5c2.5,0,4.5,2,4.5,4.5s-2,4.5-4.5,4.5s-4.5-2-4.5-4.5S650.7,216.5,653.2,216.5
	L653.2,216.5z M653.2,114c2.5,0,4.5,2,4.5,4.5s-2,4.5-4.5,4.5s-4.5-2-4.5-4.5C648.7,116.1,650.7,114,653.2,114L653.2,114z
	 M653.2,102.7c2.5,0,4.5,2,4.5,4.5s-2,4.5-4.5,4.5s-4.5-2-4.5-4.5S650.7,102.7,653.2,102.7L653.2,102.7z M653.2,91.3
	c2.5,0,4.5,2,4.5,4.5s-2,4.5-4.5,4.5s-4.5-2-4.5-4.5S650.7,91.3,653.2,91.3L653.2,91.3z M653.2,57.1c2.5,0,4.5,2,4.5,4.5
	s-2,4.5-4.5,4.5s-4.5-2-4.5-4.5C648.7,59.2,650.7,57.1,653.2,57.1L653.2,57.1z M653.2,45.8c2.5,0,4.5,2,4.5,4.5s-2,4.5-4.5,4.5
	s-4.5-2-4.5-4.5S650.7,45.8,653.2,45.8L653.2,45.8z M653.2,34.4c2.5,0,4.5,2,4.5,4.5s-2,4.5-4.5,4.5s-4.5-2-4.5-4.5
	S650.7,34.4,653.2,34.4L653.2,34.4z M664.6,307.5c2.5,0,4.5,2,4.5,4.5s-2,4.5-4.5,4.5s-4.5-2-4.5-4.5S662.1,307.5,664.6,307.5
	L664.6,307.5z M664.6,296.1c2.5,0,4.5,2,4.5,4.5s-2,4.5-4.5,4.5s-4.5-2-4.5-4.5S662.1,296.1,664.6,296.1L664.6,296.1z M664.6,284.7
	c2.5,0,4.5,2,4.5,4.5s-2,4.5-4.5,4.5s-4.5-2-4.5-4.5C660.1,286.8,662.1,284.7,664.6,284.7L664.6,284.7z M664.6,273.4
	c2.5,0,4.5,2,4.5,4.5s-2,4.5-4.5,4.5s-4.5-2-4.5-4.5S662.1,273.4,664.6,273.4L664.6,273.4z M664.6,262c2.5,0,4.5,2,4.5,4.5
	s-2,4.5-4.5,4.5s-4.5-2-4.5-4.5S662.1,262,664.6,262L664.6,262z M664.6,250.6c2.5,0,4.5,2,4.5,4.5s-2,4.5-4.5,4.5s-4.5-2-4.5-4.5
	S662.1,250.6,664.6,250.6L664.6,250.6z M664.6,227.8c2.5,0,4.5,2,4.5,4.5s-2,4.5-4.5,4.5s-4.5-2-4.5-4.5
	C660.1,229.9,662.1,227.8,664.6,227.8L664.6,227.8z M664.6,216.5c2.5,0,4.5,2,4.5,4.5s-2,4.5-4.5,4.5s-4.5-2-4.5-4.5
	S662.1,216.5,664.6,216.5L664.6,216.5z M664.6,68.5c2.5,0,4.5,2,4.5,4.5s-2,4.5-4.5,4.5s-4.5-2-4.5-4.5S662.1,68.5,664.6,68.5
	L664.6,68.5z M664.6,57.1c2.5,0,4.5,2,4.5,4.5s-2,4.5-4.5,4.5s-4.5-2-4.5-4.5C660.1,59.2,662.1,57.1,664.6,57.1L664.6,57.1z
	 M664.6,45.8c2.5,0,4.5,2,4.5,4.5s-2,4.5-4.5,4.5s-4.5-2-4.5-4.5S662.1,45.8,664.6,45.8L664.6,45.8z M664.6,34.4
	c2.5,0,4.5,2,4.5,4.5s-2,4.5-4.5,4.5s-4.5-2-4.5-4.5S662.1,34.4,664.6,34.4L664.6,34.4z M676,296.1c2.5,0,4.5,2,4.5,4.5
	s-2,4.5-4.5,4.5s-4.5-2-4.5-4.5S673.5,296.1,676,296.1L676,296.1z M676,284.7c2.5,0,4.5,2,4.5,4.5s-2,4.5-4.5,4.5s-4.5-2-4.5-4.5
	C671.5,286.8,673.5,284.7,676,284.7L676,284.7z M676,273.4c2.5,0,4.5,2,4.5,4.5s-2,4.5-4.5,4.5s-4.5-2-4.5-4.5
	S673.5,273.4,676,273.4L676,273.4z M676,239.2c2.5,0,4.5,2,4.5,4.5s-2,4.5-4.5,4.5s-4.5-2-4.5-4.5S673.5,239.2,676,239.2L676,239.2z
	 M676,227.8c2.5,0,4.5,2,4.5,4.5s-2,4.5-4.5,4.5s-4.5-2-4.5-4.5C671.5,229.9,673.5,227.8,676,227.8L676,227.8z M676,45.8
	c2.5,0,4.5,2,4.5,4.5s-2,4.5-4.5,4.5s-4.5-2-4.5-4.5S673.5,45.8,676,45.8L676,45.8z M676,34.4c2.5,0,4.5,2,4.5,4.5s-2,4.5-4.5,4.5
	s-4.5-2-4.5-4.5S673.5,34.4,676,34.4L676,34.4z M687.4,341.6c2.5,0,4.5,2,4.5,4.5s-2,4.5-4.5,4.5s-4.5-2-4.5-4.5
	C682.8,343.7,684.9,341.6,687.4,341.6L687.4,341.6z M687.4,239.2c2.5,0,4.5,2,4.5,4.5s-2,4.5-4.5,4.5s-4.5-2-4.5-4.5
	C682.8,241.2,684.9,239.2,687.4,239.2L687.4,239.2z M687.4,227.8c2.5,0,4.5,2,4.5,4.5s-2,4.5-4.5,4.5s-4.5-2-4.5-4.5
	C682.8,229.9,684.9,227.8,687.4,227.8L687.4,227.8z M698.7,341.6c2.5,0,4.5,2,4.5,4.5s-2,4.5-4.5,4.5s-4.5-2-4.5-4.5
	C694.2,343.7,696.2,341.6,698.7,341.6L698.7,341.6z M698.7,239.2c2.5,0,4.5,2,4.5,4.5s-2,4.5-4.5,4.5s-4.5-2-4.5-4.5
	S696.2,239.2,698.7,239.2L698.7,239.2z M710.1,330.3c2.5,0,4.5,2,4.5,4.5s-2,4.5-4.5,4.5s-4.5-2-4.5-4.5S707.6,330.3,710.1,330.3
	L710.1,330.3z M710.1,227.8c2.5,0,4.5,2,4.5,4.5s-2,4.5-4.5,4.5s-4.5-2-4.5-4.5C705.6,229.9,707.6,227.8,710.1,227.8L710.1,227.8z
	 M721.5,318.9c2.5,0,4.5,2,4.5,4.5s-2,4.5-4.5,4.5s-4.5-2-4.5-4.5S719,318.9,721.5,318.9L721.5,318.9z"/>
</svg>
