<?xml version="1.0" encoding="utf-8"?>
<!-- Generator: Adobe Illustrator 19.0.0, SVG Export Plug-In . SVG Version: 6.00 Build 0)  -->
<svg version="1.1" id="Layer_1" xmlns="http://www.w3.org/2000/svg" xmlns:xlink="http://www.w3.org/1999/xlink" x="0px" y="0px"
	 viewBox="-134 379.9 326 83" style="enable-background:new -134 379.9 326 83;" xml:space="preserve">
<style type="text/css">
	.st0{fill:#FFFFFF;}
	.st1{opacity:0.99;}
</style>
<g>
	<g>
		<path class="st0" d="M-92.2,459.2c-20.9,0-37.8-16.9-37.8-37.7c0-20.8,16.9-37.8,37.8-37.8s37.8,16.9,37.8,37.8
			C-54.4,442.4-71.4,459.2-92.2,459.2z M-92.2,385.3c-20,0-36.2,16.2-36.2,36.2s16.2,36.2,36.2,36.2S-56,441.5-56,421.5
			S-72.3,385.3-92.2,385.3z"/>
	</g>
	<path class="st0" d="M-76.2,436.5h-32c-0.4,0-0.8-0.4-0.8-0.8v-28.1c0-4.7,3.8-8.5,8.5-8.5h16.7c4.7,0,8.5,3.8,8.5,8.5v28.1
		C-75.4,436.1-75.7,436.5-76.2,436.5z M-107.4,434.9H-77v-27.3c0-3.8-3.1-6.9-6.9-6.9h-16.7c-3.8,0-6.9,3.1-6.9,6.9L-107.4,434.9
		L-107.4,434.9z"/>
	<path class="st0" d="M-100.8,431.5c-1.9,0-3.4-1.5-3.4-3.4s1.5-3.4,3.4-3.4c1.9,0,3.4,1.5,3.4,3.4S-98.9,431.5-100.8,431.5z
		 M-100.8,426.4c-1,0-1.7,0.8-1.7,1.7c0,1,0.8,1.7,1.7,1.7c0.9,0,1.7-0.8,1.7-1.7C-99.1,427.1-99.8,426.4-100.8,426.4z"/>
	<path class="st0" d="M-83.6,431.5c-1.9,0-3.4-1.5-3.4-3.4s1.5-3.4,3.4-3.4s3.4,1.5,3.4,3.4S-81.8,431.5-83.6,431.5z M-83.6,426.4
		c-1,0-1.7,0.8-1.7,1.7c0,1,0.8,1.7,1.7,1.7s1.7-0.8,1.7-1.7C-81.9,427.1-82.7,426.4-83.6,426.4z"/>
	<path class="st0" d="M-87.3,405H-97c-0.4,0-0.8-0.4-0.8-0.8s0.4-0.8,0.8-0.8h9.7c0.4,0,0.8,0.4,0.8,0.8S-86.9,405-87.3,405z"/>
	<path class="st0" d="M-76.7,444.3c-0.3,0-0.5-0.1-0.7-0.3l-5.2-7.3c-0.3-0.4-0.2-0.9,0.2-1.1c0.4-0.3,0.9-0.2,1.1,0.2l5.2,7.3
		c0.3,0.4,0.2,0.9-0.2,1.1C-76.3,444.3-76.5,444.3-76.7,444.3z"/>
	<path class="st0" d="M-107.8,444.3c-0.2,0-0.3,0-0.5-0.1c-0.4-0.3-0.5-0.8-0.2-1.1l5.2-7.3c0.3-0.4,0.8-0.5,1.1-0.2
		c0.4,0.3,0.5,0.8,0.2,1.1l-5.2,7.3C-107.3,444.2-107.5,444.3-107.8,444.3z"/>
	<path class="st0" d="M-106.5,442.5c-0.2,0-0.3,0-0.5-0.1c-0.4-0.3-0.5-0.8-0.2-1.1l3.9-5.5c0.3-0.4,0.8-0.5,1.1-0.2
		c0.4,0.3,0.5,0.8,0.2,1.1l-3.9,5.5C-106,442.4-106.3,442.5-106.5,442.5z"/>
	<path class="st0" d="M-76.2,411.3h-32c-0.4,0-0.8-0.4-0.8-0.8c0-0.4,0.4-0.8,0.8-0.8h32.1c0.4,0,0.8,0.4,0.8,0.8
		C-75.3,410.9-75.7,411.3-76.2,411.3z"/>
	<path class="st0" d="M-76.2,421.5h-32c-0.4,0-0.8-0.4-0.8-0.8s0.4-0.8,0.8-0.8h32.1c0.4,0,0.8,0.4,0.8,0.8
		C-75.4,421.2-75.7,421.5-76.2,421.5z"/>
	<path class="st0" d="M-100.8,421.5c-0.2,0-0.4-0.1-0.5-0.2c-0.3-0.3-0.4-0.8-0.1-1.1l3.7-4.2c0.3-0.3,0.8-0.4,1.1-0.1
		c0.3,0.3,0.4,0.8,0.1,1.1l-3.7,4.2C-100.4,421.5-100.6,421.5-100.8,421.5z"/>
	<path class="st0" d="M-95.9,421.5c-0.2,0-0.4-0.1-0.5-0.2c-0.3-0.3-0.4-0.8-0.1-1.1l7.4-8.4c0.3-0.3,0.8-0.4,1.1-0.1
		s0.4,0.8,0.1,1.1l-7.4,8.4C-95.5,421.5-95.7,421.5-95.9,421.5z"/>
	<path class="st0" d="M-80.5,439.1h-23.4c-0.4,0-0.8-0.4-0.8-0.8s0.4-0.8,0.8-0.8h23.4c0.4,0,0.8,0.4,0.8,0.8
		S-80.1,439.1-80.5,439.1z"/>
	<path class="st0" d="M-77.9,442.5h-28.6c-0.4,0-0.8-0.4-0.8-0.8s0.4-0.8,0.8-0.8h28.6c0.4,0,0.8,0.4,0.8,0.8
		C-77.1,442.1-77.5,442.5-77.9,442.5z"/>
	<path class="st0" d="M-92.2,454.3c-18.1,0-32.8-14.8-32.8-32.8c0-18.1,14.7-32.9,32.8-32.9s32.8,14.7,32.8,32.8
		C-59.4,439.5-74.1,454.3-92.2,454.3z M-92.2,390.3c-17.2,0-31.2,14-31.2,31.2c0,17.2,14,31.2,31.2,31.2s31.2-14,31.2-31.2
		C-61,404.3-75,390.3-92.2,390.3z"/>
</g>
<g>
	<g class="st1">
		<g>
			<path class="st0" d="M-15.3,403.2c-1.5-0.7-2.9-1-4.4-1c-1.9,0-3.6,0.4-5.2,1.3s-2.8,2.1-3.7,3.7c-0.9,1.6-1.3,3.3-1.3,5.2
				c0,1.9,0.4,3.6,1.3,5.2s2.1,2.8,3.7,3.7s3.3,1.4,5.2,1.4c1.4,0,2.9-0.3,4.4-1c1.5-0.6,2.7-1.5,3.9-2.6l3.4,3.8
				c-1.6,1.6-3.4,2.9-5.5,3.8s-4.2,1.4-6.4,1.4c-2.9,0-5.6-0.7-8-2.1c-2.4-1.4-4.3-3.3-5.7-5.6c-1.4-2.4-2.1-5-2.1-7.9
				c0-2.9,0.7-5.5,2.1-7.9c1.4-2.4,3.3-4.2,5.8-5.6c2.4-1.4,5.1-2,8.1-2c2.2,0,4.3,0.4,6.4,1.3s3.9,2.1,5.3,3.6l-3.4,4.2
				C-12.6,404.9-13.8,403.9-15.3,403.2z"/>
			<path class="st0" d="M12.3,405.8c1.8,1,3.3,2.4,4.3,4.1c1,1.7,1.5,3.8,1.5,6.1c0,2.3-0.5,4.4-1.5,6.2s-2.5,3.2-4.3,4.2
				s-3.9,1.5-6.3,1.5c-2.4,0-4.6-0.5-6.4-1.5c-1.8-1-3.3-2.4-4.3-4.2s-1.5-3.9-1.5-6.2c0-2.3,0.5-4.4,1.5-6.1c1-1.8,2.5-3.2,4.3-4.1
				c1.8-1,4-1.5,6.4-1.5S10.5,404.8,12.3,405.8z M1.2,411.1c-1.2,1.3-1.8,3-1.8,5.1s0.6,3.8,1.8,5.1c1.2,1.3,2.8,1.9,4.8,1.9
				c1.9,0,3.5-0.6,4.7-1.9c1.2-1.3,1.8-3,1.8-5.1s-0.6-3.8-1.8-5.1c-1.2-1.3-2.8-1.9-4.7-1.9C4,409.1,2.4,409.8,1.2,411.1z"/>
			<path class="st0" d="M28.1,395.5c0.6,0.6,0.9,1.4,0.9,2.4s-0.3,1.7-0.9,2.4c-0.6,0.6-1.4,1-2.3,1c-0.9,0-1.7-0.3-2.3-1
				c-0.6-0.6-0.9-1.4-0.9-2.4s0.3-1.8,0.9-2.4c0.6-0.6,1.4-1,2.3-1C26.7,394.6,27.5,394.9,28.1,395.5z M23.1,404.5h5.6v23.2h-5.6
				V404.5z"/>
			<path class="st0" d="M55.9,406.7c1.5,1.6,2.3,3.8,2.3,6.5v14.5h-5.7v-12.8c0-1.6-0.5-2.9-1.4-3.8s-2.2-1.4-3.8-1.4
				c-1.9,0-3.4,0.7-4.4,1.9c-1.1,1.2-1.6,2.8-1.6,4.8v11.4h-5.6v-23.3h5.6v4.3c1.6-3,4.4-4.5,8.3-4.5
				C52.2,404.3,54.3,405.1,55.9,406.7z"/>
			<path class="st0" d="M64.7,397.4h6.6l10,19.5l10-19.5h6.6v30.3h-5.3v-21.8l-9.4,18.6h-3.7L70,405.9v21.7h-5.3V397.4z"/>
			<path class="st0" d="M123.2,407.5c1.9,2.1,2.8,5.1,2.8,8.9c0,0.8,0,1.3,0,1.7h-17.1c0.4,1.6,1.1,2.9,2.3,3.9s2.6,1.4,4.3,1.4
				c1.2,0,2.3-0.2,3.4-0.7c1.1-0.4,2-1.1,2.8-1.9l3,3.2c-1.2,1.3-2.6,2.3-4.2,2.9c-1.7,0.7-3.5,1-5.5,1c-2.4,0-4.5-0.5-6.3-1.5
				s-3.2-2.4-4.2-4.1c-1-1.8-1.5-3.8-1.5-6.1c0-2.3,0.5-4.4,1.5-6.1c1-1.8,2.4-3.2,4.2-4.2s3.8-1.5,6.1-1.5
				C118.5,404.3,121.3,405.4,123.2,407.5z M120.8,414.3c-0.1-1.7-0.6-3.1-1.7-4.1s-2.5-1.5-4.2-1.5c-1.6,0-3,0.5-4.1,1.5
				s-1.8,2.4-2.1,4.1H120.8z"/>
			<path class="st0" d="M144.4,426.2c-1.8,1.1-3.8,1.7-5.8,1.7s-3.6-0.6-4.9-1.8c-1.3-1.2-1.9-2.9-1.9-5.2v-11.3h-3.2v-4.1h3.3v-6.4
				h5.6v6.4h6.6v4.1h-6.6V420c0,1.1,0.2,1.8,0.6,2.3c0.4,0.4,1,0.7,1.8,0.7c0.9,0,2-0.3,3.3-1L144.4,426.2z"/>
			<path class="st0" d="M157.6,405.5c1.3-0.8,2.9-1.2,4.7-1.2v5.5c-2.4-0.1-4.3,0.4-5.7,1.7c-1.4,1.3-2.1,3-2.1,5.1v11.2h-5.6v-23.3
				h5.6v4.5C155.2,407.5,156.2,406.3,157.6,405.5z"/>
			<path class="st0" d="M182.7,405.8c1.8,1,3.3,2.4,4.3,4.1c1,1.8,1.5,3.8,1.5,6.1c0,2.3-0.5,4.4-1.5,6.2s-2.5,3.2-4.3,4.2
				s-3.9,1.5-6.3,1.5s-4.6-0.5-6.4-1.5s-3.3-2.4-4.3-4.2s-1.5-3.9-1.5-6.2c0-2.3,0.5-4.4,1.5-6.1c1-1.8,2.5-3.2,4.3-4.1
				c1.8-1,4-1.5,6.4-1.5C178.7,404.3,180.9,404.8,182.7,405.8z M171.6,411.1c-1.2,1.3-1.8,3-1.8,5.1s0.6,3.8,1.8,5.1
				c1.2,1.3,2.8,1.9,4.8,1.9c1.9,0,3.5-0.6,4.7-1.9c1.2-1.3,1.8-3,1.8-5.1s-0.6-3.8-1.8-5.1c-1.2-1.3-2.8-1.9-4.7-1.9
				C174.4,409.1,172.8,409.8,171.6,411.1z"/>
		</g>
	</g>
	<g>
		<g>
			<path class="st0" d="M-33.8,440.2h1.8v8h-1.8V440.2z"/>
			<path class="st0" d="M-24.1,440.2h1.7v8H-24l-3.9-5.1v5.1h-1.7v-8h1.6l3.9,5.2V440.2z"/>
			<path class="st0" d="M-14.5,440.2h1.7v8h-1.6l-3.9-5.1v5.1H-20v-8h1.6l3.9,5.2V440.2z"/>
			<path class="st0" d="M-4.6,440.6c0.7,0.4,1.2,0.9,1.6,1.5c0.4,0.6,0.6,1.3,0.6,2.1c0,0.8-0.2,1.5-0.6,2.1
				c-0.4,0.6-0.9,1.1-1.6,1.5c-0.7,0.4-1.4,0.5-2.2,0.5c-0.8,0-1.5-0.2-2.2-0.5c-0.7-0.4-1.2-0.9-1.5-1.5c-0.4-0.6-0.6-1.3-0.6-2.1
				s0.2-1.5,0.6-2.1c0.4-0.6,0.9-1.1,1.5-1.5c0.7-0.4,1.4-0.5,2.2-0.5C-5.9,440.1-5.2,440.3-4.6,440.6z M-8,442
				c-0.4,0.2-0.7,0.5-0.9,0.9c-0.2,0.4-0.3,0.8-0.3,1.3s0.1,0.9,0.3,1.3c0.2,0.4,0.5,0.7,0.9,0.9c0.4,0.2,0.8,0.3,1.2,0.3
				s0.8-0.1,1.2-0.3s0.7-0.5,0.9-0.9c0.2-0.4,0.3-0.8,0.3-1.3s-0.1-0.9-0.3-1.3c-0.2-0.4-0.5-0.7-0.9-0.9c-0.4-0.2-0.8-0.3-1.2-0.3
				S-7.6,441.8-8,442z"/>
			<path class="st0" d="M-1.7,440.2h1.9l2.2,6l2.2-6h1.9l-3.2,8H1.4L-1.7,440.2z"/>
			<path class="st0" d="M13.3,448.2l-0.6-1.6H9l-0.6,1.6H6.5l3.5-8h1.9l3.4,8H13.3z M9.5,445.2H12l-1.3-3.1L9.5,445.2z"/>
			<path class="st0" d="M15,440.2h6.7v1.5h-2.4v6.5h-1.8v-6.5H15V440.2z"/>
			<path class="st0" d="M23.2,440.2H25v8h-1.8V440.2z"/>
			<path class="st0" d="M33.3,440.6c0.7,0.4,1.2,0.9,1.5,1.5c0.4,0.6,0.6,1.3,0.6,2.1c0,0.8-0.2,1.5-0.6,2.1
				c-0.4,0.6-0.9,1.1-1.5,1.5c-0.7,0.4-1.4,0.5-2.2,0.5s-1.5-0.2-2.2-0.5c-0.7-0.4-1.2-0.9-1.5-1.5c-0.4-0.6-0.6-1.3-0.6-2.1
				s0.2-1.5,0.6-2.1c0.4-0.6,0.9-1.1,1.5-1.5c0.7-0.4,1.4-0.5,2.2-0.5C31.9,440.1,32.6,440.3,33.3,440.6z M29.9,442
				c-0.4,0.2-0.7,0.5-0.9,0.9c-0.2,0.4-0.3,0.8-0.3,1.3s0.1,0.9,0.3,1.3c0.2,0.4,0.5,0.7,0.9,0.9c0.4,0.2,0.8,0.3,1.2,0.3
				s0.8-0.1,1.2-0.3s0.7-0.5,0.9-0.9c0.2-0.4,0.3-0.8,0.3-1.3s-0.1-0.9-0.3-1.3c-0.2-0.4-0.5-0.7-0.9-0.9c-0.4-0.2-0.8-0.3-1.2-0.3
				S30.3,441.8,29.9,442z"/>
			<path class="st0" d="M42.7,440.2h1.7v8h-1.6l-3.9-5.1v5.1h-1.7v-8h1.6l3.9,5.2V440.2z"/>
			<path class="st0" d="M55.8,440.9c0.6,0.5,0.8,1.2,0.8,2.1c0,0.9-0.3,1.7-0.8,2.2c-0.6,0.5-1.3,0.8-2.4,0.8h-1.6v2.3H50v-8h3.4
				C54.4,440.2,55.2,440.5,55.8,440.9z M54.5,444.1c0.3-0.2,0.4-0.6,0.4-1s-0.1-0.8-0.4-1c-0.3-0.2-0.7-0.3-1.2-0.3h-1.5v2.7h1.5
				C53.8,444.4,54.2,444.3,54.5,444.1z"/>
			<path class="st0" d="M64.2,440.6c0.7,0.4,1.2,0.9,1.5,1.5c0.4,0.6,0.6,1.3,0.6,2.1c0,0.8-0.2,1.5-0.6,2.1
				c-0.4,0.6-0.9,1.1-1.5,1.5c-0.7,0.4-1.4,0.5-2.2,0.5s-1.5-0.2-2.2-0.5c-0.7-0.4-1.2-0.9-1.5-1.5c-0.4-0.6-0.6-1.3-0.6-2.1
				s0.2-1.5,0.6-2.1c0.4-0.6,0.9-1.1,1.5-1.5c0.7-0.4,1.4-0.5,2.2-0.5C62.9,440.1,63.6,440.3,64.2,440.6z M60.8,442
				c-0.4,0.2-0.7,0.5-0.9,0.9c-0.2,0.4-0.3,0.8-0.3,1.3s0.1,0.9,0.3,1.3c0.2,0.4,0.5,0.7,0.9,0.9c0.4,0.2,0.8,0.3,1.2,0.3
				s0.8-0.1,1.2-0.3s0.7-0.5,0.9-0.9c0.2-0.4,0.3-0.8,0.3-1.3s-0.1-0.9-0.3-1.3c-0.2-0.4-0.5-0.7-0.9-0.9c-0.4-0.2-0.8-0.3-1.2-0.3
				S61.2,441.8,60.8,442z"/>
			<path class="st0" d="M77.8,440.2h1.9l-2.7,8h-1.9l-1.7-5.8l-1.7,5.8h-1.9l-2.7-8H69l1.7,6.1l1.7-6.1h1.8l1.7,6.1L77.8,440.2z"/>
			<path class="st0" d="M81.1,440.2h6.1v1.5h-4.3v1.7h3.9v1.5h-3.9v1.8h4.4v1.5h-6.2V440.2z"/>
			<path class="st0" d="M94.2,448.2l-1.2-2.3h-0.2h-1.7v2.3h-1.8v-8h3.5c1,0,1.9,0.2,2.4,0.7c0.6,0.5,0.9,1.2,0.9,2.1
				c0,0.6-0.1,1.1-0.4,1.6c-0.3,0.4-0.6,0.8-1.1,1l1.7,2.6H94.2z M91.1,444.4h1.7c0.5,0,0.9-0.1,1.2-0.3s0.4-0.6,0.4-1
				s-0.1-0.8-0.4-1c-0.3-0.2-0.7-0.3-1.2-0.3h-1.7V444.4z"/>
			<path class="st0" d="M98.2,440.2h6.1v1.5H100v1.7h3.9v1.5H100v1.8h4.4v1.5h-6.2V440.2z"/>
			<path class="st0" d="M112,440.7c0.6,0.3,1.1,0.8,1.5,1.4s0.5,1.3,0.5,2.1c0,0.8-0.2,1.5-0.5,2.1s-0.9,1.1-1.5,1.4
				c-0.6,0.3-1.4,0.5-2.2,0.5h-3.3v-8h3.4C110.6,440.2,111.3,440.4,112,440.7z M111,446.4c0.4-0.2,0.6-0.5,0.8-0.9
				c0.2-0.4,0.3-0.8,0.3-1.3s-0.1-0.9-0.3-1.3c-0.2-0.4-0.5-0.7-0.9-0.9c-0.4-0.2-0.8-0.3-1.2-0.3h-1.6v5h1.6
				C110.3,446.7,110.7,446.6,111,446.4z"/>
			<path class="st0" d="M124.8,440.8c0.5,0.4,0.8,0.8,0.8,1.5c0,0.4-0.1,0.8-0.4,1.1c-0.2,0.3-0.6,0.5-1,0.6
				c0.5,0.1,0.9,0.3,1.2,0.7c0.3,0.4,0.4,0.8,0.4,1.3c0,0.7-0.3,1.2-0.8,1.6s-1.3,0.6-2.2,0.6H119v-8h3.7
				C123.6,440.2,124.3,440.4,124.8,440.8z M123.4,443.2c0.2-0.2,0.3-0.4,0.3-0.7c0-0.3-0.1-0.5-0.3-0.6c-0.2-0.2-0.5-0.2-0.8-0.2
				h-1.8v1.7h1.8C122.9,443.4,123.2,443.4,123.4,443.2z M123.6,446.5c0.2-0.2,0.4-0.4,0.4-0.7c0-0.3-0.1-0.5-0.4-0.7
				c-0.2-0.2-0.6-0.2-1-0.2h-1.8v1.9h1.8C123,446.7,123.3,446.7,123.6,446.5z"/>
			<path class="st0" d="M134.5,440.2l-2.9,5.4v2.6h-1.8v-2.5l-3-5.5h1.8l2,3.6l2-3.6C132.6,440.2,134.5,440.2,134.5,440.2z"/>
			<path class="st0" d="M144,441.9c-0.4-0.2-0.7-0.3-1.1-0.3s-0.9,0.1-1.2,0.3c-0.4,0.2-0.7,0.5-0.9,0.9c-0.2,0.4-0.3,0.8-0.3,1.3
				s0.1,0.9,0.3,1.3c0.2,0.4,0.5,0.7,0.9,0.9s0.8,0.3,1.2,0.3c0.4,0,0.7-0.1,1.1-0.3c0.4-0.2,0.7-0.4,1-0.7l1,1.3
				c-0.4,0.4-0.9,0.8-1.5,1.1c-0.6,0.3-1.2,0.4-1.7,0.4c-0.8,0-1.5-0.2-2.1-0.5c-0.6-0.4-1.1-0.9-1.5-1.5c-0.4-0.6-0.5-1.3-0.5-2.1
				c0-0.8,0.2-1.5,0.6-2.1s0.9-1.1,1.5-1.5c0.7-0.4,1.4-0.5,2.2-0.5c0.6,0,1.2,0.1,1.7,0.4c0.6,0.2,1,0.6,1.4,1l-1.1,1.3
				C144.7,442.4,144.3,442.1,144,441.9z"/>
			<path class="st0" d="M152.6,448.2l-1.3-2.3h-0.2h-1.7v2.3h-1.8v-8h3.5c1,0,1.9,0.2,2.4,0.7c0.6,0.5,0.9,1.2,0.9,2.1
				c0,0.6-0.1,1.1-0.4,1.6c-0.3,0.4-0.6,0.8-1.1,1l1.7,2.6H152.6z M149.5,444.4h1.7c0.5,0,0.9-0.1,1.2-0.3c0.3-0.2,0.4-0.6,0.4-1
				s-0.1-0.8-0.4-1s-0.7-0.3-1.2-0.3h-1.7V444.4z"/>
			<path class="st0" d="M163.2,440.2l-2.9,5.4v2.6h-1.8v-2.5l-3-5.5h1.8l2,3.6l2-3.6C161.3,440.2,163.2,440.2,163.2,440.2z"/>
			<path class="st0" d="M170.4,440.9c0.6,0.5,0.8,1.2,0.8,2.1c0,0.9-0.3,1.7-0.8,2.2c-0.6,0.5-1.3,0.8-2.4,0.8h-1.6v2.3h-1.8v-8h3.4
				C169,440.2,169.8,440.5,170.4,440.9z M169.1,444.1c0.3-0.2,0.4-0.6,0.4-1s-0.1-0.8-0.4-1s-0.7-0.3-1.2-0.3h-1.5v2.7h1.5
				C168.4,444.4,168.8,444.3,169.1,444.1z"/>
			<path class="st0" d="M172.2,440.2h6.7v1.5h-2.4v6.5h-1.8v-6.5h-2.4v-1.5H172.2z"/>
			<path class="st0" d="M185.9,440.6c0.7,0.4,1.2,0.9,1.5,1.5c0.4,0.6,0.6,1.3,0.6,2.1c0,0.8-0.2,1.5-0.6,2.1s-0.9,1.1-1.5,1.5
				c-0.7,0.4-1.4,0.5-2.2,0.5c-0.8,0-1.5-0.2-2.2-0.5c-0.7-0.4-1.2-0.9-1.5-1.5c-0.4-0.6-0.6-1.3-0.6-2.1s0.2-1.5,0.6-2.1
				c0.4-0.6,0.9-1.1,1.5-1.5c0.7-0.4,1.4-0.5,2.2-0.5S185.2,440.3,185.9,440.6z M182.5,442c-0.4,0.2-0.7,0.5-0.9,0.9
				c-0.2,0.4-0.3,0.8-0.3,1.3s0.1,0.9,0.3,1.3c0.2,0.4,0.5,0.7,0.9,0.9c0.4,0.2,0.8,0.3,1.2,0.3c0.4,0,0.8-0.1,1.2-0.3
				c0.4-0.2,0.7-0.5,0.9-0.9c0.2-0.4,0.3-0.8,0.3-1.3s-0.1-0.9-0.3-1.3c-0.2-0.4-0.5-0.7-0.9-0.9c-0.4-0.2-0.8-0.3-1.2-0.3
				S182.9,441.8,182.5,442z"/>
		</g>
	</g>
</g>
</svg>
