<?xml version="1.0" encoding="utf-8"?>
<!-- Generator: Adobe Illustrator 21.1.0, SVG Export Plug-In . SVG Version: 6.00 Build 0)  -->
<svg version="1.1" id="Capa_1" xmlns="http://www.w3.org/2000/svg" xmlns:xlink="http://www.w3.org/1999/xlink" x="0px" y="0px"
	 viewBox="0 0 2000 2020" style="enable-background:new 0 0 2000 2020;" xml:space="preserve">
<style type="text/css">
	.st0{fill:url(#SVGID_1_);}
	.st1{fill:none;}
	.st2{fill:#FFFFFF;}
	.st3{font-family:'CeraPro-Bold';}
	.st4{font-size:66px;}
	.st5{clip-path:url(#SVGID_3_);fill:url(#SVGID_4_);}
	.st6{clip-path:url(#SVGID_6_);fill:url(#SVGID_7_);}
	.st7{clip-path:url(#SVGID_9_);fill:url(#SVGID_10_);}
	.st8{clip-path:url(#SVGID_12_);fill:url(#SVGID_13_);}
	.st9{fill:#FF8E69;}
	.st10{fill:#F56076;}
	.st11{fill:#F5EA5C;}
	.st12{font-size:57px;}
</style>
<linearGradient id="SVGID_1_" gradientUnits="userSpaceOnUse" x1="744.8405" y1="819.9708" x2="1351.1595" y2="1170.0292">
	<stop  offset="0" style="stop-color:#F56076"/>
	<stop  offset="1" style="stop-color:#FF8E69"/>
</linearGradient>
<circle class="st0" cx="1048" cy="995" r="350"/>
<rect x="786.1" y="918.4" class="st1" width="525.7" height="317.1"/>
<text transform="matrix(1 0 0 1 872.7831 967.9287)"><tspan x="0" y="0" class="st2 st3 st4">Total Coins</tspan><tspan x="-29.6" y="79.2" class="st2 st3 st4">400’000 000 </tspan><tspan x="108.3" y="158.4" class="st2 st3 st4">ORR</tspan></text>
<g>
	<defs>
		<path id="SVGID_2_" d="M1706.3,947.4c-6.9,4.7-13,11.8-18,21.3h-0.6v-24.6h-47.4v153.5h47.4v-64.1c0-7.6,0.4-14.5,1.3-20.9
			c0.8-6.3,2.7-11.7,5.5-16.3c2.8-4.5,6.9-8.1,12.2-10.6c5.3-2.5,12.4-3.8,21.5-3.8c3.6,0,7,0.3,10.3,0.8c3.3,0.5,6.6,1.3,10,2.4
			v-43.3c-2.3-0.6-4.8-1.1-7.6-1.3c-2.7-0.2-5.5-0.3-8.2-0.3C1721.9,940.3,1713.2,942.7,1706.3,947.4"/>
	</defs>
	<clipPath id="SVGID_3_">
		<use xlink:href="#SVGID_2_"  style="overflow:visible;"/>
	</clipPath>
	
		<linearGradient id="SVGID_4_" gradientUnits="userSpaceOnUse" x1="202.5687" y1="1459.566" x2="204.0424" y2="1459.566" gradientTransform="matrix(315.4843 -316.7933 -316.7933 -315.4843 399987.3125 525842.8125)">
		<stop  offset="0" style="stop-color:#F56076"/>
		<stop  offset="0.4118" style="stop-color:#F87071"/>
		<stop  offset="1" style="stop-color:#FF8E69"/>
	</linearGradient>
	<polygon class="st5" points="1561.6,1019.3 1694,886.3 1826.9,1018.7 1694.5,1151.7 	"/>
</g>
<g>
	<defs>
		<path id="SVGID_5_" d="M1834.8,947.4c-7,4.7-13,11.8-18,21.3h-0.6v-24.6h-47.4v153.5h47.4v-64.1c0-7.6,0.4-14.5,1.3-20.9
			c0.8-6.3,2.7-11.7,5.5-16.3c2.8-4.5,6.9-8.1,12.2-10.6c5.3-2.5,12.4-3.8,21.5-3.8c3.6,0,7,0.3,10.3,0.8c3.3,0.5,6.6,1.3,10,2.4
			v-43.3c-2.3-0.6-4.8-1.1-7.6-1.3c-2.7-0.2-5.5-0.3-8.2-0.3C1850.5,940.3,1841.8,942.7,1834.8,947.4"/>
	</defs>
	<clipPath id="SVGID_6_">
		<use xlink:href="#SVGID_5_"  style="overflow:visible;"/>
	</clipPath>
	
		<linearGradient id="SVGID_7_" gradientUnits="userSpaceOnUse" x1="202.5687" y1="1459.5005" x2="204.0424" y2="1459.5005" gradientTransform="matrix(315.4843 -316.7933 -316.7933 -315.4843 400031.0938 525886.4375)">
		<stop  offset="0" style="stop-color:#F56076"/>
		<stop  offset="0.4118" style="stop-color:#F87071"/>
		<stop  offset="1" style="stop-color:#FF8E69"/>
	</linearGradient>
	<polygon class="st6" points="1690.1,1019.3 1822.6,886.3 1955.5,1018.7 1823.1,1151.7 	"/>
</g>
<g>
	<defs>
		<path id="SVGID_8_" d="M1456.8,1019c0,44.6,37,80.6,82,78.9c40.9-1.6,74.2-34.9,75.8-75.8c1.7-45-34.3-82-78.9-82
			C1492.1,940.1,1456.8,975.4,1456.8,1019"/>
	</defs>
	<clipPath id="SVGID_9_">
		<use xlink:href="#SVGID_8_"  style="overflow:visible;"/>
	</clipPath>
	
		<linearGradient id="SVGID_10_" gradientUnits="userSpaceOnUse" x1="202.6874" y1="1459.5878" x2="204.1612" y2="1459.5878" gradientTransform="matrix(295.4499 -296.6758 -296.6758 -295.4499 374585.9063 492477.0938)">
		<stop  offset="0" style="stop-color:#F56076"/>
		<stop  offset="0.4118" style="stop-color:#F87071"/>
		<stop  offset="1" style="stop-color:#FF8E69"/>
	</linearGradient>
	<polygon class="st7" points="1377.9,1019.3 1535.4,861.1 1693.6,1018.7 1536,1176.9 	"/>
</g>
<g>
	<defs>
		<path id="SVGID_11_" d="M1526.1,1001.7l0,0.3c-33.8,6.8-48,31.3-48,31.3c17.5,18.5,34.8,26.7,49.8,29.6
			c24.6,4.8,48.4-11.2,54.4-35.5l11.1-45.5c-17.6,4.3-30.5,20-30.5,20c-5.1-0.9-10-1.4-14.6-1.6l0,0c0,0-2.9-18.1-8.8-26.3
			C1539.5,974.1,1530.3,983.5,1526.1,1001.7"/>
	</defs>
	<clipPath id="SVGID_12_">
		<use xlink:href="#SVGID_11_"  style="overflow:visible;"/>
	</clipPath>
	
		<linearGradient id="SVGID_13_" gradientUnits="userSpaceOnUse" x1="202.6094" y1="1445.4636" x2="204.0831" y2="1445.4636" gradientTransform="matrix(0 -60.9244 -60.9244 0 89599.7266 13407.7461)">
		<stop  offset="0" style="stop-color:#F2F2F2"/>
		<stop  offset="0.3701" style="stop-color:#F9F9F9"/>
		<stop  offset="1" style="stop-color:#FFFFFF"/>
	</linearGradient>
	<rect x="1478.1" y="974.1" class="st8" width="115.3" height="93.7"/>
</g>
<circle class="st9" cx="632" cy="520" r="250"/>
<circle class="st10" cx="1457" cy="432" r="325"/>
<circle class="st10" cx="786" cy="1570" r="255"/>
<circle class="st11" cx="352.5" cy="1097.5" r="327.5"/>
<rect x="-148.3" y="918.8" class="st1" width="1002.1" height="1080.1"/>
<text transform="matrix(1 0 0 1 217.4883 968.2788)"><tspan x="0" y="0" class="st9 st3 st4">Soft Cap</tspan><tspan x="-43.8" y="79.2" class="st9 st3 st4">10’000.000</tspan><tspan x="-11.6" y="237.6" class="st9 st3 st4">Hard Cap</tspan><tspan x="-50" y="316.8" class="st9 st3 st4">80’000.000</tspan></text>
<rect x="846.8" y="349.7" class="st1" width="1221.1" height="865.3"/>
<text transform="matrix(1 0 0 1 1185.2803 392.4688)"><tspan x="0" y="0" class="st2 st3 st12">ORR tokens for sale:</tspan><tspan x="29.6" y="68.4" class="st2 st3 st12">260’000 000 ORR</tspan><tspan x="215.5" y="205.2" class="st2 st3 st12">65%</tspan></text>
<rect x="148.7" y="469.7" class="st1" width="966.1" height="855.1"/>
<text transform="matrix(1 0 0 1 466.2217 512.4805)"><tspan x="0" y="0" class="st2 st3 st12">Token Type:</tspan><tspan x="95.9" y="68.4" class="st2 st3 st12">NEP5</tspan></text>
<rect x="326.7" y="1435.8" class="st1" width="918.1" height="858.1"/>
<text transform="matrix(1 0 0 1 720.4165 1546.9883)"><tspan x="0" y="0" class="st2 st3 st12">KYC:</tspan><tspan x="-79.7" y="68.4" class="st2 st3 st12">Obligatory</tspan></text>
<circle class="st9" cx="1510" cy="1561" r="350"/>
<rect x="977.8" y="1458.8" class="st1" width="1065.1" height="831.1"/>
<text transform="matrix(1 0 0 1 1224.1191 1501.5869)"><tspan x="0" y="0" class="st2 st3 st12">Accepted currencies:</tspan><tspan x="108" y="68.4" class="st2 st3 st12">Bitcoin (BTC) </tspan><tspan x="141.8" y="136.8" class="st2 st3 st12"> Neo (</tspan><tspan x="302.2" y="136.8" class="st2 st3 st12">Neo) </tspan></text>
<circle class="st11" cx="1877" cy="682" r="100"/>
<text transform="matrix(1 0 0 1 1586.3984 882.2788)" class="st10 st3 st12">Ticker</text>
</svg>
